%TF.GenerationSoftware,KiCad,Pcbnew,(6.0.7)*%
%TF.CreationDate,2022-08-02T21:04:02-07:00*%
%TF.ProjectId,Bike Flamingo for Itsy Bitsy 5V 16MHz_ USB Power Rev 1,42696b65-2046-46c6-916d-696e676f2066,rev?*%
%TF.SameCoordinates,Original*%
%TF.FileFunction,Drillmap*%
%TF.FilePolarity,Positive*%
%FSLAX45Y45*%
G04 Gerber Fmt 4.5, Leading zero omitted, Abs format (unit mm)*
G04 Created by KiCad (PCBNEW (6.0.7)) date 2022-08-02 21:04:02*
%MOMM*%
%LPD*%
G01*
G04 APERTURE LIST*
%ADD10C,0.100000*%
%ADD11C,0.200000*%
%ADD12C,0.040000*%
%ADD13C,0.075000*%
%ADD14C,0.076200*%
%ADD15C,0.110000*%
G04 APERTURE END LIST*
D10*
X13462000Y-8382000D02*
X13462000Y-13081000D01*
X13335000Y-13208000D02*
G75*
G03*
X13462000Y-13081000I0J127000D01*
G01*
X11811000Y-13208000D02*
X13335000Y-13208000D01*
X11684000Y-13081000D02*
G75*
G03*
X11811000Y-13208000I127000J0D01*
G01*
X11684000Y-13081000D02*
X11684000Y-8382000D01*
X11684000Y-8382000D02*
X13462000Y-8382000D01*
D11*
D12*
X12015850Y-10571800D02*
X12055850Y-10611800D01*
X12055850Y-10571800D02*
X12015850Y-10611800D01*
X12019600Y-8743000D02*
X12059600Y-8783000D01*
X12059600Y-8743000D02*
X12019600Y-8783000D01*
X12121200Y-10241600D02*
X12161200Y-10281600D01*
X12161200Y-10241600D02*
X12121200Y-10281600D01*
X12146600Y-10673400D02*
X12186600Y-10713400D01*
X12186600Y-10673400D02*
X12146600Y-10713400D01*
X12273600Y-11079800D02*
X12313600Y-11119800D01*
X12313600Y-11079800D02*
X12273600Y-11119800D01*
X12629200Y-9708200D02*
X12669200Y-9748200D01*
X12669200Y-9708200D02*
X12629200Y-9748200D01*
X12807000Y-11130600D02*
X12847000Y-11170600D01*
X12847000Y-11130600D02*
X12807000Y-11170600D01*
X12857800Y-10571800D02*
X12897800Y-10611800D01*
X12897800Y-10571800D02*
X12857800Y-10611800D01*
X12865454Y-10309811D02*
X12905454Y-10349811D01*
X12905454Y-10309811D02*
X12865454Y-10349811D01*
X12908600Y-10673400D02*
X12948600Y-10713400D01*
X12948600Y-10673400D02*
X12908600Y-10713400D01*
X13010200Y-11130600D02*
X13050200Y-11170600D01*
X13050200Y-11130600D02*
X13010200Y-11170600D01*
X13061000Y-9911400D02*
X13101000Y-9951400D01*
X13101000Y-9911400D02*
X13061000Y-9951400D01*
X13061000Y-10089200D02*
X13101000Y-10129200D01*
X13101000Y-10089200D02*
X13061000Y-10129200D01*
X13136770Y-9733170D02*
X13176770Y-9773170D01*
X13176770Y-9733170D02*
X13136770Y-9773170D01*
X13162600Y-10089200D02*
X13202600Y-10129200D01*
X13202600Y-10089200D02*
X13162600Y-10129200D01*
D13*
X12528100Y-9154600D02*
G75*
G03*
X12528100Y-9154600I-37500J0D01*
G01*
X12728100Y-9154600D02*
G75*
G03*
X12728100Y-9154600I-37500J0D01*
G01*
D14*
X11811000Y-8470900D02*
X11811000Y-8547100D01*
X11772900Y-8509000D02*
X11849100Y-8509000D01*
X11811000Y-8724900D02*
X11811000Y-8801100D01*
X11772900Y-8763000D02*
X11849100Y-8763000D01*
X11811000Y-8978900D02*
X11811000Y-9055100D01*
X11772900Y-9017000D02*
X11849100Y-9017000D01*
X11811000Y-9232900D02*
X11811000Y-9309100D01*
X11772900Y-9271000D02*
X11849100Y-9271000D01*
X11811000Y-9486900D02*
X11811000Y-9563100D01*
X11772900Y-9525000D02*
X11849100Y-9525000D01*
X11811000Y-9740900D02*
X11811000Y-9817100D01*
X11772900Y-9779000D02*
X11849100Y-9779000D01*
X11811000Y-9994900D02*
X11811000Y-10071100D01*
X11772900Y-10033000D02*
X11849100Y-10033000D01*
X11811000Y-10248900D02*
X11811000Y-10325100D01*
X11772900Y-10287000D02*
X11849100Y-10287000D01*
X11811000Y-10502900D02*
X11811000Y-10579100D01*
X11772900Y-10541000D02*
X11849100Y-10541000D01*
X11811000Y-10756900D02*
X11811000Y-10833100D01*
X11772900Y-10795000D02*
X11849100Y-10795000D01*
X11811000Y-11010900D02*
X11811000Y-11087100D01*
X11772900Y-11049000D02*
X11849100Y-11049000D01*
X11811000Y-11264900D02*
X11811000Y-11341100D01*
X11772900Y-11303000D02*
X11849100Y-11303000D01*
X11811000Y-11518900D02*
X11811000Y-11595100D01*
X11772900Y-11557000D02*
X11849100Y-11557000D01*
X11811000Y-11772900D02*
X11811000Y-11849100D01*
X11772900Y-11811000D02*
X11849100Y-11811000D01*
X13335000Y-8470900D02*
X13335000Y-8547100D01*
X13296900Y-8509000D02*
X13373100Y-8509000D01*
X13335000Y-8724900D02*
X13335000Y-8801100D01*
X13296900Y-8763000D02*
X13373100Y-8763000D01*
X13335000Y-8978900D02*
X13335000Y-9055100D01*
X13296900Y-9017000D02*
X13373100Y-9017000D01*
X13335000Y-9232900D02*
X13335000Y-9309100D01*
X13296900Y-9271000D02*
X13373100Y-9271000D01*
X13335000Y-9486900D02*
X13335000Y-9563100D01*
X13296900Y-9525000D02*
X13373100Y-9525000D01*
X13335000Y-9740900D02*
X13335000Y-9817100D01*
X13296900Y-9779000D02*
X13373100Y-9779000D01*
X13335000Y-9994900D02*
X13335000Y-10071100D01*
X13296900Y-10033000D02*
X13373100Y-10033000D01*
X13335000Y-10248900D02*
X13335000Y-10325100D01*
X13296900Y-10287000D02*
X13373100Y-10287000D01*
X13335000Y-10502900D02*
X13335000Y-10579100D01*
X13296900Y-10541000D02*
X13373100Y-10541000D01*
X13335000Y-10756900D02*
X13335000Y-10833100D01*
X13296900Y-10795000D02*
X13373100Y-10795000D01*
X13335000Y-11010900D02*
X13335000Y-11087100D01*
X13296900Y-11049000D02*
X13373100Y-11049000D01*
X13335000Y-11264900D02*
X13335000Y-11341100D01*
X13296900Y-11303000D02*
X13373100Y-11303000D01*
X13335000Y-11518900D02*
X13335000Y-11595100D01*
X13296900Y-11557000D02*
X13373100Y-11557000D01*
X13335000Y-11772900D02*
X13335000Y-11849100D01*
X13296900Y-11811000D02*
X13373100Y-11811000D01*
D15*
X12230891Y-12230891D02*
X12230891Y-12153109D01*
X12153109Y-12153109D01*
X12153109Y-12230891D01*
X12230891Y-12230891D01*
X12230891Y-12484891D02*
X12230891Y-12407109D01*
X12153109Y-12407109D01*
X12153109Y-12484891D01*
X12230891Y-12484891D01*
X12230891Y-12738891D02*
X12230891Y-12661109D01*
X12153109Y-12661109D01*
X12153109Y-12738891D01*
X12230891Y-12738891D01*
X12230891Y-12992891D02*
X12230891Y-12915109D01*
X12153109Y-12915109D01*
X12153109Y-12992891D01*
X12230891Y-12992891D01*
X12992891Y-12230391D02*
X12992891Y-12152609D01*
X12915109Y-12152609D01*
X12915109Y-12230391D01*
X12992891Y-12230391D01*
X12992891Y-12484391D02*
X12992891Y-12406609D01*
X12915109Y-12406609D01*
X12915109Y-12484391D01*
X12992891Y-12484391D01*
X12992891Y-12738391D02*
X12992891Y-12660609D01*
X12915109Y-12660609D01*
X12915109Y-12738391D01*
X12992891Y-12738391D01*
X12992891Y-12992391D02*
X12992891Y-12914609D01*
X12915109Y-12914609D01*
X12915109Y-12992391D01*
X12992891Y-12992391D01*
D11*
X11936619Y-13523476D02*
X11936619Y-13323476D01*
X11984238Y-13323476D01*
X12012809Y-13333000D01*
X12031857Y-13352048D01*
X12041381Y-13371095D01*
X12050905Y-13409190D01*
X12050905Y-13437762D01*
X12041381Y-13475857D01*
X12031857Y-13494905D01*
X12012809Y-13513952D01*
X11984238Y-13523476D01*
X11936619Y-13523476D01*
X12136619Y-13523476D02*
X12136619Y-13390143D01*
X12136619Y-13428238D02*
X12146143Y-13409190D01*
X12155667Y-13399667D01*
X12174714Y-13390143D01*
X12193762Y-13390143D01*
X12260428Y-13523476D02*
X12260428Y-13390143D01*
X12260428Y-13323476D02*
X12250905Y-13333000D01*
X12260428Y-13342524D01*
X12269952Y-13333000D01*
X12260428Y-13323476D01*
X12260428Y-13342524D01*
X12384238Y-13523476D02*
X12365190Y-13513952D01*
X12355667Y-13494905D01*
X12355667Y-13323476D01*
X12489000Y-13523476D02*
X12469952Y-13513952D01*
X12460428Y-13494905D01*
X12460428Y-13323476D01*
X12717571Y-13523476D02*
X12717571Y-13323476D01*
X12784238Y-13466333D01*
X12850905Y-13323476D01*
X12850905Y-13523476D01*
X13031857Y-13523476D02*
X13031857Y-13418714D01*
X13022333Y-13399667D01*
X13003286Y-13390143D01*
X12965190Y-13390143D01*
X12946143Y-13399667D01*
X13031857Y-13513952D02*
X13012809Y-13523476D01*
X12965190Y-13523476D01*
X12946143Y-13513952D01*
X12936619Y-13494905D01*
X12936619Y-13475857D01*
X12946143Y-13456809D01*
X12965190Y-13447286D01*
X13012809Y-13447286D01*
X13031857Y-13437762D01*
X13127095Y-13390143D02*
X13127095Y-13590143D01*
X13127095Y-13399667D02*
X13146143Y-13390143D01*
X13184238Y-13390143D01*
X13203286Y-13399667D01*
X13212809Y-13409190D01*
X13222333Y-13428238D01*
X13222333Y-13485381D01*
X13212809Y-13504428D01*
X13203286Y-13513952D01*
X13184238Y-13523476D01*
X13146143Y-13523476D01*
X13127095Y-13513952D01*
X13308048Y-13504428D02*
X13317571Y-13513952D01*
X13308048Y-13523476D01*
X13298524Y-13513952D01*
X13308048Y-13504428D01*
X13308048Y-13523476D01*
X13308048Y-13399667D02*
X13317571Y-13409190D01*
X13308048Y-13418714D01*
X13298524Y-13409190D01*
X13308048Y-13399667D01*
X13308048Y-13418714D01*
D12*
X11639000Y-13833000D02*
X11679000Y-13873000D01*
X11679000Y-13833000D02*
X11639000Y-13873000D01*
D11*
X11974714Y-13743476D02*
X11993762Y-13743476D01*
X12012809Y-13753000D01*
X12022333Y-13762524D01*
X12031857Y-13781571D01*
X12041381Y-13819667D01*
X12041381Y-13867286D01*
X12031857Y-13905381D01*
X12022333Y-13924428D01*
X12012809Y-13933952D01*
X11993762Y-13943476D01*
X11974714Y-13943476D01*
X11955667Y-13933952D01*
X11946143Y-13924428D01*
X11936619Y-13905381D01*
X11927095Y-13867286D01*
X11927095Y-13819667D01*
X11936619Y-13781571D01*
X11946143Y-13762524D01*
X11955667Y-13753000D01*
X11974714Y-13743476D01*
X12127095Y-13924428D02*
X12136619Y-13933952D01*
X12127095Y-13943476D01*
X12117571Y-13933952D01*
X12127095Y-13924428D01*
X12127095Y-13943476D01*
X12308048Y-13810143D02*
X12308048Y-13943476D01*
X12260428Y-13733952D02*
X12212809Y-13876809D01*
X12336619Y-13876809D01*
X12450905Y-13743476D02*
X12469952Y-13743476D01*
X12489000Y-13753000D01*
X12498524Y-13762524D01*
X12508048Y-13781571D01*
X12517571Y-13819667D01*
X12517571Y-13867286D01*
X12508048Y-13905381D01*
X12498524Y-13924428D01*
X12489000Y-13933952D01*
X12469952Y-13943476D01*
X12450905Y-13943476D01*
X12431857Y-13933952D01*
X12422333Y-13924428D01*
X12412809Y-13905381D01*
X12403286Y-13867286D01*
X12403286Y-13819667D01*
X12412809Y-13781571D01*
X12422333Y-13762524D01*
X12431857Y-13753000D01*
X12450905Y-13743476D01*
X12641381Y-13743476D02*
X12660428Y-13743476D01*
X12679476Y-13753000D01*
X12689000Y-13762524D01*
X12698524Y-13781571D01*
X12708048Y-13819667D01*
X12708048Y-13867286D01*
X12698524Y-13905381D01*
X12689000Y-13924428D01*
X12679476Y-13933952D01*
X12660428Y-13943476D01*
X12641381Y-13943476D01*
X12622333Y-13933952D01*
X12612809Y-13924428D01*
X12603286Y-13905381D01*
X12593762Y-13867286D01*
X12593762Y-13819667D01*
X12603286Y-13781571D01*
X12612809Y-13762524D01*
X12622333Y-13753000D01*
X12641381Y-13743476D01*
X12793762Y-13943476D02*
X12793762Y-13810143D01*
X12793762Y-13829190D02*
X12803286Y-13819667D01*
X12822333Y-13810143D01*
X12850905Y-13810143D01*
X12869952Y-13819667D01*
X12879476Y-13838714D01*
X12879476Y-13943476D01*
X12879476Y-13838714D02*
X12889000Y-13819667D01*
X12908048Y-13810143D01*
X12936619Y-13810143D01*
X12955667Y-13819667D01*
X12965190Y-13838714D01*
X12965190Y-13943476D01*
X13060428Y-13943476D02*
X13060428Y-13810143D01*
X13060428Y-13829190D02*
X13069952Y-13819667D01*
X13089000Y-13810143D01*
X13117571Y-13810143D01*
X13136619Y-13819667D01*
X13146143Y-13838714D01*
X13146143Y-13943476D01*
X13146143Y-13838714D02*
X13155667Y-13819667D01*
X13174714Y-13810143D01*
X13203286Y-13810143D01*
X13222333Y-13819667D01*
X13231857Y-13838714D01*
X13231857Y-13943476D01*
X13622333Y-13733952D02*
X13450905Y-13991095D01*
X13879476Y-13743476D02*
X13898524Y-13743476D01*
X13917571Y-13753000D01*
X13927095Y-13762524D01*
X13936619Y-13781571D01*
X13946143Y-13819667D01*
X13946143Y-13867286D01*
X13936619Y-13905381D01*
X13927095Y-13924428D01*
X13917571Y-13933952D01*
X13898524Y-13943476D01*
X13879476Y-13943476D01*
X13860428Y-13933952D01*
X13850905Y-13924428D01*
X13841381Y-13905381D01*
X13831857Y-13867286D01*
X13831857Y-13819667D01*
X13841381Y-13781571D01*
X13850905Y-13762524D01*
X13860428Y-13753000D01*
X13879476Y-13743476D01*
X14031857Y-13924428D02*
X14041381Y-13933952D01*
X14031857Y-13943476D01*
X14022333Y-13933952D01*
X14031857Y-13924428D01*
X14031857Y-13943476D01*
X14165190Y-13743476D02*
X14184238Y-13743476D01*
X14203286Y-13753000D01*
X14212809Y-13762524D01*
X14222333Y-13781571D01*
X14231857Y-13819667D01*
X14231857Y-13867286D01*
X14222333Y-13905381D01*
X14212809Y-13924428D01*
X14203286Y-13933952D01*
X14184238Y-13943476D01*
X14165190Y-13943476D01*
X14146143Y-13933952D01*
X14136619Y-13924428D01*
X14127095Y-13905381D01*
X14117571Y-13867286D01*
X14117571Y-13819667D01*
X14127095Y-13781571D01*
X14136619Y-13762524D01*
X14146143Y-13753000D01*
X14165190Y-13743476D01*
X14422333Y-13943476D02*
X14308048Y-13943476D01*
X14365190Y-13943476D02*
X14365190Y-13743476D01*
X14346143Y-13772048D01*
X14327095Y-13791095D01*
X14308048Y-13800619D01*
X14603286Y-13743476D02*
X14508048Y-13743476D01*
X14498524Y-13838714D01*
X14508048Y-13829190D01*
X14527095Y-13819667D01*
X14574714Y-13819667D01*
X14593762Y-13829190D01*
X14603286Y-13838714D01*
X14612809Y-13857762D01*
X14612809Y-13905381D01*
X14603286Y-13924428D01*
X14593762Y-13933952D01*
X14574714Y-13943476D01*
X14527095Y-13943476D01*
X14508048Y-13933952D01*
X14498524Y-13924428D01*
X14679476Y-13743476D02*
X14812809Y-13743476D01*
X14727095Y-13943476D01*
X14879476Y-13743476D02*
X14879476Y-13781571D01*
X14955667Y-13743476D02*
X14955667Y-13781571D01*
X15250905Y-14019667D02*
X15241381Y-14010143D01*
X15222333Y-13981571D01*
X15212809Y-13962524D01*
X15203286Y-13933952D01*
X15193762Y-13886333D01*
X15193762Y-13848238D01*
X15203286Y-13800619D01*
X15212809Y-13772048D01*
X15222333Y-13753000D01*
X15241381Y-13724428D01*
X15250905Y-13714905D01*
X15431857Y-13943476D02*
X15317571Y-13943476D01*
X15374714Y-13943476D02*
X15374714Y-13743476D01*
X15355667Y-13772048D01*
X15336619Y-13791095D01*
X15317571Y-13800619D01*
X15612809Y-13743476D02*
X15517571Y-13743476D01*
X15508048Y-13838714D01*
X15517571Y-13829190D01*
X15536619Y-13819667D01*
X15584238Y-13819667D01*
X15603286Y-13829190D01*
X15612809Y-13838714D01*
X15622333Y-13857762D01*
X15622333Y-13905381D01*
X15612809Y-13924428D01*
X15603286Y-13933952D01*
X15584238Y-13943476D01*
X15536619Y-13943476D01*
X15517571Y-13933952D01*
X15508048Y-13924428D01*
X15860428Y-13943476D02*
X15860428Y-13743476D01*
X15946143Y-13943476D02*
X15946143Y-13838714D01*
X15936619Y-13819667D01*
X15917571Y-13810143D01*
X15889000Y-13810143D01*
X15869952Y-13819667D01*
X15860428Y-13829190D01*
X16069952Y-13943476D02*
X16050905Y-13933952D01*
X16041381Y-13924428D01*
X16031857Y-13905381D01*
X16031857Y-13848238D01*
X16041381Y-13829190D01*
X16050905Y-13819667D01*
X16069952Y-13810143D01*
X16098524Y-13810143D01*
X16117571Y-13819667D01*
X16127095Y-13829190D01*
X16136619Y-13848238D01*
X16136619Y-13905381D01*
X16127095Y-13924428D01*
X16117571Y-13933952D01*
X16098524Y-13943476D01*
X16069952Y-13943476D01*
X16250905Y-13943476D02*
X16231857Y-13933952D01*
X16222333Y-13914905D01*
X16222333Y-13743476D01*
X16403286Y-13933952D02*
X16384238Y-13943476D01*
X16346143Y-13943476D01*
X16327095Y-13933952D01*
X16317571Y-13914905D01*
X16317571Y-13838714D01*
X16327095Y-13819667D01*
X16346143Y-13810143D01*
X16384238Y-13810143D01*
X16403286Y-13819667D01*
X16412809Y-13838714D01*
X16412809Y-13857762D01*
X16317571Y-13876809D01*
X16489000Y-13933952D02*
X16508048Y-13943476D01*
X16546143Y-13943476D01*
X16565190Y-13933952D01*
X16574714Y-13914905D01*
X16574714Y-13905381D01*
X16565190Y-13886333D01*
X16546143Y-13876809D01*
X16517571Y-13876809D01*
X16498524Y-13867286D01*
X16489000Y-13848238D01*
X16489000Y-13838714D01*
X16498524Y-13819667D01*
X16517571Y-13810143D01*
X16546143Y-13810143D01*
X16565190Y-13819667D01*
X16641381Y-14019667D02*
X16650905Y-14010143D01*
X16669952Y-13981571D01*
X16679476Y-13962524D01*
X16689000Y-13933952D01*
X16698524Y-13886333D01*
X16698524Y-13848238D01*
X16689000Y-13800619D01*
X16679476Y-13772048D01*
X16669952Y-13753000D01*
X16650905Y-13724428D01*
X16641381Y-13714905D01*
D13*
X11679000Y-14117000D02*
G75*
G03*
X11679000Y-14117000I-37500J0D01*
G01*
D11*
X11974714Y-14007476D02*
X11993762Y-14007476D01*
X12012809Y-14017000D01*
X12022333Y-14026524D01*
X12031857Y-14045571D01*
X12041381Y-14083667D01*
X12041381Y-14131286D01*
X12031857Y-14169381D01*
X12022333Y-14188428D01*
X12012809Y-14197952D01*
X11993762Y-14207476D01*
X11974714Y-14207476D01*
X11955667Y-14197952D01*
X11946143Y-14188428D01*
X11936619Y-14169381D01*
X11927095Y-14131286D01*
X11927095Y-14083667D01*
X11936619Y-14045571D01*
X11946143Y-14026524D01*
X11955667Y-14017000D01*
X11974714Y-14007476D01*
X12127095Y-14188428D02*
X12136619Y-14197952D01*
X12127095Y-14207476D01*
X12117571Y-14197952D01*
X12127095Y-14188428D01*
X12127095Y-14207476D01*
X12203286Y-14007476D02*
X12336619Y-14007476D01*
X12250905Y-14207476D01*
X12508048Y-14007476D02*
X12412809Y-14007476D01*
X12403286Y-14102714D01*
X12412809Y-14093190D01*
X12431857Y-14083667D01*
X12479476Y-14083667D01*
X12498524Y-14093190D01*
X12508048Y-14102714D01*
X12517571Y-14121762D01*
X12517571Y-14169381D01*
X12508048Y-14188428D01*
X12498524Y-14197952D01*
X12479476Y-14207476D01*
X12431857Y-14207476D01*
X12412809Y-14197952D01*
X12403286Y-14188428D01*
X12641381Y-14007476D02*
X12660428Y-14007476D01*
X12679476Y-14017000D01*
X12689000Y-14026524D01*
X12698524Y-14045571D01*
X12708048Y-14083667D01*
X12708048Y-14131286D01*
X12698524Y-14169381D01*
X12689000Y-14188428D01*
X12679476Y-14197952D01*
X12660428Y-14207476D01*
X12641381Y-14207476D01*
X12622333Y-14197952D01*
X12612809Y-14188428D01*
X12603286Y-14169381D01*
X12593762Y-14131286D01*
X12593762Y-14083667D01*
X12603286Y-14045571D01*
X12612809Y-14026524D01*
X12622333Y-14017000D01*
X12641381Y-14007476D01*
X12793762Y-14207476D02*
X12793762Y-14074143D01*
X12793762Y-14093190D02*
X12803286Y-14083667D01*
X12822333Y-14074143D01*
X12850905Y-14074143D01*
X12869952Y-14083667D01*
X12879476Y-14102714D01*
X12879476Y-14207476D01*
X12879476Y-14102714D02*
X12889000Y-14083667D01*
X12908048Y-14074143D01*
X12936619Y-14074143D01*
X12955667Y-14083667D01*
X12965190Y-14102714D01*
X12965190Y-14207476D01*
X13060428Y-14207476D02*
X13060428Y-14074143D01*
X13060428Y-14093190D02*
X13069952Y-14083667D01*
X13089000Y-14074143D01*
X13117571Y-14074143D01*
X13136619Y-14083667D01*
X13146143Y-14102714D01*
X13146143Y-14207476D01*
X13146143Y-14102714D02*
X13155667Y-14083667D01*
X13174714Y-14074143D01*
X13203286Y-14074143D01*
X13222333Y-14083667D01*
X13231857Y-14102714D01*
X13231857Y-14207476D01*
X13622333Y-13997952D02*
X13450905Y-14255095D01*
X13879476Y-14007476D02*
X13898524Y-14007476D01*
X13917571Y-14017000D01*
X13927095Y-14026524D01*
X13936619Y-14045571D01*
X13946143Y-14083667D01*
X13946143Y-14131286D01*
X13936619Y-14169381D01*
X13927095Y-14188428D01*
X13917571Y-14197952D01*
X13898524Y-14207476D01*
X13879476Y-14207476D01*
X13860428Y-14197952D01*
X13850905Y-14188428D01*
X13841381Y-14169381D01*
X13831857Y-14131286D01*
X13831857Y-14083667D01*
X13841381Y-14045571D01*
X13850905Y-14026524D01*
X13860428Y-14017000D01*
X13879476Y-14007476D01*
X14031857Y-14188428D02*
X14041381Y-14197952D01*
X14031857Y-14207476D01*
X14022333Y-14197952D01*
X14031857Y-14188428D01*
X14031857Y-14207476D01*
X14165190Y-14007476D02*
X14184238Y-14007476D01*
X14203286Y-14017000D01*
X14212809Y-14026524D01*
X14222333Y-14045571D01*
X14231857Y-14083667D01*
X14231857Y-14131286D01*
X14222333Y-14169381D01*
X14212809Y-14188428D01*
X14203286Y-14197952D01*
X14184238Y-14207476D01*
X14165190Y-14207476D01*
X14146143Y-14197952D01*
X14136619Y-14188428D01*
X14127095Y-14169381D01*
X14117571Y-14131286D01*
X14117571Y-14083667D01*
X14127095Y-14045571D01*
X14136619Y-14026524D01*
X14146143Y-14017000D01*
X14165190Y-14007476D01*
X14308048Y-14026524D02*
X14317571Y-14017000D01*
X14336619Y-14007476D01*
X14384238Y-14007476D01*
X14403286Y-14017000D01*
X14412809Y-14026524D01*
X14422333Y-14045571D01*
X14422333Y-14064619D01*
X14412809Y-14093190D01*
X14298524Y-14207476D01*
X14422333Y-14207476D01*
X14517571Y-14207476D02*
X14555667Y-14207476D01*
X14574714Y-14197952D01*
X14584238Y-14188428D01*
X14603286Y-14159857D01*
X14612809Y-14121762D01*
X14612809Y-14045571D01*
X14603286Y-14026524D01*
X14593762Y-14017000D01*
X14574714Y-14007476D01*
X14536619Y-14007476D01*
X14517571Y-14017000D01*
X14508048Y-14026524D01*
X14498524Y-14045571D01*
X14498524Y-14093190D01*
X14508048Y-14112238D01*
X14517571Y-14121762D01*
X14536619Y-14131286D01*
X14574714Y-14131286D01*
X14593762Y-14121762D01*
X14603286Y-14112238D01*
X14612809Y-14093190D01*
X14793762Y-14007476D02*
X14698524Y-14007476D01*
X14689000Y-14102714D01*
X14698524Y-14093190D01*
X14717571Y-14083667D01*
X14765190Y-14083667D01*
X14784238Y-14093190D01*
X14793762Y-14102714D01*
X14803286Y-14121762D01*
X14803286Y-14169381D01*
X14793762Y-14188428D01*
X14784238Y-14197952D01*
X14765190Y-14207476D01*
X14717571Y-14207476D01*
X14698524Y-14197952D01*
X14689000Y-14188428D01*
X14879476Y-14007476D02*
X14879476Y-14045571D01*
X14955667Y-14007476D02*
X14955667Y-14045571D01*
X15250905Y-14283667D02*
X15241381Y-14274143D01*
X15222333Y-14245571D01*
X15212809Y-14226524D01*
X15203286Y-14197952D01*
X15193762Y-14150333D01*
X15193762Y-14112238D01*
X15203286Y-14064619D01*
X15212809Y-14036048D01*
X15222333Y-14017000D01*
X15241381Y-13988428D01*
X15250905Y-13978905D01*
X15317571Y-14026524D02*
X15327095Y-14017000D01*
X15346143Y-14007476D01*
X15393762Y-14007476D01*
X15412809Y-14017000D01*
X15422333Y-14026524D01*
X15431857Y-14045571D01*
X15431857Y-14064619D01*
X15422333Y-14093190D01*
X15308048Y-14207476D01*
X15431857Y-14207476D01*
X15669952Y-14207476D02*
X15669952Y-14007476D01*
X15755667Y-14207476D02*
X15755667Y-14102714D01*
X15746143Y-14083667D01*
X15727095Y-14074143D01*
X15698524Y-14074143D01*
X15679476Y-14083667D01*
X15669952Y-14093190D01*
X15879476Y-14207476D02*
X15860428Y-14197952D01*
X15850905Y-14188428D01*
X15841381Y-14169381D01*
X15841381Y-14112238D01*
X15850905Y-14093190D01*
X15860428Y-14083667D01*
X15879476Y-14074143D01*
X15908048Y-14074143D01*
X15927095Y-14083667D01*
X15936619Y-14093190D01*
X15946143Y-14112238D01*
X15946143Y-14169381D01*
X15936619Y-14188428D01*
X15927095Y-14197952D01*
X15908048Y-14207476D01*
X15879476Y-14207476D01*
X16060428Y-14207476D02*
X16041381Y-14197952D01*
X16031857Y-14178905D01*
X16031857Y-14007476D01*
X16212809Y-14197952D02*
X16193762Y-14207476D01*
X16155667Y-14207476D01*
X16136619Y-14197952D01*
X16127095Y-14178905D01*
X16127095Y-14102714D01*
X16136619Y-14083667D01*
X16155667Y-14074143D01*
X16193762Y-14074143D01*
X16212809Y-14083667D01*
X16222333Y-14102714D01*
X16222333Y-14121762D01*
X16127095Y-14140809D01*
X16298524Y-14197952D02*
X16317571Y-14207476D01*
X16355667Y-14207476D01*
X16374714Y-14197952D01*
X16384238Y-14178905D01*
X16384238Y-14169381D01*
X16374714Y-14150333D01*
X16355667Y-14140809D01*
X16327095Y-14140809D01*
X16308048Y-14131286D01*
X16298524Y-14112238D01*
X16298524Y-14102714D01*
X16308048Y-14083667D01*
X16327095Y-14074143D01*
X16355667Y-14074143D01*
X16374714Y-14083667D01*
X16450905Y-14283667D02*
X16460428Y-14274143D01*
X16479476Y-14245571D01*
X16489000Y-14226524D01*
X16498524Y-14197952D01*
X16508048Y-14150333D01*
X16508048Y-14112238D01*
X16498524Y-14064619D01*
X16489000Y-14036048D01*
X16479476Y-14017000D01*
X16460428Y-13988428D01*
X16450905Y-13978905D01*
D14*
X11640900Y-14342900D02*
X11640900Y-14419100D01*
X11602800Y-14381000D02*
X11679000Y-14381000D01*
D11*
X11974714Y-14271476D02*
X11993762Y-14271476D01*
X12012809Y-14281000D01*
X12022333Y-14290524D01*
X12031857Y-14309571D01*
X12041381Y-14347667D01*
X12041381Y-14395286D01*
X12031857Y-14433381D01*
X12022333Y-14452428D01*
X12012809Y-14461952D01*
X11993762Y-14471476D01*
X11974714Y-14471476D01*
X11955667Y-14461952D01*
X11946143Y-14452428D01*
X11936619Y-14433381D01*
X11927095Y-14395286D01*
X11927095Y-14347667D01*
X11936619Y-14309571D01*
X11946143Y-14290524D01*
X11955667Y-14281000D01*
X11974714Y-14271476D01*
X12127095Y-14452428D02*
X12136619Y-14461952D01*
X12127095Y-14471476D01*
X12117571Y-14461952D01*
X12127095Y-14452428D01*
X12127095Y-14471476D01*
X12203286Y-14271476D02*
X12336619Y-14271476D01*
X12250905Y-14471476D01*
X12498524Y-14271476D02*
X12460428Y-14271476D01*
X12441381Y-14281000D01*
X12431857Y-14290524D01*
X12412809Y-14319095D01*
X12403286Y-14357190D01*
X12403286Y-14433381D01*
X12412809Y-14452428D01*
X12422333Y-14461952D01*
X12441381Y-14471476D01*
X12479476Y-14471476D01*
X12498524Y-14461952D01*
X12508048Y-14452428D01*
X12517571Y-14433381D01*
X12517571Y-14385762D01*
X12508048Y-14366714D01*
X12498524Y-14357190D01*
X12479476Y-14347667D01*
X12441381Y-14347667D01*
X12422333Y-14357190D01*
X12412809Y-14366714D01*
X12403286Y-14385762D01*
X12593762Y-14290524D02*
X12603286Y-14281000D01*
X12622333Y-14271476D01*
X12669952Y-14271476D01*
X12689000Y-14281000D01*
X12698524Y-14290524D01*
X12708048Y-14309571D01*
X12708048Y-14328619D01*
X12698524Y-14357190D01*
X12584238Y-14471476D01*
X12708048Y-14471476D01*
X12793762Y-14471476D02*
X12793762Y-14338143D01*
X12793762Y-14357190D02*
X12803286Y-14347667D01*
X12822333Y-14338143D01*
X12850905Y-14338143D01*
X12869952Y-14347667D01*
X12879476Y-14366714D01*
X12879476Y-14471476D01*
X12879476Y-14366714D02*
X12889000Y-14347667D01*
X12908048Y-14338143D01*
X12936619Y-14338143D01*
X12955667Y-14347667D01*
X12965190Y-14366714D01*
X12965190Y-14471476D01*
X13060428Y-14471476D02*
X13060428Y-14338143D01*
X13060428Y-14357190D02*
X13069952Y-14347667D01*
X13089000Y-14338143D01*
X13117571Y-14338143D01*
X13136619Y-14347667D01*
X13146143Y-14366714D01*
X13146143Y-14471476D01*
X13146143Y-14366714D02*
X13155667Y-14347667D01*
X13174714Y-14338143D01*
X13203286Y-14338143D01*
X13222333Y-14347667D01*
X13231857Y-14366714D01*
X13231857Y-14471476D01*
X13622333Y-14261952D02*
X13450905Y-14519095D01*
X13879476Y-14271476D02*
X13898524Y-14271476D01*
X13917571Y-14281000D01*
X13927095Y-14290524D01*
X13936619Y-14309571D01*
X13946143Y-14347667D01*
X13946143Y-14395286D01*
X13936619Y-14433381D01*
X13927095Y-14452428D01*
X13917571Y-14461952D01*
X13898524Y-14471476D01*
X13879476Y-14471476D01*
X13860428Y-14461952D01*
X13850905Y-14452428D01*
X13841381Y-14433381D01*
X13831857Y-14395286D01*
X13831857Y-14347667D01*
X13841381Y-14309571D01*
X13850905Y-14290524D01*
X13860428Y-14281000D01*
X13879476Y-14271476D01*
X14031857Y-14452428D02*
X14041381Y-14461952D01*
X14031857Y-14471476D01*
X14022333Y-14461952D01*
X14031857Y-14452428D01*
X14031857Y-14471476D01*
X14165190Y-14271476D02*
X14184238Y-14271476D01*
X14203286Y-14281000D01*
X14212809Y-14290524D01*
X14222333Y-14309571D01*
X14231857Y-14347667D01*
X14231857Y-14395286D01*
X14222333Y-14433381D01*
X14212809Y-14452428D01*
X14203286Y-14461952D01*
X14184238Y-14471476D01*
X14165190Y-14471476D01*
X14146143Y-14461952D01*
X14136619Y-14452428D01*
X14127095Y-14433381D01*
X14117571Y-14395286D01*
X14117571Y-14347667D01*
X14127095Y-14309571D01*
X14136619Y-14290524D01*
X14146143Y-14281000D01*
X14165190Y-14271476D01*
X14298524Y-14271476D02*
X14422333Y-14271476D01*
X14355667Y-14347667D01*
X14384238Y-14347667D01*
X14403286Y-14357190D01*
X14412809Y-14366714D01*
X14422333Y-14385762D01*
X14422333Y-14433381D01*
X14412809Y-14452428D01*
X14403286Y-14461952D01*
X14384238Y-14471476D01*
X14327095Y-14471476D01*
X14308048Y-14461952D01*
X14298524Y-14452428D01*
X14546143Y-14271476D02*
X14565190Y-14271476D01*
X14584238Y-14281000D01*
X14593762Y-14290524D01*
X14603286Y-14309571D01*
X14612809Y-14347667D01*
X14612809Y-14395286D01*
X14603286Y-14433381D01*
X14593762Y-14452428D01*
X14584238Y-14461952D01*
X14565190Y-14471476D01*
X14546143Y-14471476D01*
X14527095Y-14461952D01*
X14517571Y-14452428D01*
X14508048Y-14433381D01*
X14498524Y-14395286D01*
X14498524Y-14347667D01*
X14508048Y-14309571D01*
X14517571Y-14290524D01*
X14527095Y-14281000D01*
X14546143Y-14271476D01*
X14736619Y-14271476D02*
X14755667Y-14271476D01*
X14774714Y-14281000D01*
X14784238Y-14290524D01*
X14793762Y-14309571D01*
X14803286Y-14347667D01*
X14803286Y-14395286D01*
X14793762Y-14433381D01*
X14784238Y-14452428D01*
X14774714Y-14461952D01*
X14755667Y-14471476D01*
X14736619Y-14471476D01*
X14717571Y-14461952D01*
X14708048Y-14452428D01*
X14698524Y-14433381D01*
X14689000Y-14395286D01*
X14689000Y-14347667D01*
X14698524Y-14309571D01*
X14708048Y-14290524D01*
X14717571Y-14281000D01*
X14736619Y-14271476D01*
X14879476Y-14271476D02*
X14879476Y-14309571D01*
X14955667Y-14271476D02*
X14955667Y-14309571D01*
X15250905Y-14547667D02*
X15241381Y-14538143D01*
X15222333Y-14509571D01*
X15212809Y-14490524D01*
X15203286Y-14461952D01*
X15193762Y-14414333D01*
X15193762Y-14376238D01*
X15203286Y-14328619D01*
X15212809Y-14300048D01*
X15222333Y-14281000D01*
X15241381Y-14252428D01*
X15250905Y-14242905D01*
X15317571Y-14290524D02*
X15327095Y-14281000D01*
X15346143Y-14271476D01*
X15393762Y-14271476D01*
X15412809Y-14281000D01*
X15422333Y-14290524D01*
X15431857Y-14309571D01*
X15431857Y-14328619D01*
X15422333Y-14357190D01*
X15308048Y-14471476D01*
X15431857Y-14471476D01*
X15546143Y-14357190D02*
X15527095Y-14347667D01*
X15517571Y-14338143D01*
X15508048Y-14319095D01*
X15508048Y-14309571D01*
X15517571Y-14290524D01*
X15527095Y-14281000D01*
X15546143Y-14271476D01*
X15584238Y-14271476D01*
X15603286Y-14281000D01*
X15612809Y-14290524D01*
X15622333Y-14309571D01*
X15622333Y-14319095D01*
X15612809Y-14338143D01*
X15603286Y-14347667D01*
X15584238Y-14357190D01*
X15546143Y-14357190D01*
X15527095Y-14366714D01*
X15517571Y-14376238D01*
X15508048Y-14395286D01*
X15508048Y-14433381D01*
X15517571Y-14452428D01*
X15527095Y-14461952D01*
X15546143Y-14471476D01*
X15584238Y-14471476D01*
X15603286Y-14461952D01*
X15612809Y-14452428D01*
X15622333Y-14433381D01*
X15622333Y-14395286D01*
X15612809Y-14376238D01*
X15603286Y-14366714D01*
X15584238Y-14357190D01*
X15860428Y-14471476D02*
X15860428Y-14271476D01*
X15946143Y-14471476D02*
X15946143Y-14366714D01*
X15936619Y-14347667D01*
X15917571Y-14338143D01*
X15889000Y-14338143D01*
X15869952Y-14347667D01*
X15860428Y-14357190D01*
X16069952Y-14471476D02*
X16050905Y-14461952D01*
X16041381Y-14452428D01*
X16031857Y-14433381D01*
X16031857Y-14376238D01*
X16041381Y-14357190D01*
X16050905Y-14347667D01*
X16069952Y-14338143D01*
X16098524Y-14338143D01*
X16117571Y-14347667D01*
X16127095Y-14357190D01*
X16136619Y-14376238D01*
X16136619Y-14433381D01*
X16127095Y-14452428D01*
X16117571Y-14461952D01*
X16098524Y-14471476D01*
X16069952Y-14471476D01*
X16250905Y-14471476D02*
X16231857Y-14461952D01*
X16222333Y-14442905D01*
X16222333Y-14271476D01*
X16403286Y-14461952D02*
X16384238Y-14471476D01*
X16346143Y-14471476D01*
X16327095Y-14461952D01*
X16317571Y-14442905D01*
X16317571Y-14366714D01*
X16327095Y-14347667D01*
X16346143Y-14338143D01*
X16384238Y-14338143D01*
X16403286Y-14347667D01*
X16412809Y-14366714D01*
X16412809Y-14385762D01*
X16317571Y-14404809D01*
X16489000Y-14461952D02*
X16508048Y-14471476D01*
X16546143Y-14471476D01*
X16565190Y-14461952D01*
X16574714Y-14442905D01*
X16574714Y-14433381D01*
X16565190Y-14414333D01*
X16546143Y-14404809D01*
X16517571Y-14404809D01*
X16498524Y-14395286D01*
X16489000Y-14376238D01*
X16489000Y-14366714D01*
X16498524Y-14347667D01*
X16517571Y-14338143D01*
X16546143Y-14338143D01*
X16565190Y-14347667D01*
X16641381Y-14547667D02*
X16650905Y-14538143D01*
X16669952Y-14509571D01*
X16679476Y-14490524D01*
X16689000Y-14461952D01*
X16698524Y-14414333D01*
X16698524Y-14376238D01*
X16689000Y-14328619D01*
X16679476Y-14300048D01*
X16669952Y-14281000D01*
X16650905Y-14252428D01*
X16641381Y-14242905D01*
D15*
X11662891Y-14683891D02*
X11662891Y-14606109D01*
X11585109Y-14606109D01*
X11585109Y-14683891D01*
X11662891Y-14683891D01*
D11*
X12041381Y-14735476D02*
X11927095Y-14735476D01*
X11984238Y-14735476D02*
X11984238Y-14535476D01*
X11965190Y-14564048D01*
X11946143Y-14583095D01*
X11927095Y-14592619D01*
X12127095Y-14716428D02*
X12136619Y-14725952D01*
X12127095Y-14735476D01*
X12117571Y-14725952D01*
X12127095Y-14716428D01*
X12127095Y-14735476D01*
X12327095Y-14735476D02*
X12212809Y-14735476D01*
X12269952Y-14735476D02*
X12269952Y-14535476D01*
X12250905Y-14564048D01*
X12231857Y-14583095D01*
X12212809Y-14592619D01*
X12450905Y-14535476D02*
X12469952Y-14535476D01*
X12489000Y-14545000D01*
X12498524Y-14554524D01*
X12508048Y-14573571D01*
X12517571Y-14611667D01*
X12517571Y-14659286D01*
X12508048Y-14697381D01*
X12498524Y-14716428D01*
X12489000Y-14725952D01*
X12469952Y-14735476D01*
X12450905Y-14735476D01*
X12431857Y-14725952D01*
X12422333Y-14716428D01*
X12412809Y-14697381D01*
X12403286Y-14659286D01*
X12403286Y-14611667D01*
X12412809Y-14573571D01*
X12422333Y-14554524D01*
X12431857Y-14545000D01*
X12450905Y-14535476D01*
X12641381Y-14535476D02*
X12660428Y-14535476D01*
X12679476Y-14545000D01*
X12689000Y-14554524D01*
X12698524Y-14573571D01*
X12708048Y-14611667D01*
X12708048Y-14659286D01*
X12698524Y-14697381D01*
X12689000Y-14716428D01*
X12679476Y-14725952D01*
X12660428Y-14735476D01*
X12641381Y-14735476D01*
X12622333Y-14725952D01*
X12612809Y-14716428D01*
X12603286Y-14697381D01*
X12593762Y-14659286D01*
X12593762Y-14611667D01*
X12603286Y-14573571D01*
X12612809Y-14554524D01*
X12622333Y-14545000D01*
X12641381Y-14535476D01*
X12793762Y-14735476D02*
X12793762Y-14602143D01*
X12793762Y-14621190D02*
X12803286Y-14611667D01*
X12822333Y-14602143D01*
X12850905Y-14602143D01*
X12869952Y-14611667D01*
X12879476Y-14630714D01*
X12879476Y-14735476D01*
X12879476Y-14630714D02*
X12889000Y-14611667D01*
X12908048Y-14602143D01*
X12936619Y-14602143D01*
X12955667Y-14611667D01*
X12965190Y-14630714D01*
X12965190Y-14735476D01*
X13060428Y-14735476D02*
X13060428Y-14602143D01*
X13060428Y-14621190D02*
X13069952Y-14611667D01*
X13089000Y-14602143D01*
X13117571Y-14602143D01*
X13136619Y-14611667D01*
X13146143Y-14630714D01*
X13146143Y-14735476D01*
X13146143Y-14630714D02*
X13155667Y-14611667D01*
X13174714Y-14602143D01*
X13203286Y-14602143D01*
X13222333Y-14611667D01*
X13231857Y-14630714D01*
X13231857Y-14735476D01*
X13622333Y-14525952D02*
X13450905Y-14783095D01*
X13879476Y-14535476D02*
X13898524Y-14535476D01*
X13917571Y-14545000D01*
X13927095Y-14554524D01*
X13936619Y-14573571D01*
X13946143Y-14611667D01*
X13946143Y-14659286D01*
X13936619Y-14697381D01*
X13927095Y-14716428D01*
X13917571Y-14725952D01*
X13898524Y-14735476D01*
X13879476Y-14735476D01*
X13860428Y-14725952D01*
X13850905Y-14716428D01*
X13841381Y-14697381D01*
X13831857Y-14659286D01*
X13831857Y-14611667D01*
X13841381Y-14573571D01*
X13850905Y-14554524D01*
X13860428Y-14545000D01*
X13879476Y-14535476D01*
X14031857Y-14716428D02*
X14041381Y-14725952D01*
X14031857Y-14735476D01*
X14022333Y-14725952D01*
X14031857Y-14716428D01*
X14031857Y-14735476D01*
X14165190Y-14535476D02*
X14184238Y-14535476D01*
X14203286Y-14545000D01*
X14212809Y-14554524D01*
X14222333Y-14573571D01*
X14231857Y-14611667D01*
X14231857Y-14659286D01*
X14222333Y-14697381D01*
X14212809Y-14716428D01*
X14203286Y-14725952D01*
X14184238Y-14735476D01*
X14165190Y-14735476D01*
X14146143Y-14725952D01*
X14136619Y-14716428D01*
X14127095Y-14697381D01*
X14117571Y-14659286D01*
X14117571Y-14611667D01*
X14127095Y-14573571D01*
X14136619Y-14554524D01*
X14146143Y-14545000D01*
X14165190Y-14535476D01*
X14403286Y-14602143D02*
X14403286Y-14735476D01*
X14355667Y-14525952D02*
X14308048Y-14668809D01*
X14431857Y-14668809D01*
X14489000Y-14535476D02*
X14612809Y-14535476D01*
X14546143Y-14611667D01*
X14574714Y-14611667D01*
X14593762Y-14621190D01*
X14603286Y-14630714D01*
X14612809Y-14649762D01*
X14612809Y-14697381D01*
X14603286Y-14716428D01*
X14593762Y-14725952D01*
X14574714Y-14735476D01*
X14517571Y-14735476D01*
X14498524Y-14725952D01*
X14489000Y-14716428D01*
X14679476Y-14535476D02*
X14803286Y-14535476D01*
X14736619Y-14611667D01*
X14765190Y-14611667D01*
X14784238Y-14621190D01*
X14793762Y-14630714D01*
X14803286Y-14649762D01*
X14803286Y-14697381D01*
X14793762Y-14716428D01*
X14784238Y-14725952D01*
X14765190Y-14735476D01*
X14708048Y-14735476D01*
X14689000Y-14725952D01*
X14679476Y-14716428D01*
X14879476Y-14535476D02*
X14879476Y-14573571D01*
X14955667Y-14535476D02*
X14955667Y-14573571D01*
X15250905Y-14811667D02*
X15241381Y-14802143D01*
X15222333Y-14773571D01*
X15212809Y-14754524D01*
X15203286Y-14725952D01*
X15193762Y-14678333D01*
X15193762Y-14640238D01*
X15203286Y-14592619D01*
X15212809Y-14564048D01*
X15222333Y-14545000D01*
X15241381Y-14516428D01*
X15250905Y-14506905D01*
X15355667Y-14621190D02*
X15336619Y-14611667D01*
X15327095Y-14602143D01*
X15317571Y-14583095D01*
X15317571Y-14573571D01*
X15327095Y-14554524D01*
X15336619Y-14545000D01*
X15355667Y-14535476D01*
X15393762Y-14535476D01*
X15412809Y-14545000D01*
X15422333Y-14554524D01*
X15431857Y-14573571D01*
X15431857Y-14583095D01*
X15422333Y-14602143D01*
X15412809Y-14611667D01*
X15393762Y-14621190D01*
X15355667Y-14621190D01*
X15336619Y-14630714D01*
X15327095Y-14640238D01*
X15317571Y-14659286D01*
X15317571Y-14697381D01*
X15327095Y-14716428D01*
X15336619Y-14725952D01*
X15355667Y-14735476D01*
X15393762Y-14735476D01*
X15412809Y-14725952D01*
X15422333Y-14716428D01*
X15431857Y-14697381D01*
X15431857Y-14659286D01*
X15422333Y-14640238D01*
X15412809Y-14630714D01*
X15393762Y-14621190D01*
X15669952Y-14735476D02*
X15669952Y-14535476D01*
X15755667Y-14735476D02*
X15755667Y-14630714D01*
X15746143Y-14611667D01*
X15727095Y-14602143D01*
X15698524Y-14602143D01*
X15679476Y-14611667D01*
X15669952Y-14621190D01*
X15879476Y-14735476D02*
X15860428Y-14725952D01*
X15850905Y-14716428D01*
X15841381Y-14697381D01*
X15841381Y-14640238D01*
X15850905Y-14621190D01*
X15860428Y-14611667D01*
X15879476Y-14602143D01*
X15908048Y-14602143D01*
X15927095Y-14611667D01*
X15936619Y-14621190D01*
X15946143Y-14640238D01*
X15946143Y-14697381D01*
X15936619Y-14716428D01*
X15927095Y-14725952D01*
X15908048Y-14735476D01*
X15879476Y-14735476D01*
X16060428Y-14735476D02*
X16041381Y-14725952D01*
X16031857Y-14706905D01*
X16031857Y-14535476D01*
X16212809Y-14725952D02*
X16193762Y-14735476D01*
X16155667Y-14735476D01*
X16136619Y-14725952D01*
X16127095Y-14706905D01*
X16127095Y-14630714D01*
X16136619Y-14611667D01*
X16155667Y-14602143D01*
X16193762Y-14602143D01*
X16212809Y-14611667D01*
X16222333Y-14630714D01*
X16222333Y-14649762D01*
X16127095Y-14668809D01*
X16298524Y-14725952D02*
X16317571Y-14735476D01*
X16355667Y-14735476D01*
X16374714Y-14725952D01*
X16384238Y-14706905D01*
X16384238Y-14697381D01*
X16374714Y-14678333D01*
X16355667Y-14668809D01*
X16327095Y-14668809D01*
X16308048Y-14659286D01*
X16298524Y-14640238D01*
X16298524Y-14630714D01*
X16308048Y-14611667D01*
X16327095Y-14602143D01*
X16355667Y-14602143D01*
X16374714Y-14611667D01*
X16450905Y-14811667D02*
X16460428Y-14802143D01*
X16479476Y-14773571D01*
X16489000Y-14754524D01*
X16498524Y-14725952D01*
X16508048Y-14678333D01*
X16508048Y-14640238D01*
X16498524Y-14592619D01*
X16489000Y-14564048D01*
X16479476Y-14545000D01*
X16460428Y-14516428D01*
X16450905Y-14506905D01*
M02*
