G04 #@! TF.GenerationSoftware,KiCad,Pcbnew,7.0.2*
G04 #@! TF.CreationDate,2023-04-27T12:09:37-07:00*
G04 #@! TF.ProjectId,Flamingo Nano 33 BLE Rev 2,466c616d-696e-4676-9f20-4e616e6f2033,rev?*
G04 #@! TF.SameCoordinates,Original*
G04 #@! TF.FileFunction,Copper,L2,Bot*
G04 #@! TF.FilePolarity,Positive*
%FSLAX46Y46*%
G04 Gerber Fmt 4.6, Leading zero omitted, Abs format (unit mm)*
G04 Created by KiCad (PCBNEW 7.0.2) date 2023-04-27 12:09:37*
%MOMM*%
%LPD*%
G01*
G04 APERTURE LIST*
G04 #@! TA.AperFunction,ComponentPad*
%ADD10R,2.100000X2.100000*%
G04 #@! TD*
G04 #@! TA.AperFunction,ComponentPad*
%ADD11C,2.100000*%
G04 #@! TD*
G04 #@! TA.AperFunction,ComponentPad*
%ADD12C,1.727200*%
G04 #@! TD*
G04 #@! TA.AperFunction,ComponentPad*
%ADD13R,1.727200X1.727200*%
G04 #@! TD*
G04 #@! TA.AperFunction,ViaPad*
%ADD14C,0.800000*%
G04 #@! TD*
G04 #@! TA.AperFunction,ViaPad*
%ADD15C,1.000000*%
G04 #@! TD*
G04 #@! TA.AperFunction,Conductor*
%ADD16C,0.250000*%
G04 #@! TD*
G04 #@! TA.AperFunction,Conductor*
%ADD17C,1.500000*%
G04 #@! TD*
G04 APERTURE END LIST*
D10*
G04 #@! TO.P,J2,1,Pin_1*
G04 #@! TO.N,GND*
X81915000Y-82550000D03*
D11*
G04 #@! TO.P,J2,2,Pin_2*
G04 #@! TO.N,/DATA_TERM*
X84455000Y-82550000D03*
G04 #@! TO.P,J2,3,Pin_3*
G04 #@! TO.N,/CLOCK_TERM*
X86995000Y-82550000D03*
G04 #@! TO.P,J2,4,Pin_4*
G04 #@! TO.N,VBUS*
X89535000Y-82550000D03*
G04 #@! TD*
D12*
G04 #@! TO.P,XA1,3V3,3.3V*
G04 #@! TO.N,+3V3*
X108807500Y-90140000D03*
G04 #@! TO.P,XA1,5V,5V*
G04 #@! TO.N,VBUS*
X108807500Y-64740000D03*
G04 #@! TO.P,XA1,A0,A0*
G04 #@! TO.N,unconnected-(XA1-PadA0)*
X108807500Y-85060000D03*
G04 #@! TO.P,XA1,A1,A1*
G04 #@! TO.N,unconnected-(XA1-PadA1)*
X108807500Y-82520000D03*
G04 #@! TO.P,XA1,A2,A2*
G04 #@! TO.N,unconnected-(XA1-PadA2)*
X108807500Y-79980000D03*
G04 #@! TO.P,XA1,A3,A3*
G04 #@! TO.N,unconnected-(XA1-PadA3)*
X108807500Y-77440000D03*
G04 #@! TO.P,XA1,A4,A4/SDA*
G04 #@! TO.N,unconnected-(XA1-A4{slash}SDA-PadA4)*
X108807500Y-74900000D03*
G04 #@! TO.P,XA1,A5,A5/SCL*
G04 #@! TO.N,unconnected-(XA1-A5{slash}SCL-PadA5)*
X108807500Y-72360000D03*
G04 #@! TO.P,XA1,A6,A6*
G04 #@! TO.N,unconnected-(XA1-PadA6)*
X108807500Y-69820000D03*
G04 #@! TO.P,XA1,A7,A7*
G04 #@! TO.N,unconnected-(XA1-PadA7)*
X108807500Y-67280000D03*
G04 #@! TO.P,XA1,AREF,AREF*
G04 #@! TO.N,unconnected-(XA1-PadAREF)*
X108807500Y-87600000D03*
G04 #@! TO.P,XA1,D0,D0/RX*
G04 #@! TO.N,unconnected-(XA1-D0{slash}RX-PadD0)*
X93567500Y-59660000D03*
G04 #@! TO.P,XA1,D1,D1/TX*
G04 #@! TO.N,unconnected-(XA1-D1{slash}TX-PadD1)*
X93567500Y-57120000D03*
G04 #@! TO.P,XA1,D2,D2*
G04 #@! TO.N,/BUTT_A_TERM*
X93567500Y-67280000D03*
G04 #@! TO.P,XA1,D3,D3*
G04 #@! TO.N,/BUTT_B_TERM*
X93567500Y-69820000D03*
G04 #@! TO.P,XA1,D4,D4*
G04 #@! TO.N,/BUTT_C_TERM*
X93567500Y-72360000D03*
G04 #@! TO.P,XA1,D5,D5*
G04 #@! TO.N,unconnected-(XA1-PadD5)*
X93567500Y-74900000D03*
G04 #@! TO.P,XA1,D6,D6*
G04 #@! TO.N,unconnected-(XA1-PadD6)*
X93567500Y-77440000D03*
G04 #@! TO.P,XA1,D7,D7*
G04 #@! TO.N,unconnected-(XA1-PadD7)*
X93567500Y-79980000D03*
G04 #@! TO.P,XA1,D8,D8*
G04 #@! TO.N,unconnected-(XA1-PadD8)*
X93567500Y-82520000D03*
G04 #@! TO.P,XA1,D9,D9*
G04 #@! TO.N,unconnected-(XA1-PadD9)*
X93567500Y-85060000D03*
G04 #@! TO.P,XA1,D10,D10*
G04 #@! TO.N,unconnected-(XA1-PadD10)*
X93567500Y-87600000D03*
G04 #@! TO.P,XA1,D11,D11_MOSI*
G04 #@! TO.N,/DATA_MCU*
X93567500Y-90140000D03*
G04 #@! TO.P,XA1,D12,D12_MISO*
G04 #@! TO.N,unconnected-(XA1-D12_MISO-PadD12)*
X93567500Y-92680000D03*
G04 #@! TO.P,XA1,D13,D13_SCK*
G04 #@! TO.N,/CLOCK_MCU*
X108807500Y-92680000D03*
D13*
G04 #@! TO.P,XA1,GND1,GND*
G04 #@! TO.N,GND*
X93567500Y-64740000D03*
G04 #@! TO.P,XA1,GND2,GND*
X108807500Y-59660000D03*
D12*
G04 #@! TO.P,XA1,RST1,RESET*
G04 #@! TO.N,unconnected-(XA1-RESET-PadRST1)*
X93567500Y-62200000D03*
G04 #@! TO.P,XA1,RST2,RESET*
G04 #@! TO.N,unconnected-(XA1-RESET-PadRST2)*
X108807500Y-62200000D03*
G04 #@! TO.P,XA1,VIN,VIN*
G04 #@! TO.N,unconnected-(XA1-PadVIN)*
X108807500Y-57120000D03*
G04 #@! TD*
D10*
G04 #@! TO.P,J1,1,Pin_1*
G04 #@! TO.N,GND*
X89535000Y-91440000D03*
D11*
G04 #@! TO.P,J1,2,Pin_2*
G04 #@! TO.N,/BUTT_A_TERM*
X86995000Y-91440000D03*
G04 #@! TO.P,J1,3,Pin_3*
G04 #@! TO.N,/BUTT_B_TERM*
X84455000Y-91440000D03*
G04 #@! TO.P,J1,4,Pin_4*
G04 #@! TO.N,/BUTT_C_TERM*
X81915000Y-91440000D03*
G04 #@! TD*
D14*
G04 #@! TO.N,GND*
X90805000Y-71374000D03*
X85471000Y-56134000D03*
X82423000Y-53975000D03*
X105029000Y-91955500D03*
X105029000Y-93472000D03*
X97536000Y-86360000D03*
X95504000Y-86360000D03*
X99568000Y-86360000D03*
X105156000Y-86360000D03*
X97155000Y-57785000D03*
X99695000Y-55245000D03*
G04 #@! TO.N,/BUTT_A_TERM*
X86995000Y-95504000D03*
X99314000Y-67310000D03*
X102616000Y-93599000D03*
X102616000Y-91821000D03*
G04 #@! TO.N,/BUTT_B_TERM*
X101600000Y-91821000D03*
X84455000Y-94742000D03*
X101600000Y-93599000D03*
X99314000Y-69850000D03*
G04 #@! TO.N,/BUTT_C_TERM*
X81915000Y-93980000D03*
X100584000Y-91821000D03*
X100584000Y-93599000D03*
X99314000Y-72390000D03*
G04 #@! TO.N,VBUS*
X81280000Y-61595000D03*
X81280000Y-63500000D03*
X81280000Y-68580000D03*
D15*
X89535000Y-53340000D03*
D14*
G04 #@! TO.N,Net-(U1-1_5V)*
X85598000Y-62902682D03*
X85217000Y-72136000D03*
G04 #@! TO.N,Net-(U1-2_5V)*
X87503000Y-60960000D03*
X88138000Y-72136000D03*
G04 #@! TO.N,/CLOCK_MCU*
X96520000Y-66548000D03*
X96520000Y-73660000D03*
X90805000Y-61505500D03*
G04 #@! TO.N,/DATA_MCU*
X90805000Y-63500000D03*
G04 #@! TO.N,+3V3*
X104140000Y-72390000D03*
X104140000Y-69850000D03*
X106680000Y-90170000D03*
X104140000Y-67310000D03*
G04 #@! TD*
D16*
G04 #@! TO.N,GND*
X90805000Y-71755000D02*
X90805000Y-71374000D01*
X85471000Y-56134000D02*
X86106000Y-56134000D01*
X82042000Y-53975000D02*
X82423000Y-53975000D01*
X105029000Y-91955500D02*
X105656500Y-91955500D01*
X105664000Y-93472000D02*
X105029000Y-93472000D01*
G04 #@! TO.N,/BUTT_B_TERM*
X101600000Y-93726000D02*
X101600000Y-93599000D01*
X100584000Y-94742000D02*
X101600000Y-93726000D01*
G04 #@! TO.N,/BUTT_A_TERM*
X101600000Y-95504000D02*
X102616000Y-94488000D01*
X102616000Y-94488000D02*
X102616000Y-93599000D01*
G04 #@! TO.N,/BUTT_B_TERM*
X84455000Y-94742000D02*
X100584000Y-94742000D01*
G04 #@! TO.N,/BUTT_C_TERM*
X100203000Y-93980000D02*
X100584000Y-93599000D01*
X81915000Y-93980000D02*
X100203000Y-93980000D01*
G04 #@! TO.N,/BUTT_A_TERM*
X86995000Y-95504000D02*
X101600000Y-95504000D01*
G04 #@! TO.N,GND*
X95504000Y-86360000D02*
X95504000Y-85344000D01*
X97536000Y-87122000D02*
X97536000Y-86360000D01*
G04 #@! TO.N,/CLOCK_MCU*
X98014000Y-92680000D02*
X108807500Y-92680000D01*
X96520000Y-91186000D02*
X98014000Y-92680000D01*
X96520000Y-73660000D02*
X96520000Y-91186000D01*
X94593300Y-63388600D02*
X92688100Y-63388600D01*
X95885000Y-64135000D02*
X94593300Y-63388600D01*
X96520000Y-66548000D02*
X95885000Y-64135000D01*
X92688100Y-63388600D02*
X90805000Y-61505500D01*
G04 #@! TO.N,GND*
X99568000Y-86360000D02*
X99568000Y-87122000D01*
X105156000Y-85598000D02*
X105156000Y-86360000D01*
G04 #@! TO.N,Net-(U1-1_5V)*
X85598000Y-70612000D02*
X85217000Y-72136000D01*
X85598000Y-62902682D02*
X85598000Y-70612000D01*
G04 #@! TO.N,GND*
X97155000Y-57785000D02*
X97155000Y-59055000D01*
X99695000Y-55245000D02*
X100965000Y-55245000D01*
G04 #@! TO.N,/BUTT_A_TERM*
X99314000Y-67310000D02*
X102616000Y-70612000D01*
X99284000Y-67280000D02*
X93567500Y-67280000D01*
X99314000Y-67310000D02*
X99284000Y-67280000D01*
X102616000Y-70612000D02*
X102616000Y-91821000D01*
G04 #@! TO.N,/BUTT_B_TERM*
X99284000Y-69820000D02*
X93567500Y-69820000D01*
X101600000Y-72136000D02*
X101600000Y-91821000D01*
X99314000Y-69850000D02*
X99284000Y-69820000D01*
X99314000Y-69850000D02*
X101600000Y-72136000D01*
G04 #@! TO.N,/BUTT_C_TERM*
X100584000Y-73660000D02*
X100584000Y-91821000D01*
X99284000Y-72360000D02*
X93567500Y-72360000D01*
X99314000Y-72390000D02*
X99284000Y-72360000D01*
X99314000Y-72390000D02*
X100584000Y-73660000D01*
D17*
G04 #@! TO.N,VBUS*
X85725000Y-53340000D02*
X81280000Y-57785000D01*
X83185000Y-78105000D02*
X86574924Y-78105000D01*
X81280000Y-61595000D02*
X81280000Y-63500000D01*
X86574924Y-78105000D02*
X89535000Y-81065076D01*
X89535000Y-53340000D02*
X85725000Y-53340000D01*
X106680000Y-64770000D02*
X106710000Y-64740000D01*
X89535000Y-81065076D02*
X89535000Y-82550000D01*
X81280000Y-63500000D02*
X81280000Y-68580000D01*
X95250000Y-53340000D02*
X89535000Y-53340000D01*
X106680000Y-64770000D02*
X95250000Y-53340000D01*
X81280000Y-57785000D02*
X81280000Y-61595000D01*
X106710000Y-64740000D02*
X108807500Y-64740000D01*
X81280000Y-68580000D02*
X81280000Y-76200000D01*
X81280000Y-76200000D02*
X83185000Y-78105000D01*
D16*
G04 #@! TO.N,Net-(U1-2_5V)*
X87503000Y-71501000D02*
X88138000Y-72136000D01*
X87503000Y-65659000D02*
X87503000Y-71501000D01*
X87503000Y-60960000D02*
X87503000Y-65659000D01*
G04 #@! TO.N,/DATA_MCU*
X92202000Y-64770000D02*
X90805000Y-63500000D01*
X92202000Y-88773000D02*
X92202000Y-64770000D01*
X93567500Y-90140000D02*
X92202000Y-88773000D01*
G04 #@! TO.N,+3V3*
X106045000Y-90170000D02*
X106680000Y-90170000D01*
X104140000Y-88265000D02*
X106045000Y-90170000D01*
X104140000Y-67310000D02*
X104140000Y-69850000D01*
X104140000Y-72390000D02*
X104140000Y-69850000D01*
X104140000Y-72390000D02*
X104140000Y-88265000D01*
G04 #@! TD*
G04 #@! TA.AperFunction,Conductor*
G04 #@! TO.N,GND*
G36*
X84793702Y-52290185D02*
G01*
X84839457Y-52342989D01*
X84849401Y-52412147D01*
X84820376Y-52475703D01*
X84814344Y-52482181D01*
X80450343Y-56846181D01*
X80439980Y-56855443D01*
X80412335Y-56877491D01*
X80368736Y-56927391D01*
X80363052Y-56933472D01*
X80358024Y-56938501D01*
X80358015Y-56938510D01*
X80356055Y-56940471D01*
X80354280Y-56942596D01*
X80354269Y-56942609D01*
X80329929Y-56971763D01*
X80328124Y-56973876D01*
X80264235Y-57047003D01*
X80261986Y-57050767D01*
X80250739Y-57066617D01*
X80247932Y-57069979D01*
X80199978Y-57154490D01*
X80198604Y-57156849D01*
X80149719Y-57238671D01*
X80148782Y-57240241D01*
X80147246Y-57244335D01*
X80139009Y-57261944D01*
X80136847Y-57265753D01*
X80104762Y-57357444D01*
X80103814Y-57360057D01*
X80069691Y-57450978D01*
X80068910Y-57455282D01*
X80063950Y-57474077D01*
X80062501Y-57478217D01*
X80047304Y-57574166D01*
X80046838Y-57576907D01*
X80029500Y-57672450D01*
X80029500Y-57676829D01*
X80027973Y-57696227D01*
X80027290Y-57700537D01*
X80029469Y-57797639D01*
X80029500Y-57800421D01*
X80029500Y-76122814D01*
X80028720Y-76136698D01*
X80024761Y-76171826D01*
X80029219Y-76237931D01*
X80029500Y-76246273D01*
X80029500Y-76256155D01*
X80029747Y-76258900D01*
X80029748Y-76258921D01*
X80033153Y-76296749D01*
X80033371Y-76299521D01*
X80039904Y-76396414D01*
X80040973Y-76400657D01*
X80044229Y-76419820D01*
X80044622Y-76424185D01*
X80070465Y-76517824D01*
X80071158Y-76520447D01*
X80089335Y-76592583D01*
X80094904Y-76614684D01*
X80096712Y-76618664D01*
X80103342Y-76636950D01*
X80104506Y-76641168D01*
X80146657Y-76728699D01*
X80147835Y-76731217D01*
X80187992Y-76819625D01*
X80190483Y-76823220D01*
X80200271Y-76840029D01*
X80202170Y-76843974D01*
X80259258Y-76922548D01*
X80260868Y-76924817D01*
X80316178Y-77004652D01*
X80319268Y-77007742D01*
X80331905Y-77022537D01*
X80334478Y-77026078D01*
X80334479Y-77026079D01*
X80404699Y-77093216D01*
X80406688Y-77095162D01*
X82246182Y-78934656D01*
X82255448Y-78945024D01*
X82277493Y-78972667D01*
X82327395Y-79016266D01*
X82333491Y-79021965D01*
X82340471Y-79028945D01*
X82342614Y-79030734D01*
X82371715Y-79055029D01*
X82373832Y-79056836D01*
X82447005Y-79120766D01*
X82450758Y-79123008D01*
X82466630Y-79134269D01*
X82469982Y-79137068D01*
X82554457Y-79185000D01*
X82556805Y-79186368D01*
X82610433Y-79218409D01*
X82640236Y-79236215D01*
X82644319Y-79237747D01*
X82661957Y-79245998D01*
X82665755Y-79248153D01*
X82757479Y-79280248D01*
X82760003Y-79281164D01*
X82850976Y-79315307D01*
X82855274Y-79316086D01*
X82874090Y-79321053D01*
X82878218Y-79322498D01*
X82974247Y-79337707D01*
X82976828Y-79338145D01*
X83072453Y-79355500D01*
X83076830Y-79355500D01*
X83096226Y-79357026D01*
X83100540Y-79357710D01*
X83197641Y-79355530D01*
X83200422Y-79355500D01*
X86005588Y-79355500D01*
X86072627Y-79375185D01*
X86093269Y-79391819D01*
X87555107Y-80853657D01*
X87588592Y-80914980D01*
X87583608Y-80984672D01*
X87541736Y-81040605D01*
X87476272Y-81065022D01*
X87438479Y-81061912D01*
X87238303Y-81013854D01*
X87116651Y-81004280D01*
X86995000Y-80994706D01*
X86994999Y-80994706D01*
X86751696Y-81013854D01*
X86514384Y-81070828D01*
X86288911Y-81164221D01*
X86080822Y-81291740D01*
X85895241Y-81450241D01*
X85819290Y-81539168D01*
X85760783Y-81577361D01*
X85690915Y-81577859D01*
X85631869Y-81540505D01*
X85630710Y-81539168D01*
X85608326Y-81512960D01*
X85554759Y-81450241D01*
X85369179Y-81291741D01*
X85328009Y-81266512D01*
X85161088Y-81164221D01*
X84935615Y-81070828D01*
X84698303Y-81013854D01*
X84576651Y-81004280D01*
X84455000Y-80994706D01*
X84454999Y-80994706D01*
X84211696Y-81013854D01*
X83974384Y-81070828D01*
X83748911Y-81164221D01*
X83563714Y-81277711D01*
X83496268Y-81295956D01*
X83429666Y-81274840D01*
X83399657Y-81246295D01*
X83322189Y-81142811D01*
X83207089Y-81056647D01*
X83072371Y-81006400D01*
X83016132Y-81000354D01*
X83009518Y-81000000D01*
X82165000Y-81000000D01*
X82165000Y-82058316D01*
X82136181Y-82040791D01*
X81990596Y-82000000D01*
X81877378Y-82000000D01*
X81765217Y-82015416D01*
X81665000Y-82058946D01*
X81665000Y-81000000D01*
X80820482Y-81000000D01*
X80813867Y-81000354D01*
X80757628Y-81006400D01*
X80622910Y-81056647D01*
X80507811Y-81142811D01*
X80421647Y-81257910D01*
X80371400Y-81392628D01*
X80365354Y-81448867D01*
X80365000Y-81455481D01*
X80365000Y-82300000D01*
X81420148Y-82300000D01*
X81371441Y-82437047D01*
X81361123Y-82587886D01*
X81391884Y-82735915D01*
X81425090Y-82800000D01*
X80365000Y-82800000D01*
X80365000Y-83644518D01*
X80365354Y-83651132D01*
X80371400Y-83707371D01*
X80421647Y-83842089D01*
X80507811Y-83957188D01*
X80622910Y-84043352D01*
X80757628Y-84093599D01*
X80813867Y-84099645D01*
X80820482Y-84100000D01*
X81665000Y-84100000D01*
X81665000Y-83041683D01*
X81693819Y-83059209D01*
X81839404Y-83100000D01*
X81952622Y-83100000D01*
X82064783Y-83084584D01*
X82165000Y-83041053D01*
X82165000Y-84100000D01*
X83009518Y-84100000D01*
X83016132Y-84099645D01*
X83072371Y-84093599D01*
X83207089Y-84043352D01*
X83322188Y-83957189D01*
X83399657Y-83853704D01*
X83455591Y-83811833D01*
X83525282Y-83806849D01*
X83563714Y-83822288D01*
X83748911Y-83935778D01*
X83974384Y-84029171D01*
X83974387Y-84029171D01*
X83974388Y-84029172D01*
X84211698Y-84086146D01*
X84455000Y-84105294D01*
X84698302Y-84086146D01*
X84935612Y-84029172D01*
X84935613Y-84029171D01*
X84935615Y-84029171D01*
X85161088Y-83935778D01*
X85221015Y-83899054D01*
X85369179Y-83808259D01*
X85554759Y-83649759D01*
X85630711Y-83560830D01*
X85689217Y-83522638D01*
X85759084Y-83522139D01*
X85818131Y-83559493D01*
X85819251Y-83560785D01*
X85895241Y-83649759D01*
X86080821Y-83808259D01*
X86148668Y-83849836D01*
X86288911Y-83935778D01*
X86514384Y-84029171D01*
X86514387Y-84029171D01*
X86514388Y-84029172D01*
X86751698Y-84086146D01*
X86995000Y-84105294D01*
X87238302Y-84086146D01*
X87475612Y-84029172D01*
X87475613Y-84029171D01*
X87475615Y-84029171D01*
X87701088Y-83935778D01*
X87761015Y-83899054D01*
X87909179Y-83808259D01*
X88094759Y-83649759D01*
X88170711Y-83560829D01*
X88229215Y-83522639D01*
X88299083Y-83522139D01*
X88358129Y-83559493D01*
X88359289Y-83560831D01*
X88435241Y-83649759D01*
X88620821Y-83808259D01*
X88688668Y-83849836D01*
X88828911Y-83935778D01*
X89054384Y-84029171D01*
X89054387Y-84029171D01*
X89054388Y-84029172D01*
X89291698Y-84086146D01*
X89535000Y-84105294D01*
X89778302Y-84086146D01*
X90015612Y-84029172D01*
X90015613Y-84029171D01*
X90015615Y-84029171D01*
X90241088Y-83935778D01*
X90301015Y-83899054D01*
X90449179Y-83808259D01*
X90634759Y-83649759D01*
X90793259Y-83464179D01*
X90920777Y-83256089D01*
X90920778Y-83256088D01*
X91014171Y-83030615D01*
X91015441Y-83025325D01*
X91071146Y-82793302D01*
X91090294Y-82550000D01*
X91071146Y-82306698D01*
X91014172Y-82069388D01*
X91014171Y-82069387D01*
X91014171Y-82069384D01*
X90920778Y-81843911D01*
X90803773Y-81652977D01*
X90785500Y-81588187D01*
X90785500Y-81142261D01*
X90786280Y-81128376D01*
X90790238Y-81093248D01*
X90785781Y-81027137D01*
X90785500Y-81018796D01*
X90785500Y-81011697D01*
X90785500Y-81008921D01*
X90781844Y-80968306D01*
X90781630Y-80965574D01*
X90775097Y-80868664D01*
X90774028Y-80864422D01*
X90770768Y-80845231D01*
X90770377Y-80840890D01*
X90770377Y-80840888D01*
X90744513Y-80747176D01*
X90743855Y-80744685D01*
X90720096Y-80650393D01*
X90718285Y-80646407D01*
X90711656Y-80628122D01*
X90710493Y-80623906D01*
X90668332Y-80536359D01*
X90667181Y-80533899D01*
X90627007Y-80445451D01*
X90624519Y-80441860D01*
X90614723Y-80425037D01*
X90614436Y-80424441D01*
X90612829Y-80421103D01*
X90555706Y-80342480D01*
X90554128Y-80340256D01*
X90498820Y-80260422D01*
X90495734Y-80257336D01*
X90483091Y-80242534D01*
X90480522Y-80238998D01*
X90410299Y-80171858D01*
X90408310Y-80169912D01*
X87513740Y-77275342D01*
X87504474Y-77264974D01*
X87482430Y-77237332D01*
X87432527Y-77193732D01*
X87426431Y-77188033D01*
X87421430Y-77183032D01*
X87419453Y-77181055D01*
X87417318Y-77179272D01*
X87417301Y-77179257D01*
X87388179Y-77154945D01*
X87386063Y-77153138D01*
X87318549Y-77094153D01*
X87312920Y-77089235D01*
X87309160Y-77086988D01*
X87293294Y-77075730D01*
X87289942Y-77072931D01*
X87205472Y-77025001D01*
X87203069Y-77023601D01*
X87119689Y-76973785D01*
X87115595Y-76972249D01*
X87097970Y-76964003D01*
X87094169Y-76961847D01*
X87094168Y-76961846D01*
X87094167Y-76961846D01*
X87002492Y-76929767D01*
X86999878Y-76928819D01*
X86908952Y-76894694D01*
X86908949Y-76894693D01*
X86908948Y-76894693D01*
X86904645Y-76893911D01*
X86885841Y-76888948D01*
X86881706Y-76887501D01*
X86785771Y-76872306D01*
X86783030Y-76871840D01*
X86687474Y-76854500D01*
X86687471Y-76854500D01*
X86683094Y-76854500D01*
X86663697Y-76852973D01*
X86659384Y-76852290D01*
X86562282Y-76854469D01*
X86559502Y-76854500D01*
X83754336Y-76854500D01*
X83687297Y-76834815D01*
X83666655Y-76818181D01*
X82566819Y-75718345D01*
X82533334Y-75657022D01*
X82530500Y-75630664D01*
X82530500Y-72135999D01*
X84311540Y-72135999D01*
X84331326Y-72324257D01*
X84389820Y-72504284D01*
X84484466Y-72668216D01*
X84611129Y-72808889D01*
X84764269Y-72920151D01*
X84937197Y-72997144D01*
X85122352Y-73036500D01*
X85122354Y-73036500D01*
X85311648Y-73036500D01*
X85456484Y-73005714D01*
X85496803Y-72997144D01*
X85669730Y-72920151D01*
X85747967Y-72863309D01*
X85822870Y-72808889D01*
X85949533Y-72668216D01*
X86044179Y-72504284D01*
X86062970Y-72446452D01*
X86102674Y-72324256D01*
X86122460Y-72136000D01*
X86102674Y-71947744D01*
X86044179Y-71767716D01*
X86006196Y-71701929D01*
X85989723Y-71634030D01*
X85993283Y-71609864D01*
X86204356Y-70765577D01*
X86223500Y-70691019D01*
X86223499Y-70656766D01*
X86224381Y-70642004D01*
X86228459Y-70607997D01*
X86224578Y-70578776D01*
X86223500Y-70562455D01*
X86223500Y-63601369D01*
X86243185Y-63534330D01*
X86255350Y-63518396D01*
X86271915Y-63499999D01*
X86330533Y-63434898D01*
X86354071Y-63394130D01*
X86425179Y-63270966D01*
X86470424Y-63131716D01*
X86483674Y-63090938D01*
X86503460Y-62902682D01*
X86483674Y-62714426D01*
X86446332Y-62599500D01*
X86425179Y-62534397D01*
X86330533Y-62370465D01*
X86203870Y-62229792D01*
X86050730Y-62118530D01*
X85877802Y-62041537D01*
X85692648Y-62002182D01*
X85692646Y-62002182D01*
X85503354Y-62002182D01*
X85503352Y-62002182D01*
X85318197Y-62041537D01*
X85145269Y-62118530D01*
X84992129Y-62229792D01*
X84865466Y-62370465D01*
X84770820Y-62534397D01*
X84712326Y-62714424D01*
X84692540Y-62902682D01*
X84712326Y-63090939D01*
X84770820Y-63270966D01*
X84865464Y-63434895D01*
X84940650Y-63518396D01*
X84970880Y-63581388D01*
X84972500Y-63601369D01*
X84972500Y-70519731D01*
X84968798Y-70549806D01*
X84780113Y-71304541D01*
X84744756Y-71364804D01*
X84732701Y-71374784D01*
X84611127Y-71463112D01*
X84484466Y-71603783D01*
X84389820Y-71767715D01*
X84331326Y-71947742D01*
X84311540Y-72135999D01*
X82530500Y-72135999D01*
X82530500Y-60960000D01*
X86597540Y-60960000D01*
X86617326Y-61148257D01*
X86675820Y-61328284D01*
X86770464Y-61492213D01*
X86845650Y-61575714D01*
X86875880Y-61638706D01*
X86877500Y-61658687D01*
X86877500Y-71418256D01*
X86875235Y-71438766D01*
X86877439Y-71508872D01*
X86877500Y-71512767D01*
X86877500Y-71540350D01*
X86877988Y-71544219D01*
X86877989Y-71544225D01*
X86878004Y-71544343D01*
X86878918Y-71555967D01*
X86880290Y-71599626D01*
X86885879Y-71618860D01*
X86889825Y-71637916D01*
X86892335Y-71657792D01*
X86908414Y-71698404D01*
X86912197Y-71709451D01*
X86924382Y-71751391D01*
X86934580Y-71768635D01*
X86943136Y-71786100D01*
X86950514Y-71804732D01*
X86950515Y-71804733D01*
X86976180Y-71840059D01*
X86982593Y-71849822D01*
X87004826Y-71887416D01*
X87004829Y-71887419D01*
X87004830Y-71887420D01*
X87018995Y-71901585D01*
X87031627Y-71916375D01*
X87043406Y-71932587D01*
X87077058Y-71960426D01*
X87085699Y-71968289D01*
X87199038Y-72081628D01*
X87232523Y-72142951D01*
X87234678Y-72156347D01*
X87252326Y-72324257D01*
X87310820Y-72504284D01*
X87405466Y-72668216D01*
X87532129Y-72808889D01*
X87685269Y-72920151D01*
X87858197Y-72997144D01*
X88043352Y-73036500D01*
X88043354Y-73036500D01*
X88232648Y-73036500D01*
X88377484Y-73005714D01*
X88417803Y-72997144D01*
X88590730Y-72920151D01*
X88668967Y-72863309D01*
X88743870Y-72808889D01*
X88870533Y-72668216D01*
X88965179Y-72504284D01*
X88983970Y-72446452D01*
X89023674Y-72324256D01*
X89043460Y-72136000D01*
X89023674Y-71947744D01*
X88968206Y-71777032D01*
X88965179Y-71767715D01*
X88870533Y-71603783D01*
X88743870Y-71463110D01*
X88590730Y-71351848D01*
X88417802Y-71274855D01*
X88226719Y-71234239D01*
X88165237Y-71201047D01*
X88131461Y-71139883D01*
X88128500Y-71112949D01*
X88128500Y-61658687D01*
X88148185Y-61591648D01*
X88160350Y-61575714D01*
X88174617Y-61559869D01*
X88235533Y-61492216D01*
X88330179Y-61328284D01*
X88388674Y-61148256D01*
X88408460Y-60960000D01*
X88388674Y-60771744D01*
X88342934Y-60630971D01*
X88330179Y-60591715D01*
X88235533Y-60427783D01*
X88108870Y-60287110D01*
X87955730Y-60175848D01*
X87782802Y-60098855D01*
X87597648Y-60059500D01*
X87597646Y-60059500D01*
X87408354Y-60059500D01*
X87408352Y-60059500D01*
X87223197Y-60098855D01*
X87050269Y-60175848D01*
X86897129Y-60287110D01*
X86770466Y-60427783D01*
X86675820Y-60591715D01*
X86617326Y-60771742D01*
X86597540Y-60960000D01*
X82530500Y-60960000D01*
X82530500Y-58354336D01*
X82550185Y-58287297D01*
X82566819Y-58266655D01*
X86206655Y-54626819D01*
X86267978Y-54593334D01*
X86294336Y-54590500D01*
X89422453Y-54590500D01*
X94680664Y-54590500D01*
X94747703Y-54610185D01*
X94768345Y-54626819D01*
X105773944Y-65632418D01*
X105777790Y-65636440D01*
X105832914Y-65696748D01*
X105897919Y-65746242D01*
X105902241Y-65749689D01*
X105964981Y-65802068D01*
X105982274Y-65811880D01*
X105996181Y-65821060D01*
X106012005Y-65833108D01*
X106036697Y-65845689D01*
X106084812Y-65870205D01*
X106089712Y-65872842D01*
X106160757Y-65913154D01*
X106179509Y-65919716D01*
X106194850Y-65926273D01*
X106212562Y-65935298D01*
X106212564Y-65935298D01*
X106212565Y-65935299D01*
X106290857Y-65958808D01*
X106296074Y-65960503D01*
X106373217Y-65987498D01*
X106392175Y-65990500D01*
X106392844Y-65990606D01*
X106409111Y-65994318D01*
X106428149Y-66000036D01*
X106509386Y-66009188D01*
X106514842Y-66009928D01*
X106595540Y-66022710D01*
X106615418Y-66022263D01*
X106632067Y-66023011D01*
X106651827Y-66025238D01*
X106733372Y-66019739D01*
X106738868Y-66019492D01*
X106820578Y-66017659D01*
X106840060Y-66013669D01*
X106856566Y-66011433D01*
X106876412Y-66010096D01*
X106876415Y-66010095D01*
X106876417Y-66010095D01*
X106939262Y-65994259D01*
X106969561Y-65990500D01*
X107882159Y-65990500D01*
X107949198Y-66010185D01*
X107994953Y-66062989D01*
X108004897Y-66132147D01*
X107975872Y-66195703D01*
X107958325Y-66212349D01*
X107939028Y-66227370D01*
X107880450Y-66272962D01*
X107727347Y-66439275D01*
X107603696Y-66628537D01*
X107512890Y-66835556D01*
X107457392Y-67054711D01*
X107438724Y-67279999D01*
X107457392Y-67505288D01*
X107457392Y-67505291D01*
X107457393Y-67505293D01*
X107501200Y-67678284D01*
X107512890Y-67724443D01*
X107603696Y-67931462D01*
X107727347Y-68120724D01*
X107880450Y-68287037D01*
X107880454Y-68287040D01*
X108058851Y-68425893D01*
X108058853Y-68425894D01*
X108086666Y-68440946D01*
X108136256Y-68490165D01*
X108151364Y-68558382D01*
X108127193Y-68623937D01*
X108086666Y-68659054D01*
X108058853Y-68674105D01*
X107880450Y-68812962D01*
X107727347Y-68979275D01*
X107603696Y-69168537D01*
X107512890Y-69375556D01*
X107457392Y-69594711D01*
X107438724Y-69820000D01*
X107457392Y-70045288D01*
X107457392Y-70045291D01*
X107457393Y-70045293D01*
X107512889Y-70264441D01*
X107526702Y-70295932D01*
X107603696Y-70471462D01*
X107727347Y-70660724D01*
X107880450Y-70827037D01*
X107880454Y-70827040D01*
X108058851Y-70965893D01*
X108058853Y-70965894D01*
X108086666Y-70980946D01*
X108136256Y-71030165D01*
X108151364Y-71098382D01*
X108127193Y-71163937D01*
X108086666Y-71199054D01*
X108058853Y-71214105D01*
X107880450Y-71352962D01*
X107727347Y-71519275D01*
X107603696Y-71708537D01*
X107519021Y-71901579D01*
X107512889Y-71915559D01*
X107461848Y-72117114D01*
X107457392Y-72134711D01*
X107438724Y-72359999D01*
X107457392Y-72585288D01*
X107457392Y-72585291D01*
X107457393Y-72585293D01*
X107501200Y-72758284D01*
X107512890Y-72804443D01*
X107603696Y-73011462D01*
X107727347Y-73200724D01*
X107880450Y-73367037D01*
X107880454Y-73367040D01*
X108058851Y-73505893D01*
X108058853Y-73505894D01*
X108086666Y-73520946D01*
X108136256Y-73570165D01*
X108151364Y-73638382D01*
X108127193Y-73703937D01*
X108086666Y-73739054D01*
X108058853Y-73754105D01*
X107880450Y-73892962D01*
X107727347Y-74059275D01*
X107603696Y-74248537D01*
X107512890Y-74455556D01*
X107457392Y-74674711D01*
X107438724Y-74899999D01*
X107457392Y-75125288D01*
X107512890Y-75344443D01*
X107603696Y-75551462D01*
X107727347Y-75740724D01*
X107880450Y-75907037D01*
X107880454Y-75907040D01*
X108058851Y-76045893D01*
X108058853Y-76045894D01*
X108086666Y-76060946D01*
X108136256Y-76110165D01*
X108151364Y-76178382D01*
X108127193Y-76243937D01*
X108086666Y-76279054D01*
X108058853Y-76294105D01*
X107880450Y-76432962D01*
X107727347Y-76599275D01*
X107603696Y-76788537D01*
X107522440Y-76973785D01*
X107512889Y-76995559D01*
X107472754Y-77154049D01*
X107457392Y-77214711D01*
X107438724Y-77440000D01*
X107457392Y-77665288D01*
X107512890Y-77884443D01*
X107603696Y-78091462D01*
X107727347Y-78280724D01*
X107880450Y-78447037D01*
X107880454Y-78447040D01*
X108058851Y-78585893D01*
X108058853Y-78585894D01*
X108086666Y-78600946D01*
X108136256Y-78650165D01*
X108151364Y-78718382D01*
X108127193Y-78783937D01*
X108086666Y-78819054D01*
X108058853Y-78834105D01*
X107880450Y-78972962D01*
X107727347Y-79139275D01*
X107603696Y-79328537D01*
X107512890Y-79535556D01*
X107457392Y-79754711D01*
X107438724Y-79980000D01*
X107457392Y-80205288D01*
X107457392Y-80205291D01*
X107457393Y-80205293D01*
X107512889Y-80424441D01*
X107517011Y-80433839D01*
X107603696Y-80631462D01*
X107727347Y-80820724D01*
X107880450Y-80987037D01*
X107880454Y-80987040D01*
X108058851Y-81125893D01*
X108058853Y-81125894D01*
X108086666Y-81140946D01*
X108136256Y-81190165D01*
X108151364Y-81258382D01*
X108127193Y-81323937D01*
X108086666Y-81359054D01*
X108058853Y-81374105D01*
X107880450Y-81512962D01*
X107727347Y-81679275D01*
X107603696Y-81868537D01*
X107512890Y-82075556D01*
X107457392Y-82294711D01*
X107438724Y-82520000D01*
X107457392Y-82745288D01*
X107457392Y-82745291D01*
X107457393Y-82745293D01*
X107503897Y-82928934D01*
X107512890Y-82964443D01*
X107603696Y-83171462D01*
X107727347Y-83360724D01*
X107880450Y-83527037D01*
X107880454Y-83527040D01*
X108058851Y-83665893D01*
X108058853Y-83665894D01*
X108086666Y-83680946D01*
X108136256Y-83730165D01*
X108151364Y-83798382D01*
X108127193Y-83863937D01*
X108086666Y-83899054D01*
X108058853Y-83914105D01*
X107880450Y-84052962D01*
X107727347Y-84219275D01*
X107603696Y-84408537D01*
X107512890Y-84615556D01*
X107457392Y-84834711D01*
X107438724Y-85059999D01*
X107457392Y-85285288D01*
X107512890Y-85504443D01*
X107603696Y-85711462D01*
X107727347Y-85900724D01*
X107880450Y-86067037D01*
X107880454Y-86067040D01*
X108058851Y-86205893D01*
X108058853Y-86205894D01*
X108086666Y-86220946D01*
X108136256Y-86270165D01*
X108151364Y-86338382D01*
X108127193Y-86403937D01*
X108086666Y-86439054D01*
X108058853Y-86454105D01*
X107880450Y-86592962D01*
X107727347Y-86759275D01*
X107603696Y-86948537D01*
X107512890Y-87155556D01*
X107457392Y-87374711D01*
X107438724Y-87600000D01*
X107457392Y-87825288D01*
X107457392Y-87825291D01*
X107457393Y-87825293D01*
X107512328Y-88042227D01*
X107512890Y-88044443D01*
X107603696Y-88251462D01*
X107727347Y-88440724D01*
X107880450Y-88607037D01*
X107880454Y-88607040D01*
X108058851Y-88745893D01*
X108058853Y-88745894D01*
X108086666Y-88760946D01*
X108136256Y-88810165D01*
X108151364Y-88878382D01*
X108127193Y-88943937D01*
X108086666Y-88979054D01*
X108058853Y-88994105D01*
X107880450Y-89132962D01*
X107727347Y-89299275D01*
X107603696Y-89488537D01*
X107574221Y-89555734D01*
X107529265Y-89609220D01*
X107462529Y-89629910D01*
X107395201Y-89611235D01*
X107368515Y-89588897D01*
X107358532Y-89577810D01*
X107285871Y-89497112D01*
X107285867Y-89497109D01*
X107132730Y-89385848D01*
X106959802Y-89308855D01*
X106774648Y-89269500D01*
X106774646Y-89269500D01*
X106585354Y-89269500D01*
X106585352Y-89269500D01*
X106400197Y-89308855D01*
X106248504Y-89376394D01*
X106179254Y-89385679D01*
X106115977Y-89356051D01*
X106110387Y-89350796D01*
X104801818Y-88042227D01*
X104768333Y-87980904D01*
X104765499Y-87954546D01*
X104765499Y-80533849D01*
X104765499Y-73088683D01*
X104785184Y-73021648D01*
X104797350Y-73005714D01*
X104872533Y-72922216D01*
X104967179Y-72758284D01*
X105025674Y-72578256D01*
X105045460Y-72390000D01*
X105025674Y-72201744D01*
X104967179Y-72021716D01*
X104967179Y-72021715D01*
X104872533Y-71857783D01*
X104797350Y-71774284D01*
X104767120Y-71711293D01*
X104765500Y-71691312D01*
X104765500Y-70548687D01*
X104785185Y-70481648D01*
X104797350Y-70465714D01*
X104872533Y-70382216D01*
X104967179Y-70218284D01*
X105025674Y-70038256D01*
X105045460Y-69850000D01*
X105025674Y-69661744D01*
X104967179Y-69481716D01*
X104967179Y-69481715D01*
X104872533Y-69317783D01*
X104797350Y-69234284D01*
X104767120Y-69171293D01*
X104765500Y-69151312D01*
X104765500Y-68008687D01*
X104785185Y-67941648D01*
X104797350Y-67925714D01*
X104872533Y-67842216D01*
X104967179Y-67678284D01*
X105025674Y-67498256D01*
X105045460Y-67310000D01*
X105025674Y-67121744D01*
X104967179Y-66941716D01*
X104967179Y-66941715D01*
X104872533Y-66777783D01*
X104745870Y-66637110D01*
X104592730Y-66525848D01*
X104419802Y-66448855D01*
X104234648Y-66409500D01*
X104234646Y-66409500D01*
X104045354Y-66409500D01*
X104045352Y-66409500D01*
X103860197Y-66448855D01*
X103687269Y-66525848D01*
X103534129Y-66637110D01*
X103407466Y-66777783D01*
X103312820Y-66941715D01*
X103254326Y-67121742D01*
X103234540Y-67310000D01*
X103254326Y-67498257D01*
X103312820Y-67678284D01*
X103407464Y-67842213D01*
X103407467Y-67842216D01*
X103482173Y-67925185D01*
X103482650Y-67925714D01*
X103512880Y-67988706D01*
X103514500Y-68008687D01*
X103514500Y-69151312D01*
X103494815Y-69218351D01*
X103482650Y-69234284D01*
X103407466Y-69317783D01*
X103312820Y-69481715D01*
X103254326Y-69661742D01*
X103254325Y-69661744D01*
X103254326Y-69661744D01*
X103234540Y-69850000D01*
X103254326Y-70038256D01*
X103254326Y-70038258D01*
X103255689Y-70051218D01*
X103251955Y-70051610D01*
X103253297Y-70098825D01*
X103217207Y-70158652D01*
X103154501Y-70189470D01*
X103085088Y-70181495D01*
X103054335Y-70162826D01*
X103041945Y-70152576D01*
X103033305Y-70144714D01*
X100252960Y-67364369D01*
X100219475Y-67303046D01*
X100217323Y-67289668D01*
X100199674Y-67121744D01*
X100141179Y-66941716D01*
X100141179Y-66941715D01*
X100046533Y-66777783D01*
X99919870Y-66637110D01*
X99766730Y-66525848D01*
X99593802Y-66448855D01*
X99408648Y-66409500D01*
X99408646Y-66409500D01*
X99219354Y-66409500D01*
X99219352Y-66409500D01*
X99034197Y-66448855D01*
X98861269Y-66525848D01*
X98716791Y-66630818D01*
X98650985Y-66654298D01*
X98643906Y-66654500D01*
X97548304Y-66654500D01*
X97481265Y-66634815D01*
X97435510Y-66582011D01*
X97424983Y-66543462D01*
X97423132Y-66525848D01*
X97405674Y-66359744D01*
X97362663Y-66227370D01*
X97347179Y-66179715D01*
X97252533Y-66015783D01*
X97125870Y-65875110D01*
X96993312Y-65778802D01*
X96950646Y-65723472D01*
X96946280Y-65710041D01*
X96931725Y-65654732D01*
X96510564Y-64054319D01*
X96507154Y-64031661D01*
X96506680Y-64030089D01*
X96506680Y-64030087D01*
X96487704Y-63967150D01*
X96486533Y-63963002D01*
X96479891Y-63937760D01*
X96477812Y-63932601D01*
X96474110Y-63922064D01*
X96467054Y-63898662D01*
X96461059Y-63878777D01*
X96451485Y-63862955D01*
X96442562Y-63845105D01*
X96435655Y-63827961D01*
X96408853Y-63791534D01*
X96402652Y-63782256D01*
X96379241Y-63743566D01*
X96366036Y-63730626D01*
X96352949Y-63715551D01*
X96341997Y-63700665D01*
X96306981Y-63672049D01*
X96298672Y-63664609D01*
X96266365Y-63632948D01*
X96250358Y-63623699D01*
X96233928Y-63612348D01*
X96219625Y-63600659D01*
X96178601Y-63581653D01*
X96168686Y-63576505D01*
X94981209Y-62890330D01*
X94969475Y-62881613D01*
X94963882Y-62878538D01*
X94901605Y-62844300D01*
X94899346Y-62843027D01*
X94896233Y-62841228D01*
X94848043Y-62790636D01*
X94834854Y-62722023D01*
X94844729Y-62684065D01*
X94862111Y-62644441D01*
X94917607Y-62425293D01*
X94936275Y-62200000D01*
X94917607Y-61974707D01*
X94862111Y-61755559D01*
X94771302Y-61548535D01*
X94647656Y-61359281D01*
X94647655Y-61359280D01*
X94647652Y-61359275D01*
X94494549Y-61192962D01*
X94397204Y-61117195D01*
X94316149Y-61054107D01*
X94288332Y-61039053D01*
X94238743Y-60989836D01*
X94223635Y-60921620D01*
X94247805Y-60856064D01*
X94288331Y-60820946D01*
X94316149Y-60805893D01*
X94494546Y-60667040D01*
X94585611Y-60568118D01*
X94647652Y-60500724D01*
X94647653Y-60500721D01*
X94647656Y-60500719D01*
X94771302Y-60311465D01*
X94862111Y-60104441D01*
X94917607Y-59885293D01*
X94936275Y-59660000D01*
X94917607Y-59434707D01*
X94862111Y-59215559D01*
X94771302Y-59008535D01*
X94647656Y-58819281D01*
X94647655Y-58819280D01*
X94647652Y-58819275D01*
X94494549Y-58652962D01*
X94316148Y-58514106D01*
X94288332Y-58499053D01*
X94238742Y-58449833D01*
X94223635Y-58381616D01*
X94247806Y-58316061D01*
X94288333Y-58280945D01*
X94316149Y-58265893D01*
X94494546Y-58127040D01*
X94510256Y-58109975D01*
X94647652Y-57960724D01*
X94647655Y-57960720D01*
X94647656Y-57960719D01*
X94771302Y-57771465D01*
X94862111Y-57564441D01*
X94917607Y-57345293D01*
X94936275Y-57120000D01*
X94917607Y-56894707D01*
X94862111Y-56675559D01*
X94771302Y-56468535D01*
X94647656Y-56279281D01*
X94647655Y-56279280D01*
X94647652Y-56279275D01*
X94494549Y-56112962D01*
X94316150Y-55974108D01*
X94316149Y-55974107D01*
X94117331Y-55866512D01*
X94117330Y-55866511D01*
X94117327Y-55866510D01*
X93903516Y-55793109D01*
X93754859Y-55768302D01*
X93680533Y-55755900D01*
X93454467Y-55755900D01*
X93398721Y-55765202D01*
X93231483Y-55793109D01*
X93017672Y-55866510D01*
X92818849Y-55974108D01*
X92640450Y-56112962D01*
X92487347Y-56279275D01*
X92363696Y-56468537D01*
X92272890Y-56675556D01*
X92272889Y-56675559D01*
X92228434Y-56851109D01*
X92217392Y-56894711D01*
X92198724Y-57119999D01*
X92217392Y-57345288D01*
X92217392Y-57345291D01*
X92217393Y-57345293D01*
X92247675Y-57464875D01*
X92272890Y-57564443D01*
X92363696Y-57771462D01*
X92487347Y-57960724D01*
X92640450Y-58127037D01*
X92640454Y-58127040D01*
X92818851Y-58265893D01*
X92818853Y-58265894D01*
X92846666Y-58280946D01*
X92896256Y-58330165D01*
X92911364Y-58398382D01*
X92887193Y-58463937D01*
X92846666Y-58499054D01*
X92818853Y-58514105D01*
X92640450Y-58652962D01*
X92487347Y-58819275D01*
X92363696Y-59008537D01*
X92272890Y-59215556D01*
X92217392Y-59434711D01*
X92198724Y-59659999D01*
X92217392Y-59885288D01*
X92217392Y-59885291D01*
X92217393Y-59885293D01*
X92271474Y-60098855D01*
X92272890Y-60104443D01*
X92363696Y-60311462D01*
X92487347Y-60500724D01*
X92640450Y-60667037D01*
X92640454Y-60667040D01*
X92818851Y-60805893D01*
X92818853Y-60805894D01*
X92846666Y-60820946D01*
X92896256Y-60870165D01*
X92911364Y-60938382D01*
X92887193Y-61003937D01*
X92846666Y-61039054D01*
X92818853Y-61054105D01*
X92640450Y-61192962D01*
X92487347Y-61359275D01*
X92363696Y-61548537D01*
X92272888Y-61755560D01*
X92259125Y-61809909D01*
X92223585Y-61870064D01*
X92161165Y-61901455D01*
X92091681Y-61894117D01*
X92051239Y-61867148D01*
X91743960Y-61559869D01*
X91710475Y-61498546D01*
X91708323Y-61485168D01*
X91690674Y-61317244D01*
X91650292Y-61192962D01*
X91632179Y-61137215D01*
X91537533Y-60973283D01*
X91410870Y-60832610D01*
X91257730Y-60721348D01*
X91084802Y-60644355D01*
X90899648Y-60605000D01*
X90899646Y-60605000D01*
X90710354Y-60605000D01*
X90710352Y-60605000D01*
X90525197Y-60644355D01*
X90352269Y-60721348D01*
X90199129Y-60832610D01*
X90072466Y-60973283D01*
X89977820Y-61137215D01*
X89919326Y-61317242D01*
X89899540Y-61505500D01*
X89919326Y-61693757D01*
X89977820Y-61873784D01*
X90072466Y-62037716D01*
X90199129Y-62178389D01*
X90352269Y-62289651D01*
X90468168Y-62341252D01*
X90525197Y-62366644D01*
X90594900Y-62381459D01*
X90656379Y-62414650D01*
X90690156Y-62475813D01*
X90685504Y-62545528D01*
X90643900Y-62601660D01*
X90594899Y-62624039D01*
X90525196Y-62638855D01*
X90352269Y-62715848D01*
X90199129Y-62827110D01*
X90072466Y-62967783D01*
X89977820Y-63131715D01*
X89919326Y-63311742D01*
X89899540Y-63499999D01*
X89899540Y-63500000D01*
X89902676Y-63529836D01*
X89919326Y-63688257D01*
X89977820Y-63868284D01*
X90072466Y-64032216D01*
X90199129Y-64172889D01*
X90352269Y-64284151D01*
X90525197Y-64361144D01*
X90710352Y-64400500D01*
X90710354Y-64400500D01*
X90817738Y-64400500D01*
X90884777Y-64420185D01*
X90901147Y-64432745D01*
X91535912Y-65009804D01*
X91572275Y-65069463D01*
X91576500Y-65101555D01*
X91576500Y-88690051D01*
X91574265Y-88710246D01*
X91576441Y-88780724D01*
X91576500Y-88784550D01*
X91576500Y-88812350D01*
X91576988Y-88816214D01*
X91577004Y-88816467D01*
X91577895Y-88827831D01*
X91579237Y-88871285D01*
X91584874Y-88890727D01*
X91588798Y-88909705D01*
X91591336Y-88929794D01*
X91607340Y-88970219D01*
X91611142Y-88981331D01*
X91623245Y-89023074D01*
X91633537Y-89040498D01*
X91642061Y-89057909D01*
X91649513Y-89076730D01*
X91675062Y-89111896D01*
X91681510Y-89121718D01*
X91703617Y-89159146D01*
X91717924Y-89173469D01*
X91730511Y-89188214D01*
X91742406Y-89204587D01*
X91766528Y-89224542D01*
X91775902Y-89232297D01*
X91784584Y-89240202D01*
X92181730Y-89637784D01*
X92216362Y-89672454D01*
X92249814Y-89733796D01*
X92248839Y-89790526D01*
X92217392Y-89914710D01*
X92198724Y-90140000D01*
X92217392Y-90365288D01*
X92217392Y-90365291D01*
X92217393Y-90365293D01*
X92269707Y-90571877D01*
X92272890Y-90584443D01*
X92363696Y-90791462D01*
X92487347Y-90980724D01*
X92640450Y-91147037D01*
X92640454Y-91147040D01*
X92818851Y-91285893D01*
X92818853Y-91285894D01*
X92846666Y-91300946D01*
X92896256Y-91350165D01*
X92911364Y-91418382D01*
X92887193Y-91483937D01*
X92846666Y-91519054D01*
X92818853Y-91534105D01*
X92640450Y-91672962D01*
X92487347Y-91839275D01*
X92363696Y-92028537D01*
X92272890Y-92235556D01*
X92217392Y-92454711D01*
X92198724Y-92679999D01*
X92217392Y-92905288D01*
X92217392Y-92905291D01*
X92217393Y-92905293D01*
X92272889Y-93124441D01*
X92280950Y-93142819D01*
X92297562Y-93180690D01*
X92306465Y-93249990D01*
X92276488Y-93313102D01*
X92217148Y-93349989D01*
X92184006Y-93354500D01*
X82618747Y-93354500D01*
X82551708Y-93334815D01*
X82526599Y-93313473D01*
X82520871Y-93307112D01*
X82431721Y-93242341D01*
X82367727Y-93195846D01*
X82307483Y-93169024D01*
X82254246Y-93123774D01*
X82233925Y-93056925D01*
X82252970Y-92989701D01*
X82305337Y-92943446D01*
X82328972Y-92935171D01*
X82395612Y-92919172D01*
X82395613Y-92919171D01*
X82395615Y-92919171D01*
X82621088Y-92825778D01*
X82671045Y-92795163D01*
X82829179Y-92698259D01*
X83014759Y-92539759D01*
X83090711Y-92450830D01*
X83149217Y-92412638D01*
X83219084Y-92412139D01*
X83278131Y-92449493D01*
X83279251Y-92450785D01*
X83355241Y-92539759D01*
X83540821Y-92698259D01*
X83614980Y-92743704D01*
X83748911Y-92825778D01*
X83974384Y-92919171D01*
X83974387Y-92919171D01*
X83974388Y-92919172D01*
X84211698Y-92976146D01*
X84455000Y-92995294D01*
X84698302Y-92976146D01*
X84935612Y-92919172D01*
X84935613Y-92919171D01*
X84935615Y-92919171D01*
X85161088Y-92825778D01*
X85211045Y-92795163D01*
X85369179Y-92698259D01*
X85554759Y-92539759D01*
X85630711Y-92450830D01*
X85689217Y-92412638D01*
X85759084Y-92412139D01*
X85818131Y-92449493D01*
X85819251Y-92450785D01*
X85895241Y-92539759D01*
X86080821Y-92698259D01*
X86154980Y-92743704D01*
X86288911Y-92825778D01*
X86514384Y-92919171D01*
X86514387Y-92919171D01*
X86514388Y-92919172D01*
X86751698Y-92976146D01*
X86995000Y-92995294D01*
X87238302Y-92976146D01*
X87475612Y-92919172D01*
X87475613Y-92919171D01*
X87475615Y-92919171D01*
X87701088Y-92825778D01*
X87782603Y-92775824D01*
X87886286Y-92712287D01*
X87953730Y-92694043D01*
X88020333Y-92715159D01*
X88050342Y-92743704D01*
X88127810Y-92847188D01*
X88242910Y-92933352D01*
X88377628Y-92983599D01*
X88433867Y-92989645D01*
X88440482Y-92990000D01*
X89285000Y-92990000D01*
X89285000Y-91931683D01*
X89313819Y-91949209D01*
X89459404Y-91990000D01*
X89572622Y-91990000D01*
X89684783Y-91974584D01*
X89785000Y-91931053D01*
X89785000Y-92990000D01*
X90629518Y-92990000D01*
X90636132Y-92989645D01*
X90692371Y-92983599D01*
X90827089Y-92933352D01*
X90942188Y-92847188D01*
X91028352Y-92732089D01*
X91078599Y-92597371D01*
X91084645Y-92541132D01*
X91085000Y-92534518D01*
X91085000Y-91690000D01*
X90029852Y-91690000D01*
X90078559Y-91552953D01*
X90088877Y-91402114D01*
X90058116Y-91254085D01*
X90024910Y-91190000D01*
X91085000Y-91190000D01*
X91085000Y-90345481D01*
X91084645Y-90338867D01*
X91078599Y-90282628D01*
X91028352Y-90147910D01*
X90942188Y-90032811D01*
X90827089Y-89946647D01*
X90692371Y-89896400D01*
X90636132Y-89890354D01*
X90629518Y-89890000D01*
X89785000Y-89890000D01*
X89785000Y-90948316D01*
X89756181Y-90930791D01*
X89610596Y-90890000D01*
X89497378Y-90890000D01*
X89385217Y-90905416D01*
X89285000Y-90948946D01*
X89285000Y-89890000D01*
X88440482Y-89890000D01*
X88433867Y-89890354D01*
X88377628Y-89896400D01*
X88242910Y-89946647D01*
X88127808Y-90032813D01*
X88050341Y-90136295D01*
X87994407Y-90178166D01*
X87924716Y-90183150D01*
X87886285Y-90167711D01*
X87701088Y-90054221D01*
X87475615Y-89960828D01*
X87238303Y-89903854D01*
X87116651Y-89894280D01*
X86995000Y-89884706D01*
X86994999Y-89884706D01*
X86751696Y-89903854D01*
X86514384Y-89960828D01*
X86288911Y-90054221D01*
X86080822Y-90181740D01*
X85895241Y-90340241D01*
X85819290Y-90429168D01*
X85760783Y-90467361D01*
X85690915Y-90467859D01*
X85631869Y-90430505D01*
X85630710Y-90429168D01*
X85576155Y-90365293D01*
X85554759Y-90340241D01*
X85369179Y-90181741D01*
X85313972Y-90147910D01*
X85161088Y-90054221D01*
X84935615Y-89960828D01*
X84698303Y-89903854D01*
X84576650Y-89894280D01*
X84455000Y-89884706D01*
X84454999Y-89884706D01*
X84211696Y-89903854D01*
X83974384Y-89960828D01*
X83748911Y-90054221D01*
X83540822Y-90181740D01*
X83355240Y-90340242D01*
X83279288Y-90429169D01*
X83220781Y-90467361D01*
X83150913Y-90467859D01*
X83091867Y-90430505D01*
X83090709Y-90429167D01*
X83019234Y-90345481D01*
X83014759Y-90340241D01*
X82829179Y-90181741D01*
X82773972Y-90147910D01*
X82621088Y-90054221D01*
X82395615Y-89960828D01*
X82158303Y-89903854D01*
X81915000Y-89884706D01*
X81671696Y-89903854D01*
X81434384Y-89960828D01*
X81208911Y-90054221D01*
X81000822Y-90181740D01*
X80815241Y-90340241D01*
X80656740Y-90525822D01*
X80529221Y-90733911D01*
X80435828Y-90959384D01*
X80378854Y-91196696D01*
X80359706Y-91440000D01*
X80378854Y-91683303D01*
X80435828Y-91920615D01*
X80529221Y-92146088D01*
X80584050Y-92235559D01*
X80656741Y-92354179D01*
X80815241Y-92539759D01*
X81000821Y-92698259D01*
X81074980Y-92743704D01*
X81208911Y-92825778D01*
X81434384Y-92919171D01*
X81501027Y-92935171D01*
X81561619Y-92969962D01*
X81593783Y-93031988D01*
X81587307Y-93101557D01*
X81544247Y-93156581D01*
X81522516Y-93169024D01*
X81462269Y-93195848D01*
X81309129Y-93307110D01*
X81182466Y-93447783D01*
X81087820Y-93611715D01*
X81029326Y-93791742D01*
X81009540Y-93980000D01*
X81029326Y-94168257D01*
X81087820Y-94348284D01*
X81182466Y-94512216D01*
X81309129Y-94652889D01*
X81462269Y-94764151D01*
X81635197Y-94841144D01*
X81820352Y-94880500D01*
X81820354Y-94880500D01*
X82009648Y-94880500D01*
X82133083Y-94854262D01*
X82194803Y-94841144D01*
X82367730Y-94764151D01*
X82520871Y-94652888D01*
X82526598Y-94646527D01*
X82586084Y-94609879D01*
X82618747Y-94605500D01*
X83426171Y-94605500D01*
X83493210Y-94625185D01*
X83538965Y-94677989D01*
X83547315Y-94729129D01*
X83548178Y-94729039D01*
X83569326Y-94930257D01*
X83627820Y-95110284D01*
X83722466Y-95274216D01*
X83849129Y-95414889D01*
X84002269Y-95526151D01*
X84175197Y-95603144D01*
X84360352Y-95642500D01*
X84360354Y-95642500D01*
X84549648Y-95642500D01*
X84673083Y-95616262D01*
X84734803Y-95603144D01*
X84907730Y-95526151D01*
X85060871Y-95414888D01*
X85066598Y-95408527D01*
X85126084Y-95371879D01*
X85158747Y-95367500D01*
X85966171Y-95367500D01*
X86033210Y-95387185D01*
X86078965Y-95439989D01*
X86087315Y-95491129D01*
X86088178Y-95491039D01*
X86089540Y-95503999D01*
X86089540Y-95504000D01*
X86093258Y-95539374D01*
X86109326Y-95692257D01*
X86167820Y-95872284D01*
X86262466Y-96036216D01*
X86389129Y-96176889D01*
X86542269Y-96288151D01*
X86715197Y-96365144D01*
X86900352Y-96404500D01*
X86900354Y-96404500D01*
X87089648Y-96404500D01*
X87213084Y-96378262D01*
X87274803Y-96365144D01*
X87447730Y-96288151D01*
X87600871Y-96176888D01*
X87606598Y-96170527D01*
X87666084Y-96133879D01*
X87698747Y-96129500D01*
X101517256Y-96129500D01*
X101537762Y-96131764D01*
X101540665Y-96131672D01*
X101540667Y-96131673D01*
X101607872Y-96129561D01*
X101611768Y-96129500D01*
X101635448Y-96129500D01*
X101639350Y-96129500D01*
X101643313Y-96128999D01*
X101654962Y-96128080D01*
X101698627Y-96126709D01*
X101717859Y-96121120D01*
X101736918Y-96117174D01*
X101743196Y-96116381D01*
X101756792Y-96114664D01*
X101797407Y-96098582D01*
X101808444Y-96094803D01*
X101850390Y-96082618D01*
X101867629Y-96072422D01*
X101885102Y-96063862D01*
X101903732Y-96056486D01*
X101939064Y-96030814D01*
X101948830Y-96024400D01*
X101986418Y-96002171D01*
X101986417Y-96002171D01*
X101986420Y-96002170D01*
X102000585Y-95988004D01*
X102015373Y-95975373D01*
X102031587Y-95963594D01*
X102059438Y-95929926D01*
X102067279Y-95921309D01*
X102999788Y-94988801D01*
X103015885Y-94975906D01*
X103017873Y-94973787D01*
X103017877Y-94973786D01*
X103063949Y-94924723D01*
X103066534Y-94922055D01*
X103086120Y-94902471D01*
X103088585Y-94899292D01*
X103096167Y-94890416D01*
X103107357Y-94878500D01*
X103126062Y-94858582D01*
X103135712Y-94841027D01*
X103146400Y-94824757D01*
X103158671Y-94808938D01*
X103158673Y-94808936D01*
X103176026Y-94768832D01*
X103181157Y-94758362D01*
X103202197Y-94720092D01*
X103207175Y-94700699D01*
X103213481Y-94682282D01*
X103215339Y-94677989D01*
X103221438Y-94663896D01*
X103228272Y-94620745D01*
X103230635Y-94609331D01*
X103241500Y-94567019D01*
X103241500Y-94546983D01*
X103243027Y-94527584D01*
X103246160Y-94507804D01*
X103242050Y-94464324D01*
X103241500Y-94452655D01*
X103241500Y-94297687D01*
X103261185Y-94230648D01*
X103273350Y-94214714D01*
X103348533Y-94131216D01*
X103443179Y-93967284D01*
X103501674Y-93787256D01*
X103521460Y-93599000D01*
X103505007Y-93442459D01*
X103517577Y-93373732D01*
X103565309Y-93322708D01*
X103628328Y-93305500D01*
X107519629Y-93305500D01*
X107586668Y-93325185D01*
X107623437Y-93361678D01*
X107655494Y-93410744D01*
X107727345Y-93520721D01*
X107880450Y-93687037D01*
X107880454Y-93687040D01*
X108058851Y-93825893D01*
X108257669Y-93933488D01*
X108471486Y-94006891D01*
X108694467Y-94044100D01*
X108694468Y-94044100D01*
X108920532Y-94044100D01*
X108920533Y-94044100D01*
X109143514Y-94006891D01*
X109357331Y-93933488D01*
X109556149Y-93825893D01*
X109734546Y-93687040D01*
X109815594Y-93598999D01*
X109887652Y-93520724D01*
X109887653Y-93520721D01*
X109887656Y-93520719D01*
X110011302Y-93331465D01*
X110047040Y-93249990D01*
X110051944Y-93238811D01*
X110096900Y-93185325D01*
X110163636Y-93164635D01*
X110230964Y-93183309D01*
X110277507Y-93235420D01*
X110289500Y-93288621D01*
X110289500Y-95880572D01*
X110289184Y-95889418D01*
X110272783Y-96118731D01*
X110270265Y-96136243D01*
X110222341Y-96356545D01*
X110217357Y-96373520D01*
X110138567Y-96584765D01*
X110131217Y-96600859D01*
X110023168Y-96798736D01*
X110013603Y-96813620D01*
X109878487Y-96994113D01*
X109866901Y-97007483D01*
X109707483Y-97166901D01*
X109694113Y-97178487D01*
X109513620Y-97313603D01*
X109498736Y-97323168D01*
X109300859Y-97431217D01*
X109284765Y-97438567D01*
X109073520Y-97517357D01*
X109056545Y-97522341D01*
X108836243Y-97570265D01*
X108818731Y-97572783D01*
X108589418Y-97589184D01*
X108580572Y-97589500D01*
X81918751Y-97589500D01*
X81911264Y-97589274D01*
X81640490Y-97572894D01*
X81625625Y-97571089D01*
X81362492Y-97522868D01*
X81347954Y-97519284D01*
X81092569Y-97439703D01*
X81078568Y-97434394D01*
X80834618Y-97324601D01*
X80821359Y-97317642D01*
X80592431Y-97179251D01*
X80580108Y-97170745D01*
X80369526Y-97005764D01*
X80358318Y-96995834D01*
X80169165Y-96806681D01*
X80159235Y-96795473D01*
X79994250Y-96584885D01*
X79985752Y-96572574D01*
X79847356Y-96343639D01*
X79840398Y-96330381D01*
X79771317Y-96176889D01*
X79730603Y-96086427D01*
X79725296Y-96072430D01*
X79725294Y-96072425D01*
X79645714Y-95817044D01*
X79642131Y-95802507D01*
X79593910Y-95539374D01*
X79592105Y-95524509D01*
X79590864Y-95504000D01*
X79575726Y-95253736D01*
X79575500Y-95246249D01*
X79575500Y-54613749D01*
X79575726Y-54606262D01*
X79576508Y-54593334D01*
X79592105Y-54335487D01*
X79593910Y-54320625D01*
X79642131Y-54057492D01*
X79645715Y-54042954D01*
X79665511Y-53979427D01*
X79725299Y-53787559D01*
X79730601Y-53773578D01*
X79840401Y-53529611D01*
X79847352Y-53516366D01*
X79985757Y-53287417D01*
X79994244Y-53275121D01*
X80159242Y-53064517D01*
X80169157Y-53053326D01*
X80358326Y-52864157D01*
X80369517Y-52854242D01*
X80580121Y-52689244D01*
X80592417Y-52680757D01*
X80821366Y-52542352D01*
X80834611Y-52535401D01*
X81078578Y-52425601D01*
X81092559Y-52420299D01*
X81347959Y-52340713D01*
X81362488Y-52337131D01*
X81625629Y-52288909D01*
X81640487Y-52287105D01*
X81911263Y-52270726D01*
X81918751Y-52270500D01*
X81954882Y-52270500D01*
X84726663Y-52270500D01*
X84793702Y-52290185D01*
G37*
G04 #@! TD.AperFunction*
G04 #@! TA.AperFunction,Conductor*
G36*
X95721879Y-73005185D02*
G01*
X95767634Y-73057989D01*
X95777578Y-73127147D01*
X95762227Y-73171500D01*
X95692820Y-73291715D01*
X95634326Y-73471742D01*
X95614540Y-73660000D01*
X95634326Y-73848257D01*
X95692820Y-74028284D01*
X95787464Y-74192213D01*
X95862650Y-74275714D01*
X95892880Y-74338706D01*
X95894500Y-74358687D01*
X95894500Y-91103256D01*
X95892235Y-91123766D01*
X95894439Y-91193872D01*
X95894500Y-91197767D01*
X95894500Y-91225350D01*
X95894988Y-91229219D01*
X95894989Y-91229225D01*
X95895004Y-91229343D01*
X95895918Y-91240967D01*
X95897290Y-91284626D01*
X95902879Y-91303860D01*
X95906825Y-91322916D01*
X95909335Y-91342792D01*
X95925414Y-91383404D01*
X95929197Y-91394451D01*
X95941382Y-91436391D01*
X95951580Y-91453635D01*
X95960136Y-91471100D01*
X95967514Y-91489732D01*
X95967515Y-91489733D01*
X95993180Y-91525059D01*
X95999593Y-91534822D01*
X96021826Y-91572416D01*
X96021829Y-91572419D01*
X96021830Y-91572420D01*
X96035995Y-91586585D01*
X96048627Y-91601375D01*
X96060406Y-91617587D01*
X96094058Y-91645426D01*
X96102699Y-91653289D01*
X97513196Y-93063787D01*
X97526096Y-93079888D01*
X97577223Y-93127900D01*
X97580020Y-93130611D01*
X97592228Y-93142819D01*
X97625713Y-93204142D01*
X97620729Y-93273834D01*
X97578857Y-93329767D01*
X97513393Y-93354184D01*
X97504547Y-93354500D01*
X94950994Y-93354500D01*
X94883955Y-93334815D01*
X94838200Y-93282011D01*
X94828256Y-93212853D01*
X94837438Y-93180690D01*
X94850847Y-93150120D01*
X94862111Y-93124441D01*
X94917607Y-92905293D01*
X94936275Y-92680000D01*
X94917607Y-92454707D01*
X94862111Y-92235559D01*
X94771302Y-92028535D01*
X94647656Y-91839281D01*
X94647655Y-91839280D01*
X94647652Y-91839275D01*
X94494549Y-91672962D01*
X94392436Y-91593484D01*
X94316149Y-91534107D01*
X94288332Y-91519053D01*
X94238743Y-91469836D01*
X94223635Y-91401620D01*
X94247805Y-91336064D01*
X94288331Y-91300946D01*
X94316149Y-91285893D01*
X94494546Y-91147040D01*
X94513301Y-91126667D01*
X94647652Y-90980724D01*
X94647653Y-90980721D01*
X94647656Y-90980719D01*
X94771302Y-90791465D01*
X94862111Y-90584441D01*
X94917607Y-90365293D01*
X94936275Y-90140000D01*
X94917607Y-89914707D01*
X94862111Y-89695559D01*
X94771302Y-89488535D01*
X94647656Y-89299281D01*
X94647655Y-89299280D01*
X94647652Y-89299275D01*
X94494549Y-89132962D01*
X94398121Y-89057909D01*
X94316149Y-88994107D01*
X94288332Y-88979053D01*
X94238743Y-88929836D01*
X94223635Y-88861620D01*
X94247805Y-88796064D01*
X94288331Y-88760946D01*
X94316149Y-88745893D01*
X94494546Y-88607040D01*
X94497290Y-88604059D01*
X94647652Y-88440724D01*
X94647653Y-88440721D01*
X94647656Y-88440719D01*
X94771302Y-88251465D01*
X94862111Y-88044441D01*
X94917607Y-87825293D01*
X94936275Y-87600000D01*
X94917607Y-87374707D01*
X94862111Y-87155559D01*
X94771302Y-86948535D01*
X94647656Y-86759281D01*
X94647655Y-86759280D01*
X94647652Y-86759275D01*
X94494549Y-86592962D01*
X94440867Y-86551179D01*
X94316149Y-86454107D01*
X94288332Y-86439053D01*
X94238743Y-86389836D01*
X94223635Y-86321620D01*
X94247805Y-86256064D01*
X94288331Y-86220946D01*
X94316149Y-86205893D01*
X94494546Y-86067040D01*
X94494549Y-86067037D01*
X94647652Y-85900724D01*
X94647653Y-85900721D01*
X94647656Y-85900719D01*
X94771302Y-85711465D01*
X94862111Y-85504441D01*
X94917607Y-85285293D01*
X94936275Y-85060000D01*
X94917607Y-84834707D01*
X94862111Y-84615559D01*
X94771302Y-84408535D01*
X94647656Y-84219281D01*
X94647655Y-84219280D01*
X94647652Y-84219275D01*
X94494549Y-84052962D01*
X94371500Y-83957189D01*
X94316149Y-83914107D01*
X94288332Y-83899053D01*
X94238743Y-83849836D01*
X94223635Y-83781620D01*
X94247805Y-83716064D01*
X94288331Y-83680946D01*
X94316149Y-83665893D01*
X94494546Y-83527040D01*
X94494549Y-83527037D01*
X94647652Y-83360724D01*
X94647653Y-83360721D01*
X94647656Y-83360719D01*
X94771302Y-83171465D01*
X94862111Y-82964441D01*
X94917607Y-82745293D01*
X94936275Y-82520000D01*
X94917607Y-82294707D01*
X94862111Y-82075559D01*
X94771302Y-81868535D01*
X94647656Y-81679281D01*
X94647655Y-81679280D01*
X94647652Y-81679275D01*
X94494549Y-81512962D01*
X94440867Y-81471179D01*
X94316149Y-81374107D01*
X94288332Y-81359053D01*
X94238743Y-81309836D01*
X94223635Y-81241620D01*
X94247805Y-81176064D01*
X94288331Y-81140946D01*
X94316149Y-81125893D01*
X94494546Y-80987040D01*
X94496726Y-80984672D01*
X94647652Y-80820724D01*
X94647653Y-80820721D01*
X94647656Y-80820719D01*
X94771302Y-80631465D01*
X94862111Y-80424441D01*
X94917607Y-80205293D01*
X94936275Y-79980000D01*
X94917607Y-79754707D01*
X94862111Y-79535559D01*
X94775414Y-79337909D01*
X94771303Y-79328537D01*
X94767356Y-79322496D01*
X94647656Y-79139281D01*
X94647655Y-79139280D01*
X94647652Y-79139275D01*
X94494549Y-78972962D01*
X94316148Y-78834106D01*
X94288332Y-78819053D01*
X94238742Y-78769833D01*
X94223635Y-78701616D01*
X94247806Y-78636061D01*
X94288333Y-78600945D01*
X94316149Y-78585893D01*
X94494546Y-78447040D01*
X94494549Y-78447037D01*
X94647652Y-78280724D01*
X94647653Y-78280721D01*
X94647656Y-78280719D01*
X94771302Y-78091465D01*
X94862111Y-77884441D01*
X94917607Y-77665293D01*
X94936275Y-77440000D01*
X94917607Y-77214707D01*
X94862111Y-76995559D01*
X94771302Y-76788535D01*
X94647656Y-76599281D01*
X94647655Y-76599280D01*
X94647652Y-76599275D01*
X94494549Y-76432962D01*
X94440867Y-76391179D01*
X94316149Y-76294107D01*
X94288332Y-76279053D01*
X94238743Y-76229836D01*
X94223635Y-76161620D01*
X94247805Y-76096064D01*
X94288331Y-76060946D01*
X94316149Y-76045893D01*
X94494546Y-75907040D01*
X94494549Y-75907037D01*
X94647652Y-75740724D01*
X94647653Y-75740721D01*
X94647656Y-75740719D01*
X94771302Y-75551465D01*
X94862111Y-75344441D01*
X94917607Y-75125293D01*
X94936275Y-74900000D01*
X94917607Y-74674707D01*
X94862111Y-74455559D01*
X94771302Y-74248535D01*
X94647656Y-74059281D01*
X94647655Y-74059280D01*
X94647652Y-74059275D01*
X94494549Y-73892962D01*
X94437111Y-73848256D01*
X94316149Y-73754107D01*
X94288332Y-73739053D01*
X94238743Y-73689836D01*
X94223635Y-73621620D01*
X94247805Y-73556064D01*
X94288331Y-73520946D01*
X94316149Y-73505893D01*
X94494546Y-73367040D01*
X94647656Y-73200719D01*
X94751562Y-73041678D01*
X94804708Y-72996322D01*
X94855371Y-72985500D01*
X95654840Y-72985500D01*
X95721879Y-73005185D01*
G37*
G04 #@! TD.AperFunction*
G04 #@! TA.AperFunction,Conductor*
G36*
X103446703Y-72967209D02*
G01*
X103457649Y-72977949D01*
X103482649Y-73005714D01*
X103512880Y-73068706D01*
X103514500Y-73088687D01*
X103514500Y-88182256D01*
X103512235Y-88202766D01*
X103514439Y-88272872D01*
X103514500Y-88276767D01*
X103514500Y-88304350D01*
X103514988Y-88308219D01*
X103514989Y-88308225D01*
X103515004Y-88308343D01*
X103515918Y-88319967D01*
X103517290Y-88363626D01*
X103522879Y-88382860D01*
X103526825Y-88401916D01*
X103529335Y-88421792D01*
X103545414Y-88462404D01*
X103549197Y-88473451D01*
X103561382Y-88515391D01*
X103571580Y-88532635D01*
X103580136Y-88550100D01*
X103587514Y-88568732D01*
X103587515Y-88568733D01*
X103613180Y-88604059D01*
X103619593Y-88613822D01*
X103641826Y-88651416D01*
X103641829Y-88651419D01*
X103641830Y-88651420D01*
X103655995Y-88665585D01*
X103668627Y-88680375D01*
X103680406Y-88696587D01*
X103714058Y-88724426D01*
X103722699Y-88732289D01*
X105544196Y-90553787D01*
X105557096Y-90569888D01*
X105608223Y-90617900D01*
X105611020Y-90620611D01*
X105630529Y-90640120D01*
X105633709Y-90642587D01*
X105642571Y-90650155D01*
X105674418Y-90680062D01*
X105691972Y-90689712D01*
X105708236Y-90700396D01*
X105719972Y-90709499D01*
X105724064Y-90712673D01*
X105748909Y-90723424D01*
X105764152Y-90730021D01*
X105774631Y-90735154D01*
X105812908Y-90756197D01*
X105832306Y-90761177D01*
X105850708Y-90767477D01*
X105869104Y-90775438D01*
X105912261Y-90782273D01*
X105923664Y-90784634D01*
X105965981Y-90795500D01*
X105976252Y-90795500D01*
X106043291Y-90815185D01*
X106068399Y-90836525D01*
X106074129Y-90842888D01*
X106074132Y-90842890D01*
X106227269Y-90954151D01*
X106400197Y-91031144D01*
X106585352Y-91070500D01*
X106585354Y-91070500D01*
X106774648Y-91070500D01*
X106898084Y-91044262D01*
X106959803Y-91031144D01*
X107132730Y-90954151D01*
X107240920Y-90875547D01*
X107285870Y-90842889D01*
X107310815Y-90815185D01*
X107386212Y-90731447D01*
X107445698Y-90694799D01*
X107515556Y-90696129D01*
X107573604Y-90735016D01*
X107591918Y-90764611D01*
X107603695Y-90791460D01*
X107727347Y-90980724D01*
X107880450Y-91147037D01*
X107880454Y-91147040D01*
X108058851Y-91285893D01*
X108058853Y-91285894D01*
X108086666Y-91300946D01*
X108136256Y-91350165D01*
X108151364Y-91418382D01*
X108127193Y-91483937D01*
X108086666Y-91519054D01*
X108058853Y-91534105D01*
X107880450Y-91672962D01*
X107727345Y-91839278D01*
X107655524Y-91949209D01*
X107631313Y-91986268D01*
X107623438Y-91998321D01*
X107570292Y-92043678D01*
X107519629Y-92054500D01*
X103634634Y-92054500D01*
X103567595Y-92034815D01*
X103521840Y-91982011D01*
X103511313Y-91917540D01*
X103521460Y-91821000D01*
X103501674Y-91632744D01*
X103455206Y-91489732D01*
X103443179Y-91452715D01*
X103348533Y-91288783D01*
X103273350Y-91205284D01*
X103243120Y-91142293D01*
X103241500Y-91122312D01*
X103241500Y-73060922D01*
X103261185Y-72993883D01*
X103313989Y-72948128D01*
X103383147Y-72938184D01*
X103446703Y-72967209D01*
G37*
G04 #@! TD.AperFunction*
G04 #@! TA.AperFunction,Conductor*
G36*
X98650278Y-73005185D02*
G01*
X98675388Y-73026527D01*
X98708128Y-73062888D01*
X98861269Y-73174151D01*
X99034197Y-73251144D01*
X99219352Y-73290500D01*
X99219354Y-73290500D01*
X99278548Y-73290500D01*
X99345587Y-73310185D01*
X99366229Y-73326819D01*
X99922181Y-73882771D01*
X99955666Y-73944094D01*
X99958500Y-73970452D01*
X99958500Y-91122312D01*
X99938815Y-91189351D01*
X99926650Y-91205284D01*
X99851466Y-91288783D01*
X99756820Y-91452715D01*
X99698326Y-91632742D01*
X99694099Y-91672960D01*
X99678540Y-91821000D01*
X99688686Y-91917540D01*
X99676118Y-91986268D01*
X99628386Y-92037292D01*
X99565366Y-92054500D01*
X98324452Y-92054500D01*
X98257413Y-92034815D01*
X98236771Y-92018181D01*
X97181819Y-90963228D01*
X97148334Y-90901905D01*
X97145500Y-90875547D01*
X97145500Y-74358687D01*
X97165185Y-74291648D01*
X97177350Y-74275714D01*
X97252533Y-74192216D01*
X97347179Y-74028284D01*
X97405674Y-73848256D01*
X97425460Y-73660000D01*
X97405674Y-73471744D01*
X97347179Y-73291716D01*
X97347179Y-73291715D01*
X97277773Y-73171500D01*
X97261300Y-73103600D01*
X97284153Y-73037573D01*
X97339074Y-72994382D01*
X97385160Y-72985500D01*
X98583239Y-72985500D01*
X98650278Y-73005185D01*
G37*
G04 #@! TD.AperFunction*
G04 #@! TA.AperFunction,Conductor*
G36*
X95117137Y-64413715D02*
G01*
X95231880Y-64480018D01*
X95301684Y-64520354D01*
X95349881Y-64570939D01*
X95359561Y-64596161D01*
X95737165Y-66031053D01*
X95735190Y-66100895D01*
X95724636Y-66124609D01*
X95692820Y-66179716D01*
X95634326Y-66359742D01*
X95615017Y-66543462D01*
X95588432Y-66608076D01*
X95531135Y-66648061D01*
X95491696Y-66654500D01*
X94855371Y-66654500D01*
X94788332Y-66634815D01*
X94751562Y-66598321D01*
X94647654Y-66439278D01*
X94510255Y-66290024D01*
X94479332Y-66227370D01*
X94487192Y-66157944D01*
X94531339Y-66103788D01*
X94558151Y-66089859D01*
X94673188Y-66046952D01*
X94788288Y-65960788D01*
X94874452Y-65845689D01*
X94924699Y-65710971D01*
X94930745Y-65654732D01*
X94931100Y-65648118D01*
X94931100Y-64990000D01*
X94010696Y-64990000D01*
X94034345Y-64953201D01*
X94075500Y-64813039D01*
X94075500Y-64666961D01*
X94034345Y-64526799D01*
X94010696Y-64490000D01*
X94931100Y-64490000D01*
X94944019Y-64477080D01*
X94950785Y-64454041D01*
X95003589Y-64408286D01*
X95072747Y-64398342D01*
X95117137Y-64413715D01*
G37*
G04 #@! TD.AperFunction*
G04 #@! TA.AperFunction,Conductor*
G36*
X108589418Y-52270816D02*
G01*
X108818736Y-52287216D01*
X108836237Y-52289733D01*
X109056550Y-52337659D01*
X109073515Y-52342640D01*
X109284771Y-52421434D01*
X109300854Y-52428780D01*
X109498741Y-52536834D01*
X109513615Y-52546392D01*
X109693092Y-52680748D01*
X109694113Y-52681512D01*
X109707483Y-52693098D01*
X109866901Y-52852516D01*
X109878487Y-52865886D01*
X110013603Y-53046379D01*
X110023168Y-53061263D01*
X110131217Y-53259140D01*
X110138567Y-53275234D01*
X110217357Y-53486479D01*
X110222341Y-53503454D01*
X110270265Y-53723756D01*
X110272783Y-53741268D01*
X110289184Y-53970581D01*
X110289500Y-53979427D01*
X110289500Y-56511378D01*
X110269815Y-56578417D01*
X110217011Y-56624172D01*
X110147853Y-56634116D01*
X110084297Y-56605091D01*
X110051944Y-56561188D01*
X110011303Y-56468537D01*
X109887652Y-56279275D01*
X109734549Y-56112962D01*
X109556150Y-55974108D01*
X109556149Y-55974107D01*
X109357331Y-55866512D01*
X109357330Y-55866511D01*
X109357327Y-55866510D01*
X109143516Y-55793109D01*
X108994860Y-55768302D01*
X108920533Y-55755900D01*
X108694467Y-55755900D01*
X108638721Y-55765202D01*
X108471483Y-55793109D01*
X108257672Y-55866510D01*
X108058849Y-55974108D01*
X107880450Y-56112962D01*
X107727347Y-56279275D01*
X107603696Y-56468537D01*
X107512890Y-56675556D01*
X107512889Y-56675559D01*
X107468434Y-56851109D01*
X107457392Y-56894711D01*
X107438724Y-57120000D01*
X107457392Y-57345288D01*
X107457392Y-57345291D01*
X107457393Y-57345293D01*
X107487675Y-57464875D01*
X107512890Y-57564443D01*
X107603696Y-57771462D01*
X107727347Y-57960724D01*
X107864744Y-58109975D01*
X107895667Y-58172629D01*
X107887807Y-58242055D01*
X107843660Y-58296211D01*
X107816849Y-58310140D01*
X107701811Y-58353047D01*
X107586711Y-58439211D01*
X107500547Y-58554310D01*
X107450300Y-58689028D01*
X107444254Y-58745267D01*
X107443900Y-58751881D01*
X107443900Y-59410000D01*
X108364304Y-59410000D01*
X108340655Y-59446799D01*
X108299500Y-59586961D01*
X108299500Y-59733039D01*
X108340655Y-59873201D01*
X108364304Y-59910000D01*
X107443900Y-59910000D01*
X107443900Y-60568118D01*
X107444254Y-60574732D01*
X107450300Y-60630971D01*
X107500547Y-60765689D01*
X107586711Y-60880788D01*
X107701811Y-60966952D01*
X107816848Y-61009859D01*
X107872782Y-61051730D01*
X107897199Y-61117195D01*
X107882347Y-61185468D01*
X107864745Y-61210024D01*
X107727345Y-61359279D01*
X107603696Y-61548537D01*
X107512890Y-61755556D01*
X107457392Y-61974711D01*
X107438724Y-62199999D01*
X107457392Y-62425288D01*
X107457392Y-62425291D01*
X107457393Y-62425293D01*
X107511474Y-62638855D01*
X107512890Y-62644443D01*
X107603696Y-62851462D01*
X107727347Y-63040724D01*
X107880450Y-63207037D01*
X107880454Y-63207040D01*
X107958322Y-63267648D01*
X107999134Y-63324357D01*
X108002809Y-63394130D01*
X107968177Y-63454813D01*
X107906236Y-63487140D01*
X107882159Y-63489500D01*
X107219336Y-63489500D01*
X107152297Y-63469815D01*
X107131655Y-63453181D01*
X96188816Y-52510342D01*
X96179550Y-52499974D01*
X96157508Y-52472334D01*
X96157506Y-52472332D01*
X96157092Y-52471813D01*
X96130684Y-52407127D01*
X96143439Y-52338432D01*
X96191309Y-52287537D01*
X96254039Y-52270500D01*
X108545118Y-52270500D01*
X108580572Y-52270500D01*
X108589418Y-52270816D01*
G37*
G04 #@! TD.AperFunction*
G04 #@! TD*
M02*
