G04 #@! TF.GenerationSoftware,KiCad,Pcbnew,7.0.2*
G04 #@! TF.CreationDate,2023-04-27T12:09:37-07:00*
G04 #@! TF.ProjectId,Flamingo Nano 33 BLE Rev 2,466c616d-696e-4676-9f20-4e616e6f2033,rev?*
G04 #@! TF.SameCoordinates,Original*
G04 #@! TF.FileFunction,Legend,Top*
G04 #@! TF.FilePolarity,Positive*
%FSLAX46Y46*%
G04 Gerber Fmt 4.6, Leading zero omitted, Abs format (unit mm)*
G04 Created by KiCad (PCBNEW 7.0.2) date 2023-04-27 12:09:37*
%MOMM*%
%LPD*%
G01*
G04 APERTURE LIST*
G04 Aperture macros list*
%AMRoundRect*
0 Rectangle with rounded corners*
0 $1 Rounding radius*
0 $2 $3 $4 $5 $6 $7 $8 $9 X,Y pos of 4 corners*
0 Add a 4 corners polygon primitive as box body*
4,1,4,$2,$3,$4,$5,$6,$7,$8,$9,$2,$3,0*
0 Add four circle primitives for the rounded corners*
1,1,$1+$1,$2,$3*
1,1,$1+$1,$4,$5*
1,1,$1+$1,$6,$7*
1,1,$1+$1,$8,$9*
0 Add four rect primitives between the rounded corners*
20,1,$1+$1,$2,$3,$4,$5,0*
20,1,$1+$1,$4,$5,$6,$7,0*
20,1,$1+$1,$6,$7,$8,$9,0*
20,1,$1+$1,$8,$9,$2,$3,0*%
G04 Aperture macros list end*
%ADD10C,0.153000*%
%ADD11C,0.010000*%
%ADD12C,0.150000*%
%ADD13RoundRect,0.237500X0.250000X0.237500X-0.250000X0.237500X-0.250000X-0.237500X0.250000X-0.237500X0*%
%ADD14RoundRect,0.237500X-0.237500X0.250000X-0.237500X-0.250000X0.237500X-0.250000X0.237500X0.250000X0*%
%ADD15RoundRect,0.250000X-0.875000X-0.925000X0.875000X-0.925000X0.875000X0.925000X-0.875000X0.925000X0*%
%ADD16R,2.100000X2.100000*%
%ADD17C,2.100000*%
%ADD18C,1.727200*%
%ADD19R,1.727200X1.727200*%
%ADD20RoundRect,0.250000X-0.475000X0.337500X-0.475000X-0.337500X0.475000X-0.337500X0.475000X0.337500X0*%
%ADD21RoundRect,0.100000X0.637500X0.100000X-0.637500X0.100000X-0.637500X-0.100000X0.637500X-0.100000X0*%
G04 APERTURE END LIST*
D10*
G04 #@! TO.C,R3*
X105878333Y-67772619D02*
X105545000Y-67296428D01*
X105306905Y-67772619D02*
X105306905Y-66772619D01*
X105306905Y-66772619D02*
X105687857Y-66772619D01*
X105687857Y-66772619D02*
X105783095Y-66820238D01*
X105783095Y-66820238D02*
X105830714Y-66867857D01*
X105830714Y-66867857D02*
X105878333Y-66963095D01*
X105878333Y-66963095D02*
X105878333Y-67105952D01*
X105878333Y-67105952D02*
X105830714Y-67201190D01*
X105830714Y-67201190D02*
X105783095Y-67248809D01*
X105783095Y-67248809D02*
X105687857Y-67296428D01*
X105687857Y-67296428D02*
X105306905Y-67296428D01*
X106211667Y-66772619D02*
X106830714Y-66772619D01*
X106830714Y-66772619D02*
X106497381Y-67153571D01*
X106497381Y-67153571D02*
X106640238Y-67153571D01*
X106640238Y-67153571D02*
X106735476Y-67201190D01*
X106735476Y-67201190D02*
X106783095Y-67248809D01*
X106783095Y-67248809D02*
X106830714Y-67344047D01*
X106830714Y-67344047D02*
X106830714Y-67582142D01*
X106830714Y-67582142D02*
X106783095Y-67677380D01*
X106783095Y-67677380D02*
X106735476Y-67725000D01*
X106735476Y-67725000D02*
X106640238Y-67772619D01*
X106640238Y-67772619D02*
X106354524Y-67772619D01*
X106354524Y-67772619D02*
X106259286Y-67725000D01*
X106259286Y-67725000D02*
X106211667Y-67677380D01*
G04 #@! TO.C,R4*
X82087380Y-73850833D02*
X82563571Y-73517500D01*
X82087380Y-73279405D02*
X83087380Y-73279405D01*
X83087380Y-73279405D02*
X83087380Y-73660357D01*
X83087380Y-73660357D02*
X83039761Y-73755595D01*
X83039761Y-73755595D02*
X82992142Y-73803214D01*
X82992142Y-73803214D02*
X82896904Y-73850833D01*
X82896904Y-73850833D02*
X82754047Y-73850833D01*
X82754047Y-73850833D02*
X82658809Y-73803214D01*
X82658809Y-73803214D02*
X82611190Y-73755595D01*
X82611190Y-73755595D02*
X82563571Y-73660357D01*
X82563571Y-73660357D02*
X82563571Y-73279405D01*
X82754047Y-74707976D02*
X82087380Y-74707976D01*
X83135000Y-74469881D02*
X82420714Y-74231786D01*
X82420714Y-74231786D02*
X82420714Y-74850833D01*
G04 #@! TO.C,C2*
X80912619Y-67143333D02*
X80865000Y-67095714D01*
X80865000Y-67095714D02*
X80817380Y-66952857D01*
X80817380Y-66952857D02*
X80817380Y-66857619D01*
X80817380Y-66857619D02*
X80865000Y-66714762D01*
X80865000Y-66714762D02*
X80960238Y-66619524D01*
X80960238Y-66619524D02*
X81055476Y-66571905D01*
X81055476Y-66571905D02*
X81245952Y-66524286D01*
X81245952Y-66524286D02*
X81388809Y-66524286D01*
X81388809Y-66524286D02*
X81579285Y-66571905D01*
X81579285Y-66571905D02*
X81674523Y-66619524D01*
X81674523Y-66619524D02*
X81769761Y-66714762D01*
X81769761Y-66714762D02*
X81817380Y-66857619D01*
X81817380Y-66857619D02*
X81817380Y-66952857D01*
X81817380Y-66952857D02*
X81769761Y-67095714D01*
X81769761Y-67095714D02*
X81722142Y-67143333D01*
X81722142Y-67524286D02*
X81769761Y-67571905D01*
X81769761Y-67571905D02*
X81817380Y-67667143D01*
X81817380Y-67667143D02*
X81817380Y-67905238D01*
X81817380Y-67905238D02*
X81769761Y-68000476D01*
X81769761Y-68000476D02*
X81722142Y-68048095D01*
X81722142Y-68048095D02*
X81626904Y-68095714D01*
X81626904Y-68095714D02*
X81531666Y-68095714D01*
X81531666Y-68095714D02*
X81388809Y-68048095D01*
X81388809Y-68048095D02*
X80817380Y-67476667D01*
X80817380Y-67476667D02*
X80817380Y-68095714D01*
G04 #@! TO.C,R5*
X86532380Y-73850833D02*
X87008571Y-73517500D01*
X86532380Y-73279405D02*
X87532380Y-73279405D01*
X87532380Y-73279405D02*
X87532380Y-73660357D01*
X87532380Y-73660357D02*
X87484761Y-73755595D01*
X87484761Y-73755595D02*
X87437142Y-73803214D01*
X87437142Y-73803214D02*
X87341904Y-73850833D01*
X87341904Y-73850833D02*
X87199047Y-73850833D01*
X87199047Y-73850833D02*
X87103809Y-73803214D01*
X87103809Y-73803214D02*
X87056190Y-73755595D01*
X87056190Y-73755595D02*
X87008571Y-73660357D01*
X87008571Y-73660357D02*
X87008571Y-73279405D01*
X87532380Y-74755595D02*
X87532380Y-74279405D01*
X87532380Y-74279405D02*
X87056190Y-74231786D01*
X87056190Y-74231786D02*
X87103809Y-74279405D01*
X87103809Y-74279405D02*
X87151428Y-74374643D01*
X87151428Y-74374643D02*
X87151428Y-74612738D01*
X87151428Y-74612738D02*
X87103809Y-74707976D01*
X87103809Y-74707976D02*
X87056190Y-74755595D01*
X87056190Y-74755595D02*
X86960952Y-74803214D01*
X86960952Y-74803214D02*
X86722857Y-74803214D01*
X86722857Y-74803214D02*
X86627619Y-74755595D01*
X86627619Y-74755595D02*
X86580000Y-74707976D01*
X86580000Y-74707976D02*
X86532380Y-74612738D01*
X86532380Y-74612738D02*
X86532380Y-74374643D01*
X86532380Y-74374643D02*
X86580000Y-74279405D01*
X86580000Y-74279405D02*
X86627619Y-74231786D01*
G04 #@! TO.C,R2*
X105878333Y-70312619D02*
X105545000Y-69836428D01*
X105306905Y-70312619D02*
X105306905Y-69312619D01*
X105306905Y-69312619D02*
X105687857Y-69312619D01*
X105687857Y-69312619D02*
X105783095Y-69360238D01*
X105783095Y-69360238D02*
X105830714Y-69407857D01*
X105830714Y-69407857D02*
X105878333Y-69503095D01*
X105878333Y-69503095D02*
X105878333Y-69645952D01*
X105878333Y-69645952D02*
X105830714Y-69741190D01*
X105830714Y-69741190D02*
X105783095Y-69788809D01*
X105783095Y-69788809D02*
X105687857Y-69836428D01*
X105687857Y-69836428D02*
X105306905Y-69836428D01*
X106259286Y-69407857D02*
X106306905Y-69360238D01*
X106306905Y-69360238D02*
X106402143Y-69312619D01*
X106402143Y-69312619D02*
X106640238Y-69312619D01*
X106640238Y-69312619D02*
X106735476Y-69360238D01*
X106735476Y-69360238D02*
X106783095Y-69407857D01*
X106783095Y-69407857D02*
X106830714Y-69503095D01*
X106830714Y-69503095D02*
X106830714Y-69598333D01*
X106830714Y-69598333D02*
X106783095Y-69741190D01*
X106783095Y-69741190D02*
X106211667Y-70312619D01*
X106211667Y-70312619D02*
X106830714Y-70312619D01*
G04 #@! TO.C,J2*
X81817380Y-76120666D02*
X81103095Y-76120666D01*
X81103095Y-76120666D02*
X80960238Y-76073047D01*
X80960238Y-76073047D02*
X80865000Y-75977809D01*
X80865000Y-75977809D02*
X80817380Y-75834952D01*
X80817380Y-75834952D02*
X80817380Y-75739714D01*
X81722142Y-76549238D02*
X81769761Y-76596857D01*
X81769761Y-76596857D02*
X81817380Y-76692095D01*
X81817380Y-76692095D02*
X81817380Y-76930190D01*
X81817380Y-76930190D02*
X81769761Y-77025428D01*
X81769761Y-77025428D02*
X81722142Y-77073047D01*
X81722142Y-77073047D02*
X81626904Y-77120666D01*
X81626904Y-77120666D02*
X81531666Y-77120666D01*
X81531666Y-77120666D02*
X81388809Y-77073047D01*
X81388809Y-77073047D02*
X80817380Y-76501619D01*
X80817380Y-76501619D02*
X80817380Y-77120666D01*
X82176904Y-77615238D02*
X82081666Y-77567619D01*
X82081666Y-77567619D02*
X81938809Y-77567619D01*
X81938809Y-77567619D02*
X81795952Y-77615238D01*
X81795952Y-77615238D02*
X81700714Y-77710476D01*
X81700714Y-77710476D02*
X81653095Y-77805714D01*
X81653095Y-77805714D02*
X81605476Y-77996190D01*
X81605476Y-77996190D02*
X81605476Y-78139047D01*
X81605476Y-78139047D02*
X81653095Y-78329523D01*
X81653095Y-78329523D02*
X81700714Y-78424761D01*
X81700714Y-78424761D02*
X81795952Y-78520000D01*
X81795952Y-78520000D02*
X81938809Y-78567619D01*
X81938809Y-78567619D02*
X82034047Y-78567619D01*
X82034047Y-78567619D02*
X82176904Y-78520000D01*
X82176904Y-78520000D02*
X82224523Y-78472380D01*
X82224523Y-78472380D02*
X82224523Y-78139047D01*
X82224523Y-78139047D02*
X82034047Y-78139047D01*
X87304523Y-78472380D02*
X87256904Y-78520000D01*
X87256904Y-78520000D02*
X87114047Y-78567619D01*
X87114047Y-78567619D02*
X87018809Y-78567619D01*
X87018809Y-78567619D02*
X86875952Y-78520000D01*
X86875952Y-78520000D02*
X86780714Y-78424761D01*
X86780714Y-78424761D02*
X86733095Y-78329523D01*
X86733095Y-78329523D02*
X86685476Y-78139047D01*
X86685476Y-78139047D02*
X86685476Y-77996190D01*
X86685476Y-77996190D02*
X86733095Y-77805714D01*
X86733095Y-77805714D02*
X86780714Y-77710476D01*
X86780714Y-77710476D02*
X86875952Y-77615238D01*
X86875952Y-77615238D02*
X87018809Y-77567619D01*
X87018809Y-77567619D02*
X87114047Y-77567619D01*
X87114047Y-77567619D02*
X87256904Y-77615238D01*
X87256904Y-77615238D02*
X87304523Y-77662857D01*
X89773095Y-77567619D02*
X89296905Y-77567619D01*
X89296905Y-77567619D02*
X89249286Y-78043809D01*
X89249286Y-78043809D02*
X89296905Y-77996190D01*
X89296905Y-77996190D02*
X89392143Y-77948571D01*
X89392143Y-77948571D02*
X89630238Y-77948571D01*
X89630238Y-77948571D02*
X89725476Y-77996190D01*
X89725476Y-77996190D02*
X89773095Y-78043809D01*
X89773095Y-78043809D02*
X89820714Y-78139047D01*
X89820714Y-78139047D02*
X89820714Y-78377142D01*
X89820714Y-78377142D02*
X89773095Y-78472380D01*
X89773095Y-78472380D02*
X89725476Y-78520000D01*
X89725476Y-78520000D02*
X89630238Y-78567619D01*
X89630238Y-78567619D02*
X89392143Y-78567619D01*
X89392143Y-78567619D02*
X89296905Y-78520000D01*
X89296905Y-78520000D02*
X89249286Y-78472380D01*
X84193095Y-78567619D02*
X84193095Y-77567619D01*
X84193095Y-77567619D02*
X84431190Y-77567619D01*
X84431190Y-77567619D02*
X84574047Y-77615238D01*
X84574047Y-77615238D02*
X84669285Y-77710476D01*
X84669285Y-77710476D02*
X84716904Y-77805714D01*
X84716904Y-77805714D02*
X84764523Y-77996190D01*
X84764523Y-77996190D02*
X84764523Y-78139047D01*
X84764523Y-78139047D02*
X84716904Y-78329523D01*
X84716904Y-78329523D02*
X84669285Y-78424761D01*
X84669285Y-78424761D02*
X84574047Y-78520000D01*
X84574047Y-78520000D02*
X84431190Y-78567619D01*
X84431190Y-78567619D02*
X84193095Y-78567619D01*
G04 #@! TO.C,R1*
X105878333Y-72852619D02*
X105545000Y-72376428D01*
X105306905Y-72852619D02*
X105306905Y-71852619D01*
X105306905Y-71852619D02*
X105687857Y-71852619D01*
X105687857Y-71852619D02*
X105783095Y-71900238D01*
X105783095Y-71900238D02*
X105830714Y-71947857D01*
X105830714Y-71947857D02*
X105878333Y-72043095D01*
X105878333Y-72043095D02*
X105878333Y-72185952D01*
X105878333Y-72185952D02*
X105830714Y-72281190D01*
X105830714Y-72281190D02*
X105783095Y-72328809D01*
X105783095Y-72328809D02*
X105687857Y-72376428D01*
X105687857Y-72376428D02*
X105306905Y-72376428D01*
X106830714Y-72852619D02*
X106259286Y-72852619D01*
X106545000Y-72852619D02*
X106545000Y-71852619D01*
X106545000Y-71852619D02*
X106449762Y-71995476D01*
X106449762Y-71995476D02*
X106354524Y-72090714D01*
X106354524Y-72090714D02*
X106259286Y-72138333D01*
G04 #@! TO.C,C1*
X90847619Y-56348333D02*
X90800000Y-56300714D01*
X90800000Y-56300714D02*
X90752380Y-56157857D01*
X90752380Y-56157857D02*
X90752380Y-56062619D01*
X90752380Y-56062619D02*
X90800000Y-55919762D01*
X90800000Y-55919762D02*
X90895238Y-55824524D01*
X90895238Y-55824524D02*
X90990476Y-55776905D01*
X90990476Y-55776905D02*
X91180952Y-55729286D01*
X91180952Y-55729286D02*
X91323809Y-55729286D01*
X91323809Y-55729286D02*
X91514285Y-55776905D01*
X91514285Y-55776905D02*
X91609523Y-55824524D01*
X91609523Y-55824524D02*
X91704761Y-55919762D01*
X91704761Y-55919762D02*
X91752380Y-56062619D01*
X91752380Y-56062619D02*
X91752380Y-56157857D01*
X91752380Y-56157857D02*
X91704761Y-56300714D01*
X91704761Y-56300714D02*
X91657142Y-56348333D01*
X90752380Y-57300714D02*
X90752380Y-56729286D01*
X90752380Y-57015000D02*
X91752380Y-57015000D01*
X91752380Y-57015000D02*
X91609523Y-56919762D01*
X91609523Y-56919762D02*
X91514285Y-56824524D01*
X91514285Y-56824524D02*
X91466666Y-56729286D01*
G04 #@! TO.C,U1*
X81817380Y-59563095D02*
X81007857Y-59563095D01*
X81007857Y-59563095D02*
X80912619Y-59610714D01*
X80912619Y-59610714D02*
X80865000Y-59658333D01*
X80865000Y-59658333D02*
X80817380Y-59753571D01*
X80817380Y-59753571D02*
X80817380Y-59944047D01*
X80817380Y-59944047D02*
X80865000Y-60039285D01*
X80865000Y-60039285D02*
X80912619Y-60086904D01*
X80912619Y-60086904D02*
X81007857Y-60134523D01*
X81007857Y-60134523D02*
X81817380Y-60134523D01*
X80817380Y-61134523D02*
X80817380Y-60563095D01*
X80817380Y-60848809D02*
X81817380Y-60848809D01*
X81817380Y-60848809D02*
X81674523Y-60753571D01*
X81674523Y-60753571D02*
X81579285Y-60658333D01*
X81579285Y-60658333D02*
X81531666Y-60563095D01*
G04 #@! TO.C,J1*
X81817380Y-86788666D02*
X81103095Y-86788666D01*
X81103095Y-86788666D02*
X80960238Y-86741047D01*
X80960238Y-86741047D02*
X80865000Y-86645809D01*
X80865000Y-86645809D02*
X80817380Y-86502952D01*
X80817380Y-86502952D02*
X80817380Y-86407714D01*
X80817380Y-87788666D02*
X80817380Y-87217238D01*
X80817380Y-87502952D02*
X81817380Y-87502952D01*
X81817380Y-87502952D02*
X81674523Y-87407714D01*
X81674523Y-87407714D02*
X81579285Y-87312476D01*
X81579285Y-87312476D02*
X81531666Y-87217238D01*
X82224523Y-96252380D02*
X82176904Y-96300000D01*
X82176904Y-96300000D02*
X82034047Y-96347619D01*
X82034047Y-96347619D02*
X81938809Y-96347619D01*
X81938809Y-96347619D02*
X81795952Y-96300000D01*
X81795952Y-96300000D02*
X81700714Y-96204761D01*
X81700714Y-96204761D02*
X81653095Y-96109523D01*
X81653095Y-96109523D02*
X81605476Y-95919047D01*
X81605476Y-95919047D02*
X81605476Y-95776190D01*
X81605476Y-95776190D02*
X81653095Y-95585714D01*
X81653095Y-95585714D02*
X81700714Y-95490476D01*
X81700714Y-95490476D02*
X81795952Y-95395238D01*
X81795952Y-95395238D02*
X81938809Y-95347619D01*
X81938809Y-95347619D02*
X82034047Y-95347619D01*
X82034047Y-95347619D02*
X82176904Y-95395238D01*
X82176904Y-95395238D02*
X82224523Y-95442857D01*
X86756905Y-96061904D02*
X87233095Y-96061904D01*
X86661667Y-96347619D02*
X86995000Y-95347619D01*
X86995000Y-95347619D02*
X87328333Y-96347619D01*
X89796904Y-95395238D02*
X89701666Y-95347619D01*
X89701666Y-95347619D02*
X89558809Y-95347619D01*
X89558809Y-95347619D02*
X89415952Y-95395238D01*
X89415952Y-95395238D02*
X89320714Y-95490476D01*
X89320714Y-95490476D02*
X89273095Y-95585714D01*
X89273095Y-95585714D02*
X89225476Y-95776190D01*
X89225476Y-95776190D02*
X89225476Y-95919047D01*
X89225476Y-95919047D02*
X89273095Y-96109523D01*
X89273095Y-96109523D02*
X89320714Y-96204761D01*
X89320714Y-96204761D02*
X89415952Y-96300000D01*
X89415952Y-96300000D02*
X89558809Y-96347619D01*
X89558809Y-96347619D02*
X89654047Y-96347619D01*
X89654047Y-96347619D02*
X89796904Y-96300000D01*
X89796904Y-96300000D02*
X89844523Y-96252380D01*
X89844523Y-96252380D02*
X89844523Y-95919047D01*
X89844523Y-95919047D02*
X89654047Y-95919047D01*
X84526428Y-95823809D02*
X84669285Y-95871428D01*
X84669285Y-95871428D02*
X84716904Y-95919047D01*
X84716904Y-95919047D02*
X84764523Y-96014285D01*
X84764523Y-96014285D02*
X84764523Y-96157142D01*
X84764523Y-96157142D02*
X84716904Y-96252380D01*
X84716904Y-96252380D02*
X84669285Y-96300000D01*
X84669285Y-96300000D02*
X84574047Y-96347619D01*
X84574047Y-96347619D02*
X84193095Y-96347619D01*
X84193095Y-96347619D02*
X84193095Y-95347619D01*
X84193095Y-95347619D02*
X84526428Y-95347619D01*
X84526428Y-95347619D02*
X84621666Y-95395238D01*
X84621666Y-95395238D02*
X84669285Y-95442857D01*
X84669285Y-95442857D02*
X84716904Y-95538095D01*
X84716904Y-95538095D02*
X84716904Y-95633333D01*
X84716904Y-95633333D02*
X84669285Y-95728571D01*
X84669285Y-95728571D02*
X84621666Y-95776190D01*
X84621666Y-95776190D02*
X84526428Y-95823809D01*
X84526428Y-95823809D02*
X84193095Y-95823809D01*
G04 #@! TO.C,G\u002A\u002A\u002A*
D11*
X81576026Y-54786959D02*
X81867597Y-54797649D01*
X82076186Y-54806534D01*
X82400061Y-54824184D01*
X82682120Y-54846398D01*
X82899752Y-54870866D01*
X83030349Y-54895275D01*
X83055900Y-54906690D01*
X83097387Y-54973175D01*
X83062659Y-55020449D01*
X82942528Y-55049843D01*
X82727805Y-55062684D01*
X82409305Y-55060301D01*
X82075971Y-55048429D01*
X81724425Y-55032298D01*
X81475975Y-55017240D01*
X81312837Y-55000144D01*
X81217225Y-54977900D01*
X81171356Y-54947398D01*
X81157445Y-54905528D01*
X81156836Y-54887694D01*
X81161700Y-54841735D01*
X81188197Y-54810258D01*
X81254180Y-54791687D01*
X81377505Y-54784446D01*
X81576026Y-54786959D01*
G36*
X81576026Y-54786959D02*
G01*
X81867597Y-54797649D01*
X82076186Y-54806534D01*
X82400061Y-54824184D01*
X82682120Y-54846398D01*
X82899752Y-54870866D01*
X83030349Y-54895275D01*
X83055900Y-54906690D01*
X83097387Y-54973175D01*
X83062659Y-55020449D01*
X82942528Y-55049843D01*
X82727805Y-55062684D01*
X82409305Y-55060301D01*
X82075971Y-55048429D01*
X81724425Y-55032298D01*
X81475975Y-55017240D01*
X81312837Y-55000144D01*
X81217225Y-54977900D01*
X81171356Y-54947398D01*
X81157445Y-54905528D01*
X81156836Y-54887694D01*
X81161700Y-54841735D01*
X81188197Y-54810258D01*
X81254180Y-54791687D01*
X81377505Y-54784446D01*
X81576026Y-54786959D01*
G37*
X84393758Y-57280849D02*
X84406715Y-57308361D01*
X84362316Y-57352524D01*
X84228684Y-57429685D01*
X84028713Y-57527485D01*
X83870589Y-57597734D01*
X83581739Y-57715245D01*
X83350212Y-57789316D01*
X83125738Y-57831766D01*
X82858047Y-57854410D01*
X82757958Y-57859276D01*
X82461700Y-57864194D01*
X82233164Y-57851777D01*
X82096775Y-57823521D01*
X82086072Y-57818183D01*
X82052665Y-57784595D01*
X82102401Y-57763912D01*
X82248926Y-57753488D01*
X82433700Y-57750798D01*
X82955449Y-57723058D01*
X83407896Y-57638750D01*
X83832716Y-57489406D01*
X83924579Y-57447933D01*
X84148193Y-57344523D01*
X84285629Y-57286635D01*
X84359835Y-57267624D01*
X84393758Y-57280849D01*
G36*
X84393758Y-57280849D02*
G01*
X84406715Y-57308361D01*
X84362316Y-57352524D01*
X84228684Y-57429685D01*
X84028713Y-57527485D01*
X83870589Y-57597734D01*
X83581739Y-57715245D01*
X83350212Y-57789316D01*
X83125738Y-57831766D01*
X82858047Y-57854410D01*
X82757958Y-57859276D01*
X82461700Y-57864194D01*
X82233164Y-57851777D01*
X82096775Y-57823521D01*
X82086072Y-57818183D01*
X82052665Y-57784595D01*
X82102401Y-57763912D01*
X82248926Y-57753488D01*
X82433700Y-57750798D01*
X82955449Y-57723058D01*
X83407896Y-57638750D01*
X83832716Y-57489406D01*
X83924579Y-57447933D01*
X84148193Y-57344523D01*
X84285629Y-57286635D01*
X84359835Y-57267624D01*
X84393758Y-57280849D01*
G37*
X82962405Y-52707405D02*
X83182222Y-52811861D01*
X83440413Y-52966001D01*
X83711864Y-53153501D01*
X83971458Y-53358036D01*
X84194082Y-53563281D01*
X84214548Y-53584479D01*
X84512389Y-53929564D01*
X84713692Y-54246654D01*
X84830505Y-54561029D01*
X84874878Y-54897966D01*
X84876121Y-54972394D01*
X84866776Y-55217194D01*
X84828286Y-55399762D01*
X84744970Y-55578067D01*
X84685295Y-55677805D01*
X84542653Y-55920670D01*
X84465836Y-56096839D01*
X84447829Y-56236175D01*
X84481619Y-56368544D01*
X84509051Y-56428208D01*
X84590617Y-56642196D01*
X84586401Y-56808228D01*
X84521752Y-56931150D01*
X84462499Y-56999092D01*
X84399526Y-57006638D01*
X84291292Y-56951639D01*
X84233459Y-56916245D01*
X84003503Y-56746794D01*
X83830964Y-56545324D01*
X83686901Y-56274679D01*
X83633749Y-56146340D01*
X83537712Y-55917491D01*
X83437812Y-55703349D01*
X83375701Y-55585851D01*
X83243313Y-55285122D01*
X83194914Y-54961940D01*
X83225266Y-54580107D01*
X83227855Y-54564240D01*
X83253370Y-54252790D01*
X83217955Y-53947070D01*
X83114633Y-53618635D01*
X82936426Y-53239037D01*
X82874700Y-53124327D01*
X82772788Y-52933601D01*
X82699144Y-52785634D01*
X82668850Y-52710815D01*
X82668740Y-52709294D01*
X82720162Y-52677885D01*
X82806076Y-52668959D01*
X82962405Y-52707405D01*
G36*
X82962405Y-52707405D02*
G01*
X83182222Y-52811861D01*
X83440413Y-52966001D01*
X83711864Y-53153501D01*
X83971458Y-53358036D01*
X84194082Y-53563281D01*
X84214548Y-53584479D01*
X84512389Y-53929564D01*
X84713692Y-54246654D01*
X84830505Y-54561029D01*
X84874878Y-54897966D01*
X84876121Y-54972394D01*
X84866776Y-55217194D01*
X84828286Y-55399762D01*
X84744970Y-55578067D01*
X84685295Y-55677805D01*
X84542653Y-55920670D01*
X84465836Y-56096839D01*
X84447829Y-56236175D01*
X84481619Y-56368544D01*
X84509051Y-56428208D01*
X84590617Y-56642196D01*
X84586401Y-56808228D01*
X84521752Y-56931150D01*
X84462499Y-56999092D01*
X84399526Y-57006638D01*
X84291292Y-56951639D01*
X84233459Y-56916245D01*
X84003503Y-56746794D01*
X83830964Y-56545324D01*
X83686901Y-56274679D01*
X83633749Y-56146340D01*
X83537712Y-55917491D01*
X83437812Y-55703349D01*
X83375701Y-55585851D01*
X83243313Y-55285122D01*
X83194914Y-54961940D01*
X83225266Y-54580107D01*
X83227855Y-54564240D01*
X83253370Y-54252790D01*
X83217955Y-53947070D01*
X83114633Y-53618635D01*
X82936426Y-53239037D01*
X82874700Y-53124327D01*
X82772788Y-52933601D01*
X82699144Y-52785634D01*
X82668850Y-52710815D01*
X82668740Y-52709294D01*
X82720162Y-52677885D01*
X82806076Y-52668959D01*
X82962405Y-52707405D01*
G37*
X84029455Y-57274940D02*
X83787550Y-57390790D01*
X83575663Y-57466854D01*
X83391086Y-57488191D01*
X83264615Y-57453815D01*
X83230253Y-57408672D01*
X83257994Y-57332767D01*
X83306131Y-57302839D01*
X83421442Y-57281892D01*
X83605486Y-57270618D01*
X83716901Y-57270045D01*
X84029455Y-57274940D01*
G36*
X84029455Y-57274940D02*
G01*
X83787550Y-57390790D01*
X83575663Y-57466854D01*
X83391086Y-57488191D01*
X83264615Y-57453815D01*
X83230253Y-57408672D01*
X83257994Y-57332767D01*
X83306131Y-57302839D01*
X83421442Y-57281892D01*
X83605486Y-57270618D01*
X83716901Y-57270045D01*
X84029455Y-57274940D01*
G37*
X84599230Y-57118754D02*
X84603978Y-57140628D01*
X84560078Y-57202212D01*
X84543502Y-57204673D01*
X84484598Y-57184040D01*
X84483026Y-57178004D01*
X84525404Y-57126372D01*
X84543502Y-57113959D01*
X84599230Y-57118754D01*
G36*
X84599230Y-57118754D02*
G01*
X84603978Y-57140628D01*
X84560078Y-57202212D01*
X84543502Y-57204673D01*
X84484598Y-57184040D01*
X84483026Y-57178004D01*
X84525404Y-57126372D01*
X84543502Y-57113959D01*
X84599230Y-57118754D01*
G37*
X84835504Y-56695290D02*
X84845883Y-56746156D01*
X84815302Y-56909331D01*
X84737856Y-57009002D01*
X84688222Y-57023245D01*
X84616982Y-56997493D01*
X84612214Y-56977888D01*
X84629245Y-56887392D01*
X84646658Y-56796459D01*
X84698042Y-56697929D01*
X84775273Y-56660599D01*
X84835504Y-56695290D01*
G36*
X84835504Y-56695290D02*
G01*
X84845883Y-56746156D01*
X84815302Y-56909331D01*
X84737856Y-57009002D01*
X84688222Y-57023245D01*
X84616982Y-56997493D01*
X84612214Y-56977888D01*
X84629245Y-56887392D01*
X84646658Y-56796459D01*
X84698042Y-56697929D01*
X84775273Y-56660599D01*
X84835504Y-56695290D01*
G37*
X85224131Y-56741486D02*
X85450571Y-56795633D01*
X85713276Y-56871726D01*
X85974263Y-56958182D01*
X86195550Y-57043424D01*
X86310806Y-57098572D01*
X86558550Y-57291336D01*
X86759037Y-57549178D01*
X86894460Y-57838975D01*
X86947015Y-58127602D01*
X86936415Y-58262404D01*
X86884646Y-58440923D01*
X86808031Y-58509863D01*
X86691235Y-58480221D01*
X86658690Y-58461603D01*
X86557747Y-58419285D01*
X86476497Y-58457578D01*
X86413984Y-58527152D01*
X86319042Y-58620642D01*
X86244050Y-58621660D01*
X86206256Y-58595342D01*
X86128153Y-58495854D01*
X86142892Y-58386116D01*
X86255713Y-58243525D01*
X86297312Y-58202531D01*
X86412992Y-58061031D01*
X86475276Y-57925127D01*
X86478740Y-57896011D01*
X86421818Y-57724464D01*
X86264144Y-57552941D01*
X86025359Y-57393095D01*
X85725102Y-57256583D01*
X85383016Y-57155058D01*
X85163383Y-57115449D01*
X84972517Y-57086001D01*
X84879903Y-57050086D01*
X84863843Y-56985717D01*
X84902637Y-56870908D01*
X84908244Y-56856935D01*
X84990964Y-56751465D01*
X85071936Y-56720864D01*
X85224131Y-56741486D01*
G36*
X85224131Y-56741486D02*
G01*
X85450571Y-56795633D01*
X85713276Y-56871726D01*
X85974263Y-56958182D01*
X86195550Y-57043424D01*
X86310806Y-57098572D01*
X86558550Y-57291336D01*
X86759037Y-57549178D01*
X86894460Y-57838975D01*
X86947015Y-58127602D01*
X86936415Y-58262404D01*
X86884646Y-58440923D01*
X86808031Y-58509863D01*
X86691235Y-58480221D01*
X86658690Y-58461603D01*
X86557747Y-58419285D01*
X86476497Y-58457578D01*
X86413984Y-58527152D01*
X86319042Y-58620642D01*
X86244050Y-58621660D01*
X86206256Y-58595342D01*
X86128153Y-58495854D01*
X86142892Y-58386116D01*
X86255713Y-58243525D01*
X86297312Y-58202531D01*
X86412992Y-58061031D01*
X86475276Y-57925127D01*
X86478740Y-57896011D01*
X86421818Y-57724464D01*
X86264144Y-57552941D01*
X86025359Y-57393095D01*
X85725102Y-57256583D01*
X85383016Y-57155058D01*
X85163383Y-57115449D01*
X84972517Y-57086001D01*
X84879903Y-57050086D01*
X84863843Y-56985717D01*
X84902637Y-56870908D01*
X84908244Y-56856935D01*
X84990964Y-56751465D01*
X85071936Y-56720864D01*
X85224131Y-56741486D01*
G37*
X85787130Y-58780263D02*
X85874568Y-58893820D01*
X85851286Y-58977598D01*
X85727233Y-59010056D01*
X85682088Y-59007672D01*
X85524444Y-58966469D01*
X85467878Y-58894808D01*
X85520539Y-58809735D01*
X85571788Y-58776952D01*
X85699516Y-58739152D01*
X85787130Y-58780263D01*
G36*
X85787130Y-58780263D02*
G01*
X85874568Y-58893820D01*
X85851286Y-58977598D01*
X85727233Y-59010056D01*
X85682088Y-59007672D01*
X85524444Y-58966469D01*
X85467878Y-58894808D01*
X85520539Y-58809735D01*
X85571788Y-58776952D01*
X85699516Y-58739152D01*
X85787130Y-58780263D01*
G37*
X86014187Y-58576536D02*
X86112998Y-58655446D01*
X86192376Y-58763971D01*
X86216012Y-58862602D01*
X86213171Y-58872445D01*
X86135710Y-58950045D01*
X86028202Y-58936721D01*
X85936582Y-58841506D01*
X85877767Y-58680651D01*
X85911916Y-58581871D01*
X85932249Y-58566751D01*
X86014187Y-58576536D01*
G36*
X86014187Y-58576536D02*
G01*
X86112998Y-58655446D01*
X86192376Y-58763971D01*
X86216012Y-58862602D01*
X86213171Y-58872445D01*
X86135710Y-58950045D01*
X86028202Y-58936721D01*
X85936582Y-58841506D01*
X85877767Y-58680651D01*
X85911916Y-58581871D01*
X85932249Y-58566751D01*
X86014187Y-58576536D01*
G37*
X86418264Y-58807293D02*
X86388026Y-58837531D01*
X86357788Y-58807293D01*
X86388026Y-58777054D01*
X86418264Y-58807293D01*
G36*
X86418264Y-58807293D02*
G01*
X86388026Y-58837531D01*
X86357788Y-58807293D01*
X86388026Y-58777054D01*
X86418264Y-58807293D01*
G37*
X86854217Y-57354807D02*
X86984209Y-57463170D01*
X87059603Y-57539860D01*
X87260774Y-57824164D01*
X87355302Y-58127996D01*
X87337886Y-58431643D01*
X87317494Y-58499369D01*
X87192237Y-58722378D01*
X87000196Y-58917285D01*
X86779299Y-59051349D01*
X86632080Y-59091042D01*
X86483088Y-59076351D01*
X86429723Y-59011176D01*
X86476638Y-58924740D01*
X86594946Y-58857834D01*
X86801785Y-58720004D01*
X86942489Y-58503802D01*
X87011255Y-58235686D01*
X87002281Y-57942116D01*
X86909764Y-57649550D01*
X86874613Y-57582650D01*
X86793648Y-57415881D01*
X86788773Y-57339488D01*
X86854217Y-57354807D01*
G36*
X86854217Y-57354807D02*
G01*
X86984209Y-57463170D01*
X87059603Y-57539860D01*
X87260774Y-57824164D01*
X87355302Y-58127996D01*
X87337886Y-58431643D01*
X87317494Y-58499369D01*
X87192237Y-58722378D01*
X87000196Y-58917285D01*
X86779299Y-59051349D01*
X86632080Y-59091042D01*
X86483088Y-59076351D01*
X86429723Y-59011176D01*
X86476638Y-58924740D01*
X86594946Y-58857834D01*
X86801785Y-58720004D01*
X86942489Y-58503802D01*
X87011255Y-58235686D01*
X87002281Y-57942116D01*
X86909764Y-57649550D01*
X86874613Y-57582650D01*
X86793648Y-57415881D01*
X86788773Y-57339488D01*
X86854217Y-57354807D01*
G37*
X86623197Y-58510696D02*
X86707823Y-58589983D01*
X86707709Y-58694274D01*
X86660169Y-58746816D01*
X86604318Y-58744842D01*
X86599693Y-58725094D01*
X86579603Y-58620204D01*
X86562721Y-58569648D01*
X86558369Y-58501608D01*
X86623197Y-58510696D01*
G36*
X86623197Y-58510696D02*
G01*
X86707823Y-58589983D01*
X86707709Y-58694274D01*
X86660169Y-58746816D01*
X86604318Y-58744842D01*
X86599693Y-58725094D01*
X86579603Y-58620204D01*
X86562721Y-58569648D01*
X86558369Y-58501608D01*
X86623197Y-58510696D01*
G37*
X87426170Y-57778022D02*
X87452242Y-57811187D01*
X87490376Y-57942007D01*
X87499164Y-58143876D01*
X87482541Y-58372509D01*
X87444445Y-58583624D01*
X87388812Y-58732936D01*
X87367850Y-58760530D01*
X87289688Y-58817797D01*
X87270406Y-58789450D01*
X87311644Y-58696428D01*
X87357568Y-58629424D01*
X87421856Y-58469967D01*
X87444045Y-58253858D01*
X87422236Y-58038521D01*
X87380983Y-57921232D01*
X87345924Y-57809771D01*
X87367039Y-57752687D01*
X87426170Y-57778022D01*
G36*
X87426170Y-57778022D02*
G01*
X87452242Y-57811187D01*
X87490376Y-57942007D01*
X87499164Y-58143876D01*
X87482541Y-58372509D01*
X87444445Y-58583624D01*
X87388812Y-58732936D01*
X87367850Y-58760530D01*
X87289688Y-58817797D01*
X87270406Y-58789450D01*
X87311644Y-58696428D01*
X87357568Y-58629424D01*
X87421856Y-58469967D01*
X87444045Y-58253858D01*
X87422236Y-58038521D01*
X87380983Y-57921232D01*
X87345924Y-57809771D01*
X87367039Y-57752687D01*
X87426170Y-57778022D01*
G37*
D12*
G04 #@! TO.C,R3*
X101854724Y-67832500D02*
X101345276Y-67832500D01*
X101854724Y-66787500D02*
X101345276Y-66787500D01*
G04 #@! TO.C,R4*
X84977500Y-73762776D02*
X84977500Y-74272224D01*
X83932500Y-73762776D02*
X83932500Y-74272224D01*
G04 #@! TO.C,C2*
X82425000Y-66870000D02*
X82425000Y-70290000D01*
X82425000Y-70290000D02*
X89360000Y-70290000D01*
X89360000Y-66870000D02*
X82425000Y-66870000D01*
G04 #@! TO.C,R5*
X89422500Y-73762776D02*
X89422500Y-74272224D01*
X88377500Y-73762776D02*
X88377500Y-74272224D01*
G04 #@! TO.C,R2*
X101854724Y-70372500D02*
X101345276Y-70372500D01*
X101854724Y-69327500D02*
X101345276Y-69327500D01*
G04 #@! TO.C,J2*
X80055000Y-85520000D02*
X80055000Y-86160000D01*
X80055000Y-86160000D02*
X80455000Y-86160000D01*
X80295000Y-79180000D02*
X80295000Y-85920000D01*
X80295000Y-79180000D02*
X91156000Y-79180000D01*
X80295000Y-80300000D02*
X91156000Y-80300000D01*
X80295000Y-85400000D02*
X91156000Y-85400000D01*
X80295000Y-85920000D02*
X91156000Y-85920000D01*
X91156000Y-79180000D02*
X91156000Y-85920000D01*
G04 #@! TO.C,R1*
X101854724Y-72912500D02*
X101345276Y-72912500D01*
X101854724Y-71867500D02*
X101345276Y-71867500D01*
G04 #@! TO.C,XA1*
X92297500Y-53310000D02*
X92297500Y-96490000D01*
X92297500Y-53310000D02*
X109061500Y-53310000D01*
X92297500Y-96490000D02*
X109315500Y-96490000D01*
X97123500Y-96490000D02*
X97123500Y-96998000D01*
X97123500Y-96998000D02*
X105251500Y-96998000D01*
X105251500Y-96998000D02*
X105251500Y-96490000D01*
G04 #@! TO.C,C1*
X90270000Y-56253748D02*
X90270000Y-56776252D01*
X88800000Y-56253748D02*
X88800000Y-56776252D01*
G04 #@! TO.C,U1*
X86360000Y-64840000D02*
X89960000Y-64840000D01*
X86360000Y-64840000D02*
X84160000Y-64840000D01*
X86360000Y-59620000D02*
X88560000Y-59620000D01*
X86360000Y-59620000D02*
X84160000Y-59620000D01*
G04 #@! TO.C,J1*
X91395000Y-88470000D02*
X91395000Y-87830000D01*
X91395000Y-87830000D02*
X90995000Y-87830000D01*
X91155000Y-94810000D02*
X91155000Y-88070000D01*
X91155000Y-94810000D02*
X80294000Y-94810000D01*
X91155000Y-93690000D02*
X80294000Y-93690000D01*
X91155000Y-88590000D02*
X80294000Y-88590000D01*
X91155000Y-88070000D02*
X80294000Y-88070000D01*
X80294000Y-94810000D02*
X80294000Y-88070000D01*
G04 #@! TD*
%LPC*%
D13*
G04 #@! TO.C,R3*
X102512500Y-67310000D03*
X100687500Y-67310000D03*
G04 #@! TD*
D14*
G04 #@! TO.C,R4*
X84455000Y-73105000D03*
X84455000Y-74930000D03*
G04 #@! TD*
D15*
G04 #@! TO.C,C2*
X83810000Y-68580000D03*
X88910000Y-68580000D03*
G04 #@! TD*
D14*
G04 #@! TO.C,R5*
X88900000Y-73105000D03*
X88900000Y-74930000D03*
G04 #@! TD*
D13*
G04 #@! TO.C,R2*
X102512500Y-69850000D03*
X100687500Y-69850000D03*
G04 #@! TD*
D16*
G04 #@! TO.C,J2*
X81915000Y-82550000D03*
D17*
X84455000Y-82550000D03*
X86995000Y-82550000D03*
X89535000Y-82550000D03*
G04 #@! TD*
D13*
G04 #@! TO.C,R1*
X102512500Y-72390000D03*
X100687500Y-72390000D03*
G04 #@! TD*
D18*
G04 #@! TO.C,XA1*
X108807500Y-90140000D03*
X108807500Y-64740000D03*
X108807500Y-85060000D03*
X108807500Y-82520000D03*
X108807500Y-79980000D03*
X108807500Y-77440000D03*
X108807500Y-74900000D03*
X108807500Y-72360000D03*
X108807500Y-69820000D03*
X108807500Y-67280000D03*
X108807500Y-87600000D03*
X93567500Y-59660000D03*
X93567500Y-57120000D03*
X93567500Y-67280000D03*
X93567500Y-69820000D03*
X93567500Y-72360000D03*
X93567500Y-74900000D03*
X93567500Y-77440000D03*
X93567500Y-79980000D03*
X93567500Y-82520000D03*
X93567500Y-85060000D03*
X93567500Y-87600000D03*
X93567500Y-90140000D03*
X93567500Y-92680000D03*
X108807500Y-92680000D03*
D19*
X93567500Y-64740000D03*
X108807500Y-59660000D03*
D18*
X93567500Y-62200000D03*
X108807500Y-62200000D03*
X108807500Y-57120000D03*
G04 #@! TD*
D20*
G04 #@! TO.C,C1*
X89535000Y-55477500D03*
X89535000Y-57552500D03*
G04 #@! TD*
D21*
G04 #@! TO.C,U1*
X89222500Y-64180000D03*
X89222500Y-63530000D03*
X89222500Y-62880000D03*
X89222500Y-62230000D03*
X89222500Y-61580000D03*
X89222500Y-60930000D03*
X89222500Y-60280000D03*
X83497500Y-60280000D03*
X83497500Y-60930000D03*
X83497500Y-61580000D03*
X83497500Y-62230000D03*
X83497500Y-62880000D03*
X83497500Y-63530000D03*
X83497500Y-64180000D03*
G04 #@! TD*
D16*
G04 #@! TO.C,J1*
X89535000Y-91440000D03*
D17*
X86995000Y-91440000D03*
X84455000Y-91440000D03*
X81915000Y-91440000D03*
G04 #@! TD*
%LPD*%
M02*
