%TF.GenerationSoftware,KiCad,Pcbnew,7.0.2*%
%TF.CreationDate,2023-04-27T12:11:38-07:00*%
%TF.ProjectId,Flamingo Nano 33 BLE Rev 2,466c616d-696e-4676-9f20-4e616e6f2033,rev?*%
%TF.SameCoordinates,Original*%
%TF.FileFunction,Drillmap*%
%TF.FilePolarity,Positive*%
%FSLAX45Y45*%
G04 Gerber Fmt 4.5, Leading zero omitted, Abs format (unit mm)*
G04 Created by KiCad (PCBNEW 7.0.2) date 2023-04-27 12:11:38*
%MOMM*%
%LPD*%
G01*
G04 APERTURE LIST*
%ADD10C,0.100000*%
%ADD11C,0.200000*%
%ADD12C,0.040000*%
%ADD13C,0.050000*%
%ADD14C,0.101600*%
%ADD15C,0.110000*%
G04 APERTURE END LIST*
D10*
X8191500Y-5207000D02*
G75*
G03*
X7937500Y-5461000I0J-254000D01*
G01*
X10858500Y-9779000D02*
X8191500Y-9779000D01*
X11049000Y-5397500D02*
X11049000Y-9588500D01*
X11049000Y-5397500D02*
G75*
G03*
X10858500Y-5207000I-190500J0D01*
G01*
X7937500Y-9525000D02*
X7937500Y-5461000D01*
X10858500Y-9779000D02*
G75*
G03*
X11049000Y-9588500I0J190500D01*
G01*
X7937500Y-9525000D02*
G75*
G03*
X8191500Y-9779000I254000J0D01*
G01*
X8191500Y-5207000D02*
X10858500Y-5207000D01*
D11*
D12*
X8108000Y-6139500D02*
X8148000Y-6179500D01*
X8148000Y-6139500D02*
X8108000Y-6179500D01*
X8108000Y-6330000D02*
X8148000Y-6370000D01*
X8148000Y-6330000D02*
X8108000Y-6370000D01*
X8108000Y-6838000D02*
X8148000Y-6878000D01*
X8148000Y-6838000D02*
X8108000Y-6878000D01*
X8171500Y-9378000D02*
X8211500Y-9418000D01*
X8211500Y-9378000D02*
X8171500Y-9418000D01*
X8222300Y-5377500D02*
X8262300Y-5417500D01*
X8262300Y-5377500D02*
X8222300Y-5417500D01*
X8425500Y-9454200D02*
X8465500Y-9494200D01*
X8465500Y-9454200D02*
X8425500Y-9494200D01*
X8501700Y-7193600D02*
X8541700Y-7233600D01*
X8541700Y-7193600D02*
X8501700Y-7233600D01*
X8527100Y-5593400D02*
X8567100Y-5633400D01*
X8567100Y-5593400D02*
X8527100Y-5633400D01*
X8539800Y-6270268D02*
X8579800Y-6310268D01*
X8579800Y-6270268D02*
X8539800Y-6310268D01*
X8679500Y-9530400D02*
X8719500Y-9570400D01*
X8719500Y-9530400D02*
X8679500Y-9570400D01*
X8730300Y-6076000D02*
X8770300Y-6116000D01*
X8770300Y-6076000D02*
X8730300Y-6116000D01*
X8793800Y-7193600D02*
X8833800Y-7233600D01*
X8833800Y-7193600D02*
X8793800Y-7233600D01*
X9060500Y-6130550D02*
X9100500Y-6170550D01*
X9100500Y-6130550D02*
X9060500Y-6170550D01*
X9060500Y-6330000D02*
X9100500Y-6370000D01*
X9100500Y-6330000D02*
X9060500Y-6370000D01*
X9060500Y-7117400D02*
X9100500Y-7157400D01*
X9100500Y-7117400D02*
X9060500Y-7157400D01*
X9530400Y-8616000D02*
X9570400Y-8656000D01*
X9570400Y-8616000D02*
X9530400Y-8656000D01*
X9632000Y-6634800D02*
X9672000Y-6674800D01*
X9672000Y-6634800D02*
X9632000Y-6674800D01*
X9632000Y-7346000D02*
X9672000Y-7386000D01*
X9672000Y-7346000D02*
X9632000Y-7386000D01*
X9695500Y-5758500D02*
X9735500Y-5798500D01*
X9735500Y-5758500D02*
X9695500Y-5798500D01*
X9733600Y-8616000D02*
X9773600Y-8656000D01*
X9773600Y-8616000D02*
X9733600Y-8656000D01*
X9911400Y-6711000D02*
X9951400Y-6751000D01*
X9951400Y-6711000D02*
X9911400Y-6751000D01*
X9911400Y-6965000D02*
X9951400Y-7005000D01*
X9951400Y-6965000D02*
X9911400Y-7005000D01*
X9911400Y-7219000D02*
X9951400Y-7259000D01*
X9951400Y-7219000D02*
X9911400Y-7259000D01*
X9936800Y-8616000D02*
X9976800Y-8656000D01*
X9976800Y-8616000D02*
X9936800Y-8656000D01*
X9949500Y-5504500D02*
X9989500Y-5544500D01*
X9989500Y-5504500D02*
X9949500Y-5544500D01*
X10038400Y-9162100D02*
X10078400Y-9202100D01*
X10078400Y-9162100D02*
X10038400Y-9202100D01*
X10038400Y-9339900D02*
X10078400Y-9379900D01*
X10078400Y-9339900D02*
X10038400Y-9379900D01*
X10140000Y-9162100D02*
X10180000Y-9202100D01*
X10180000Y-9162100D02*
X10140000Y-9202100D01*
X10140000Y-9339900D02*
X10180000Y-9379900D01*
X10180000Y-9339900D02*
X10140000Y-9379900D01*
X10241600Y-9162100D02*
X10281600Y-9202100D01*
X10281600Y-9162100D02*
X10241600Y-9202100D01*
X10241600Y-9339900D02*
X10281600Y-9379900D01*
X10281600Y-9339900D02*
X10241600Y-9379900D01*
X10394000Y-6711000D02*
X10434000Y-6751000D01*
X10434000Y-6711000D02*
X10394000Y-6751000D01*
X10394000Y-6965000D02*
X10434000Y-7005000D01*
X10434000Y-6965000D02*
X10394000Y-7005000D01*
X10394000Y-7219000D02*
X10434000Y-7259000D01*
X10434000Y-7219000D02*
X10394000Y-7259000D01*
X10482900Y-9175550D02*
X10522900Y-9215550D01*
X10522900Y-9175550D02*
X10482900Y-9215550D01*
X10482900Y-9327200D02*
X10522900Y-9367200D01*
X10522900Y-9327200D02*
X10482900Y-9367200D01*
X10495600Y-8616000D02*
X10535600Y-8656000D01*
X10535600Y-8616000D02*
X10495600Y-8656000D01*
X10648000Y-8997000D02*
X10688000Y-9037000D01*
X10688000Y-8997000D02*
X10648000Y-9037000D01*
D13*
X8978500Y-5334000D02*
G75*
G03*
X8978500Y-5334000I-25000J0D01*
G01*
D14*
X9356750Y-5661200D02*
X9356750Y-5762800D01*
X9305950Y-5712000D02*
X9407550Y-5712000D01*
X9356750Y-5915200D02*
X9356750Y-6016800D01*
X9305950Y-5966000D02*
X9407550Y-5966000D01*
X9356750Y-6169200D02*
X9356750Y-6270800D01*
X9305950Y-6220000D02*
X9407550Y-6220000D01*
X9356750Y-6423200D02*
X9356750Y-6524800D01*
X9305950Y-6474000D02*
X9407550Y-6474000D01*
X9356750Y-6677200D02*
X9356750Y-6778800D01*
X9305950Y-6728000D02*
X9407550Y-6728000D01*
X9356750Y-6931200D02*
X9356750Y-7032800D01*
X9305950Y-6982000D02*
X9407550Y-6982000D01*
X9356750Y-7185200D02*
X9356750Y-7286800D01*
X9305950Y-7236000D02*
X9407550Y-7236000D01*
X9356750Y-7439200D02*
X9356750Y-7540800D01*
X9305950Y-7490000D02*
X9407550Y-7490000D01*
X9356750Y-7693200D02*
X9356750Y-7794800D01*
X9305950Y-7744000D02*
X9407550Y-7744000D01*
X9356750Y-7947200D02*
X9356750Y-8048800D01*
X9305950Y-7998000D02*
X9407550Y-7998000D01*
X9356750Y-8201200D02*
X9356750Y-8302800D01*
X9305950Y-8252000D02*
X9407550Y-8252000D01*
X9356750Y-8455200D02*
X9356750Y-8556800D01*
X9305950Y-8506000D02*
X9407550Y-8506000D01*
X9356750Y-8709200D02*
X9356750Y-8810800D01*
X9305950Y-8760000D02*
X9407550Y-8760000D01*
X9356750Y-8963200D02*
X9356750Y-9064800D01*
X9305950Y-9014000D02*
X9407550Y-9014000D01*
X9356750Y-9217200D02*
X9356750Y-9318800D01*
X9305950Y-9268000D02*
X9407550Y-9268000D01*
X10880750Y-5661200D02*
X10880750Y-5762800D01*
X10829950Y-5712000D02*
X10931550Y-5712000D01*
X10880750Y-5915200D02*
X10880750Y-6016800D01*
X10829950Y-5966000D02*
X10931550Y-5966000D01*
X10880750Y-6169200D02*
X10880750Y-6270800D01*
X10829950Y-6220000D02*
X10931550Y-6220000D01*
X10880750Y-6423200D02*
X10880750Y-6524800D01*
X10829950Y-6474000D02*
X10931550Y-6474000D01*
X10880750Y-6677200D02*
X10880750Y-6778800D01*
X10829950Y-6728000D02*
X10931550Y-6728000D01*
X10880750Y-6931200D02*
X10880750Y-7032800D01*
X10829950Y-6982000D02*
X10931550Y-6982000D01*
X10880750Y-7185200D02*
X10880750Y-7286800D01*
X10829950Y-7236000D02*
X10931550Y-7236000D01*
X10880750Y-7439200D02*
X10880750Y-7540800D01*
X10829950Y-7490000D02*
X10931550Y-7490000D01*
X10880750Y-7693200D02*
X10880750Y-7794800D01*
X10829950Y-7744000D02*
X10931550Y-7744000D01*
X10880750Y-7947200D02*
X10880750Y-8048800D01*
X10829950Y-7998000D02*
X10931550Y-7998000D01*
X10880750Y-8201200D02*
X10880750Y-8302800D01*
X10829950Y-8252000D02*
X10931550Y-8252000D01*
X10880750Y-8455200D02*
X10880750Y-8556800D01*
X10829950Y-8506000D02*
X10931550Y-8506000D01*
X10880750Y-8709200D02*
X10880750Y-8810800D01*
X10829950Y-8760000D02*
X10931550Y-8760000D01*
X10880750Y-8963200D02*
X10880750Y-9064800D01*
X10829950Y-9014000D02*
X10931550Y-9014000D01*
X10880750Y-9217200D02*
X10880750Y-9318800D01*
X10829950Y-9268000D02*
X10931550Y-9268000D01*
D15*
X8230391Y-8293891D02*
X8230391Y-8216109D01*
X8152609Y-8216109D01*
X8152609Y-8293891D01*
X8230391Y-8293891D01*
X8230391Y-9182891D02*
X8230391Y-9105109D01*
X8152609Y-9105109D01*
X8152609Y-9182891D01*
X8230391Y-9182891D01*
X8484391Y-8293891D02*
X8484391Y-8216109D01*
X8406609Y-8216109D01*
X8406609Y-8293891D01*
X8484391Y-8293891D01*
X8484391Y-9182891D02*
X8484391Y-9105109D01*
X8406609Y-9105109D01*
X8406609Y-9182891D01*
X8484391Y-9182891D01*
X8738391Y-8293891D02*
X8738391Y-8216109D01*
X8660609Y-8216109D01*
X8660609Y-8293891D01*
X8738391Y-8293891D01*
X8738391Y-9182891D02*
X8738391Y-9105109D01*
X8660609Y-9105109D01*
X8660609Y-9182891D01*
X8738391Y-9182891D01*
X8992391Y-8293891D02*
X8992391Y-8216109D01*
X8914609Y-8216109D01*
X8914609Y-8293891D01*
X8992391Y-8293891D01*
X8992391Y-9182891D02*
X8992391Y-9105109D01*
X8914609Y-9105109D01*
X8914609Y-9182891D01*
X8992391Y-9182891D01*
D11*
X8180119Y-10096524D02*
X8180119Y-9896524D01*
X8180119Y-9896524D02*
X8227738Y-9896524D01*
X8227738Y-9896524D02*
X8256309Y-9906048D01*
X8256309Y-9906048D02*
X8275357Y-9925095D01*
X8275357Y-9925095D02*
X8284881Y-9944143D01*
X8284881Y-9944143D02*
X8294405Y-9982238D01*
X8294405Y-9982238D02*
X8294405Y-10010810D01*
X8294405Y-10010810D02*
X8284881Y-10048905D01*
X8284881Y-10048905D02*
X8275357Y-10067952D01*
X8275357Y-10067952D02*
X8256309Y-10087000D01*
X8256309Y-10087000D02*
X8227738Y-10096524D01*
X8227738Y-10096524D02*
X8180119Y-10096524D01*
X8380119Y-10096524D02*
X8380119Y-9963190D01*
X8380119Y-10001286D02*
X8389643Y-9982238D01*
X8389643Y-9982238D02*
X8399167Y-9972714D01*
X8399167Y-9972714D02*
X8418214Y-9963190D01*
X8418214Y-9963190D02*
X8437262Y-9963190D01*
X8503929Y-10096524D02*
X8503929Y-9963190D01*
X8503929Y-9896524D02*
X8494405Y-9906048D01*
X8494405Y-9906048D02*
X8503929Y-9915571D01*
X8503929Y-9915571D02*
X8513452Y-9906048D01*
X8513452Y-9906048D02*
X8503929Y-9896524D01*
X8503929Y-9896524D02*
X8503929Y-9915571D01*
X8627738Y-10096524D02*
X8608690Y-10087000D01*
X8608690Y-10087000D02*
X8599167Y-10067952D01*
X8599167Y-10067952D02*
X8599167Y-9896524D01*
X8732500Y-10096524D02*
X8713452Y-10087000D01*
X8713452Y-10087000D02*
X8703929Y-10067952D01*
X8703929Y-10067952D02*
X8703929Y-9896524D01*
X8961071Y-10096524D02*
X8961071Y-9896524D01*
X8961071Y-9896524D02*
X9027738Y-10039381D01*
X9027738Y-10039381D02*
X9094405Y-9896524D01*
X9094405Y-9896524D02*
X9094405Y-10096524D01*
X9275357Y-10096524D02*
X9275357Y-9991762D01*
X9275357Y-9991762D02*
X9265833Y-9972714D01*
X9265833Y-9972714D02*
X9246786Y-9963190D01*
X9246786Y-9963190D02*
X9208690Y-9963190D01*
X9208690Y-9963190D02*
X9189643Y-9972714D01*
X9275357Y-10087000D02*
X9256310Y-10096524D01*
X9256310Y-10096524D02*
X9208690Y-10096524D01*
X9208690Y-10096524D02*
X9189643Y-10087000D01*
X9189643Y-10087000D02*
X9180119Y-10067952D01*
X9180119Y-10067952D02*
X9180119Y-10048905D01*
X9180119Y-10048905D02*
X9189643Y-10029857D01*
X9189643Y-10029857D02*
X9208690Y-10020333D01*
X9208690Y-10020333D02*
X9256310Y-10020333D01*
X9256310Y-10020333D02*
X9275357Y-10010810D01*
X9370595Y-9963190D02*
X9370595Y-10163190D01*
X9370595Y-9972714D02*
X9389643Y-9963190D01*
X9389643Y-9963190D02*
X9427738Y-9963190D01*
X9427738Y-9963190D02*
X9446786Y-9972714D01*
X9446786Y-9972714D02*
X9456310Y-9982238D01*
X9456310Y-9982238D02*
X9465833Y-10001286D01*
X9465833Y-10001286D02*
X9465833Y-10058429D01*
X9465833Y-10058429D02*
X9456310Y-10077476D01*
X9456310Y-10077476D02*
X9446786Y-10087000D01*
X9446786Y-10087000D02*
X9427738Y-10096524D01*
X9427738Y-10096524D02*
X9389643Y-10096524D01*
X9389643Y-10096524D02*
X9370595Y-10087000D01*
X9551548Y-10077476D02*
X9561071Y-10087000D01*
X9561071Y-10087000D02*
X9551548Y-10096524D01*
X9551548Y-10096524D02*
X9542024Y-10087000D01*
X9542024Y-10087000D02*
X9551548Y-10077476D01*
X9551548Y-10077476D02*
X9551548Y-10096524D01*
X9551548Y-9972714D02*
X9561071Y-9982238D01*
X9561071Y-9982238D02*
X9551548Y-9991762D01*
X9551548Y-9991762D02*
X9542024Y-9982238D01*
X9542024Y-9982238D02*
X9551548Y-9972714D01*
X9551548Y-9972714D02*
X9551548Y-9991762D01*
D12*
X7892500Y-10404000D02*
X7932500Y-10444000D01*
X7932500Y-10404000D02*
X7892500Y-10444000D01*
D11*
X8218214Y-10316524D02*
X8237262Y-10316524D01*
X8237262Y-10316524D02*
X8256309Y-10326048D01*
X8256309Y-10326048D02*
X8265833Y-10335571D01*
X8265833Y-10335571D02*
X8275357Y-10354619D01*
X8275357Y-10354619D02*
X8284881Y-10392714D01*
X8284881Y-10392714D02*
X8284881Y-10440333D01*
X8284881Y-10440333D02*
X8275357Y-10478429D01*
X8275357Y-10478429D02*
X8265833Y-10497476D01*
X8265833Y-10497476D02*
X8256309Y-10507000D01*
X8256309Y-10507000D02*
X8237262Y-10516524D01*
X8237262Y-10516524D02*
X8218214Y-10516524D01*
X8218214Y-10516524D02*
X8199167Y-10507000D01*
X8199167Y-10507000D02*
X8189643Y-10497476D01*
X8189643Y-10497476D02*
X8180119Y-10478429D01*
X8180119Y-10478429D02*
X8170595Y-10440333D01*
X8170595Y-10440333D02*
X8170595Y-10392714D01*
X8170595Y-10392714D02*
X8180119Y-10354619D01*
X8180119Y-10354619D02*
X8189643Y-10335571D01*
X8189643Y-10335571D02*
X8199167Y-10326048D01*
X8199167Y-10326048D02*
X8218214Y-10316524D01*
X8370595Y-10497476D02*
X8380119Y-10507000D01*
X8380119Y-10507000D02*
X8370595Y-10516524D01*
X8370595Y-10516524D02*
X8361071Y-10507000D01*
X8361071Y-10507000D02*
X8370595Y-10497476D01*
X8370595Y-10497476D02*
X8370595Y-10516524D01*
X8551548Y-10383190D02*
X8551548Y-10516524D01*
X8503929Y-10307000D02*
X8456310Y-10449857D01*
X8456310Y-10449857D02*
X8580119Y-10449857D01*
X8694405Y-10316524D02*
X8713452Y-10316524D01*
X8713452Y-10316524D02*
X8732500Y-10326048D01*
X8732500Y-10326048D02*
X8742024Y-10335571D01*
X8742024Y-10335571D02*
X8751548Y-10354619D01*
X8751548Y-10354619D02*
X8761071Y-10392714D01*
X8761071Y-10392714D02*
X8761071Y-10440333D01*
X8761071Y-10440333D02*
X8751548Y-10478429D01*
X8751548Y-10478429D02*
X8742024Y-10497476D01*
X8742024Y-10497476D02*
X8732500Y-10507000D01*
X8732500Y-10507000D02*
X8713452Y-10516524D01*
X8713452Y-10516524D02*
X8694405Y-10516524D01*
X8694405Y-10516524D02*
X8675357Y-10507000D01*
X8675357Y-10507000D02*
X8665833Y-10497476D01*
X8665833Y-10497476D02*
X8656310Y-10478429D01*
X8656310Y-10478429D02*
X8646786Y-10440333D01*
X8646786Y-10440333D02*
X8646786Y-10392714D01*
X8646786Y-10392714D02*
X8656310Y-10354619D01*
X8656310Y-10354619D02*
X8665833Y-10335571D01*
X8665833Y-10335571D02*
X8675357Y-10326048D01*
X8675357Y-10326048D02*
X8694405Y-10316524D01*
X8884881Y-10316524D02*
X8903929Y-10316524D01*
X8903929Y-10316524D02*
X8922976Y-10326048D01*
X8922976Y-10326048D02*
X8932500Y-10335571D01*
X8932500Y-10335571D02*
X8942024Y-10354619D01*
X8942024Y-10354619D02*
X8951548Y-10392714D01*
X8951548Y-10392714D02*
X8951548Y-10440333D01*
X8951548Y-10440333D02*
X8942024Y-10478429D01*
X8942024Y-10478429D02*
X8932500Y-10497476D01*
X8932500Y-10497476D02*
X8922976Y-10507000D01*
X8922976Y-10507000D02*
X8903929Y-10516524D01*
X8903929Y-10516524D02*
X8884881Y-10516524D01*
X8884881Y-10516524D02*
X8865833Y-10507000D01*
X8865833Y-10507000D02*
X8856310Y-10497476D01*
X8856310Y-10497476D02*
X8846786Y-10478429D01*
X8846786Y-10478429D02*
X8837262Y-10440333D01*
X8837262Y-10440333D02*
X8837262Y-10392714D01*
X8837262Y-10392714D02*
X8846786Y-10354619D01*
X8846786Y-10354619D02*
X8856310Y-10335571D01*
X8856310Y-10335571D02*
X8865833Y-10326048D01*
X8865833Y-10326048D02*
X8884881Y-10316524D01*
X9037262Y-10516524D02*
X9037262Y-10383190D01*
X9037262Y-10402238D02*
X9046786Y-10392714D01*
X9046786Y-10392714D02*
X9065833Y-10383190D01*
X9065833Y-10383190D02*
X9094405Y-10383190D01*
X9094405Y-10383190D02*
X9113452Y-10392714D01*
X9113452Y-10392714D02*
X9122976Y-10411762D01*
X9122976Y-10411762D02*
X9122976Y-10516524D01*
X9122976Y-10411762D02*
X9132500Y-10392714D01*
X9132500Y-10392714D02*
X9151548Y-10383190D01*
X9151548Y-10383190D02*
X9180119Y-10383190D01*
X9180119Y-10383190D02*
X9199167Y-10392714D01*
X9199167Y-10392714D02*
X9208691Y-10411762D01*
X9208691Y-10411762D02*
X9208691Y-10516524D01*
X9303929Y-10516524D02*
X9303929Y-10383190D01*
X9303929Y-10402238D02*
X9313452Y-10392714D01*
X9313452Y-10392714D02*
X9332500Y-10383190D01*
X9332500Y-10383190D02*
X9361072Y-10383190D01*
X9361072Y-10383190D02*
X9380119Y-10392714D01*
X9380119Y-10392714D02*
X9389643Y-10411762D01*
X9389643Y-10411762D02*
X9389643Y-10516524D01*
X9389643Y-10411762D02*
X9399167Y-10392714D01*
X9399167Y-10392714D02*
X9418214Y-10383190D01*
X9418214Y-10383190D02*
X9446786Y-10383190D01*
X9446786Y-10383190D02*
X9465833Y-10392714D01*
X9465833Y-10392714D02*
X9475357Y-10411762D01*
X9475357Y-10411762D02*
X9475357Y-10516524D01*
X9865833Y-10307000D02*
X9694405Y-10564143D01*
X10122976Y-10316524D02*
X10142024Y-10316524D01*
X10142024Y-10316524D02*
X10161072Y-10326048D01*
X10161072Y-10326048D02*
X10170595Y-10335571D01*
X10170595Y-10335571D02*
X10180119Y-10354619D01*
X10180119Y-10354619D02*
X10189643Y-10392714D01*
X10189643Y-10392714D02*
X10189643Y-10440333D01*
X10189643Y-10440333D02*
X10180119Y-10478429D01*
X10180119Y-10478429D02*
X10170595Y-10497476D01*
X10170595Y-10497476D02*
X10161072Y-10507000D01*
X10161072Y-10507000D02*
X10142024Y-10516524D01*
X10142024Y-10516524D02*
X10122976Y-10516524D01*
X10122976Y-10516524D02*
X10103929Y-10507000D01*
X10103929Y-10507000D02*
X10094405Y-10497476D01*
X10094405Y-10497476D02*
X10084881Y-10478429D01*
X10084881Y-10478429D02*
X10075357Y-10440333D01*
X10075357Y-10440333D02*
X10075357Y-10392714D01*
X10075357Y-10392714D02*
X10084881Y-10354619D01*
X10084881Y-10354619D02*
X10094405Y-10335571D01*
X10094405Y-10335571D02*
X10103929Y-10326048D01*
X10103929Y-10326048D02*
X10122976Y-10316524D01*
X10275357Y-10497476D02*
X10284881Y-10507000D01*
X10284881Y-10507000D02*
X10275357Y-10516524D01*
X10275357Y-10516524D02*
X10265834Y-10507000D01*
X10265834Y-10507000D02*
X10275357Y-10497476D01*
X10275357Y-10497476D02*
X10275357Y-10516524D01*
X10408691Y-10316524D02*
X10427738Y-10316524D01*
X10427738Y-10316524D02*
X10446786Y-10326048D01*
X10446786Y-10326048D02*
X10456310Y-10335571D01*
X10456310Y-10335571D02*
X10465834Y-10354619D01*
X10465834Y-10354619D02*
X10475357Y-10392714D01*
X10475357Y-10392714D02*
X10475357Y-10440333D01*
X10475357Y-10440333D02*
X10465834Y-10478429D01*
X10465834Y-10478429D02*
X10456310Y-10497476D01*
X10456310Y-10497476D02*
X10446786Y-10507000D01*
X10446786Y-10507000D02*
X10427738Y-10516524D01*
X10427738Y-10516524D02*
X10408691Y-10516524D01*
X10408691Y-10516524D02*
X10389643Y-10507000D01*
X10389643Y-10507000D02*
X10380119Y-10497476D01*
X10380119Y-10497476D02*
X10370595Y-10478429D01*
X10370595Y-10478429D02*
X10361072Y-10440333D01*
X10361072Y-10440333D02*
X10361072Y-10392714D01*
X10361072Y-10392714D02*
X10370595Y-10354619D01*
X10370595Y-10354619D02*
X10380119Y-10335571D01*
X10380119Y-10335571D02*
X10389643Y-10326048D01*
X10389643Y-10326048D02*
X10408691Y-10316524D01*
X10665834Y-10516524D02*
X10551548Y-10516524D01*
X10608691Y-10516524D02*
X10608691Y-10316524D01*
X10608691Y-10316524D02*
X10589643Y-10345095D01*
X10589643Y-10345095D02*
X10570595Y-10364143D01*
X10570595Y-10364143D02*
X10551548Y-10373667D01*
X10846786Y-10316524D02*
X10751548Y-10316524D01*
X10751548Y-10316524D02*
X10742024Y-10411762D01*
X10742024Y-10411762D02*
X10751548Y-10402238D01*
X10751548Y-10402238D02*
X10770595Y-10392714D01*
X10770595Y-10392714D02*
X10818215Y-10392714D01*
X10818215Y-10392714D02*
X10837262Y-10402238D01*
X10837262Y-10402238D02*
X10846786Y-10411762D01*
X10846786Y-10411762D02*
X10856310Y-10430810D01*
X10856310Y-10430810D02*
X10856310Y-10478429D01*
X10856310Y-10478429D02*
X10846786Y-10497476D01*
X10846786Y-10497476D02*
X10837262Y-10507000D01*
X10837262Y-10507000D02*
X10818215Y-10516524D01*
X10818215Y-10516524D02*
X10770595Y-10516524D01*
X10770595Y-10516524D02*
X10751548Y-10507000D01*
X10751548Y-10507000D02*
X10742024Y-10497476D01*
X10922976Y-10316524D02*
X11056310Y-10316524D01*
X11056310Y-10316524D02*
X10970595Y-10516524D01*
X11122976Y-10316524D02*
X11122976Y-10354619D01*
X11199167Y-10316524D02*
X11199167Y-10354619D01*
X11494405Y-10592714D02*
X11484881Y-10583190D01*
X11484881Y-10583190D02*
X11465834Y-10554619D01*
X11465834Y-10554619D02*
X11456310Y-10535571D01*
X11456310Y-10535571D02*
X11446786Y-10507000D01*
X11446786Y-10507000D02*
X11437262Y-10459381D01*
X11437262Y-10459381D02*
X11437262Y-10421286D01*
X11437262Y-10421286D02*
X11446786Y-10373667D01*
X11446786Y-10373667D02*
X11456310Y-10345095D01*
X11456310Y-10345095D02*
X11465834Y-10326048D01*
X11465834Y-10326048D02*
X11484881Y-10297476D01*
X11484881Y-10297476D02*
X11494405Y-10287952D01*
X11551548Y-10316524D02*
X11675357Y-10316524D01*
X11675357Y-10316524D02*
X11608691Y-10392714D01*
X11608691Y-10392714D02*
X11637262Y-10392714D01*
X11637262Y-10392714D02*
X11656310Y-10402238D01*
X11656310Y-10402238D02*
X11665834Y-10411762D01*
X11665834Y-10411762D02*
X11675357Y-10430810D01*
X11675357Y-10430810D02*
X11675357Y-10478429D01*
X11675357Y-10478429D02*
X11665834Y-10497476D01*
X11665834Y-10497476D02*
X11656310Y-10507000D01*
X11656310Y-10507000D02*
X11637262Y-10516524D01*
X11637262Y-10516524D02*
X11580119Y-10516524D01*
X11580119Y-10516524D02*
X11561072Y-10507000D01*
X11561072Y-10507000D02*
X11551548Y-10497476D01*
X11789643Y-10402238D02*
X11770595Y-10392714D01*
X11770595Y-10392714D02*
X11761072Y-10383190D01*
X11761072Y-10383190D02*
X11751548Y-10364143D01*
X11751548Y-10364143D02*
X11751548Y-10354619D01*
X11751548Y-10354619D02*
X11761072Y-10335571D01*
X11761072Y-10335571D02*
X11770595Y-10326048D01*
X11770595Y-10326048D02*
X11789643Y-10316524D01*
X11789643Y-10316524D02*
X11827738Y-10316524D01*
X11827738Y-10316524D02*
X11846786Y-10326048D01*
X11846786Y-10326048D02*
X11856310Y-10335571D01*
X11856310Y-10335571D02*
X11865834Y-10354619D01*
X11865834Y-10354619D02*
X11865834Y-10364143D01*
X11865834Y-10364143D02*
X11856310Y-10383190D01*
X11856310Y-10383190D02*
X11846786Y-10392714D01*
X11846786Y-10392714D02*
X11827738Y-10402238D01*
X11827738Y-10402238D02*
X11789643Y-10402238D01*
X11789643Y-10402238D02*
X11770595Y-10411762D01*
X11770595Y-10411762D02*
X11761072Y-10421286D01*
X11761072Y-10421286D02*
X11751548Y-10440333D01*
X11751548Y-10440333D02*
X11751548Y-10478429D01*
X11751548Y-10478429D02*
X11761072Y-10497476D01*
X11761072Y-10497476D02*
X11770595Y-10507000D01*
X11770595Y-10507000D02*
X11789643Y-10516524D01*
X11789643Y-10516524D02*
X11827738Y-10516524D01*
X11827738Y-10516524D02*
X11846786Y-10507000D01*
X11846786Y-10507000D02*
X11856310Y-10497476D01*
X11856310Y-10497476D02*
X11865834Y-10478429D01*
X11865834Y-10478429D02*
X11865834Y-10440333D01*
X11865834Y-10440333D02*
X11856310Y-10421286D01*
X11856310Y-10421286D02*
X11846786Y-10411762D01*
X11846786Y-10411762D02*
X11827738Y-10402238D01*
X12103929Y-10516524D02*
X12103929Y-10316524D01*
X12189643Y-10516524D02*
X12189643Y-10411762D01*
X12189643Y-10411762D02*
X12180119Y-10392714D01*
X12180119Y-10392714D02*
X12161072Y-10383190D01*
X12161072Y-10383190D02*
X12132500Y-10383190D01*
X12132500Y-10383190D02*
X12113453Y-10392714D01*
X12113453Y-10392714D02*
X12103929Y-10402238D01*
X12313453Y-10516524D02*
X12294405Y-10507000D01*
X12294405Y-10507000D02*
X12284881Y-10497476D01*
X12284881Y-10497476D02*
X12275357Y-10478429D01*
X12275357Y-10478429D02*
X12275357Y-10421286D01*
X12275357Y-10421286D02*
X12284881Y-10402238D01*
X12284881Y-10402238D02*
X12294405Y-10392714D01*
X12294405Y-10392714D02*
X12313453Y-10383190D01*
X12313453Y-10383190D02*
X12342024Y-10383190D01*
X12342024Y-10383190D02*
X12361072Y-10392714D01*
X12361072Y-10392714D02*
X12370596Y-10402238D01*
X12370596Y-10402238D02*
X12380119Y-10421286D01*
X12380119Y-10421286D02*
X12380119Y-10478429D01*
X12380119Y-10478429D02*
X12370596Y-10497476D01*
X12370596Y-10497476D02*
X12361072Y-10507000D01*
X12361072Y-10507000D02*
X12342024Y-10516524D01*
X12342024Y-10516524D02*
X12313453Y-10516524D01*
X12494405Y-10516524D02*
X12475357Y-10507000D01*
X12475357Y-10507000D02*
X12465834Y-10487952D01*
X12465834Y-10487952D02*
X12465834Y-10316524D01*
X12646786Y-10507000D02*
X12627738Y-10516524D01*
X12627738Y-10516524D02*
X12589643Y-10516524D01*
X12589643Y-10516524D02*
X12570596Y-10507000D01*
X12570596Y-10507000D02*
X12561072Y-10487952D01*
X12561072Y-10487952D02*
X12561072Y-10411762D01*
X12561072Y-10411762D02*
X12570596Y-10392714D01*
X12570596Y-10392714D02*
X12589643Y-10383190D01*
X12589643Y-10383190D02*
X12627738Y-10383190D01*
X12627738Y-10383190D02*
X12646786Y-10392714D01*
X12646786Y-10392714D02*
X12656310Y-10411762D01*
X12656310Y-10411762D02*
X12656310Y-10430810D01*
X12656310Y-10430810D02*
X12561072Y-10449857D01*
X12732500Y-10507000D02*
X12751548Y-10516524D01*
X12751548Y-10516524D02*
X12789643Y-10516524D01*
X12789643Y-10516524D02*
X12808691Y-10507000D01*
X12808691Y-10507000D02*
X12818215Y-10487952D01*
X12818215Y-10487952D02*
X12818215Y-10478429D01*
X12818215Y-10478429D02*
X12808691Y-10459381D01*
X12808691Y-10459381D02*
X12789643Y-10449857D01*
X12789643Y-10449857D02*
X12761072Y-10449857D01*
X12761072Y-10449857D02*
X12742024Y-10440333D01*
X12742024Y-10440333D02*
X12732500Y-10421286D01*
X12732500Y-10421286D02*
X12732500Y-10411762D01*
X12732500Y-10411762D02*
X12742024Y-10392714D01*
X12742024Y-10392714D02*
X12761072Y-10383190D01*
X12761072Y-10383190D02*
X12789643Y-10383190D01*
X12789643Y-10383190D02*
X12808691Y-10392714D01*
X12884881Y-10592714D02*
X12894405Y-10583190D01*
X12894405Y-10583190D02*
X12913453Y-10554619D01*
X12913453Y-10554619D02*
X12922977Y-10535571D01*
X12922977Y-10535571D02*
X12932500Y-10507000D01*
X12932500Y-10507000D02*
X12942024Y-10459381D01*
X12942024Y-10459381D02*
X12942024Y-10421286D01*
X12942024Y-10421286D02*
X12932500Y-10373667D01*
X12932500Y-10373667D02*
X12922977Y-10345095D01*
X12922977Y-10345095D02*
X12913453Y-10326048D01*
X12913453Y-10326048D02*
X12894405Y-10297476D01*
X12894405Y-10297476D02*
X12884881Y-10287952D01*
D13*
X7932500Y-10688000D02*
G75*
G03*
X7932500Y-10688000I-25000J0D01*
G01*
D11*
X8218214Y-10580524D02*
X8237262Y-10580524D01*
X8237262Y-10580524D02*
X8256309Y-10590048D01*
X8256309Y-10590048D02*
X8265833Y-10599571D01*
X8265833Y-10599571D02*
X8275357Y-10618619D01*
X8275357Y-10618619D02*
X8284881Y-10656714D01*
X8284881Y-10656714D02*
X8284881Y-10704333D01*
X8284881Y-10704333D02*
X8275357Y-10742429D01*
X8275357Y-10742429D02*
X8265833Y-10761476D01*
X8265833Y-10761476D02*
X8256309Y-10771000D01*
X8256309Y-10771000D02*
X8237262Y-10780524D01*
X8237262Y-10780524D02*
X8218214Y-10780524D01*
X8218214Y-10780524D02*
X8199167Y-10771000D01*
X8199167Y-10771000D02*
X8189643Y-10761476D01*
X8189643Y-10761476D02*
X8180119Y-10742429D01*
X8180119Y-10742429D02*
X8170595Y-10704333D01*
X8170595Y-10704333D02*
X8170595Y-10656714D01*
X8170595Y-10656714D02*
X8180119Y-10618619D01*
X8180119Y-10618619D02*
X8189643Y-10599571D01*
X8189643Y-10599571D02*
X8199167Y-10590048D01*
X8199167Y-10590048D02*
X8218214Y-10580524D01*
X8370595Y-10761476D02*
X8380119Y-10771000D01*
X8380119Y-10771000D02*
X8370595Y-10780524D01*
X8370595Y-10780524D02*
X8361071Y-10771000D01*
X8361071Y-10771000D02*
X8370595Y-10761476D01*
X8370595Y-10761476D02*
X8370595Y-10780524D01*
X8561071Y-10580524D02*
X8465833Y-10580524D01*
X8465833Y-10580524D02*
X8456310Y-10675762D01*
X8456310Y-10675762D02*
X8465833Y-10666238D01*
X8465833Y-10666238D02*
X8484881Y-10656714D01*
X8484881Y-10656714D02*
X8532500Y-10656714D01*
X8532500Y-10656714D02*
X8551548Y-10666238D01*
X8551548Y-10666238D02*
X8561071Y-10675762D01*
X8561071Y-10675762D02*
X8570595Y-10694810D01*
X8570595Y-10694810D02*
X8570595Y-10742429D01*
X8570595Y-10742429D02*
X8561071Y-10761476D01*
X8561071Y-10761476D02*
X8551548Y-10771000D01*
X8551548Y-10771000D02*
X8532500Y-10780524D01*
X8532500Y-10780524D02*
X8484881Y-10780524D01*
X8484881Y-10780524D02*
X8465833Y-10771000D01*
X8465833Y-10771000D02*
X8456310Y-10761476D01*
X8694405Y-10580524D02*
X8713452Y-10580524D01*
X8713452Y-10580524D02*
X8732500Y-10590048D01*
X8732500Y-10590048D02*
X8742024Y-10599571D01*
X8742024Y-10599571D02*
X8751548Y-10618619D01*
X8751548Y-10618619D02*
X8761071Y-10656714D01*
X8761071Y-10656714D02*
X8761071Y-10704333D01*
X8761071Y-10704333D02*
X8751548Y-10742429D01*
X8751548Y-10742429D02*
X8742024Y-10761476D01*
X8742024Y-10761476D02*
X8732500Y-10771000D01*
X8732500Y-10771000D02*
X8713452Y-10780524D01*
X8713452Y-10780524D02*
X8694405Y-10780524D01*
X8694405Y-10780524D02*
X8675357Y-10771000D01*
X8675357Y-10771000D02*
X8665833Y-10761476D01*
X8665833Y-10761476D02*
X8656310Y-10742429D01*
X8656310Y-10742429D02*
X8646786Y-10704333D01*
X8646786Y-10704333D02*
X8646786Y-10656714D01*
X8646786Y-10656714D02*
X8656310Y-10618619D01*
X8656310Y-10618619D02*
X8665833Y-10599571D01*
X8665833Y-10599571D02*
X8675357Y-10590048D01*
X8675357Y-10590048D02*
X8694405Y-10580524D01*
X8884881Y-10580524D02*
X8903929Y-10580524D01*
X8903929Y-10580524D02*
X8922976Y-10590048D01*
X8922976Y-10590048D02*
X8932500Y-10599571D01*
X8932500Y-10599571D02*
X8942024Y-10618619D01*
X8942024Y-10618619D02*
X8951548Y-10656714D01*
X8951548Y-10656714D02*
X8951548Y-10704333D01*
X8951548Y-10704333D02*
X8942024Y-10742429D01*
X8942024Y-10742429D02*
X8932500Y-10761476D01*
X8932500Y-10761476D02*
X8922976Y-10771000D01*
X8922976Y-10771000D02*
X8903929Y-10780524D01*
X8903929Y-10780524D02*
X8884881Y-10780524D01*
X8884881Y-10780524D02*
X8865833Y-10771000D01*
X8865833Y-10771000D02*
X8856310Y-10761476D01*
X8856310Y-10761476D02*
X8846786Y-10742429D01*
X8846786Y-10742429D02*
X8837262Y-10704333D01*
X8837262Y-10704333D02*
X8837262Y-10656714D01*
X8837262Y-10656714D02*
X8846786Y-10618619D01*
X8846786Y-10618619D02*
X8856310Y-10599571D01*
X8856310Y-10599571D02*
X8865833Y-10590048D01*
X8865833Y-10590048D02*
X8884881Y-10580524D01*
X9037262Y-10780524D02*
X9037262Y-10647190D01*
X9037262Y-10666238D02*
X9046786Y-10656714D01*
X9046786Y-10656714D02*
X9065833Y-10647190D01*
X9065833Y-10647190D02*
X9094405Y-10647190D01*
X9094405Y-10647190D02*
X9113452Y-10656714D01*
X9113452Y-10656714D02*
X9122976Y-10675762D01*
X9122976Y-10675762D02*
X9122976Y-10780524D01*
X9122976Y-10675762D02*
X9132500Y-10656714D01*
X9132500Y-10656714D02*
X9151548Y-10647190D01*
X9151548Y-10647190D02*
X9180119Y-10647190D01*
X9180119Y-10647190D02*
X9199167Y-10656714D01*
X9199167Y-10656714D02*
X9208691Y-10675762D01*
X9208691Y-10675762D02*
X9208691Y-10780524D01*
X9303929Y-10780524D02*
X9303929Y-10647190D01*
X9303929Y-10666238D02*
X9313452Y-10656714D01*
X9313452Y-10656714D02*
X9332500Y-10647190D01*
X9332500Y-10647190D02*
X9361072Y-10647190D01*
X9361072Y-10647190D02*
X9380119Y-10656714D01*
X9380119Y-10656714D02*
X9389643Y-10675762D01*
X9389643Y-10675762D02*
X9389643Y-10780524D01*
X9389643Y-10675762D02*
X9399167Y-10656714D01*
X9399167Y-10656714D02*
X9418214Y-10647190D01*
X9418214Y-10647190D02*
X9446786Y-10647190D01*
X9446786Y-10647190D02*
X9465833Y-10656714D01*
X9465833Y-10656714D02*
X9475357Y-10675762D01*
X9475357Y-10675762D02*
X9475357Y-10780524D01*
X9865833Y-10571000D02*
X9694405Y-10828143D01*
X10122976Y-10580524D02*
X10142024Y-10580524D01*
X10142024Y-10580524D02*
X10161072Y-10590048D01*
X10161072Y-10590048D02*
X10170595Y-10599571D01*
X10170595Y-10599571D02*
X10180119Y-10618619D01*
X10180119Y-10618619D02*
X10189643Y-10656714D01*
X10189643Y-10656714D02*
X10189643Y-10704333D01*
X10189643Y-10704333D02*
X10180119Y-10742429D01*
X10180119Y-10742429D02*
X10170595Y-10761476D01*
X10170595Y-10761476D02*
X10161072Y-10771000D01*
X10161072Y-10771000D02*
X10142024Y-10780524D01*
X10142024Y-10780524D02*
X10122976Y-10780524D01*
X10122976Y-10780524D02*
X10103929Y-10771000D01*
X10103929Y-10771000D02*
X10094405Y-10761476D01*
X10094405Y-10761476D02*
X10084881Y-10742429D01*
X10084881Y-10742429D02*
X10075357Y-10704333D01*
X10075357Y-10704333D02*
X10075357Y-10656714D01*
X10075357Y-10656714D02*
X10084881Y-10618619D01*
X10084881Y-10618619D02*
X10094405Y-10599571D01*
X10094405Y-10599571D02*
X10103929Y-10590048D01*
X10103929Y-10590048D02*
X10122976Y-10580524D01*
X10275357Y-10761476D02*
X10284881Y-10771000D01*
X10284881Y-10771000D02*
X10275357Y-10780524D01*
X10275357Y-10780524D02*
X10265834Y-10771000D01*
X10265834Y-10771000D02*
X10275357Y-10761476D01*
X10275357Y-10761476D02*
X10275357Y-10780524D01*
X10408691Y-10580524D02*
X10427738Y-10580524D01*
X10427738Y-10580524D02*
X10446786Y-10590048D01*
X10446786Y-10590048D02*
X10456310Y-10599571D01*
X10456310Y-10599571D02*
X10465834Y-10618619D01*
X10465834Y-10618619D02*
X10475357Y-10656714D01*
X10475357Y-10656714D02*
X10475357Y-10704333D01*
X10475357Y-10704333D02*
X10465834Y-10742429D01*
X10465834Y-10742429D02*
X10456310Y-10761476D01*
X10456310Y-10761476D02*
X10446786Y-10771000D01*
X10446786Y-10771000D02*
X10427738Y-10780524D01*
X10427738Y-10780524D02*
X10408691Y-10780524D01*
X10408691Y-10780524D02*
X10389643Y-10771000D01*
X10389643Y-10771000D02*
X10380119Y-10761476D01*
X10380119Y-10761476D02*
X10370595Y-10742429D01*
X10370595Y-10742429D02*
X10361072Y-10704333D01*
X10361072Y-10704333D02*
X10361072Y-10656714D01*
X10361072Y-10656714D02*
X10370595Y-10618619D01*
X10370595Y-10618619D02*
X10380119Y-10599571D01*
X10380119Y-10599571D02*
X10389643Y-10590048D01*
X10389643Y-10590048D02*
X10408691Y-10580524D01*
X10665834Y-10780524D02*
X10551548Y-10780524D01*
X10608691Y-10780524D02*
X10608691Y-10580524D01*
X10608691Y-10580524D02*
X10589643Y-10609095D01*
X10589643Y-10609095D02*
X10570595Y-10628143D01*
X10570595Y-10628143D02*
X10551548Y-10637667D01*
X10761072Y-10780524D02*
X10799167Y-10780524D01*
X10799167Y-10780524D02*
X10818215Y-10771000D01*
X10818215Y-10771000D02*
X10827738Y-10761476D01*
X10827738Y-10761476D02*
X10846786Y-10732905D01*
X10846786Y-10732905D02*
X10856310Y-10694810D01*
X10856310Y-10694810D02*
X10856310Y-10618619D01*
X10856310Y-10618619D02*
X10846786Y-10599571D01*
X10846786Y-10599571D02*
X10837262Y-10590048D01*
X10837262Y-10590048D02*
X10818215Y-10580524D01*
X10818215Y-10580524D02*
X10780119Y-10580524D01*
X10780119Y-10580524D02*
X10761072Y-10590048D01*
X10761072Y-10590048D02*
X10751548Y-10599571D01*
X10751548Y-10599571D02*
X10742024Y-10618619D01*
X10742024Y-10618619D02*
X10742024Y-10666238D01*
X10742024Y-10666238D02*
X10751548Y-10685286D01*
X10751548Y-10685286D02*
X10761072Y-10694810D01*
X10761072Y-10694810D02*
X10780119Y-10704333D01*
X10780119Y-10704333D02*
X10818215Y-10704333D01*
X10818215Y-10704333D02*
X10837262Y-10694810D01*
X10837262Y-10694810D02*
X10846786Y-10685286D01*
X10846786Y-10685286D02*
X10856310Y-10666238D01*
X10922976Y-10580524D02*
X11056310Y-10580524D01*
X11056310Y-10580524D02*
X10970595Y-10780524D01*
X11122976Y-10580524D02*
X11122976Y-10618619D01*
X11199167Y-10580524D02*
X11199167Y-10618619D01*
X11494405Y-10856714D02*
X11484881Y-10847190D01*
X11484881Y-10847190D02*
X11465834Y-10818619D01*
X11465834Y-10818619D02*
X11456310Y-10799571D01*
X11456310Y-10799571D02*
X11446786Y-10771000D01*
X11446786Y-10771000D02*
X11437262Y-10723381D01*
X11437262Y-10723381D02*
X11437262Y-10685286D01*
X11437262Y-10685286D02*
X11446786Y-10637667D01*
X11446786Y-10637667D02*
X11456310Y-10609095D01*
X11456310Y-10609095D02*
X11465834Y-10590048D01*
X11465834Y-10590048D02*
X11484881Y-10561476D01*
X11484881Y-10561476D02*
X11494405Y-10551952D01*
X11675357Y-10780524D02*
X11561072Y-10780524D01*
X11618214Y-10780524D02*
X11618214Y-10580524D01*
X11618214Y-10580524D02*
X11599167Y-10609095D01*
X11599167Y-10609095D02*
X11580119Y-10628143D01*
X11580119Y-10628143D02*
X11561072Y-10637667D01*
X11913453Y-10780524D02*
X11913453Y-10580524D01*
X11999167Y-10780524D02*
X11999167Y-10675762D01*
X11999167Y-10675762D02*
X11989643Y-10656714D01*
X11989643Y-10656714D02*
X11970596Y-10647190D01*
X11970596Y-10647190D02*
X11942024Y-10647190D01*
X11942024Y-10647190D02*
X11922976Y-10656714D01*
X11922976Y-10656714D02*
X11913453Y-10666238D01*
X12122976Y-10780524D02*
X12103929Y-10771000D01*
X12103929Y-10771000D02*
X12094405Y-10761476D01*
X12094405Y-10761476D02*
X12084881Y-10742429D01*
X12084881Y-10742429D02*
X12084881Y-10685286D01*
X12084881Y-10685286D02*
X12094405Y-10666238D01*
X12094405Y-10666238D02*
X12103929Y-10656714D01*
X12103929Y-10656714D02*
X12122976Y-10647190D01*
X12122976Y-10647190D02*
X12151548Y-10647190D01*
X12151548Y-10647190D02*
X12170596Y-10656714D01*
X12170596Y-10656714D02*
X12180119Y-10666238D01*
X12180119Y-10666238D02*
X12189643Y-10685286D01*
X12189643Y-10685286D02*
X12189643Y-10742429D01*
X12189643Y-10742429D02*
X12180119Y-10761476D01*
X12180119Y-10761476D02*
X12170596Y-10771000D01*
X12170596Y-10771000D02*
X12151548Y-10780524D01*
X12151548Y-10780524D02*
X12122976Y-10780524D01*
X12303929Y-10780524D02*
X12284881Y-10771000D01*
X12284881Y-10771000D02*
X12275357Y-10751952D01*
X12275357Y-10751952D02*
X12275357Y-10580524D01*
X12456310Y-10771000D02*
X12437262Y-10780524D01*
X12437262Y-10780524D02*
X12399167Y-10780524D01*
X12399167Y-10780524D02*
X12380119Y-10771000D01*
X12380119Y-10771000D02*
X12370596Y-10751952D01*
X12370596Y-10751952D02*
X12370596Y-10675762D01*
X12370596Y-10675762D02*
X12380119Y-10656714D01*
X12380119Y-10656714D02*
X12399167Y-10647190D01*
X12399167Y-10647190D02*
X12437262Y-10647190D01*
X12437262Y-10647190D02*
X12456310Y-10656714D01*
X12456310Y-10656714D02*
X12465834Y-10675762D01*
X12465834Y-10675762D02*
X12465834Y-10694810D01*
X12465834Y-10694810D02*
X12370596Y-10713857D01*
X12532500Y-10856714D02*
X12542024Y-10847190D01*
X12542024Y-10847190D02*
X12561072Y-10818619D01*
X12561072Y-10818619D02*
X12570596Y-10799571D01*
X12570596Y-10799571D02*
X12580119Y-10771000D01*
X12580119Y-10771000D02*
X12589643Y-10723381D01*
X12589643Y-10723381D02*
X12589643Y-10685286D01*
X12589643Y-10685286D02*
X12580119Y-10637667D01*
X12580119Y-10637667D02*
X12570596Y-10609095D01*
X12570596Y-10609095D02*
X12561072Y-10590048D01*
X12561072Y-10590048D02*
X12542024Y-10561476D01*
X12542024Y-10561476D02*
X12532500Y-10551952D01*
D14*
X7881700Y-10901200D02*
X7881700Y-11002800D01*
X7830900Y-10952000D02*
X7932500Y-10952000D01*
D11*
X8284881Y-11044524D02*
X8170595Y-11044524D01*
X8227738Y-11044524D02*
X8227738Y-10844524D01*
X8227738Y-10844524D02*
X8208690Y-10873095D01*
X8208690Y-10873095D02*
X8189643Y-10892143D01*
X8189643Y-10892143D02*
X8170595Y-10901667D01*
X8370595Y-11025476D02*
X8380119Y-11035000D01*
X8380119Y-11035000D02*
X8370595Y-11044524D01*
X8370595Y-11044524D02*
X8361071Y-11035000D01*
X8361071Y-11035000D02*
X8370595Y-11025476D01*
X8370595Y-11025476D02*
X8370595Y-11044524D01*
X8503929Y-10844524D02*
X8522976Y-10844524D01*
X8522976Y-10844524D02*
X8542024Y-10854048D01*
X8542024Y-10854048D02*
X8551548Y-10863571D01*
X8551548Y-10863571D02*
X8561071Y-10882619D01*
X8561071Y-10882619D02*
X8570595Y-10920714D01*
X8570595Y-10920714D02*
X8570595Y-10968333D01*
X8570595Y-10968333D02*
X8561071Y-11006429D01*
X8561071Y-11006429D02*
X8551548Y-11025476D01*
X8551548Y-11025476D02*
X8542024Y-11035000D01*
X8542024Y-11035000D02*
X8522976Y-11044524D01*
X8522976Y-11044524D02*
X8503929Y-11044524D01*
X8503929Y-11044524D02*
X8484881Y-11035000D01*
X8484881Y-11035000D02*
X8475357Y-11025476D01*
X8475357Y-11025476D02*
X8465833Y-11006429D01*
X8465833Y-11006429D02*
X8456310Y-10968333D01*
X8456310Y-10968333D02*
X8456310Y-10920714D01*
X8456310Y-10920714D02*
X8465833Y-10882619D01*
X8465833Y-10882619D02*
X8475357Y-10863571D01*
X8475357Y-10863571D02*
X8484881Y-10854048D01*
X8484881Y-10854048D02*
X8503929Y-10844524D01*
X8761071Y-11044524D02*
X8646786Y-11044524D01*
X8703929Y-11044524D02*
X8703929Y-10844524D01*
X8703929Y-10844524D02*
X8684881Y-10873095D01*
X8684881Y-10873095D02*
X8665833Y-10892143D01*
X8665833Y-10892143D02*
X8646786Y-10901667D01*
X8932500Y-10844524D02*
X8894405Y-10844524D01*
X8894405Y-10844524D02*
X8875357Y-10854048D01*
X8875357Y-10854048D02*
X8865833Y-10863571D01*
X8865833Y-10863571D02*
X8846786Y-10892143D01*
X8846786Y-10892143D02*
X8837262Y-10930238D01*
X8837262Y-10930238D02*
X8837262Y-11006429D01*
X8837262Y-11006429D02*
X8846786Y-11025476D01*
X8846786Y-11025476D02*
X8856310Y-11035000D01*
X8856310Y-11035000D02*
X8875357Y-11044524D01*
X8875357Y-11044524D02*
X8913452Y-11044524D01*
X8913452Y-11044524D02*
X8932500Y-11035000D01*
X8932500Y-11035000D02*
X8942024Y-11025476D01*
X8942024Y-11025476D02*
X8951548Y-11006429D01*
X8951548Y-11006429D02*
X8951548Y-10958810D01*
X8951548Y-10958810D02*
X8942024Y-10939762D01*
X8942024Y-10939762D02*
X8932500Y-10930238D01*
X8932500Y-10930238D02*
X8913452Y-10920714D01*
X8913452Y-10920714D02*
X8875357Y-10920714D01*
X8875357Y-10920714D02*
X8856310Y-10930238D01*
X8856310Y-10930238D02*
X8846786Y-10939762D01*
X8846786Y-10939762D02*
X8837262Y-10958810D01*
X9037262Y-11044524D02*
X9037262Y-10911190D01*
X9037262Y-10930238D02*
X9046786Y-10920714D01*
X9046786Y-10920714D02*
X9065833Y-10911190D01*
X9065833Y-10911190D02*
X9094405Y-10911190D01*
X9094405Y-10911190D02*
X9113452Y-10920714D01*
X9113452Y-10920714D02*
X9122976Y-10939762D01*
X9122976Y-10939762D02*
X9122976Y-11044524D01*
X9122976Y-10939762D02*
X9132500Y-10920714D01*
X9132500Y-10920714D02*
X9151548Y-10911190D01*
X9151548Y-10911190D02*
X9180119Y-10911190D01*
X9180119Y-10911190D02*
X9199167Y-10920714D01*
X9199167Y-10920714D02*
X9208691Y-10939762D01*
X9208691Y-10939762D02*
X9208691Y-11044524D01*
X9303929Y-11044524D02*
X9303929Y-10911190D01*
X9303929Y-10930238D02*
X9313452Y-10920714D01*
X9313452Y-10920714D02*
X9332500Y-10911190D01*
X9332500Y-10911190D02*
X9361072Y-10911190D01*
X9361072Y-10911190D02*
X9380119Y-10920714D01*
X9380119Y-10920714D02*
X9389643Y-10939762D01*
X9389643Y-10939762D02*
X9389643Y-11044524D01*
X9389643Y-10939762D02*
X9399167Y-10920714D01*
X9399167Y-10920714D02*
X9418214Y-10911190D01*
X9418214Y-10911190D02*
X9446786Y-10911190D01*
X9446786Y-10911190D02*
X9465833Y-10920714D01*
X9465833Y-10920714D02*
X9475357Y-10939762D01*
X9475357Y-10939762D02*
X9475357Y-11044524D01*
X9865833Y-10835000D02*
X9694405Y-11092143D01*
X10122976Y-10844524D02*
X10142024Y-10844524D01*
X10142024Y-10844524D02*
X10161072Y-10854048D01*
X10161072Y-10854048D02*
X10170595Y-10863571D01*
X10170595Y-10863571D02*
X10180119Y-10882619D01*
X10180119Y-10882619D02*
X10189643Y-10920714D01*
X10189643Y-10920714D02*
X10189643Y-10968333D01*
X10189643Y-10968333D02*
X10180119Y-11006429D01*
X10180119Y-11006429D02*
X10170595Y-11025476D01*
X10170595Y-11025476D02*
X10161072Y-11035000D01*
X10161072Y-11035000D02*
X10142024Y-11044524D01*
X10142024Y-11044524D02*
X10122976Y-11044524D01*
X10122976Y-11044524D02*
X10103929Y-11035000D01*
X10103929Y-11035000D02*
X10094405Y-11025476D01*
X10094405Y-11025476D02*
X10084881Y-11006429D01*
X10084881Y-11006429D02*
X10075357Y-10968333D01*
X10075357Y-10968333D02*
X10075357Y-10920714D01*
X10075357Y-10920714D02*
X10084881Y-10882619D01*
X10084881Y-10882619D02*
X10094405Y-10863571D01*
X10094405Y-10863571D02*
X10103929Y-10854048D01*
X10103929Y-10854048D02*
X10122976Y-10844524D01*
X10275357Y-11025476D02*
X10284881Y-11035000D01*
X10284881Y-11035000D02*
X10275357Y-11044524D01*
X10275357Y-11044524D02*
X10265834Y-11035000D01*
X10265834Y-11035000D02*
X10275357Y-11025476D01*
X10275357Y-11025476D02*
X10275357Y-11044524D01*
X10408691Y-10844524D02*
X10427738Y-10844524D01*
X10427738Y-10844524D02*
X10446786Y-10854048D01*
X10446786Y-10854048D02*
X10456310Y-10863571D01*
X10456310Y-10863571D02*
X10465834Y-10882619D01*
X10465834Y-10882619D02*
X10475357Y-10920714D01*
X10475357Y-10920714D02*
X10475357Y-10968333D01*
X10475357Y-10968333D02*
X10465834Y-11006429D01*
X10465834Y-11006429D02*
X10456310Y-11025476D01*
X10456310Y-11025476D02*
X10446786Y-11035000D01*
X10446786Y-11035000D02*
X10427738Y-11044524D01*
X10427738Y-11044524D02*
X10408691Y-11044524D01*
X10408691Y-11044524D02*
X10389643Y-11035000D01*
X10389643Y-11035000D02*
X10380119Y-11025476D01*
X10380119Y-11025476D02*
X10370595Y-11006429D01*
X10370595Y-11006429D02*
X10361072Y-10968333D01*
X10361072Y-10968333D02*
X10361072Y-10920714D01*
X10361072Y-10920714D02*
X10370595Y-10882619D01*
X10370595Y-10882619D02*
X10380119Y-10863571D01*
X10380119Y-10863571D02*
X10389643Y-10854048D01*
X10389643Y-10854048D02*
X10408691Y-10844524D01*
X10646786Y-10911190D02*
X10646786Y-11044524D01*
X10599167Y-10835000D02*
X10551548Y-10977857D01*
X10551548Y-10977857D02*
X10675357Y-10977857D01*
X10789643Y-10844524D02*
X10808691Y-10844524D01*
X10808691Y-10844524D02*
X10827738Y-10854048D01*
X10827738Y-10854048D02*
X10837262Y-10863571D01*
X10837262Y-10863571D02*
X10846786Y-10882619D01*
X10846786Y-10882619D02*
X10856310Y-10920714D01*
X10856310Y-10920714D02*
X10856310Y-10968333D01*
X10856310Y-10968333D02*
X10846786Y-11006429D01*
X10846786Y-11006429D02*
X10837262Y-11025476D01*
X10837262Y-11025476D02*
X10827738Y-11035000D01*
X10827738Y-11035000D02*
X10808691Y-11044524D01*
X10808691Y-11044524D02*
X10789643Y-11044524D01*
X10789643Y-11044524D02*
X10770595Y-11035000D01*
X10770595Y-11035000D02*
X10761072Y-11025476D01*
X10761072Y-11025476D02*
X10751548Y-11006429D01*
X10751548Y-11006429D02*
X10742024Y-10968333D01*
X10742024Y-10968333D02*
X10742024Y-10920714D01*
X10742024Y-10920714D02*
X10751548Y-10882619D01*
X10751548Y-10882619D02*
X10761072Y-10863571D01*
X10761072Y-10863571D02*
X10770595Y-10854048D01*
X10770595Y-10854048D02*
X10789643Y-10844524D01*
X10980119Y-10844524D02*
X10999167Y-10844524D01*
X10999167Y-10844524D02*
X11018215Y-10854048D01*
X11018215Y-10854048D02*
X11027738Y-10863571D01*
X11027738Y-10863571D02*
X11037262Y-10882619D01*
X11037262Y-10882619D02*
X11046786Y-10920714D01*
X11046786Y-10920714D02*
X11046786Y-10968333D01*
X11046786Y-10968333D02*
X11037262Y-11006429D01*
X11037262Y-11006429D02*
X11027738Y-11025476D01*
X11027738Y-11025476D02*
X11018215Y-11035000D01*
X11018215Y-11035000D02*
X10999167Y-11044524D01*
X10999167Y-11044524D02*
X10980119Y-11044524D01*
X10980119Y-11044524D02*
X10961072Y-11035000D01*
X10961072Y-11035000D02*
X10951548Y-11025476D01*
X10951548Y-11025476D02*
X10942024Y-11006429D01*
X10942024Y-11006429D02*
X10932500Y-10968333D01*
X10932500Y-10968333D02*
X10932500Y-10920714D01*
X10932500Y-10920714D02*
X10942024Y-10882619D01*
X10942024Y-10882619D02*
X10951548Y-10863571D01*
X10951548Y-10863571D02*
X10961072Y-10854048D01*
X10961072Y-10854048D02*
X10980119Y-10844524D01*
X11122976Y-10844524D02*
X11122976Y-10882619D01*
X11199167Y-10844524D02*
X11199167Y-10882619D01*
X11494405Y-11120714D02*
X11484881Y-11111190D01*
X11484881Y-11111190D02*
X11465834Y-11082619D01*
X11465834Y-11082619D02*
X11456310Y-11063571D01*
X11456310Y-11063571D02*
X11446786Y-11035000D01*
X11446786Y-11035000D02*
X11437262Y-10987381D01*
X11437262Y-10987381D02*
X11437262Y-10949286D01*
X11437262Y-10949286D02*
X11446786Y-10901667D01*
X11446786Y-10901667D02*
X11456310Y-10873095D01*
X11456310Y-10873095D02*
X11465834Y-10854048D01*
X11465834Y-10854048D02*
X11484881Y-10825476D01*
X11484881Y-10825476D02*
X11494405Y-10815952D01*
X11551548Y-10844524D02*
X11675357Y-10844524D01*
X11675357Y-10844524D02*
X11608691Y-10920714D01*
X11608691Y-10920714D02*
X11637262Y-10920714D01*
X11637262Y-10920714D02*
X11656310Y-10930238D01*
X11656310Y-10930238D02*
X11665834Y-10939762D01*
X11665834Y-10939762D02*
X11675357Y-10958810D01*
X11675357Y-10958810D02*
X11675357Y-11006429D01*
X11675357Y-11006429D02*
X11665834Y-11025476D01*
X11665834Y-11025476D02*
X11656310Y-11035000D01*
X11656310Y-11035000D02*
X11637262Y-11044524D01*
X11637262Y-11044524D02*
X11580119Y-11044524D01*
X11580119Y-11044524D02*
X11561072Y-11035000D01*
X11561072Y-11035000D02*
X11551548Y-11025476D01*
X11799167Y-10844524D02*
X11818215Y-10844524D01*
X11818215Y-10844524D02*
X11837262Y-10854048D01*
X11837262Y-10854048D02*
X11846786Y-10863571D01*
X11846786Y-10863571D02*
X11856310Y-10882619D01*
X11856310Y-10882619D02*
X11865834Y-10920714D01*
X11865834Y-10920714D02*
X11865834Y-10968333D01*
X11865834Y-10968333D02*
X11856310Y-11006429D01*
X11856310Y-11006429D02*
X11846786Y-11025476D01*
X11846786Y-11025476D02*
X11837262Y-11035000D01*
X11837262Y-11035000D02*
X11818215Y-11044524D01*
X11818215Y-11044524D02*
X11799167Y-11044524D01*
X11799167Y-11044524D02*
X11780119Y-11035000D01*
X11780119Y-11035000D02*
X11770595Y-11025476D01*
X11770595Y-11025476D02*
X11761072Y-11006429D01*
X11761072Y-11006429D02*
X11751548Y-10968333D01*
X11751548Y-10968333D02*
X11751548Y-10920714D01*
X11751548Y-10920714D02*
X11761072Y-10882619D01*
X11761072Y-10882619D02*
X11770595Y-10863571D01*
X11770595Y-10863571D02*
X11780119Y-10854048D01*
X11780119Y-10854048D02*
X11799167Y-10844524D01*
X12103929Y-11044524D02*
X12103929Y-10844524D01*
X12189643Y-11044524D02*
X12189643Y-10939762D01*
X12189643Y-10939762D02*
X12180119Y-10920714D01*
X12180119Y-10920714D02*
X12161072Y-10911190D01*
X12161072Y-10911190D02*
X12132500Y-10911190D01*
X12132500Y-10911190D02*
X12113453Y-10920714D01*
X12113453Y-10920714D02*
X12103929Y-10930238D01*
X12313453Y-11044524D02*
X12294405Y-11035000D01*
X12294405Y-11035000D02*
X12284881Y-11025476D01*
X12284881Y-11025476D02*
X12275357Y-11006429D01*
X12275357Y-11006429D02*
X12275357Y-10949286D01*
X12275357Y-10949286D02*
X12284881Y-10930238D01*
X12284881Y-10930238D02*
X12294405Y-10920714D01*
X12294405Y-10920714D02*
X12313453Y-10911190D01*
X12313453Y-10911190D02*
X12342024Y-10911190D01*
X12342024Y-10911190D02*
X12361072Y-10920714D01*
X12361072Y-10920714D02*
X12370596Y-10930238D01*
X12370596Y-10930238D02*
X12380119Y-10949286D01*
X12380119Y-10949286D02*
X12380119Y-11006429D01*
X12380119Y-11006429D02*
X12370596Y-11025476D01*
X12370596Y-11025476D02*
X12361072Y-11035000D01*
X12361072Y-11035000D02*
X12342024Y-11044524D01*
X12342024Y-11044524D02*
X12313453Y-11044524D01*
X12494405Y-11044524D02*
X12475357Y-11035000D01*
X12475357Y-11035000D02*
X12465834Y-11015952D01*
X12465834Y-11015952D02*
X12465834Y-10844524D01*
X12646786Y-11035000D02*
X12627738Y-11044524D01*
X12627738Y-11044524D02*
X12589643Y-11044524D01*
X12589643Y-11044524D02*
X12570596Y-11035000D01*
X12570596Y-11035000D02*
X12561072Y-11015952D01*
X12561072Y-11015952D02*
X12561072Y-10939762D01*
X12561072Y-10939762D02*
X12570596Y-10920714D01*
X12570596Y-10920714D02*
X12589643Y-10911190D01*
X12589643Y-10911190D02*
X12627738Y-10911190D01*
X12627738Y-10911190D02*
X12646786Y-10920714D01*
X12646786Y-10920714D02*
X12656310Y-10939762D01*
X12656310Y-10939762D02*
X12656310Y-10958810D01*
X12656310Y-10958810D02*
X12561072Y-10977857D01*
X12732500Y-11035000D02*
X12751548Y-11044524D01*
X12751548Y-11044524D02*
X12789643Y-11044524D01*
X12789643Y-11044524D02*
X12808691Y-11035000D01*
X12808691Y-11035000D02*
X12818215Y-11015952D01*
X12818215Y-11015952D02*
X12818215Y-11006429D01*
X12818215Y-11006429D02*
X12808691Y-10987381D01*
X12808691Y-10987381D02*
X12789643Y-10977857D01*
X12789643Y-10977857D02*
X12761072Y-10977857D01*
X12761072Y-10977857D02*
X12742024Y-10968333D01*
X12742024Y-10968333D02*
X12732500Y-10949286D01*
X12732500Y-10949286D02*
X12732500Y-10939762D01*
X12732500Y-10939762D02*
X12742024Y-10920714D01*
X12742024Y-10920714D02*
X12761072Y-10911190D01*
X12761072Y-10911190D02*
X12789643Y-10911190D01*
X12789643Y-10911190D02*
X12808691Y-10920714D01*
X12884881Y-11120714D02*
X12894405Y-11111190D01*
X12894405Y-11111190D02*
X12913453Y-11082619D01*
X12913453Y-11082619D02*
X12922977Y-11063571D01*
X12922977Y-11063571D02*
X12932500Y-11035000D01*
X12932500Y-11035000D02*
X12942024Y-10987381D01*
X12942024Y-10987381D02*
X12942024Y-10949286D01*
X12942024Y-10949286D02*
X12932500Y-10901667D01*
X12932500Y-10901667D02*
X12922977Y-10873095D01*
X12922977Y-10873095D02*
X12913453Y-10854048D01*
X12913453Y-10854048D02*
X12894405Y-10825476D01*
X12894405Y-10825476D02*
X12884881Y-10815952D01*
D15*
X7916391Y-11254891D02*
X7916391Y-11177109D01*
X7838609Y-11177109D01*
X7838609Y-11254891D01*
X7916391Y-11254891D01*
D11*
X8284881Y-11308524D02*
X8170595Y-11308524D01*
X8227738Y-11308524D02*
X8227738Y-11108524D01*
X8227738Y-11108524D02*
X8208690Y-11137095D01*
X8208690Y-11137095D02*
X8189643Y-11156143D01*
X8189643Y-11156143D02*
X8170595Y-11165667D01*
X8370595Y-11289476D02*
X8380119Y-11299000D01*
X8380119Y-11299000D02*
X8370595Y-11308524D01*
X8370595Y-11308524D02*
X8361071Y-11299000D01*
X8361071Y-11299000D02*
X8370595Y-11289476D01*
X8370595Y-11289476D02*
X8370595Y-11308524D01*
X8570595Y-11308524D02*
X8456310Y-11308524D01*
X8513452Y-11308524D02*
X8513452Y-11108524D01*
X8513452Y-11108524D02*
X8494405Y-11137095D01*
X8494405Y-11137095D02*
X8475357Y-11156143D01*
X8475357Y-11156143D02*
X8456310Y-11165667D01*
X8694405Y-11108524D02*
X8713452Y-11108524D01*
X8713452Y-11108524D02*
X8732500Y-11118048D01*
X8732500Y-11118048D02*
X8742024Y-11127571D01*
X8742024Y-11127571D02*
X8751548Y-11146619D01*
X8751548Y-11146619D02*
X8761071Y-11184714D01*
X8761071Y-11184714D02*
X8761071Y-11232333D01*
X8761071Y-11232333D02*
X8751548Y-11270428D01*
X8751548Y-11270428D02*
X8742024Y-11289476D01*
X8742024Y-11289476D02*
X8732500Y-11299000D01*
X8732500Y-11299000D02*
X8713452Y-11308524D01*
X8713452Y-11308524D02*
X8694405Y-11308524D01*
X8694405Y-11308524D02*
X8675357Y-11299000D01*
X8675357Y-11299000D02*
X8665833Y-11289476D01*
X8665833Y-11289476D02*
X8656310Y-11270428D01*
X8656310Y-11270428D02*
X8646786Y-11232333D01*
X8646786Y-11232333D02*
X8646786Y-11184714D01*
X8646786Y-11184714D02*
X8656310Y-11146619D01*
X8656310Y-11146619D02*
X8665833Y-11127571D01*
X8665833Y-11127571D02*
X8675357Y-11118048D01*
X8675357Y-11118048D02*
X8694405Y-11108524D01*
X8884881Y-11108524D02*
X8903929Y-11108524D01*
X8903929Y-11108524D02*
X8922976Y-11118048D01*
X8922976Y-11118048D02*
X8932500Y-11127571D01*
X8932500Y-11127571D02*
X8942024Y-11146619D01*
X8942024Y-11146619D02*
X8951548Y-11184714D01*
X8951548Y-11184714D02*
X8951548Y-11232333D01*
X8951548Y-11232333D02*
X8942024Y-11270428D01*
X8942024Y-11270428D02*
X8932500Y-11289476D01*
X8932500Y-11289476D02*
X8922976Y-11299000D01*
X8922976Y-11299000D02*
X8903929Y-11308524D01*
X8903929Y-11308524D02*
X8884881Y-11308524D01*
X8884881Y-11308524D02*
X8865833Y-11299000D01*
X8865833Y-11299000D02*
X8856310Y-11289476D01*
X8856310Y-11289476D02*
X8846786Y-11270428D01*
X8846786Y-11270428D02*
X8837262Y-11232333D01*
X8837262Y-11232333D02*
X8837262Y-11184714D01*
X8837262Y-11184714D02*
X8846786Y-11146619D01*
X8846786Y-11146619D02*
X8856310Y-11127571D01*
X8856310Y-11127571D02*
X8865833Y-11118048D01*
X8865833Y-11118048D02*
X8884881Y-11108524D01*
X9037262Y-11308524D02*
X9037262Y-11175190D01*
X9037262Y-11194238D02*
X9046786Y-11184714D01*
X9046786Y-11184714D02*
X9065833Y-11175190D01*
X9065833Y-11175190D02*
X9094405Y-11175190D01*
X9094405Y-11175190D02*
X9113452Y-11184714D01*
X9113452Y-11184714D02*
X9122976Y-11203762D01*
X9122976Y-11203762D02*
X9122976Y-11308524D01*
X9122976Y-11203762D02*
X9132500Y-11184714D01*
X9132500Y-11184714D02*
X9151548Y-11175190D01*
X9151548Y-11175190D02*
X9180119Y-11175190D01*
X9180119Y-11175190D02*
X9199167Y-11184714D01*
X9199167Y-11184714D02*
X9208691Y-11203762D01*
X9208691Y-11203762D02*
X9208691Y-11308524D01*
X9303929Y-11308524D02*
X9303929Y-11175190D01*
X9303929Y-11194238D02*
X9313452Y-11184714D01*
X9313452Y-11184714D02*
X9332500Y-11175190D01*
X9332500Y-11175190D02*
X9361072Y-11175190D01*
X9361072Y-11175190D02*
X9380119Y-11184714D01*
X9380119Y-11184714D02*
X9389643Y-11203762D01*
X9389643Y-11203762D02*
X9389643Y-11308524D01*
X9389643Y-11203762D02*
X9399167Y-11184714D01*
X9399167Y-11184714D02*
X9418214Y-11175190D01*
X9418214Y-11175190D02*
X9446786Y-11175190D01*
X9446786Y-11175190D02*
X9465833Y-11184714D01*
X9465833Y-11184714D02*
X9475357Y-11203762D01*
X9475357Y-11203762D02*
X9475357Y-11308524D01*
X9865833Y-11099000D02*
X9694405Y-11356143D01*
X10122976Y-11108524D02*
X10142024Y-11108524D01*
X10142024Y-11108524D02*
X10161072Y-11118048D01*
X10161072Y-11118048D02*
X10170595Y-11127571D01*
X10170595Y-11127571D02*
X10180119Y-11146619D01*
X10180119Y-11146619D02*
X10189643Y-11184714D01*
X10189643Y-11184714D02*
X10189643Y-11232333D01*
X10189643Y-11232333D02*
X10180119Y-11270428D01*
X10180119Y-11270428D02*
X10170595Y-11289476D01*
X10170595Y-11289476D02*
X10161072Y-11299000D01*
X10161072Y-11299000D02*
X10142024Y-11308524D01*
X10142024Y-11308524D02*
X10122976Y-11308524D01*
X10122976Y-11308524D02*
X10103929Y-11299000D01*
X10103929Y-11299000D02*
X10094405Y-11289476D01*
X10094405Y-11289476D02*
X10084881Y-11270428D01*
X10084881Y-11270428D02*
X10075357Y-11232333D01*
X10075357Y-11232333D02*
X10075357Y-11184714D01*
X10075357Y-11184714D02*
X10084881Y-11146619D01*
X10084881Y-11146619D02*
X10094405Y-11127571D01*
X10094405Y-11127571D02*
X10103929Y-11118048D01*
X10103929Y-11118048D02*
X10122976Y-11108524D01*
X10275357Y-11289476D02*
X10284881Y-11299000D01*
X10284881Y-11299000D02*
X10275357Y-11308524D01*
X10275357Y-11308524D02*
X10265834Y-11299000D01*
X10265834Y-11299000D02*
X10275357Y-11289476D01*
X10275357Y-11289476D02*
X10275357Y-11308524D01*
X10408691Y-11108524D02*
X10427738Y-11108524D01*
X10427738Y-11108524D02*
X10446786Y-11118048D01*
X10446786Y-11118048D02*
X10456310Y-11127571D01*
X10456310Y-11127571D02*
X10465834Y-11146619D01*
X10465834Y-11146619D02*
X10475357Y-11184714D01*
X10475357Y-11184714D02*
X10475357Y-11232333D01*
X10475357Y-11232333D02*
X10465834Y-11270428D01*
X10465834Y-11270428D02*
X10456310Y-11289476D01*
X10456310Y-11289476D02*
X10446786Y-11299000D01*
X10446786Y-11299000D02*
X10427738Y-11308524D01*
X10427738Y-11308524D02*
X10408691Y-11308524D01*
X10408691Y-11308524D02*
X10389643Y-11299000D01*
X10389643Y-11299000D02*
X10380119Y-11289476D01*
X10380119Y-11289476D02*
X10370595Y-11270428D01*
X10370595Y-11270428D02*
X10361072Y-11232333D01*
X10361072Y-11232333D02*
X10361072Y-11184714D01*
X10361072Y-11184714D02*
X10370595Y-11146619D01*
X10370595Y-11146619D02*
X10380119Y-11127571D01*
X10380119Y-11127571D02*
X10389643Y-11118048D01*
X10389643Y-11118048D02*
X10408691Y-11108524D01*
X10646786Y-11175190D02*
X10646786Y-11308524D01*
X10599167Y-11099000D02*
X10551548Y-11241857D01*
X10551548Y-11241857D02*
X10675357Y-11241857D01*
X10732500Y-11108524D02*
X10856310Y-11108524D01*
X10856310Y-11108524D02*
X10789643Y-11184714D01*
X10789643Y-11184714D02*
X10818215Y-11184714D01*
X10818215Y-11184714D02*
X10837262Y-11194238D01*
X10837262Y-11194238D02*
X10846786Y-11203762D01*
X10846786Y-11203762D02*
X10856310Y-11222809D01*
X10856310Y-11222809D02*
X10856310Y-11270428D01*
X10856310Y-11270428D02*
X10846786Y-11289476D01*
X10846786Y-11289476D02*
X10837262Y-11299000D01*
X10837262Y-11299000D02*
X10818215Y-11308524D01*
X10818215Y-11308524D02*
X10761072Y-11308524D01*
X10761072Y-11308524D02*
X10742024Y-11299000D01*
X10742024Y-11299000D02*
X10732500Y-11289476D01*
X10922976Y-11108524D02*
X11046786Y-11108524D01*
X11046786Y-11108524D02*
X10980119Y-11184714D01*
X10980119Y-11184714D02*
X11008691Y-11184714D01*
X11008691Y-11184714D02*
X11027738Y-11194238D01*
X11027738Y-11194238D02*
X11037262Y-11203762D01*
X11037262Y-11203762D02*
X11046786Y-11222809D01*
X11046786Y-11222809D02*
X11046786Y-11270428D01*
X11046786Y-11270428D02*
X11037262Y-11289476D01*
X11037262Y-11289476D02*
X11027738Y-11299000D01*
X11027738Y-11299000D02*
X11008691Y-11308524D01*
X11008691Y-11308524D02*
X10951548Y-11308524D01*
X10951548Y-11308524D02*
X10932500Y-11299000D01*
X10932500Y-11299000D02*
X10922976Y-11289476D01*
X11122976Y-11108524D02*
X11122976Y-11146619D01*
X11199167Y-11108524D02*
X11199167Y-11146619D01*
X11494405Y-11384714D02*
X11484881Y-11375190D01*
X11484881Y-11375190D02*
X11465834Y-11346619D01*
X11465834Y-11346619D02*
X11456310Y-11327571D01*
X11456310Y-11327571D02*
X11446786Y-11299000D01*
X11446786Y-11299000D02*
X11437262Y-11251381D01*
X11437262Y-11251381D02*
X11437262Y-11213286D01*
X11437262Y-11213286D02*
X11446786Y-11165667D01*
X11446786Y-11165667D02*
X11456310Y-11137095D01*
X11456310Y-11137095D02*
X11465834Y-11118048D01*
X11465834Y-11118048D02*
X11484881Y-11089476D01*
X11484881Y-11089476D02*
X11494405Y-11079952D01*
X11599167Y-11194238D02*
X11580119Y-11184714D01*
X11580119Y-11184714D02*
X11570595Y-11175190D01*
X11570595Y-11175190D02*
X11561072Y-11156143D01*
X11561072Y-11156143D02*
X11561072Y-11146619D01*
X11561072Y-11146619D02*
X11570595Y-11127571D01*
X11570595Y-11127571D02*
X11580119Y-11118048D01*
X11580119Y-11118048D02*
X11599167Y-11108524D01*
X11599167Y-11108524D02*
X11637262Y-11108524D01*
X11637262Y-11108524D02*
X11656310Y-11118048D01*
X11656310Y-11118048D02*
X11665834Y-11127571D01*
X11665834Y-11127571D02*
X11675357Y-11146619D01*
X11675357Y-11146619D02*
X11675357Y-11156143D01*
X11675357Y-11156143D02*
X11665834Y-11175190D01*
X11665834Y-11175190D02*
X11656310Y-11184714D01*
X11656310Y-11184714D02*
X11637262Y-11194238D01*
X11637262Y-11194238D02*
X11599167Y-11194238D01*
X11599167Y-11194238D02*
X11580119Y-11203762D01*
X11580119Y-11203762D02*
X11570595Y-11213286D01*
X11570595Y-11213286D02*
X11561072Y-11232333D01*
X11561072Y-11232333D02*
X11561072Y-11270428D01*
X11561072Y-11270428D02*
X11570595Y-11289476D01*
X11570595Y-11289476D02*
X11580119Y-11299000D01*
X11580119Y-11299000D02*
X11599167Y-11308524D01*
X11599167Y-11308524D02*
X11637262Y-11308524D01*
X11637262Y-11308524D02*
X11656310Y-11299000D01*
X11656310Y-11299000D02*
X11665834Y-11289476D01*
X11665834Y-11289476D02*
X11675357Y-11270428D01*
X11675357Y-11270428D02*
X11675357Y-11232333D01*
X11675357Y-11232333D02*
X11665834Y-11213286D01*
X11665834Y-11213286D02*
X11656310Y-11203762D01*
X11656310Y-11203762D02*
X11637262Y-11194238D01*
X11913453Y-11308524D02*
X11913453Y-11108524D01*
X11999167Y-11308524D02*
X11999167Y-11203762D01*
X11999167Y-11203762D02*
X11989643Y-11184714D01*
X11989643Y-11184714D02*
X11970596Y-11175190D01*
X11970596Y-11175190D02*
X11942024Y-11175190D01*
X11942024Y-11175190D02*
X11922976Y-11184714D01*
X11922976Y-11184714D02*
X11913453Y-11194238D01*
X12122976Y-11308524D02*
X12103929Y-11299000D01*
X12103929Y-11299000D02*
X12094405Y-11289476D01*
X12094405Y-11289476D02*
X12084881Y-11270428D01*
X12084881Y-11270428D02*
X12084881Y-11213286D01*
X12084881Y-11213286D02*
X12094405Y-11194238D01*
X12094405Y-11194238D02*
X12103929Y-11184714D01*
X12103929Y-11184714D02*
X12122976Y-11175190D01*
X12122976Y-11175190D02*
X12151548Y-11175190D01*
X12151548Y-11175190D02*
X12170596Y-11184714D01*
X12170596Y-11184714D02*
X12180119Y-11194238D01*
X12180119Y-11194238D02*
X12189643Y-11213286D01*
X12189643Y-11213286D02*
X12189643Y-11270428D01*
X12189643Y-11270428D02*
X12180119Y-11289476D01*
X12180119Y-11289476D02*
X12170596Y-11299000D01*
X12170596Y-11299000D02*
X12151548Y-11308524D01*
X12151548Y-11308524D02*
X12122976Y-11308524D01*
X12303929Y-11308524D02*
X12284881Y-11299000D01*
X12284881Y-11299000D02*
X12275357Y-11279952D01*
X12275357Y-11279952D02*
X12275357Y-11108524D01*
X12456310Y-11299000D02*
X12437262Y-11308524D01*
X12437262Y-11308524D02*
X12399167Y-11308524D01*
X12399167Y-11308524D02*
X12380119Y-11299000D01*
X12380119Y-11299000D02*
X12370596Y-11279952D01*
X12370596Y-11279952D02*
X12370596Y-11203762D01*
X12370596Y-11203762D02*
X12380119Y-11184714D01*
X12380119Y-11184714D02*
X12399167Y-11175190D01*
X12399167Y-11175190D02*
X12437262Y-11175190D01*
X12437262Y-11175190D02*
X12456310Y-11184714D01*
X12456310Y-11184714D02*
X12465834Y-11203762D01*
X12465834Y-11203762D02*
X12465834Y-11222809D01*
X12465834Y-11222809D02*
X12370596Y-11241857D01*
X12542024Y-11299000D02*
X12561072Y-11308524D01*
X12561072Y-11308524D02*
X12599167Y-11308524D01*
X12599167Y-11308524D02*
X12618215Y-11299000D01*
X12618215Y-11299000D02*
X12627738Y-11279952D01*
X12627738Y-11279952D02*
X12627738Y-11270428D01*
X12627738Y-11270428D02*
X12618215Y-11251381D01*
X12618215Y-11251381D02*
X12599167Y-11241857D01*
X12599167Y-11241857D02*
X12570596Y-11241857D01*
X12570596Y-11241857D02*
X12551548Y-11232333D01*
X12551548Y-11232333D02*
X12542024Y-11213286D01*
X12542024Y-11213286D02*
X12542024Y-11203762D01*
X12542024Y-11203762D02*
X12551548Y-11184714D01*
X12551548Y-11184714D02*
X12570596Y-11175190D01*
X12570596Y-11175190D02*
X12599167Y-11175190D01*
X12599167Y-11175190D02*
X12618215Y-11184714D01*
X12694405Y-11384714D02*
X12703929Y-11375190D01*
X12703929Y-11375190D02*
X12722977Y-11346619D01*
X12722977Y-11346619D02*
X12732500Y-11327571D01*
X12732500Y-11327571D02*
X12742024Y-11299000D01*
X12742024Y-11299000D02*
X12751548Y-11251381D01*
X12751548Y-11251381D02*
X12751548Y-11213286D01*
X12751548Y-11213286D02*
X12742024Y-11165667D01*
X12742024Y-11165667D02*
X12732500Y-11137095D01*
X12732500Y-11137095D02*
X12722977Y-11118048D01*
X12722977Y-11118048D02*
X12703929Y-11089476D01*
X12703929Y-11089476D02*
X12694405Y-11079952D01*
M02*
