M48
; DRILL file {KiCad 7.0.2} date Thu Apr 27 12:10:29 2023
; FORMAT={-:-/ absolute / metric / decimal}
; #@! TF.CreationDate,2023-04-27T12:10:29-07:00
; #@! TF.GenerationSoftware,Kicad,Pcbnew,7.0.2
; #@! TF.FileFunction,Plated,1,2,PTH
FMAT,2
METRIC
; #@! TA.AperFunction,Plated,PTH,ViaDrill
T1C0.400
; #@! TA.AperFunction,Plated,PTH,ViaDrill
T2C0.500
; #@! TA.AperFunction,Plated,PTH,ComponentDrill
T3C1.016
; #@! TA.AperFunction,Plated,PTH,ComponentDrill
T4C1.100
%
G90
G05
T1
X81.28Y-61.595
X81.28Y-63.5
X81.28Y-68.58
X81.915Y-93.98
X82.423Y-53.975
X84.455Y-94.742
X85.217Y-72.136
X85.471Y-56.134
X85.598Y-62.903
X86.995Y-95.504
X87.503Y-60.96
X88.138Y-72.136
X90.805Y-61.505
X90.805Y-63.5
X90.805Y-71.374
X95.504Y-86.36
X96.52Y-66.548
X96.52Y-73.66
X97.155Y-57.785
X97.536Y-86.36
X99.314Y-67.31
X99.314Y-69.85
X99.314Y-72.39
X99.568Y-86.36
X99.695Y-55.245
X100.584Y-91.821
X100.584Y-93.599
X101.6Y-91.821
X101.6Y-93.599
X102.616Y-91.821
X102.616Y-93.599
X104.14Y-67.31
X104.14Y-69.85
X104.14Y-72.39
X105.029Y-91.956
X105.029Y-93.472
X105.156Y-86.36
X106.68Y-90.17
T2
X89.535Y-53.34
T3
X93.567Y-57.12
X93.567Y-59.66
X93.567Y-62.2
X93.567Y-64.74
X93.567Y-67.28
X93.567Y-69.82
X93.567Y-72.36
X93.567Y-74.9
X93.567Y-77.44
X93.567Y-79.98
X93.567Y-82.52
X93.567Y-85.06
X93.567Y-87.6
X93.567Y-90.14
X93.567Y-92.68
X108.807Y-57.12
X108.807Y-59.66
X108.807Y-62.2
X108.807Y-64.74
X108.807Y-67.28
X108.807Y-69.82
X108.807Y-72.36
X108.807Y-74.9
X108.807Y-77.44
X108.807Y-79.98
X108.807Y-82.52
X108.807Y-85.06
X108.807Y-87.6
X108.807Y-90.14
X108.807Y-92.68
T4
X81.915Y-82.55
X81.915Y-91.44
X84.455Y-82.55
X84.455Y-91.44
X86.995Y-82.55
X86.995Y-91.44
X89.535Y-82.55
X89.535Y-91.44
T0
M30
