G04 #@! TF.GenerationSoftware,KiCad,Pcbnew,7.0.2*
G04 #@! TF.CreationDate,2023-04-27T12:09:37-07:00*
G04 #@! TF.ProjectId,Flamingo Nano 33 BLE Rev 2,466c616d-696e-4676-9f20-4e616e6f2033,rev?*
G04 #@! TF.SameCoordinates,Original*
G04 #@! TF.FileFunction,Copper,L1,Top*
G04 #@! TF.FilePolarity,Positive*
%FSLAX46Y46*%
G04 Gerber Fmt 4.6, Leading zero omitted, Abs format (unit mm)*
G04 Created by KiCad (PCBNEW 7.0.2) date 2023-04-27 12:09:37*
%MOMM*%
%LPD*%
G01*
G04 APERTURE LIST*
G04 Aperture macros list*
%AMRoundRect*
0 Rectangle with rounded corners*
0 $1 Rounding radius*
0 $2 $3 $4 $5 $6 $7 $8 $9 X,Y pos of 4 corners*
0 Add a 4 corners polygon primitive as box body*
4,1,4,$2,$3,$4,$5,$6,$7,$8,$9,$2,$3,0*
0 Add four circle primitives for the rounded corners*
1,1,$1+$1,$2,$3*
1,1,$1+$1,$4,$5*
1,1,$1+$1,$6,$7*
1,1,$1+$1,$8,$9*
0 Add four rect primitives between the rounded corners*
20,1,$1+$1,$2,$3,$4,$5,0*
20,1,$1+$1,$4,$5,$6,$7,0*
20,1,$1+$1,$6,$7,$8,$9,0*
20,1,$1+$1,$8,$9,$2,$3,0*%
G04 Aperture macros list end*
G04 #@! TA.AperFunction,SMDPad,CuDef*
%ADD10RoundRect,0.237500X0.250000X0.237500X-0.250000X0.237500X-0.250000X-0.237500X0.250000X-0.237500X0*%
G04 #@! TD*
G04 #@! TA.AperFunction,SMDPad,CuDef*
%ADD11RoundRect,0.237500X-0.237500X0.250000X-0.237500X-0.250000X0.237500X-0.250000X0.237500X0.250000X0*%
G04 #@! TD*
G04 #@! TA.AperFunction,SMDPad,CuDef*
%ADD12RoundRect,0.250000X-0.875000X-0.925000X0.875000X-0.925000X0.875000X0.925000X-0.875000X0.925000X0*%
G04 #@! TD*
G04 #@! TA.AperFunction,ComponentPad*
%ADD13R,2.100000X2.100000*%
G04 #@! TD*
G04 #@! TA.AperFunction,ComponentPad*
%ADD14C,2.100000*%
G04 #@! TD*
G04 #@! TA.AperFunction,ComponentPad*
%ADD15C,1.727200*%
G04 #@! TD*
G04 #@! TA.AperFunction,ComponentPad*
%ADD16R,1.727200X1.727200*%
G04 #@! TD*
G04 #@! TA.AperFunction,SMDPad,CuDef*
%ADD17RoundRect,0.250000X-0.475000X0.337500X-0.475000X-0.337500X0.475000X-0.337500X0.475000X0.337500X0*%
G04 #@! TD*
G04 #@! TA.AperFunction,SMDPad,CuDef*
%ADD18RoundRect,0.100000X0.637500X0.100000X-0.637500X0.100000X-0.637500X-0.100000X0.637500X-0.100000X0*%
G04 #@! TD*
G04 #@! TA.AperFunction,ViaPad*
%ADD19C,0.800000*%
G04 #@! TD*
G04 #@! TA.AperFunction,ViaPad*
%ADD20C,1.000000*%
G04 #@! TD*
G04 #@! TA.AperFunction,Conductor*
%ADD21C,0.250000*%
G04 #@! TD*
G04 #@! TA.AperFunction,Conductor*
%ADD22C,1.500000*%
G04 #@! TD*
G04 #@! TA.AperFunction,Conductor*
%ADD23C,1.000000*%
G04 #@! TD*
G04 APERTURE END LIST*
D10*
G04 #@! TO.P,R3,1*
G04 #@! TO.N,+3V3*
X102512500Y-67310000D03*
G04 #@! TO.P,R3,2*
G04 #@! TO.N,/BUTT_A_TERM*
X100687500Y-67310000D03*
G04 #@! TD*
D11*
G04 #@! TO.P,R4,1*
G04 #@! TO.N,Net-(U1-1_5V)*
X84455000Y-73105000D03*
G04 #@! TO.P,R4,2*
G04 #@! TO.N,/DATA_TERM*
X84455000Y-74930000D03*
G04 #@! TD*
D12*
G04 #@! TO.P,C2,1*
G04 #@! TO.N,VBUS*
X83810000Y-68580000D03*
G04 #@! TO.P,C2,2*
G04 #@! TO.N,GND*
X88910000Y-68580000D03*
G04 #@! TD*
D11*
G04 #@! TO.P,R5,1*
G04 #@! TO.N,Net-(U1-2_5V)*
X88900000Y-73105000D03*
G04 #@! TO.P,R5,2*
G04 #@! TO.N,/CLOCK_TERM*
X88900000Y-74930000D03*
G04 #@! TD*
D10*
G04 #@! TO.P,R2,1*
G04 #@! TO.N,+3V3*
X102512500Y-69850000D03*
G04 #@! TO.P,R2,2*
G04 #@! TO.N,/BUTT_B_TERM*
X100687500Y-69850000D03*
G04 #@! TD*
D13*
G04 #@! TO.P,J2,1,Pin_1*
G04 #@! TO.N,GND*
X81915000Y-82550000D03*
D14*
G04 #@! TO.P,J2,2,Pin_2*
G04 #@! TO.N,/DATA_TERM*
X84455000Y-82550000D03*
G04 #@! TO.P,J2,3,Pin_3*
G04 #@! TO.N,/CLOCK_TERM*
X86995000Y-82550000D03*
G04 #@! TO.P,J2,4,Pin_4*
G04 #@! TO.N,VBUS*
X89535000Y-82550000D03*
G04 #@! TD*
D10*
G04 #@! TO.P,R1,1*
G04 #@! TO.N,+3V3*
X102512500Y-72390000D03*
G04 #@! TO.P,R1,2*
G04 #@! TO.N,/BUTT_C_TERM*
X100687500Y-72390000D03*
G04 #@! TD*
D15*
G04 #@! TO.P,XA1,3V3,3.3V*
G04 #@! TO.N,+3V3*
X108807500Y-90140000D03*
G04 #@! TO.P,XA1,5V,5V*
G04 #@! TO.N,VBUS*
X108807500Y-64740000D03*
G04 #@! TO.P,XA1,A0,A0*
G04 #@! TO.N,unconnected-(XA1-PadA0)*
X108807500Y-85060000D03*
G04 #@! TO.P,XA1,A1,A1*
G04 #@! TO.N,unconnected-(XA1-PadA1)*
X108807500Y-82520000D03*
G04 #@! TO.P,XA1,A2,A2*
G04 #@! TO.N,unconnected-(XA1-PadA2)*
X108807500Y-79980000D03*
G04 #@! TO.P,XA1,A3,A3*
G04 #@! TO.N,unconnected-(XA1-PadA3)*
X108807500Y-77440000D03*
G04 #@! TO.P,XA1,A4,A4/SDA*
G04 #@! TO.N,unconnected-(XA1-A4{slash}SDA-PadA4)*
X108807500Y-74900000D03*
G04 #@! TO.P,XA1,A5,A5/SCL*
G04 #@! TO.N,unconnected-(XA1-A5{slash}SCL-PadA5)*
X108807500Y-72360000D03*
G04 #@! TO.P,XA1,A6,A6*
G04 #@! TO.N,unconnected-(XA1-PadA6)*
X108807500Y-69820000D03*
G04 #@! TO.P,XA1,A7,A7*
G04 #@! TO.N,unconnected-(XA1-PadA7)*
X108807500Y-67280000D03*
G04 #@! TO.P,XA1,AREF,AREF*
G04 #@! TO.N,unconnected-(XA1-PadAREF)*
X108807500Y-87600000D03*
G04 #@! TO.P,XA1,D0,D0/RX*
G04 #@! TO.N,unconnected-(XA1-D0{slash}RX-PadD0)*
X93567500Y-59660000D03*
G04 #@! TO.P,XA1,D1,D1/TX*
G04 #@! TO.N,unconnected-(XA1-D1{slash}TX-PadD1)*
X93567500Y-57120000D03*
G04 #@! TO.P,XA1,D2,D2*
G04 #@! TO.N,/BUTT_A_TERM*
X93567500Y-67280000D03*
G04 #@! TO.P,XA1,D3,D3*
G04 #@! TO.N,/BUTT_B_TERM*
X93567500Y-69820000D03*
G04 #@! TO.P,XA1,D4,D4*
G04 #@! TO.N,/BUTT_C_TERM*
X93567500Y-72360000D03*
G04 #@! TO.P,XA1,D5,D5*
G04 #@! TO.N,unconnected-(XA1-PadD5)*
X93567500Y-74900000D03*
G04 #@! TO.P,XA1,D6,D6*
G04 #@! TO.N,unconnected-(XA1-PadD6)*
X93567500Y-77440000D03*
G04 #@! TO.P,XA1,D7,D7*
G04 #@! TO.N,unconnected-(XA1-PadD7)*
X93567500Y-79980000D03*
G04 #@! TO.P,XA1,D8,D8*
G04 #@! TO.N,unconnected-(XA1-PadD8)*
X93567500Y-82520000D03*
G04 #@! TO.P,XA1,D9,D9*
G04 #@! TO.N,unconnected-(XA1-PadD9)*
X93567500Y-85060000D03*
G04 #@! TO.P,XA1,D10,D10*
G04 #@! TO.N,unconnected-(XA1-PadD10)*
X93567500Y-87600000D03*
G04 #@! TO.P,XA1,D11,D11_MOSI*
G04 #@! TO.N,/DATA_MCU*
X93567500Y-90140000D03*
G04 #@! TO.P,XA1,D12,D12_MISO*
G04 #@! TO.N,unconnected-(XA1-D12_MISO-PadD12)*
X93567500Y-92680000D03*
G04 #@! TO.P,XA1,D13,D13_SCK*
G04 #@! TO.N,/CLOCK_MCU*
X108807500Y-92680000D03*
D16*
G04 #@! TO.P,XA1,GND1,GND*
G04 #@! TO.N,GND*
X93567500Y-64740000D03*
G04 #@! TO.P,XA1,GND2,GND*
X108807500Y-59660000D03*
D15*
G04 #@! TO.P,XA1,RST1,RESET*
G04 #@! TO.N,unconnected-(XA1-RESET-PadRST1)*
X93567500Y-62200000D03*
G04 #@! TO.P,XA1,RST2,RESET*
G04 #@! TO.N,unconnected-(XA1-RESET-PadRST2)*
X108807500Y-62200000D03*
G04 #@! TO.P,XA1,VIN,VIN*
G04 #@! TO.N,unconnected-(XA1-PadVIN)*
X108807500Y-57120000D03*
G04 #@! TD*
D17*
G04 #@! TO.P,C1,1*
G04 #@! TO.N,VBUS*
X89535000Y-55477500D03*
G04 #@! TO.P,C1,2*
G04 #@! TO.N,GND*
X89535000Y-57552500D03*
G04 #@! TD*
D18*
G04 #@! TO.P,U1,1,~{1_Enable}*
G04 #@! TO.N,GND*
X89222500Y-64180000D03*
G04 #@! TO.P,U1,2,1_3.3V*
G04 #@! TO.N,/DATA_MCU*
X89222500Y-63530000D03*
G04 #@! TO.P,U1,3,1_5V*
G04 #@! TO.N,Net-(U1-1_5V)*
X89222500Y-62880000D03*
G04 #@! TO.P,U1,4,~{2_Enable}*
G04 #@! TO.N,GND*
X89222500Y-62230000D03*
G04 #@! TO.P,U1,5,2_3.3V*
G04 #@! TO.N,/CLOCK_MCU*
X89222500Y-61580000D03*
G04 #@! TO.P,U1,6,2_5V*
G04 #@! TO.N,Net-(U1-2_5V)*
X89222500Y-60930000D03*
G04 #@! TO.P,U1,7,GND*
G04 #@! TO.N,GND*
X89222500Y-60280000D03*
G04 #@! TO.P,U1,8,3_5V*
G04 #@! TO.N,unconnected-(U1-3_5V-Pad8)*
X83497500Y-60280000D03*
G04 #@! TO.P,U1,9,3_3.3V*
G04 #@! TO.N,GND*
X83497500Y-60930000D03*
G04 #@! TO.P,U1,10,~{3_Enable}*
G04 #@! TO.N,VBUS*
X83497500Y-61580000D03*
G04 #@! TO.P,U1,11,4_5V*
G04 #@! TO.N,unconnected-(U1-4_5V-Pad11)*
X83497500Y-62230000D03*
G04 #@! TO.P,U1,12,4_3.3V*
G04 #@! TO.N,GND*
X83497500Y-62880000D03*
G04 #@! TO.P,U1,13,~{4_Enable}*
G04 #@! TO.N,VBUS*
X83497500Y-63530000D03*
G04 #@! TO.P,U1,14,VCC*
X83497500Y-64180000D03*
G04 #@! TD*
D13*
G04 #@! TO.P,J1,1,Pin_1*
G04 #@! TO.N,GND*
X89535000Y-91440000D03*
D14*
G04 #@! TO.P,J1,2,Pin_2*
G04 #@! TO.N,/BUTT_A_TERM*
X86995000Y-91440000D03*
G04 #@! TO.P,J1,3,Pin_3*
G04 #@! TO.N,/BUTT_B_TERM*
X84455000Y-91440000D03*
G04 #@! TO.P,J1,4,Pin_4*
G04 #@! TO.N,/BUTT_C_TERM*
X81915000Y-91440000D03*
G04 #@! TD*
D19*
G04 #@! TO.N,GND*
X90805000Y-71374000D03*
X85471000Y-56134000D03*
X82423000Y-53975000D03*
X105029000Y-91955500D03*
X105029000Y-93472000D03*
X97536000Y-86360000D03*
X95504000Y-86360000D03*
X99568000Y-86360000D03*
X105156000Y-86360000D03*
X97155000Y-57785000D03*
X99695000Y-55245000D03*
G04 #@! TO.N,/BUTT_A_TERM*
X86995000Y-95504000D03*
X99314000Y-67310000D03*
X102616000Y-93599000D03*
X102616000Y-91821000D03*
G04 #@! TO.N,/BUTT_B_TERM*
X101600000Y-91821000D03*
X84455000Y-94742000D03*
X101600000Y-93599000D03*
X99314000Y-69850000D03*
G04 #@! TO.N,/BUTT_C_TERM*
X81915000Y-93980000D03*
X100584000Y-91821000D03*
X100584000Y-93599000D03*
X99314000Y-72390000D03*
G04 #@! TO.N,VBUS*
X81280000Y-61595000D03*
X81280000Y-63500000D03*
X81280000Y-68580000D03*
D20*
X89535000Y-53340000D03*
D19*
G04 #@! TO.N,Net-(U1-1_5V)*
X85598000Y-62902682D03*
X85217000Y-72136000D03*
G04 #@! TO.N,Net-(U1-2_5V)*
X87503000Y-60960000D03*
X88138000Y-72136000D03*
G04 #@! TO.N,/CLOCK_MCU*
X96520000Y-66548000D03*
X96520000Y-73660000D03*
X90805000Y-61505500D03*
G04 #@! TO.N,/DATA_MCU*
X90805000Y-63500000D03*
G04 #@! TO.N,+3V3*
X104140000Y-72390000D03*
X104140000Y-69850000D03*
X106680000Y-90170000D03*
X104140000Y-67310000D03*
G04 #@! TD*
D21*
G04 #@! TO.N,GND*
X90805000Y-71374000D02*
X90805000Y-70739000D01*
X83312000Y-53975000D02*
X85471000Y-56134000D01*
X82423000Y-53975000D02*
X83312000Y-53975000D01*
X105029000Y-93472000D02*
X105029000Y-91955500D01*
G04 #@! TO.N,/BUTT_C_TERM*
X81915000Y-93980000D02*
X81915000Y-91440000D01*
G04 #@! TO.N,/BUTT_B_TERM*
X84455000Y-94742000D02*
X84455000Y-91440000D01*
G04 #@! TO.N,/BUTT_A_TERM*
X86995000Y-95504000D02*
X86995000Y-91440000D01*
G04 #@! TO.N,GND*
X97536000Y-86360000D02*
X95504000Y-86360000D01*
G04 #@! TO.N,/CLOCK_MCU*
X96520000Y-73660000D02*
X96520000Y-66548000D01*
G04 #@! TO.N,GND*
X105156000Y-86360000D02*
X99568000Y-86360000D01*
G04 #@! TO.N,Net-(U1-1_5V)*
X87510609Y-62880000D02*
X89222500Y-62880000D01*
X85598000Y-62902682D02*
X87510609Y-62880000D01*
G04 #@! TO.N,GND*
X99695000Y-55245000D02*
X97155000Y-57785000D01*
X83497500Y-62880000D02*
X82361800Y-62880000D01*
X90474800Y-62230000D02*
X90703400Y-62458600D01*
X82361800Y-62880000D02*
X82067400Y-62585600D01*
X89222500Y-62230000D02*
X90474800Y-62230000D01*
X82453000Y-60930000D02*
X82367600Y-60930000D01*
X83497500Y-60930000D02*
X82453000Y-60930000D01*
G04 #@! TO.N,/BUTT_A_TERM*
X100687500Y-67310000D02*
X99314000Y-67310000D01*
X102616000Y-91821000D02*
X102616000Y-93599000D01*
G04 #@! TO.N,/BUTT_B_TERM*
X101600000Y-91821000D02*
X101600000Y-93599000D01*
X99314000Y-69850000D02*
X100687500Y-69850000D01*
G04 #@! TO.N,/BUTT_C_TERM*
X99314000Y-72390000D02*
X100687500Y-72390000D01*
X100584000Y-91821000D02*
X100584000Y-93599000D01*
G04 #@! TO.N,/DATA_TERM*
X84455000Y-74930000D02*
X84455000Y-82550000D01*
G04 #@! TO.N,/CLOCK_TERM*
X88900000Y-76200000D02*
X86995000Y-78105000D01*
X86995000Y-78105000D02*
X86995000Y-82550000D01*
X88900000Y-74930000D02*
X88900000Y-76200000D01*
G04 #@! TO.N,VBUS*
X81280000Y-63500000D02*
X81310000Y-63530000D01*
X83497500Y-63530000D02*
X83497500Y-64180000D01*
X81310000Y-63530000D02*
X83497500Y-63530000D01*
D22*
X89535000Y-53340000D02*
X89535000Y-55477500D01*
D21*
X81295000Y-61580000D02*
X81280000Y-61595000D01*
D23*
X81280000Y-68580000D02*
X83810000Y-68580000D01*
D21*
X83497500Y-61580000D02*
X81295000Y-61580000D01*
G04 #@! TO.N,Net-(U1-1_5V)*
X85217000Y-72343000D02*
X84455000Y-73105000D01*
X85217000Y-72136000D02*
X85217000Y-72343000D01*
G04 #@! TO.N,Net-(U1-2_5V)*
X87533000Y-60930000D02*
X87503000Y-60960000D01*
X89222500Y-60930000D02*
X87533000Y-60930000D01*
X88138000Y-72343000D02*
X88900000Y-73105000D01*
X88138000Y-72136000D02*
X88138000Y-72343000D01*
G04 #@! TO.N,/CLOCK_MCU*
X89297000Y-61505500D02*
X89222500Y-61580000D01*
X90805000Y-61505500D02*
X89297000Y-61505500D01*
G04 #@! TO.N,/DATA_MCU*
X90805000Y-63500000D02*
X89252500Y-63500000D01*
X89252500Y-63500000D02*
X89222500Y-63530000D01*
G04 #@! TO.N,+3V3*
X102512500Y-69850000D02*
X104140000Y-69850000D01*
X102512500Y-67310000D02*
X104140000Y-67310000D01*
X106680000Y-90170000D02*
X108777500Y-90170000D01*
X102512500Y-72390000D02*
X104140000Y-72390000D01*
X108777500Y-90170000D02*
X108807500Y-90140000D01*
G04 #@! TD*
G04 #@! TA.AperFunction,Conductor*
G04 #@! TO.N,GND*
G36*
X88747399Y-52290185D02*
G01*
X88793154Y-52342989D01*
X88803098Y-52412147D01*
X88774073Y-52475703D01*
X88763899Y-52486137D01*
X88681126Y-52561594D01*
X88552631Y-52731747D01*
X88457595Y-52922609D01*
X88399243Y-53127689D01*
X88386342Y-53266925D01*
X88384500Y-53286806D01*
X88384500Y-55530694D01*
X88384764Y-55533553D01*
X88384765Y-55533554D01*
X88399243Y-55689806D01*
X88399243Y-55689809D01*
X88399244Y-55689810D01*
X88404766Y-55709219D01*
X88409500Y-55743151D01*
X88409500Y-55880694D01*
X88409690Y-55883114D01*
X88409691Y-55883128D01*
X88412402Y-55917572D01*
X88458255Y-56075397D01*
X88458256Y-56075398D01*
X88541919Y-56216865D01*
X88658135Y-56333081D01*
X88799602Y-56416744D01*
X88850881Y-56431641D01*
X88903262Y-56446860D01*
X88962148Y-56484466D01*
X88991354Y-56547938D01*
X88981608Y-56617125D01*
X88936004Y-56670059D01*
X88914158Y-56681290D01*
X88787905Y-56731078D01*
X88667434Y-56822434D01*
X88576078Y-56942906D01*
X88520614Y-57083551D01*
X88510440Y-57168276D01*
X88510000Y-57175640D01*
X88510000Y-57302500D01*
X90560000Y-57302500D01*
X90560000Y-57175640D01*
X90559559Y-57168276D01*
X90549385Y-57083551D01*
X90493921Y-56942906D01*
X90402565Y-56822434D01*
X90282093Y-56731078D01*
X90155841Y-56681290D01*
X90100697Y-56638384D01*
X90077504Y-56572477D01*
X90093625Y-56504492D01*
X90143942Y-56456016D01*
X90166730Y-56446861D01*
X90270398Y-56416744D01*
X90411865Y-56333081D01*
X90528081Y-56216865D01*
X90611744Y-56075398D01*
X90657598Y-55917569D01*
X90660500Y-55880694D01*
X90660500Y-55743152D01*
X90665233Y-55709219D01*
X90670756Y-55689810D01*
X90685500Y-55530694D01*
X90685500Y-53286806D01*
X90670756Y-53127690D01*
X90612405Y-52922611D01*
X90580661Y-52858859D01*
X90517368Y-52731747D01*
X90388873Y-52561594D01*
X90363514Y-52538476D01*
X90306100Y-52486136D01*
X90269820Y-52426425D01*
X90271581Y-52356578D01*
X90310825Y-52298770D01*
X90375092Y-52271356D01*
X90389640Y-52270500D01*
X108545118Y-52270500D01*
X108580572Y-52270500D01*
X108589418Y-52270816D01*
X108818736Y-52287216D01*
X108836237Y-52289733D01*
X109056550Y-52337659D01*
X109073515Y-52342640D01*
X109284771Y-52421434D01*
X109300854Y-52428780D01*
X109498741Y-52536834D01*
X109513615Y-52546392D01*
X109693092Y-52680748D01*
X109694113Y-52681512D01*
X109707483Y-52693098D01*
X109866901Y-52852516D01*
X109878487Y-52865886D01*
X109920949Y-52922609D01*
X110013603Y-53046379D01*
X110023168Y-53061263D01*
X110131217Y-53259140D01*
X110138567Y-53275234D01*
X110217357Y-53486479D01*
X110222341Y-53503454D01*
X110270265Y-53723756D01*
X110272783Y-53741268D01*
X110289184Y-53970581D01*
X110289500Y-53979427D01*
X110289500Y-56824916D01*
X110269815Y-56891955D01*
X110217011Y-56937710D01*
X110147853Y-56947654D01*
X110084297Y-56918629D01*
X110046523Y-56859851D01*
X110045725Y-56857010D01*
X110011981Y-56731078D01*
X109999903Y-56686001D01*
X109906425Y-56485536D01*
X109779556Y-56304348D01*
X109623152Y-56147944D01*
X109441965Y-56021075D01*
X109441962Y-56021074D01*
X109441960Y-56021072D01*
X109241502Y-55927598D01*
X109241499Y-55927597D01*
X109066455Y-55880694D01*
X109027844Y-55870348D01*
X108807500Y-55851070D01*
X108587155Y-55870348D01*
X108373499Y-55927597D01*
X108173035Y-56021075D01*
X107991847Y-56147944D01*
X107835444Y-56304347D01*
X107708575Y-56485535D01*
X107615097Y-56685999D01*
X107557848Y-56899655D01*
X107538570Y-57120000D01*
X107557848Y-57340344D01*
X107615098Y-57554002D01*
X107708572Y-57754460D01*
X107708574Y-57754462D01*
X107708575Y-57754465D01*
X107835444Y-57935652D01*
X107991848Y-58092056D01*
X108173035Y-58218925D01*
X108261164Y-58260020D01*
X108313600Y-58306189D01*
X108332753Y-58373383D01*
X108312538Y-58440264D01*
X108259373Y-58485599D01*
X108208757Y-58496400D01*
X107902686Y-58496400D01*
X107895564Y-58496812D01*
X107874023Y-58499310D01*
X107771420Y-58544613D01*
X107692114Y-58623919D01*
X107646809Y-58726525D01*
X107644311Y-58748059D01*
X107643900Y-58755180D01*
X107643900Y-59410000D01*
X108364304Y-59410000D01*
X108340655Y-59446799D01*
X108299500Y-59586961D01*
X108299500Y-59733039D01*
X108340655Y-59873201D01*
X108364304Y-59910000D01*
X107643901Y-59910000D01*
X107643901Y-60564813D01*
X107644312Y-60571935D01*
X107646810Y-60593476D01*
X107692113Y-60696079D01*
X107771419Y-60775385D01*
X107874025Y-60820690D01*
X107895559Y-60823188D01*
X107902680Y-60823599D01*
X108208756Y-60823599D01*
X108275795Y-60843283D01*
X108321550Y-60896087D01*
X108331494Y-60965246D01*
X108302469Y-61028801D01*
X108261162Y-61059981D01*
X108173033Y-61101076D01*
X107991847Y-61227944D01*
X107835444Y-61384347D01*
X107708575Y-61565535D01*
X107615097Y-61765999D01*
X107557848Y-61979655D01*
X107538570Y-62200000D01*
X107557848Y-62420344D01*
X107615098Y-62634002D01*
X107708572Y-62834460D01*
X107708574Y-62834462D01*
X107708575Y-62834465D01*
X107835444Y-63015652D01*
X107991848Y-63172056D01*
X108173035Y-63298925D01*
X108173038Y-63298926D01*
X108173039Y-63298927D01*
X108298903Y-63357618D01*
X108351343Y-63403790D01*
X108370495Y-63470983D01*
X108350279Y-63537865D01*
X108298904Y-63582382D01*
X108173035Y-63641075D01*
X107991847Y-63767944D01*
X107835444Y-63924347D01*
X107708575Y-64105535D01*
X107615097Y-64305999D01*
X107557848Y-64519655D01*
X107538570Y-64739999D01*
X107557848Y-64960344D01*
X107615098Y-65174002D01*
X107708572Y-65374460D01*
X107708574Y-65374462D01*
X107708575Y-65374465D01*
X107835444Y-65555652D01*
X107991848Y-65712056D01*
X108173035Y-65838925D01*
X108173038Y-65838926D01*
X108173039Y-65838927D01*
X108298903Y-65897618D01*
X108351343Y-65943790D01*
X108370495Y-66010983D01*
X108350279Y-66077865D01*
X108298904Y-66122382D01*
X108173035Y-66181075D01*
X107991847Y-66307944D01*
X107835444Y-66464347D01*
X107708575Y-66645535D01*
X107615097Y-66845999D01*
X107557848Y-67059655D01*
X107538570Y-67279999D01*
X107557848Y-67500344D01*
X107615098Y-67714002D01*
X107708572Y-67914460D01*
X107708574Y-67914462D01*
X107708575Y-67914465D01*
X107835444Y-68095652D01*
X107991848Y-68252056D01*
X108173035Y-68378925D01*
X108173038Y-68378926D01*
X108173039Y-68378927D01*
X108298903Y-68437618D01*
X108351343Y-68483790D01*
X108370495Y-68550983D01*
X108350279Y-68617865D01*
X108298904Y-68662382D01*
X108173035Y-68721075D01*
X107991847Y-68847944D01*
X107835444Y-69004347D01*
X107708575Y-69185535D01*
X107615097Y-69385999D01*
X107557848Y-69599655D01*
X107538570Y-69820000D01*
X107557848Y-70040344D01*
X107615098Y-70254002D01*
X107708572Y-70454460D01*
X107708574Y-70454462D01*
X107708575Y-70454465D01*
X107835444Y-70635652D01*
X107991848Y-70792056D01*
X108173035Y-70918925D01*
X108173038Y-70918926D01*
X108173039Y-70918927D01*
X108298903Y-70977618D01*
X108351343Y-71023790D01*
X108370495Y-71090983D01*
X108350279Y-71157865D01*
X108298904Y-71202382D01*
X108173035Y-71261075D01*
X107991847Y-71387944D01*
X107835444Y-71544347D01*
X107708575Y-71725535D01*
X107615097Y-71925999D01*
X107557848Y-72139655D01*
X107538570Y-72359999D01*
X107557848Y-72580344D01*
X107557849Y-72580347D01*
X107614826Y-72792989D01*
X107615098Y-72794002D01*
X107708572Y-72994460D01*
X107708574Y-72994462D01*
X107708575Y-72994465D01*
X107835444Y-73175652D01*
X107991848Y-73332056D01*
X108173035Y-73458925D01*
X108173038Y-73458926D01*
X108173039Y-73458927D01*
X108298903Y-73517618D01*
X108351343Y-73563790D01*
X108370495Y-73630983D01*
X108350279Y-73697865D01*
X108298904Y-73742382D01*
X108173035Y-73801075D01*
X107991847Y-73927944D01*
X107835444Y-74084347D01*
X107708575Y-74265535D01*
X107615097Y-74465999D01*
X107557848Y-74679655D01*
X107538570Y-74899999D01*
X107557848Y-75120344D01*
X107557849Y-75120347D01*
X107600788Y-75280599D01*
X107615098Y-75334002D01*
X107708572Y-75534460D01*
X107708574Y-75534462D01*
X107708575Y-75534465D01*
X107835444Y-75715652D01*
X107991848Y-75872056D01*
X108173035Y-75998925D01*
X108173038Y-75998926D01*
X108173039Y-75998927D01*
X108298903Y-76057618D01*
X108351343Y-76103790D01*
X108370495Y-76170983D01*
X108350279Y-76237865D01*
X108298904Y-76282382D01*
X108173035Y-76341075D01*
X107991847Y-76467944D01*
X107835444Y-76624347D01*
X107708575Y-76805535D01*
X107615097Y-77005999D01*
X107557848Y-77219655D01*
X107538570Y-77440000D01*
X107557848Y-77660344D01*
X107575724Y-77727059D01*
X107607333Y-77845025D01*
X107615098Y-77874002D01*
X107708572Y-78074460D01*
X107708574Y-78074462D01*
X107708575Y-78074465D01*
X107835444Y-78255652D01*
X107991848Y-78412056D01*
X108173035Y-78538925D01*
X108173038Y-78538926D01*
X108173039Y-78538927D01*
X108298903Y-78597618D01*
X108351343Y-78643790D01*
X108370495Y-78710983D01*
X108350279Y-78777865D01*
X108298904Y-78822382D01*
X108173035Y-78881075D01*
X107991847Y-79007944D01*
X107835444Y-79164347D01*
X107708575Y-79345535D01*
X107615097Y-79545999D01*
X107557848Y-79759655D01*
X107538570Y-79980000D01*
X107557848Y-80200344D01*
X107615098Y-80414002D01*
X107708572Y-80614460D01*
X107708574Y-80614462D01*
X107708575Y-80614465D01*
X107835444Y-80795652D01*
X107991848Y-80952056D01*
X108173035Y-81078925D01*
X108173038Y-81078926D01*
X108173039Y-81078927D01*
X108298903Y-81137618D01*
X108351343Y-81183790D01*
X108370495Y-81250983D01*
X108350279Y-81317865D01*
X108298904Y-81362382D01*
X108173035Y-81421075D01*
X107991847Y-81547944D01*
X107835444Y-81704347D01*
X107708575Y-81885535D01*
X107615097Y-82085999D01*
X107557848Y-82299655D01*
X107538570Y-82520000D01*
X107557848Y-82740344D01*
X107615098Y-82954002D01*
X107708572Y-83154460D01*
X107708574Y-83154462D01*
X107708575Y-83154465D01*
X107835444Y-83335652D01*
X107991848Y-83492056D01*
X108173035Y-83618925D01*
X108173038Y-83618926D01*
X108173039Y-83618927D01*
X108298903Y-83677618D01*
X108351343Y-83723790D01*
X108370495Y-83790983D01*
X108350279Y-83857865D01*
X108298904Y-83902382D01*
X108173035Y-83961075D01*
X107991847Y-84087944D01*
X107835444Y-84244347D01*
X107708575Y-84425535D01*
X107615097Y-84625999D01*
X107557848Y-84839655D01*
X107538570Y-85059999D01*
X107557848Y-85280344D01*
X107615098Y-85494002D01*
X107708572Y-85694460D01*
X107708574Y-85694462D01*
X107708575Y-85694465D01*
X107835444Y-85875652D01*
X107991848Y-86032056D01*
X108173035Y-86158925D01*
X108173038Y-86158926D01*
X108173039Y-86158927D01*
X108298903Y-86217618D01*
X108351343Y-86263790D01*
X108370495Y-86330983D01*
X108350279Y-86397865D01*
X108298904Y-86442382D01*
X108173035Y-86501075D01*
X107991847Y-86627944D01*
X107835444Y-86784347D01*
X107708575Y-86965535D01*
X107615097Y-87165999D01*
X107557848Y-87379655D01*
X107538570Y-87600000D01*
X107557848Y-87820344D01*
X107615098Y-88034002D01*
X107708572Y-88234460D01*
X107708574Y-88234462D01*
X107708575Y-88234465D01*
X107835444Y-88415652D01*
X107991848Y-88572056D01*
X108173035Y-88698925D01*
X108173038Y-88698926D01*
X108173039Y-88698927D01*
X108298903Y-88757618D01*
X108351343Y-88803790D01*
X108370495Y-88870983D01*
X108350279Y-88937865D01*
X108298904Y-88982382D01*
X108173035Y-89041075D01*
X107991847Y-89167944D01*
X107835444Y-89324347D01*
X107708575Y-89505535D01*
X107677160Y-89572905D01*
X107630987Y-89625344D01*
X107564778Y-89644500D01*
X107337940Y-89644500D01*
X107270901Y-89624815D01*
X107250263Y-89608185D01*
X107182262Y-89540184D01*
X107029522Y-89444211D01*
X106859255Y-89384632D01*
X106859253Y-89384631D01*
X106859251Y-89384631D01*
X106680000Y-89364434D01*
X106500748Y-89384631D01*
X106500745Y-89384631D01*
X106500745Y-89384632D01*
X106330478Y-89444211D01*
X106330476Y-89444211D01*
X106330476Y-89444212D01*
X106177735Y-89540185D01*
X106050185Y-89667735D01*
X105954212Y-89820476D01*
X105954211Y-89820478D01*
X105902712Y-89967654D01*
X105894631Y-89990748D01*
X105874434Y-90169999D01*
X105894631Y-90349251D01*
X105894631Y-90349253D01*
X105894632Y-90349255D01*
X105954211Y-90519522D01*
X105988441Y-90573999D01*
X106050185Y-90672264D01*
X106177735Y-90799814D01*
X106177737Y-90799815D01*
X106177738Y-90799816D01*
X106330478Y-90895789D01*
X106500745Y-90955368D01*
X106680000Y-90975565D01*
X106859255Y-90955368D01*
X107029522Y-90895789D01*
X107182262Y-90799816D01*
X107250260Y-90731817D01*
X107311581Y-90698334D01*
X107337940Y-90695500D01*
X107592757Y-90695500D01*
X107659796Y-90715185D01*
X107705140Y-90767098D01*
X107708573Y-90774462D01*
X107708574Y-90774464D01*
X107708575Y-90774465D01*
X107835444Y-90955652D01*
X107991848Y-91112056D01*
X108173035Y-91238925D01*
X108173038Y-91238926D01*
X108173039Y-91238927D01*
X108298903Y-91297618D01*
X108351343Y-91343790D01*
X108370495Y-91410983D01*
X108350279Y-91477865D01*
X108298904Y-91522382D01*
X108173035Y-91581075D01*
X107991847Y-91707944D01*
X107835444Y-91864347D01*
X107708575Y-92045535D01*
X107615097Y-92245999D01*
X107557848Y-92459655D01*
X107538570Y-92679999D01*
X107557848Y-92900344D01*
X107615098Y-93114002D01*
X107708572Y-93314460D01*
X107708574Y-93314462D01*
X107708575Y-93314465D01*
X107835444Y-93495652D01*
X107991848Y-93652056D01*
X108173035Y-93778925D01*
X108173038Y-93778926D01*
X108173039Y-93778927D01*
X108219835Y-93800748D01*
X108373501Y-93872403D01*
X108587153Y-93929651D01*
X108807500Y-93948929D01*
X109027847Y-93929651D01*
X109241499Y-93872403D01*
X109441965Y-93778925D01*
X109623152Y-93652056D01*
X109779556Y-93495652D01*
X109906425Y-93314465D01*
X109999903Y-93113999D01*
X110045725Y-92942988D01*
X110082090Y-92883329D01*
X110144937Y-92852800D01*
X110214313Y-92861095D01*
X110268191Y-92905580D01*
X110289465Y-92972132D01*
X110289500Y-92975083D01*
X110289500Y-95880572D01*
X110289184Y-95889418D01*
X110272783Y-96118731D01*
X110270265Y-96136243D01*
X110222341Y-96356545D01*
X110217357Y-96373520D01*
X110138567Y-96584765D01*
X110131217Y-96600859D01*
X110023168Y-96798736D01*
X110013603Y-96813620D01*
X109878487Y-96994113D01*
X109866901Y-97007483D01*
X109707483Y-97166901D01*
X109694113Y-97178487D01*
X109513620Y-97313603D01*
X109498736Y-97323168D01*
X109300859Y-97431217D01*
X109284765Y-97438567D01*
X109073520Y-97517357D01*
X109056545Y-97522341D01*
X108836243Y-97570265D01*
X108818731Y-97572783D01*
X108589418Y-97589184D01*
X108580572Y-97589500D01*
X81918751Y-97589500D01*
X81911264Y-97589274D01*
X81640490Y-97572894D01*
X81625625Y-97571089D01*
X81362492Y-97522868D01*
X81347954Y-97519284D01*
X81092569Y-97439703D01*
X81078568Y-97434394D01*
X80834618Y-97324601D01*
X80821359Y-97317642D01*
X80592431Y-97179251D01*
X80580108Y-97170745D01*
X80369526Y-97005764D01*
X80358318Y-96995834D01*
X80169165Y-96806681D01*
X80159235Y-96795473D01*
X79994250Y-96584885D01*
X79985752Y-96572574D01*
X79847356Y-96343639D01*
X79840398Y-96330381D01*
X79730603Y-96086427D01*
X79725296Y-96072430D01*
X79705799Y-96009863D01*
X79645714Y-95817044D01*
X79642131Y-95802507D01*
X79620277Y-95683255D01*
X79593909Y-95539372D01*
X79592105Y-95524509D01*
X79590864Y-95504000D01*
X79575726Y-95253736D01*
X79575500Y-95246249D01*
X79575500Y-91440000D01*
X80459528Y-91440000D01*
X80479379Y-91679558D01*
X80479379Y-91679561D01*
X80479380Y-91679563D01*
X80538390Y-91912591D01*
X80634951Y-92132728D01*
X80766429Y-92333969D01*
X80929236Y-92510825D01*
X81118933Y-92658472D01*
X81324518Y-92769729D01*
X81374108Y-92818948D01*
X81389500Y-92878783D01*
X81389500Y-93322059D01*
X81369815Y-93389098D01*
X81353181Y-93409740D01*
X81285185Y-93477735D01*
X81208990Y-93599000D01*
X81189211Y-93630478D01*
X81129632Y-93800745D01*
X81129631Y-93800748D01*
X81109434Y-93979999D01*
X81129631Y-94159251D01*
X81129631Y-94159253D01*
X81129632Y-94159255D01*
X81189211Y-94329522D01*
X81189212Y-94329523D01*
X81285185Y-94482264D01*
X81412735Y-94609814D01*
X81412737Y-94609815D01*
X81412738Y-94609816D01*
X81565478Y-94705789D01*
X81735745Y-94765368D01*
X81870186Y-94780515D01*
X81914999Y-94785565D01*
X81914999Y-94785564D01*
X81915000Y-94785565D01*
X82094255Y-94765368D01*
X82264522Y-94705789D01*
X82417262Y-94609816D01*
X82544816Y-94482262D01*
X82640789Y-94329522D01*
X82700368Y-94159255D01*
X82720565Y-93980000D01*
X82700368Y-93800745D01*
X82640789Y-93630478D01*
X82544816Y-93477738D01*
X82544815Y-93477737D01*
X82544814Y-93477735D01*
X82476819Y-93409740D01*
X82443334Y-93348417D01*
X82440500Y-93322059D01*
X82440500Y-92878783D01*
X82460185Y-92811744D01*
X82505481Y-92769729D01*
X82711067Y-92658472D01*
X82900764Y-92510825D01*
X83063571Y-92333969D01*
X83081192Y-92306998D01*
X83134337Y-92261642D01*
X83203568Y-92252218D01*
X83266904Y-92281719D01*
X83288807Y-92306996D01*
X83306429Y-92333969D01*
X83469236Y-92510825D01*
X83658933Y-92658472D01*
X83864518Y-92769729D01*
X83914108Y-92818948D01*
X83929500Y-92878783D01*
X83929500Y-94084058D01*
X83909815Y-94151097D01*
X83893182Y-94171739D01*
X83825183Y-94239738D01*
X83729212Y-94392476D01*
X83669631Y-94562748D01*
X83649434Y-94741999D01*
X83669631Y-94921251D01*
X83669631Y-94921253D01*
X83669632Y-94921255D01*
X83729211Y-95091522D01*
X83729212Y-95091523D01*
X83825185Y-95244264D01*
X83952735Y-95371814D01*
X83952737Y-95371815D01*
X83952738Y-95371816D01*
X84105478Y-95467789D01*
X84275745Y-95527368D01*
X84410186Y-95542515D01*
X84454999Y-95547565D01*
X84454999Y-95547564D01*
X84455000Y-95547565D01*
X84634255Y-95527368D01*
X84804522Y-95467789D01*
X84957262Y-95371816D01*
X85084816Y-95244262D01*
X85180789Y-95091522D01*
X85240368Y-94921255D01*
X85260565Y-94742000D01*
X85240368Y-94562745D01*
X85180789Y-94392478D01*
X85084816Y-94239738D01*
X85084815Y-94239737D01*
X85084814Y-94239735D01*
X85016819Y-94171740D01*
X84983334Y-94110417D01*
X84980500Y-94084059D01*
X84980500Y-92878783D01*
X85000185Y-92811744D01*
X85045481Y-92769729D01*
X85251067Y-92658472D01*
X85440764Y-92510825D01*
X85603571Y-92333969D01*
X85621192Y-92306998D01*
X85674337Y-92261642D01*
X85743568Y-92252218D01*
X85806904Y-92281719D01*
X85828807Y-92306996D01*
X85846429Y-92333969D01*
X86009236Y-92510825D01*
X86198933Y-92658472D01*
X86404518Y-92769729D01*
X86454108Y-92818948D01*
X86469500Y-92878783D01*
X86469500Y-94846059D01*
X86449815Y-94913098D01*
X86433181Y-94933740D01*
X86365185Y-95001735D01*
X86308768Y-95091523D01*
X86269211Y-95154478D01*
X86234479Y-95253736D01*
X86209631Y-95324748D01*
X86189434Y-95504000D01*
X86209631Y-95683251D01*
X86209631Y-95683253D01*
X86209632Y-95683255D01*
X86269211Y-95853522D01*
X86269212Y-95853523D01*
X86365185Y-96006264D01*
X86492735Y-96133814D01*
X86492737Y-96133815D01*
X86492738Y-96133816D01*
X86645478Y-96229789D01*
X86815745Y-96289368D01*
X86995000Y-96309565D01*
X87174255Y-96289368D01*
X87344522Y-96229789D01*
X87497262Y-96133816D01*
X87624816Y-96006262D01*
X87720789Y-95853522D01*
X87780368Y-95683255D01*
X87800565Y-95504000D01*
X87780368Y-95324745D01*
X87720789Y-95154478D01*
X87624816Y-95001738D01*
X87624815Y-95001737D01*
X87624814Y-95001735D01*
X87556819Y-94933740D01*
X87523334Y-94872417D01*
X87520500Y-94846059D01*
X87520500Y-92878783D01*
X87540185Y-92811744D01*
X87585481Y-92769729D01*
X87791067Y-92658472D01*
X87969571Y-92519537D01*
X87988873Y-92504514D01*
X87990368Y-92506435D01*
X88037793Y-92477927D01*
X88107631Y-92480019D01*
X88165252Y-92519537D01*
X88182584Y-92547812D01*
X88233213Y-92662479D01*
X88312519Y-92741785D01*
X88415125Y-92787090D01*
X88436659Y-92789588D01*
X88443780Y-92789999D01*
X89284999Y-92789999D01*
X89285000Y-92789998D01*
X89285000Y-91931683D01*
X89313819Y-91949209D01*
X89459404Y-91990000D01*
X89572622Y-91990000D01*
X89684783Y-91974584D01*
X89785000Y-91931053D01*
X89785000Y-92789999D01*
X90626214Y-92789999D01*
X90633335Y-92789587D01*
X90654876Y-92787089D01*
X90757479Y-92741786D01*
X90819265Y-92680000D01*
X92298570Y-92680000D01*
X92317848Y-92900344D01*
X92375098Y-93114002D01*
X92468572Y-93314460D01*
X92468574Y-93314462D01*
X92468575Y-93314465D01*
X92595444Y-93495652D01*
X92751848Y-93652056D01*
X92933035Y-93778925D01*
X92933038Y-93778926D01*
X92933039Y-93778927D01*
X92979835Y-93800748D01*
X93133501Y-93872403D01*
X93347153Y-93929651D01*
X93494051Y-93942502D01*
X93567499Y-93948929D01*
X93567499Y-93948928D01*
X93567500Y-93948929D01*
X93787847Y-93929651D01*
X94001499Y-93872403D01*
X94201965Y-93778925D01*
X94383152Y-93652056D01*
X94436209Y-93598999D01*
X99778434Y-93598999D01*
X99798631Y-93778251D01*
X99798631Y-93778253D01*
X99798632Y-93778255D01*
X99858211Y-93948522D01*
X99877990Y-93980000D01*
X99954185Y-94101264D01*
X100081735Y-94228814D01*
X100081737Y-94228815D01*
X100081738Y-94228816D01*
X100234478Y-94324789D01*
X100404745Y-94384368D01*
X100584000Y-94404565D01*
X100763255Y-94384368D01*
X100933522Y-94324789D01*
X101026029Y-94266662D01*
X101093264Y-94247663D01*
X101157970Y-94266662D01*
X101250478Y-94324789D01*
X101420745Y-94384368D01*
X101600000Y-94404565D01*
X101779255Y-94384368D01*
X101949522Y-94324789D01*
X102042029Y-94266662D01*
X102109264Y-94247663D01*
X102173970Y-94266662D01*
X102266478Y-94324789D01*
X102436745Y-94384368D01*
X102616000Y-94404565D01*
X102795255Y-94384368D01*
X102965522Y-94324789D01*
X103118262Y-94228816D01*
X103245816Y-94101262D01*
X103341789Y-93948522D01*
X103401368Y-93778255D01*
X103421565Y-93599000D01*
X103401368Y-93419745D01*
X103341789Y-93249478D01*
X103245816Y-93096738D01*
X103245815Y-93096737D01*
X103245814Y-93096735D01*
X103177819Y-93028740D01*
X103144334Y-92967417D01*
X103141500Y-92941059D01*
X103141500Y-92478940D01*
X103161185Y-92411901D01*
X103177819Y-92391259D01*
X103204651Y-92364426D01*
X103245816Y-92323262D01*
X103341789Y-92170522D01*
X103401368Y-92000255D01*
X103421565Y-91821000D01*
X103401368Y-91641745D01*
X103341789Y-91471478D01*
X103245816Y-91318738D01*
X103245815Y-91318737D01*
X103245814Y-91318735D01*
X103118264Y-91191185D01*
X103004725Y-91119844D01*
X102965522Y-91095211D01*
X102795255Y-91035632D01*
X102795253Y-91035631D01*
X102795251Y-91035631D01*
X102616000Y-91015434D01*
X102436748Y-91035631D01*
X102436745Y-91035631D01*
X102436745Y-91035632D01*
X102266478Y-91095211D01*
X102266476Y-91095211D01*
X102266476Y-91095212D01*
X102173972Y-91153336D01*
X102106735Y-91172336D01*
X102042028Y-91153336D01*
X101988725Y-91119844D01*
X101949522Y-91095211D01*
X101779255Y-91035632D01*
X101779253Y-91035631D01*
X101779251Y-91035631D01*
X101600000Y-91015434D01*
X101420748Y-91035631D01*
X101420745Y-91035631D01*
X101420745Y-91035632D01*
X101250478Y-91095211D01*
X101250476Y-91095211D01*
X101250476Y-91095212D01*
X101157972Y-91153336D01*
X101090735Y-91172336D01*
X101026028Y-91153336D01*
X100972725Y-91119844D01*
X100933522Y-91095211D01*
X100763255Y-91035632D01*
X100763253Y-91035631D01*
X100763251Y-91035631D01*
X100584000Y-91015434D01*
X100404748Y-91035631D01*
X100404745Y-91035631D01*
X100404745Y-91035632D01*
X100234478Y-91095211D01*
X100234476Y-91095211D01*
X100234476Y-91095212D01*
X100081735Y-91191185D01*
X99954185Y-91318735D01*
X99858212Y-91471476D01*
X99798631Y-91641748D01*
X99778434Y-91821000D01*
X99798631Y-92000251D01*
X99798631Y-92000253D01*
X99798632Y-92000255D01*
X99858211Y-92170522D01*
X99954184Y-92323262D01*
X100022182Y-92391260D01*
X100055666Y-92452581D01*
X100058500Y-92478940D01*
X100058500Y-92941059D01*
X100038815Y-93008098D01*
X100022181Y-93028740D01*
X99954185Y-93096735D01*
X99858212Y-93249476D01*
X99798631Y-93419748D01*
X99778434Y-93598999D01*
X94436209Y-93598999D01*
X94539556Y-93495652D01*
X94666425Y-93314465D01*
X94759903Y-93113999D01*
X94817151Y-92900347D01*
X94836429Y-92680000D01*
X94817151Y-92459653D01*
X94759903Y-92246001D01*
X94666425Y-92045536D01*
X94539556Y-91864348D01*
X94383152Y-91707944D01*
X94201965Y-91581075D01*
X94076095Y-91522381D01*
X94023656Y-91476210D01*
X94004504Y-91409017D01*
X94024719Y-91342136D01*
X94076096Y-91297618D01*
X94201965Y-91238925D01*
X94383152Y-91112056D01*
X94539556Y-90955652D01*
X94666425Y-90774465D01*
X94759903Y-90573999D01*
X94817151Y-90360347D01*
X94836429Y-90140000D01*
X94817151Y-89919653D01*
X94759903Y-89706001D01*
X94666425Y-89505536D01*
X94539556Y-89324348D01*
X94383152Y-89167944D01*
X94201965Y-89041075D01*
X94076095Y-88982381D01*
X94023656Y-88936210D01*
X94004504Y-88869017D01*
X94024719Y-88802136D01*
X94076096Y-88757618D01*
X94201965Y-88698925D01*
X94383152Y-88572056D01*
X94539556Y-88415652D01*
X94666425Y-88234465D01*
X94759903Y-88033999D01*
X94817151Y-87820347D01*
X94836429Y-87600000D01*
X94817151Y-87379653D01*
X94759903Y-87166001D01*
X94666425Y-86965536D01*
X94539556Y-86784348D01*
X94383152Y-86627944D01*
X94201965Y-86501075D01*
X94076095Y-86442381D01*
X94023656Y-86396210D01*
X94004504Y-86329017D01*
X94024719Y-86262136D01*
X94076096Y-86217618D01*
X94201965Y-86158925D01*
X94383152Y-86032056D01*
X94539556Y-85875652D01*
X94666425Y-85694465D01*
X94759903Y-85493999D01*
X94817151Y-85280347D01*
X94836429Y-85060000D01*
X94817151Y-84839653D01*
X94759903Y-84626001D01*
X94666425Y-84425536D01*
X94539556Y-84244348D01*
X94383152Y-84087944D01*
X94201965Y-83961075D01*
X94201660Y-83960933D01*
X94076096Y-83902382D01*
X94023656Y-83856210D01*
X94004504Y-83789017D01*
X94024719Y-83722136D01*
X94076096Y-83677618D01*
X94092699Y-83669876D01*
X94201965Y-83618925D01*
X94383152Y-83492056D01*
X94539556Y-83335652D01*
X94666425Y-83154465D01*
X94759903Y-82953999D01*
X94817151Y-82740347D01*
X94836429Y-82520000D01*
X94817151Y-82299653D01*
X94759903Y-82086001D01*
X94666425Y-81885536D01*
X94539556Y-81704348D01*
X94383152Y-81547944D01*
X94201965Y-81421075D01*
X94076095Y-81362381D01*
X94023656Y-81316210D01*
X94004504Y-81249017D01*
X94024719Y-81182136D01*
X94076096Y-81137618D01*
X94201965Y-81078925D01*
X94383152Y-80952056D01*
X94539556Y-80795652D01*
X94666425Y-80614465D01*
X94759903Y-80413999D01*
X94817151Y-80200347D01*
X94836429Y-79980000D01*
X94817151Y-79759653D01*
X94759903Y-79546001D01*
X94666425Y-79345536D01*
X94539556Y-79164348D01*
X94383152Y-79007944D01*
X94201965Y-78881075D01*
X94076095Y-78822381D01*
X94023656Y-78776210D01*
X94004504Y-78709017D01*
X94024719Y-78642136D01*
X94076096Y-78597618D01*
X94201965Y-78538925D01*
X94383152Y-78412056D01*
X94539556Y-78255652D01*
X94666425Y-78074465D01*
X94759903Y-77873999D01*
X94817151Y-77660347D01*
X94836429Y-77440000D01*
X94817151Y-77219653D01*
X94759903Y-77006001D01*
X94666425Y-76805536D01*
X94539556Y-76624348D01*
X94383152Y-76467944D01*
X94201965Y-76341075D01*
X94168748Y-76325586D01*
X94076096Y-76282382D01*
X94023656Y-76236210D01*
X94004504Y-76169017D01*
X94024719Y-76102136D01*
X94076096Y-76057618D01*
X94201965Y-75998925D01*
X94383152Y-75872056D01*
X94539556Y-75715652D01*
X94666425Y-75534465D01*
X94759903Y-75333999D01*
X94817151Y-75120347D01*
X94836429Y-74900000D01*
X94817151Y-74679653D01*
X94759903Y-74466001D01*
X94666425Y-74265536D01*
X94539556Y-74084348D01*
X94383152Y-73927944D01*
X94201965Y-73801075D01*
X94076095Y-73742381D01*
X94023656Y-73696210D01*
X94013335Y-73659999D01*
X95714434Y-73659999D01*
X95734631Y-73839251D01*
X95734631Y-73839253D01*
X95734632Y-73839255D01*
X95794211Y-74009522D01*
X95814619Y-74042001D01*
X95890185Y-74162264D01*
X96017735Y-74289814D01*
X96017737Y-74289815D01*
X96017738Y-74289816D01*
X96170478Y-74385789D01*
X96340745Y-74445368D01*
X96520000Y-74465565D01*
X96699255Y-74445368D01*
X96869522Y-74385789D01*
X97022262Y-74289816D01*
X97149816Y-74162262D01*
X97245789Y-74009522D01*
X97305368Y-73839255D01*
X97325565Y-73660000D01*
X97305368Y-73480745D01*
X97245789Y-73310478D01*
X97149816Y-73157738D01*
X97149815Y-73157737D01*
X97149814Y-73157735D01*
X97081819Y-73089740D01*
X97048334Y-73028417D01*
X97045500Y-73002059D01*
X97045500Y-72389999D01*
X98508434Y-72389999D01*
X98528631Y-72569251D01*
X98528631Y-72569253D01*
X98528632Y-72569255D01*
X98588211Y-72739522D01*
X98620284Y-72790566D01*
X98684185Y-72892264D01*
X98811735Y-73019814D01*
X98811737Y-73019815D01*
X98811738Y-73019816D01*
X98964478Y-73115789D01*
X99134745Y-73175368D01*
X99314000Y-73195565D01*
X99493255Y-73175368D01*
X99663522Y-73115789D01*
X99800877Y-73029482D01*
X99868110Y-73010483D01*
X99934945Y-73030850D01*
X99954527Y-73046796D01*
X100043357Y-73135626D01*
X100182106Y-73217681D01*
X100336898Y-73262653D01*
X100336902Y-73262654D01*
X100373065Y-73265500D01*
X101001934Y-73265499D01*
X101038098Y-73262654D01*
X101192894Y-73217681D01*
X101331643Y-73135626D01*
X101445626Y-73021643D01*
X101493267Y-72941084D01*
X101544336Y-72893400D01*
X101613078Y-72880896D01*
X101677668Y-72907541D01*
X101706732Y-72941084D01*
X101753293Y-73019816D01*
X101754374Y-73021643D01*
X101868357Y-73135626D01*
X102007105Y-73217681D01*
X102007106Y-73217681D01*
X102161898Y-73262653D01*
X102161902Y-73262654D01*
X102198065Y-73265500D01*
X102826934Y-73265499D01*
X102863098Y-73262654D01*
X103017894Y-73217681D01*
X103156643Y-73135626D01*
X103270626Y-73021643D01*
X103297394Y-72976379D01*
X103348464Y-72928695D01*
X103404127Y-72915500D01*
X103482060Y-72915500D01*
X103549099Y-72935185D01*
X103569736Y-72951814D01*
X103637738Y-73019816D01*
X103790478Y-73115789D01*
X103960745Y-73175368D01*
X104140000Y-73195565D01*
X104319255Y-73175368D01*
X104489522Y-73115789D01*
X104642262Y-73019816D01*
X104769816Y-72892262D01*
X104865789Y-72739522D01*
X104925368Y-72569255D01*
X104945565Y-72390000D01*
X104925368Y-72210745D01*
X104865789Y-72040478D01*
X104769816Y-71887738D01*
X104769815Y-71887737D01*
X104769814Y-71887735D01*
X104642264Y-71760185D01*
X104579867Y-71720979D01*
X104489522Y-71664211D01*
X104319255Y-71604632D01*
X104319253Y-71604631D01*
X104319251Y-71604631D01*
X104139999Y-71584434D01*
X103960748Y-71604631D01*
X103960745Y-71604631D01*
X103960745Y-71604632D01*
X103790478Y-71664211D01*
X103790476Y-71664211D01*
X103790476Y-71664212D01*
X103637739Y-71760183D01*
X103637738Y-71760183D01*
X103637738Y-71760184D01*
X103569739Y-71828182D01*
X103508419Y-71861666D01*
X103482060Y-71864500D01*
X103404127Y-71864500D01*
X103337088Y-71844815D01*
X103297395Y-71803621D01*
X103271706Y-71760184D01*
X103270626Y-71758357D01*
X103156643Y-71644374D01*
X103138653Y-71633735D01*
X103017893Y-71562318D01*
X102863101Y-71517346D01*
X102829369Y-71514691D01*
X102829354Y-71514690D01*
X102826935Y-71514500D01*
X102824489Y-71514500D01*
X102200489Y-71514500D01*
X102200463Y-71514500D01*
X102198066Y-71514501D01*
X102195675Y-71514689D01*
X102195652Y-71514690D01*
X102161900Y-71517346D01*
X102007106Y-71562318D01*
X101868356Y-71644374D01*
X101754375Y-71758355D01*
X101706731Y-71838917D01*
X101655661Y-71886600D01*
X101586919Y-71899103D01*
X101522330Y-71872457D01*
X101493270Y-71838919D01*
X101445626Y-71758357D01*
X101331643Y-71644374D01*
X101313653Y-71633735D01*
X101192893Y-71562318D01*
X101038101Y-71517346D01*
X101004369Y-71514691D01*
X101004354Y-71514690D01*
X101001935Y-71514500D01*
X100999489Y-71514500D01*
X100375489Y-71514500D01*
X100375463Y-71514500D01*
X100373066Y-71514501D01*
X100370675Y-71514689D01*
X100370652Y-71514690D01*
X100336900Y-71517346D01*
X100182106Y-71562318D01*
X100043355Y-71644374D01*
X99954526Y-71733203D01*
X99893203Y-71766687D01*
X99823511Y-71761702D01*
X99800874Y-71750515D01*
X99761118Y-71725535D01*
X99663522Y-71664211D01*
X99493255Y-71604632D01*
X99493253Y-71604631D01*
X99493251Y-71604631D01*
X99313999Y-71584434D01*
X99134748Y-71604631D01*
X99134745Y-71604631D01*
X99134745Y-71604632D01*
X98964478Y-71664211D01*
X98964476Y-71664211D01*
X98964476Y-71664212D01*
X98811735Y-71760185D01*
X98684185Y-71887735D01*
X98640821Y-71956749D01*
X98588211Y-72040478D01*
X98536712Y-72187654D01*
X98528631Y-72210748D01*
X98508434Y-72389999D01*
X97045500Y-72389999D01*
X97045500Y-69850000D01*
X98508434Y-69850000D01*
X98528631Y-70029251D01*
X98528631Y-70029253D01*
X98528632Y-70029255D01*
X98588211Y-70199522D01*
X98588212Y-70199523D01*
X98684185Y-70352264D01*
X98811735Y-70479814D01*
X98811737Y-70479815D01*
X98811738Y-70479816D01*
X98964478Y-70575789D01*
X99134745Y-70635368D01*
X99269186Y-70650515D01*
X99313999Y-70655565D01*
X99313999Y-70655564D01*
X99314000Y-70655565D01*
X99493255Y-70635368D01*
X99663522Y-70575789D01*
X99800877Y-70489482D01*
X99868110Y-70470483D01*
X99934945Y-70490850D01*
X99954527Y-70506796D01*
X100043357Y-70595626D01*
X100182106Y-70677681D01*
X100336898Y-70722653D01*
X100336902Y-70722654D01*
X100373065Y-70725500D01*
X101001934Y-70725499D01*
X101038098Y-70722654D01*
X101192894Y-70677681D01*
X101331643Y-70595626D01*
X101445626Y-70481643D01*
X101493267Y-70401084D01*
X101544336Y-70353400D01*
X101613078Y-70340896D01*
X101677668Y-70367541D01*
X101706732Y-70401084D01*
X101753293Y-70479816D01*
X101754374Y-70481643D01*
X101868357Y-70595626D01*
X102007105Y-70677681D01*
X102007106Y-70677681D01*
X102161898Y-70722653D01*
X102161902Y-70722654D01*
X102198065Y-70725500D01*
X102826934Y-70725499D01*
X102863098Y-70722654D01*
X103017894Y-70677681D01*
X103156643Y-70595626D01*
X103270626Y-70481643D01*
X103297394Y-70436379D01*
X103348464Y-70388695D01*
X103404127Y-70375500D01*
X103482060Y-70375500D01*
X103549099Y-70395185D01*
X103569736Y-70411814D01*
X103637738Y-70479816D01*
X103790478Y-70575789D01*
X103960745Y-70635368D01*
X104095186Y-70650515D01*
X104139999Y-70655565D01*
X104139999Y-70655564D01*
X104140000Y-70655565D01*
X104319255Y-70635368D01*
X104489522Y-70575789D01*
X104642262Y-70479816D01*
X104769816Y-70352262D01*
X104865789Y-70199522D01*
X104925368Y-70029255D01*
X104945565Y-69850000D01*
X104925368Y-69670745D01*
X104865789Y-69500478D01*
X104769816Y-69347738D01*
X104769815Y-69347737D01*
X104769814Y-69347735D01*
X104642264Y-69220185D01*
X104579867Y-69180979D01*
X104489522Y-69124211D01*
X104319255Y-69064632D01*
X104319253Y-69064631D01*
X104319251Y-69064631D01*
X104140000Y-69044434D01*
X103960748Y-69064631D01*
X103960745Y-69064631D01*
X103960745Y-69064632D01*
X103790478Y-69124211D01*
X103790476Y-69124211D01*
X103790476Y-69124212D01*
X103637739Y-69220183D01*
X103637738Y-69220183D01*
X103637738Y-69220184D01*
X103569739Y-69288182D01*
X103508419Y-69321666D01*
X103482060Y-69324500D01*
X103404127Y-69324500D01*
X103337088Y-69304815D01*
X103297395Y-69263621D01*
X103271706Y-69220184D01*
X103270626Y-69218357D01*
X103156643Y-69104374D01*
X103156642Y-69104373D01*
X103017893Y-69022318D01*
X102863101Y-68977346D01*
X102829369Y-68974691D01*
X102829354Y-68974690D01*
X102826935Y-68974500D01*
X102824489Y-68974500D01*
X102200489Y-68974500D01*
X102200463Y-68974500D01*
X102198066Y-68974501D01*
X102195675Y-68974689D01*
X102195652Y-68974690D01*
X102161900Y-68977346D01*
X102007106Y-69022318D01*
X101868356Y-69104374D01*
X101754374Y-69218356D01*
X101706732Y-69298916D01*
X101655663Y-69346599D01*
X101586921Y-69359103D01*
X101522332Y-69332458D01*
X101493268Y-69298916D01*
X101446706Y-69220184D01*
X101445626Y-69218357D01*
X101331643Y-69104374D01*
X101331643Y-69104373D01*
X101192893Y-69022318D01*
X101038101Y-68977346D01*
X101004369Y-68974691D01*
X101004354Y-68974690D01*
X101001935Y-68974500D01*
X100999489Y-68974500D01*
X100375489Y-68974500D01*
X100375463Y-68974500D01*
X100373066Y-68974501D01*
X100370675Y-68974689D01*
X100370652Y-68974690D01*
X100336900Y-68977346D01*
X100182106Y-69022318D01*
X100043355Y-69104374D01*
X99954526Y-69193203D01*
X99893203Y-69226687D01*
X99823511Y-69221702D01*
X99800874Y-69210515D01*
X99761118Y-69185535D01*
X99663522Y-69124211D01*
X99493255Y-69064632D01*
X99493253Y-69064631D01*
X99493251Y-69064631D01*
X99314000Y-69044434D01*
X99134748Y-69064631D01*
X99134745Y-69064631D01*
X99134745Y-69064632D01*
X98964478Y-69124211D01*
X98964476Y-69124211D01*
X98964476Y-69124212D01*
X98811735Y-69220185D01*
X98684185Y-69347735D01*
X98600977Y-69480161D01*
X98588211Y-69500478D01*
X98536712Y-69647654D01*
X98528631Y-69670748D01*
X98508434Y-69850000D01*
X97045500Y-69850000D01*
X97045500Y-67310000D01*
X98508434Y-67310000D01*
X98528631Y-67489251D01*
X98528631Y-67489253D01*
X98528632Y-67489255D01*
X98588211Y-67659522D01*
X98610080Y-67694326D01*
X98684185Y-67812264D01*
X98811735Y-67939814D01*
X98811737Y-67939815D01*
X98811738Y-67939816D01*
X98964478Y-68035789D01*
X99134745Y-68095368D01*
X99269186Y-68110515D01*
X99313999Y-68115565D01*
X99313999Y-68115564D01*
X99314000Y-68115565D01*
X99493255Y-68095368D01*
X99663522Y-68035789D01*
X99800877Y-67949482D01*
X99868110Y-67930483D01*
X99934945Y-67950850D01*
X99954527Y-67966796D01*
X100043357Y-68055626D01*
X100164500Y-68127269D01*
X100182106Y-68137681D01*
X100336898Y-68182653D01*
X100336902Y-68182654D01*
X100373065Y-68185500D01*
X101001934Y-68185499D01*
X101038098Y-68182654D01*
X101192894Y-68137681D01*
X101331643Y-68055626D01*
X101445626Y-67941643D01*
X101493267Y-67861084D01*
X101544336Y-67813400D01*
X101613078Y-67800896D01*
X101677668Y-67827541D01*
X101706732Y-67861084D01*
X101753293Y-67939816D01*
X101754374Y-67941643D01*
X101868357Y-68055626D01*
X101989500Y-68127269D01*
X102007106Y-68137681D01*
X102161898Y-68182653D01*
X102161902Y-68182654D01*
X102198065Y-68185500D01*
X102826934Y-68185499D01*
X102863098Y-68182654D01*
X103017894Y-68137681D01*
X103156643Y-68055626D01*
X103270626Y-67941643D01*
X103297394Y-67896379D01*
X103348464Y-67848695D01*
X103404127Y-67835500D01*
X103482060Y-67835500D01*
X103549099Y-67855185D01*
X103569736Y-67871814D01*
X103637738Y-67939816D01*
X103790478Y-68035789D01*
X103960745Y-68095368D01*
X104095186Y-68110515D01*
X104139999Y-68115565D01*
X104139999Y-68115564D01*
X104140000Y-68115565D01*
X104319255Y-68095368D01*
X104489522Y-68035789D01*
X104642262Y-67939816D01*
X104769816Y-67812262D01*
X104865789Y-67659522D01*
X104925368Y-67489255D01*
X104945565Y-67310000D01*
X104925368Y-67130745D01*
X104865789Y-66960478D01*
X104769816Y-66807738D01*
X104769815Y-66807737D01*
X104769814Y-66807735D01*
X104642264Y-66680185D01*
X104579867Y-66640978D01*
X104489522Y-66584211D01*
X104319255Y-66524632D01*
X104319253Y-66524631D01*
X104319251Y-66524631D01*
X104140000Y-66504434D01*
X103960748Y-66524631D01*
X103960745Y-66524631D01*
X103960745Y-66524632D01*
X103790478Y-66584211D01*
X103790476Y-66584211D01*
X103790476Y-66584212D01*
X103637739Y-66680183D01*
X103637738Y-66680183D01*
X103637738Y-66680184D01*
X103569739Y-66748182D01*
X103508419Y-66781666D01*
X103482060Y-66784500D01*
X103404127Y-66784500D01*
X103337088Y-66764815D01*
X103297395Y-66723621D01*
X103271706Y-66680184D01*
X103270626Y-66678357D01*
X103156643Y-66564374D01*
X103128956Y-66548000D01*
X103017893Y-66482318D01*
X102863101Y-66437346D01*
X102829369Y-66434691D01*
X102829354Y-66434690D01*
X102826935Y-66434500D01*
X102824489Y-66434500D01*
X102200489Y-66434500D01*
X102200463Y-66434500D01*
X102198066Y-66434501D01*
X102195675Y-66434689D01*
X102195652Y-66434690D01*
X102161900Y-66437346D01*
X102007106Y-66482318D01*
X101868356Y-66564374D01*
X101754374Y-66678356D01*
X101706732Y-66758916D01*
X101655663Y-66806599D01*
X101586921Y-66819103D01*
X101522332Y-66792458D01*
X101493268Y-66758916D01*
X101474544Y-66727255D01*
X101445626Y-66678357D01*
X101331643Y-66564374D01*
X101303956Y-66548000D01*
X101192893Y-66482318D01*
X101038101Y-66437346D01*
X101004369Y-66434691D01*
X101004354Y-66434690D01*
X101001935Y-66434500D01*
X100999489Y-66434500D01*
X100375489Y-66434500D01*
X100375463Y-66434500D01*
X100373066Y-66434501D01*
X100370675Y-66434689D01*
X100370652Y-66434690D01*
X100336900Y-66437346D01*
X100182106Y-66482318D01*
X100043355Y-66564374D01*
X99954526Y-66653203D01*
X99893203Y-66686687D01*
X99823511Y-66681702D01*
X99800874Y-66670515D01*
X99761118Y-66645535D01*
X99663522Y-66584211D01*
X99493255Y-66524632D01*
X99493253Y-66524631D01*
X99493251Y-66524631D01*
X99313999Y-66504434D01*
X99134748Y-66524631D01*
X99134745Y-66524631D01*
X99134745Y-66524632D01*
X98964478Y-66584211D01*
X98964476Y-66584211D01*
X98964476Y-66584212D01*
X98811735Y-66680185D01*
X98684185Y-66807735D01*
X98627768Y-66897523D01*
X98588211Y-66960478D01*
X98537641Y-67105000D01*
X98528631Y-67130748D01*
X98508434Y-67310000D01*
X97045500Y-67310000D01*
X97045500Y-67205940D01*
X97065185Y-67138901D01*
X97081814Y-67118263D01*
X97149816Y-67050262D01*
X97245789Y-66897522D01*
X97305368Y-66727255D01*
X97325565Y-66548000D01*
X97305368Y-66368745D01*
X97245789Y-66198478D01*
X97149816Y-66045738D01*
X97149815Y-66045737D01*
X97149814Y-66045735D01*
X97022264Y-65918185D01*
X96959867Y-65878979D01*
X96869522Y-65822211D01*
X96699255Y-65762632D01*
X96699253Y-65762631D01*
X96699251Y-65762631D01*
X96520000Y-65742434D01*
X96340748Y-65762631D01*
X96340745Y-65762631D01*
X96340745Y-65762632D01*
X96170478Y-65822211D01*
X96170476Y-65822211D01*
X96170476Y-65822212D01*
X96017735Y-65918185D01*
X95890185Y-66045735D01*
X95794212Y-66198476D01*
X95734631Y-66368748D01*
X95714434Y-66548000D01*
X95734631Y-66727251D01*
X95734631Y-66727253D01*
X95734632Y-66727255D01*
X95794211Y-66897522D01*
X95890184Y-67050262D01*
X95958182Y-67118260D01*
X95991666Y-67179581D01*
X95994500Y-67205940D01*
X95994500Y-73002059D01*
X95974815Y-73069098D01*
X95958181Y-73089740D01*
X95890185Y-73157735D01*
X95794212Y-73310476D01*
X95794211Y-73310478D01*
X95734632Y-73480745D01*
X95734631Y-73480748D01*
X95714434Y-73659999D01*
X94013335Y-73659999D01*
X94004504Y-73629017D01*
X94024719Y-73562136D01*
X94076096Y-73517618D01*
X94201965Y-73458925D01*
X94383152Y-73332056D01*
X94539556Y-73175652D01*
X94666425Y-72994465D01*
X94759903Y-72793999D01*
X94817151Y-72580347D01*
X94836429Y-72360000D01*
X94817151Y-72139653D01*
X94759903Y-71926001D01*
X94666425Y-71725536D01*
X94539556Y-71544348D01*
X94383152Y-71387944D01*
X94201965Y-71261075D01*
X94076095Y-71202381D01*
X94023656Y-71156210D01*
X94004504Y-71089017D01*
X94024719Y-71022136D01*
X94076096Y-70977618D01*
X94201965Y-70918925D01*
X94383152Y-70792056D01*
X94539556Y-70635652D01*
X94666425Y-70454465D01*
X94759903Y-70253999D01*
X94817151Y-70040347D01*
X94836429Y-69820000D01*
X94817151Y-69599653D01*
X94759903Y-69386001D01*
X94666425Y-69185536D01*
X94539556Y-69004348D01*
X94383152Y-68847944D01*
X94201965Y-68721075D01*
X94076095Y-68662381D01*
X94023656Y-68616210D01*
X94004504Y-68549017D01*
X94024719Y-68482136D01*
X94076096Y-68437618D01*
X94201965Y-68378925D01*
X94383152Y-68252056D01*
X94539556Y-68095652D01*
X94666425Y-67914465D01*
X94759903Y-67713999D01*
X94817151Y-67500347D01*
X94836429Y-67280000D01*
X94817151Y-67059653D01*
X94759903Y-66846001D01*
X94666425Y-66645536D01*
X94539556Y-66464348D01*
X94383152Y-66307944D01*
X94226816Y-66198476D01*
X94201961Y-66181072D01*
X94113838Y-66139981D01*
X94061398Y-66093809D01*
X94042246Y-66026616D01*
X94062461Y-65959735D01*
X94115627Y-65914400D01*
X94166242Y-65903599D01*
X94472314Y-65903599D01*
X94479435Y-65903187D01*
X94500976Y-65900689D01*
X94603579Y-65855386D01*
X94682885Y-65776080D01*
X94728190Y-65673474D01*
X94730688Y-65651940D01*
X94731100Y-65644819D01*
X94731100Y-64990000D01*
X94010696Y-64990000D01*
X94034345Y-64953201D01*
X94075500Y-64813039D01*
X94075500Y-64666961D01*
X94034345Y-64526799D01*
X94010696Y-64490000D01*
X94731098Y-64490000D01*
X94731099Y-63835186D01*
X94730687Y-63828064D01*
X94728189Y-63806523D01*
X94682886Y-63703920D01*
X94603580Y-63624614D01*
X94500974Y-63579309D01*
X94479440Y-63576811D01*
X94472319Y-63576400D01*
X94166244Y-63576400D01*
X94099205Y-63556715D01*
X94053450Y-63503911D01*
X94043506Y-63434753D01*
X94072531Y-63371197D01*
X94113840Y-63340018D01*
X94151371Y-63322517D01*
X94201965Y-63298925D01*
X94383152Y-63172056D01*
X94539556Y-63015652D01*
X94666425Y-62834465D01*
X94759903Y-62633999D01*
X94817151Y-62420347D01*
X94836429Y-62200000D01*
X94817151Y-61979653D01*
X94759903Y-61766001D01*
X94666425Y-61565536D01*
X94539556Y-61384348D01*
X94383152Y-61227944D01*
X94201965Y-61101075D01*
X94076095Y-61042381D01*
X94023656Y-60996210D01*
X94004504Y-60929017D01*
X94024719Y-60862136D01*
X94076096Y-60817618D01*
X94201965Y-60758925D01*
X94383152Y-60632056D01*
X94539556Y-60475652D01*
X94666425Y-60294465D01*
X94759903Y-60093999D01*
X94817151Y-59880347D01*
X94836429Y-59660000D01*
X94817151Y-59439653D01*
X94759903Y-59226001D01*
X94666425Y-59025536D01*
X94539556Y-58844348D01*
X94383152Y-58687944D01*
X94201965Y-58561075D01*
X94137238Y-58530892D01*
X94076095Y-58502381D01*
X94023656Y-58456209D01*
X94004504Y-58389015D01*
X94024720Y-58322134D01*
X94076092Y-58277619D01*
X94201965Y-58218925D01*
X94383152Y-58092056D01*
X94539556Y-57935652D01*
X94666425Y-57754465D01*
X94759903Y-57553999D01*
X94817151Y-57340347D01*
X94836429Y-57120000D01*
X94817151Y-56899653D01*
X94759903Y-56686001D01*
X94666425Y-56485536D01*
X94539556Y-56304348D01*
X94383152Y-56147944D01*
X94201965Y-56021075D01*
X94201962Y-56021074D01*
X94201960Y-56021072D01*
X94001502Y-55927598D01*
X94001499Y-55927597D01*
X93826455Y-55880694D01*
X93787844Y-55870348D01*
X93567499Y-55851070D01*
X93347155Y-55870348D01*
X93133499Y-55927597D01*
X92933035Y-56021075D01*
X92751847Y-56147944D01*
X92595444Y-56304347D01*
X92468575Y-56485535D01*
X92375097Y-56685999D01*
X92317848Y-56899655D01*
X92298570Y-57120000D01*
X92317848Y-57340344D01*
X92375098Y-57554002D01*
X92468572Y-57754460D01*
X92468574Y-57754462D01*
X92468575Y-57754465D01*
X92595444Y-57935652D01*
X92751848Y-58092056D01*
X92933035Y-58218925D01*
X92933038Y-58218926D01*
X92933039Y-58218927D01*
X93058903Y-58277618D01*
X93111343Y-58323790D01*
X93130495Y-58390983D01*
X93110279Y-58457865D01*
X93058904Y-58502382D01*
X92933035Y-58561075D01*
X92751847Y-58687944D01*
X92595444Y-58844347D01*
X92468575Y-59025535D01*
X92375097Y-59225999D01*
X92317848Y-59439655D01*
X92298570Y-59660000D01*
X92317848Y-59880344D01*
X92333208Y-59937668D01*
X92369340Y-60072515D01*
X92375098Y-60094002D01*
X92468572Y-60294460D01*
X92468574Y-60294462D01*
X92468575Y-60294465D01*
X92595444Y-60475652D01*
X92751848Y-60632056D01*
X92933035Y-60758925D01*
X92933038Y-60758926D01*
X92933039Y-60758927D01*
X93058903Y-60817618D01*
X93111343Y-60863790D01*
X93130495Y-60930983D01*
X93110279Y-60997865D01*
X93058904Y-61042382D01*
X92933035Y-61101075D01*
X92751847Y-61227944D01*
X92595444Y-61384347D01*
X92468575Y-61565535D01*
X92375097Y-61765999D01*
X92317848Y-61979655D01*
X92298570Y-62199999D01*
X92317848Y-62420344D01*
X92375098Y-62634002D01*
X92468572Y-62834460D01*
X92468574Y-62834462D01*
X92468575Y-62834465D01*
X92595444Y-63015652D01*
X92751848Y-63172056D01*
X92933035Y-63298925D01*
X93021164Y-63340020D01*
X93073600Y-63386189D01*
X93092753Y-63453383D01*
X93072538Y-63520264D01*
X93019373Y-63565599D01*
X92968757Y-63576400D01*
X92662686Y-63576400D01*
X92655564Y-63576812D01*
X92634023Y-63579310D01*
X92531420Y-63624613D01*
X92452114Y-63703919D01*
X92406809Y-63806525D01*
X92404311Y-63828059D01*
X92403900Y-63835180D01*
X92403900Y-64490000D01*
X93124304Y-64490000D01*
X93100655Y-64526799D01*
X93059500Y-64666961D01*
X93059500Y-64813039D01*
X93100655Y-64953201D01*
X93124304Y-64990000D01*
X92403901Y-64990000D01*
X92403901Y-65644813D01*
X92404312Y-65651935D01*
X92406810Y-65673476D01*
X92452113Y-65776079D01*
X92531419Y-65855385D01*
X92634025Y-65900690D01*
X92655559Y-65903188D01*
X92662680Y-65903599D01*
X92968756Y-65903599D01*
X93035795Y-65923283D01*
X93081550Y-65976087D01*
X93091494Y-66045246D01*
X93062469Y-66108801D01*
X93021162Y-66139981D01*
X92933033Y-66181076D01*
X92751847Y-66307944D01*
X92595444Y-66464347D01*
X92468575Y-66645535D01*
X92375097Y-66845999D01*
X92317848Y-67059655D01*
X92298570Y-67280000D01*
X92317848Y-67500344D01*
X92375098Y-67714002D01*
X92468572Y-67914460D01*
X92468574Y-67914462D01*
X92468575Y-67914465D01*
X92595444Y-68095652D01*
X92751848Y-68252056D01*
X92933035Y-68378925D01*
X92933038Y-68378926D01*
X92933039Y-68378927D01*
X93058903Y-68437618D01*
X93111343Y-68483790D01*
X93130495Y-68550983D01*
X93110279Y-68617865D01*
X93058904Y-68662382D01*
X92933035Y-68721075D01*
X92751847Y-68847944D01*
X92595444Y-69004347D01*
X92468575Y-69185535D01*
X92375097Y-69385999D01*
X92317848Y-69599655D01*
X92298570Y-69820000D01*
X92317848Y-70040344D01*
X92375098Y-70254002D01*
X92468572Y-70454460D01*
X92468574Y-70454462D01*
X92468575Y-70454465D01*
X92595444Y-70635652D01*
X92751848Y-70792056D01*
X92933035Y-70918925D01*
X92933038Y-70918926D01*
X92933039Y-70918927D01*
X93058903Y-70977618D01*
X93111343Y-71023790D01*
X93130495Y-71090983D01*
X93110279Y-71157865D01*
X93058904Y-71202382D01*
X92933035Y-71261075D01*
X92751847Y-71387944D01*
X92595444Y-71544347D01*
X92468575Y-71725535D01*
X92375097Y-71925999D01*
X92317848Y-72139655D01*
X92298570Y-72359999D01*
X92317848Y-72580344D01*
X92317849Y-72580347D01*
X92374826Y-72792989D01*
X92375098Y-72794002D01*
X92468572Y-72994460D01*
X92468574Y-72994462D01*
X92468575Y-72994465D01*
X92595444Y-73175652D01*
X92751848Y-73332056D01*
X92933035Y-73458925D01*
X92933038Y-73458926D01*
X92933039Y-73458927D01*
X93058903Y-73517618D01*
X93111343Y-73563790D01*
X93130495Y-73630983D01*
X93110279Y-73697865D01*
X93058904Y-73742382D01*
X92933035Y-73801075D01*
X92751847Y-73927944D01*
X92595444Y-74084347D01*
X92468575Y-74265535D01*
X92375097Y-74465999D01*
X92317848Y-74679655D01*
X92298570Y-74900000D01*
X92317848Y-75120344D01*
X92317849Y-75120347D01*
X92360788Y-75280599D01*
X92375098Y-75334002D01*
X92468572Y-75534460D01*
X92468574Y-75534462D01*
X92468575Y-75534465D01*
X92595444Y-75715652D01*
X92751848Y-75872056D01*
X92933035Y-75998925D01*
X92933038Y-75998926D01*
X92933039Y-75998927D01*
X93058903Y-76057618D01*
X93111343Y-76103790D01*
X93130495Y-76170983D01*
X93110279Y-76237865D01*
X93058904Y-76282382D01*
X92933035Y-76341075D01*
X92751847Y-76467944D01*
X92595444Y-76624347D01*
X92468575Y-76805535D01*
X92375097Y-77005999D01*
X92317848Y-77219655D01*
X92298570Y-77440000D01*
X92317848Y-77660344D01*
X92335724Y-77727059D01*
X92367333Y-77845025D01*
X92375098Y-77874002D01*
X92468572Y-78074460D01*
X92468574Y-78074462D01*
X92468575Y-78074465D01*
X92595444Y-78255652D01*
X92751848Y-78412056D01*
X92933035Y-78538925D01*
X92933038Y-78538926D01*
X92933039Y-78538927D01*
X93058903Y-78597618D01*
X93111343Y-78643790D01*
X93130495Y-78710983D01*
X93110279Y-78777865D01*
X93058904Y-78822382D01*
X92933035Y-78881075D01*
X92751847Y-79007944D01*
X92595444Y-79164347D01*
X92468575Y-79345535D01*
X92375097Y-79545999D01*
X92317848Y-79759655D01*
X92298570Y-79979999D01*
X92317848Y-80200344D01*
X92375098Y-80414002D01*
X92468572Y-80614460D01*
X92468574Y-80614462D01*
X92468575Y-80614465D01*
X92595444Y-80795652D01*
X92751848Y-80952056D01*
X92933035Y-81078925D01*
X92933038Y-81078926D01*
X92933039Y-81078927D01*
X93058903Y-81137618D01*
X93111343Y-81183790D01*
X93130495Y-81250983D01*
X93110279Y-81317865D01*
X93058904Y-81362382D01*
X92933035Y-81421075D01*
X92751847Y-81547944D01*
X92595444Y-81704347D01*
X92468575Y-81885535D01*
X92375097Y-82085999D01*
X92317848Y-82299655D01*
X92298570Y-82520000D01*
X92317848Y-82740344D01*
X92375098Y-82954002D01*
X92468572Y-83154460D01*
X92468574Y-83154462D01*
X92468575Y-83154465D01*
X92595444Y-83335652D01*
X92751848Y-83492056D01*
X92933035Y-83618925D01*
X92933038Y-83618926D01*
X92933039Y-83618927D01*
X93058903Y-83677618D01*
X93111343Y-83723790D01*
X93130495Y-83790983D01*
X93110279Y-83857865D01*
X93058904Y-83902382D01*
X92933035Y-83961075D01*
X92751847Y-84087944D01*
X92595444Y-84244347D01*
X92468575Y-84425535D01*
X92375097Y-84625999D01*
X92317848Y-84839655D01*
X92298570Y-85059999D01*
X92317848Y-85280344D01*
X92375098Y-85494002D01*
X92468572Y-85694460D01*
X92468574Y-85694462D01*
X92468575Y-85694465D01*
X92595444Y-85875652D01*
X92751848Y-86032056D01*
X92933035Y-86158925D01*
X92933038Y-86158926D01*
X92933039Y-86158927D01*
X93058903Y-86217618D01*
X93111343Y-86263790D01*
X93130495Y-86330983D01*
X93110279Y-86397865D01*
X93058904Y-86442382D01*
X92933035Y-86501075D01*
X92751847Y-86627944D01*
X92595444Y-86784347D01*
X92468575Y-86965535D01*
X92375097Y-87165999D01*
X92317848Y-87379655D01*
X92298570Y-87599999D01*
X92317848Y-87820344D01*
X92375098Y-88034002D01*
X92468572Y-88234460D01*
X92468574Y-88234462D01*
X92468575Y-88234465D01*
X92595444Y-88415652D01*
X92751848Y-88572056D01*
X92933035Y-88698925D01*
X92933038Y-88698926D01*
X92933039Y-88698927D01*
X93058903Y-88757618D01*
X93111343Y-88803790D01*
X93130495Y-88870983D01*
X93110279Y-88937865D01*
X93058904Y-88982382D01*
X92933035Y-89041075D01*
X92751847Y-89167944D01*
X92595444Y-89324347D01*
X92468575Y-89505535D01*
X92375097Y-89705999D01*
X92317848Y-89919655D01*
X92298570Y-90140000D01*
X92317848Y-90360344D01*
X92321905Y-90375486D01*
X92374829Y-90573000D01*
X92375098Y-90574002D01*
X92468572Y-90774460D01*
X92468574Y-90774462D01*
X92468575Y-90774465D01*
X92595444Y-90955652D01*
X92751848Y-91112056D01*
X92933035Y-91238925D01*
X92933038Y-91238926D01*
X92933039Y-91238927D01*
X93058903Y-91297618D01*
X93111343Y-91343790D01*
X93130495Y-91410983D01*
X93110279Y-91477865D01*
X93058904Y-91522382D01*
X92933035Y-91581075D01*
X92751847Y-91707944D01*
X92595444Y-91864347D01*
X92468575Y-92045535D01*
X92375097Y-92245999D01*
X92317848Y-92459655D01*
X92298570Y-92680000D01*
X90819265Y-92680000D01*
X90836785Y-92662480D01*
X90882090Y-92559874D01*
X90884588Y-92538340D01*
X90885000Y-92531219D01*
X90885000Y-91690000D01*
X90029852Y-91690000D01*
X90078559Y-91552953D01*
X90088877Y-91402114D01*
X90058116Y-91254085D01*
X90024910Y-91190000D01*
X90884999Y-91190000D01*
X90884999Y-90348786D01*
X90884587Y-90341664D01*
X90882089Y-90320123D01*
X90836786Y-90217520D01*
X90757480Y-90138214D01*
X90654874Y-90092909D01*
X90633340Y-90090411D01*
X90626219Y-90090000D01*
X89785000Y-90090000D01*
X89785000Y-90948316D01*
X89756181Y-90930791D01*
X89610596Y-90890000D01*
X89497378Y-90890000D01*
X89385217Y-90905416D01*
X89285000Y-90948946D01*
X89285000Y-90090000D01*
X88443786Y-90090000D01*
X88436664Y-90090412D01*
X88415123Y-90092910D01*
X88312520Y-90138213D01*
X88233212Y-90217521D01*
X88182582Y-90332188D01*
X88137496Y-90385564D01*
X88070710Y-90406091D01*
X88003428Y-90387253D01*
X87989020Y-90375296D01*
X87988873Y-90375486D01*
X87791072Y-90221531D01*
X87791068Y-90221528D01*
X87791067Y-90221528D01*
X87579656Y-90107118D01*
X87579655Y-90107117D01*
X87579652Y-90107116D01*
X87352299Y-90029066D01*
X87194227Y-90002688D01*
X87115192Y-89989500D01*
X86874808Y-89989500D01*
X86815531Y-89999391D01*
X86637700Y-90029066D01*
X86410347Y-90107116D01*
X86198927Y-90221531D01*
X86009239Y-90369172D01*
X86009236Y-90369174D01*
X86009236Y-90369175D01*
X85994149Y-90385564D01*
X85846426Y-90546033D01*
X85828808Y-90573000D01*
X85775662Y-90618357D01*
X85706430Y-90627780D01*
X85643095Y-90598278D01*
X85621192Y-90573000D01*
X85603573Y-90546033D01*
X85501436Y-90435083D01*
X85440764Y-90369175D01*
X85377742Y-90320123D01*
X85251072Y-90221531D01*
X85251068Y-90221528D01*
X85251067Y-90221528D01*
X85039656Y-90107118D01*
X85039655Y-90107117D01*
X85039652Y-90107116D01*
X84812299Y-90029066D01*
X84654226Y-90002688D01*
X84575192Y-89989500D01*
X84334808Y-89989500D01*
X84275531Y-89999391D01*
X84097700Y-90029066D01*
X83870347Y-90107116D01*
X83658927Y-90221531D01*
X83469239Y-90369172D01*
X83469236Y-90369174D01*
X83469236Y-90369175D01*
X83454149Y-90385564D01*
X83306426Y-90546033D01*
X83288808Y-90573000D01*
X83235662Y-90618357D01*
X83166430Y-90627780D01*
X83103095Y-90598278D01*
X83081192Y-90573000D01*
X83063573Y-90546033D01*
X82961436Y-90435083D01*
X82900764Y-90369175D01*
X82837742Y-90320123D01*
X82711072Y-90221531D01*
X82711068Y-90221528D01*
X82711067Y-90221528D01*
X82499656Y-90107118D01*
X82499655Y-90107117D01*
X82499652Y-90107116D01*
X82272299Y-90029066D01*
X82114227Y-90002688D01*
X82035192Y-89989500D01*
X81794808Y-89989500D01*
X81735531Y-89999391D01*
X81557700Y-90029066D01*
X81330347Y-90107116D01*
X81118927Y-90221531D01*
X80929239Y-90369172D01*
X80929236Y-90369174D01*
X80929236Y-90369175D01*
X80766429Y-90546031D01*
X80668776Y-90695500D01*
X80634950Y-90747274D01*
X80623025Y-90774460D01*
X80538390Y-90967409D01*
X80486496Y-91172336D01*
X80479379Y-91200441D01*
X80459528Y-91440000D01*
X79575500Y-91440000D01*
X79575500Y-82300000D01*
X80565000Y-82300000D01*
X81420148Y-82300000D01*
X81371441Y-82437047D01*
X81361123Y-82587886D01*
X81391884Y-82735915D01*
X81425090Y-82800000D01*
X80565001Y-82800000D01*
X80565001Y-83641213D01*
X80565412Y-83648335D01*
X80567910Y-83669876D01*
X80613213Y-83772479D01*
X80692519Y-83851785D01*
X80795125Y-83897090D01*
X80816659Y-83899588D01*
X80823780Y-83899999D01*
X81664999Y-83899999D01*
X81665000Y-83899998D01*
X81665000Y-83041683D01*
X81693819Y-83059209D01*
X81839404Y-83100000D01*
X81952622Y-83100000D01*
X82064783Y-83084584D01*
X82165000Y-83041053D01*
X82165000Y-83899999D01*
X83006214Y-83899999D01*
X83013335Y-83899587D01*
X83034876Y-83897089D01*
X83137479Y-83851786D01*
X83216785Y-83772480D01*
X83267416Y-83657812D01*
X83312502Y-83604436D01*
X83379288Y-83583908D01*
X83446570Y-83602746D01*
X83460979Y-83614703D01*
X83461127Y-83614514D01*
X83658927Y-83768468D01*
X83658929Y-83768469D01*
X83658933Y-83768472D01*
X83870344Y-83882882D01*
X84097703Y-83960934D01*
X84334808Y-84000500D01*
X84334809Y-84000500D01*
X84575191Y-84000500D01*
X84575192Y-84000500D01*
X84812297Y-83960934D01*
X85039656Y-83882882D01*
X85251067Y-83768472D01*
X85440764Y-83620825D01*
X85603571Y-83443969D01*
X85621192Y-83416998D01*
X85674337Y-83371642D01*
X85743568Y-83362218D01*
X85806904Y-83391719D01*
X85828807Y-83416996D01*
X85846429Y-83443969D01*
X86009236Y-83620825D01*
X86009239Y-83620827D01*
X86198927Y-83768468D01*
X86198929Y-83768469D01*
X86198933Y-83768472D01*
X86410344Y-83882882D01*
X86637703Y-83960934D01*
X86874808Y-84000500D01*
X86874809Y-84000500D01*
X87115191Y-84000500D01*
X87115192Y-84000500D01*
X87352297Y-83960934D01*
X87579656Y-83882882D01*
X87791067Y-83768472D01*
X87980764Y-83620825D01*
X88143571Y-83443969D01*
X88161192Y-83416998D01*
X88214337Y-83371642D01*
X88283568Y-83362218D01*
X88346904Y-83391719D01*
X88368807Y-83416996D01*
X88386429Y-83443969D01*
X88549236Y-83620825D01*
X88549239Y-83620827D01*
X88738927Y-83768468D01*
X88738929Y-83768469D01*
X88738933Y-83768472D01*
X88950344Y-83882882D01*
X89177703Y-83960934D01*
X89414808Y-84000500D01*
X89414809Y-84000500D01*
X89655191Y-84000500D01*
X89655192Y-84000500D01*
X89892297Y-83960934D01*
X90119656Y-83882882D01*
X90331067Y-83768472D01*
X90520764Y-83620825D01*
X90683571Y-83443969D01*
X90815049Y-83242728D01*
X90911610Y-83022591D01*
X90970620Y-82789563D01*
X90990471Y-82550000D01*
X90970620Y-82310437D01*
X90911610Y-82077409D01*
X90815049Y-81857272D01*
X90683571Y-81656031D01*
X90520764Y-81479175D01*
X90499370Y-81462523D01*
X90331072Y-81331531D01*
X90331068Y-81331528D01*
X90331067Y-81331528D01*
X90119656Y-81217118D01*
X90119655Y-81217117D01*
X90119652Y-81217116D01*
X89892299Y-81139066D01*
X89725396Y-81111215D01*
X89655192Y-81099500D01*
X89414808Y-81099500D01*
X89355531Y-81109391D01*
X89177700Y-81139066D01*
X88950347Y-81217116D01*
X88738927Y-81331531D01*
X88549239Y-81479172D01*
X88549236Y-81479174D01*
X88549236Y-81479175D01*
X88521468Y-81509338D01*
X88386426Y-81656033D01*
X88368808Y-81683000D01*
X88315662Y-81728357D01*
X88246430Y-81737780D01*
X88183095Y-81708278D01*
X88161192Y-81683000D01*
X88143573Y-81656033D01*
X88125059Y-81635922D01*
X87980764Y-81479175D01*
X87791067Y-81331528D01*
X87762762Y-81316210D01*
X87585482Y-81220269D01*
X87535891Y-81171050D01*
X87520500Y-81111215D01*
X87520500Y-78374031D01*
X87540185Y-78306992D01*
X87556819Y-78286350D01*
X88403169Y-77440000D01*
X89263769Y-76579399D01*
X89266755Y-76576513D01*
X89311469Y-76534755D01*
X89331696Y-76501492D01*
X89338828Y-76491011D01*
X89362365Y-76459975D01*
X89368474Y-76444480D01*
X89377877Y-76425549D01*
X89386526Y-76411328D01*
X89397029Y-76373838D01*
X89401065Y-76361832D01*
X89415359Y-76325589D01*
X89417061Y-76309028D01*
X89421010Y-76288250D01*
X89422655Y-76282382D01*
X89425500Y-76272228D01*
X89425500Y-76233304D01*
X89426150Y-76220623D01*
X89430132Y-76181889D01*
X89427303Y-76165482D01*
X89425500Y-76144413D01*
X89425500Y-75821626D01*
X89445185Y-75754587D01*
X89486376Y-75714895D01*
X89531643Y-75688126D01*
X89645626Y-75574143D01*
X89727681Y-75435394D01*
X89772654Y-75280598D01*
X89775500Y-75244435D01*
X89775499Y-74615566D01*
X89772654Y-74579402D01*
X89727681Y-74424606D01*
X89645626Y-74285857D01*
X89531643Y-74171874D01*
X89531642Y-74171873D01*
X89451084Y-74124232D01*
X89403400Y-74073164D01*
X89390896Y-74004422D01*
X89417541Y-73939832D01*
X89451084Y-73910768D01*
X89460692Y-73905085D01*
X89531643Y-73863126D01*
X89645626Y-73749143D01*
X89727681Y-73610394D01*
X89772654Y-73455598D01*
X89775500Y-73419435D01*
X89775499Y-72790566D01*
X89772654Y-72754402D01*
X89727681Y-72599606D01*
X89645626Y-72460857D01*
X89531643Y-72346874D01*
X89478171Y-72315251D01*
X89392893Y-72264818D01*
X89238101Y-72219846D01*
X89204369Y-72217191D01*
X89204354Y-72217190D01*
X89201935Y-72217000D01*
X89199490Y-72217000D01*
X89063505Y-72217000D01*
X88996466Y-72197315D01*
X88950711Y-72144511D01*
X88940285Y-72106884D01*
X88923368Y-71956748D01*
X88923368Y-71956745D01*
X88863789Y-71786478D01*
X88767816Y-71633738D01*
X88767815Y-71633737D01*
X88767814Y-71633735D01*
X88640264Y-71506185D01*
X88577867Y-71466979D01*
X88487522Y-71410211D01*
X88317255Y-71350632D01*
X88317253Y-71350631D01*
X88317251Y-71350631D01*
X88137999Y-71330434D01*
X87958748Y-71350631D01*
X87958745Y-71350631D01*
X87958745Y-71350632D01*
X87788478Y-71410211D01*
X87788476Y-71410211D01*
X87788476Y-71410212D01*
X87635735Y-71506185D01*
X87508185Y-71633735D01*
X87412212Y-71786476D01*
X87412211Y-71786478D01*
X87363390Y-71926000D01*
X87352631Y-71956748D01*
X87332434Y-72136000D01*
X87352631Y-72315251D01*
X87352631Y-72315253D01*
X87352632Y-72315255D01*
X87412211Y-72485522D01*
X87412212Y-72485523D01*
X87508185Y-72638264D01*
X87635735Y-72765814D01*
X87635737Y-72765815D01*
X87635738Y-72765816D01*
X87788478Y-72861789D01*
X87941455Y-72915318D01*
X87998231Y-72956039D01*
X88023978Y-73020992D01*
X88024500Y-73032359D01*
X88024500Y-73417010D01*
X88024500Y-73417035D01*
X88024501Y-73419434D01*
X88024689Y-73421825D01*
X88024690Y-73421847D01*
X88027346Y-73455599D01*
X88072318Y-73610393D01*
X88129804Y-73707597D01*
X88154374Y-73749143D01*
X88268357Y-73863126D01*
X88335712Y-73902959D01*
X88348916Y-73910768D01*
X88396599Y-73961837D01*
X88409103Y-74030579D01*
X88382458Y-74095168D01*
X88348916Y-74124232D01*
X88268356Y-74171874D01*
X88154374Y-74285856D01*
X88072318Y-74424606D01*
X88027346Y-74579398D01*
X88024691Y-74613130D01*
X88024690Y-74613145D01*
X88024500Y-74615565D01*
X88024500Y-74618009D01*
X88024500Y-74618010D01*
X88024500Y-75242010D01*
X88024500Y-75242035D01*
X88024501Y-75244434D01*
X88024689Y-75246825D01*
X88024690Y-75246847D01*
X88027346Y-75280599D01*
X88072318Y-75435393D01*
X88072319Y-75435394D01*
X88154374Y-75574143D01*
X88268357Y-75688126D01*
X88313622Y-75714895D01*
X88361304Y-75765962D01*
X88374500Y-75821626D01*
X88374500Y-75930967D01*
X88354815Y-75998006D01*
X88338181Y-76018648D01*
X86631270Y-77725559D01*
X86628227Y-77728500D01*
X86583531Y-77770244D01*
X86563301Y-77803509D01*
X86556162Y-77813998D01*
X86532635Y-77845025D01*
X86526524Y-77860519D01*
X86517127Y-77879439D01*
X86508473Y-77893671D01*
X86497971Y-77931153D01*
X86493926Y-77943183D01*
X86479639Y-77979413D01*
X86477936Y-77995977D01*
X86473991Y-78016737D01*
X86469500Y-78032769D01*
X86469500Y-78071702D01*
X86468850Y-78084382D01*
X86464868Y-78123108D01*
X86467697Y-78139510D01*
X86469500Y-78160580D01*
X86469500Y-81111215D01*
X86449815Y-81178254D01*
X86404518Y-81220269D01*
X86198932Y-81331528D01*
X86009239Y-81479172D01*
X86009236Y-81479174D01*
X86009236Y-81479175D01*
X85981468Y-81509338D01*
X85846426Y-81656033D01*
X85828808Y-81683000D01*
X85775662Y-81728357D01*
X85706430Y-81737780D01*
X85643095Y-81708278D01*
X85621192Y-81683000D01*
X85603573Y-81656033D01*
X85585059Y-81635922D01*
X85440764Y-81479175D01*
X85251067Y-81331528D01*
X85222762Y-81316210D01*
X85045482Y-81220269D01*
X84995891Y-81171050D01*
X84980500Y-81111215D01*
X84980500Y-75821626D01*
X85000185Y-75754587D01*
X85041376Y-75714895D01*
X85086643Y-75688126D01*
X85200626Y-75574143D01*
X85282681Y-75435394D01*
X85327654Y-75280598D01*
X85330500Y-75244435D01*
X85330499Y-74615566D01*
X85327654Y-74579402D01*
X85282681Y-74424606D01*
X85200626Y-74285857D01*
X85086643Y-74171874D01*
X85086642Y-74171873D01*
X85006084Y-74124232D01*
X84958400Y-74073164D01*
X84945896Y-74004422D01*
X84972541Y-73939832D01*
X85006084Y-73910768D01*
X85015692Y-73905085D01*
X85086643Y-73863126D01*
X85200626Y-73749143D01*
X85282681Y-73610394D01*
X85327654Y-73455598D01*
X85330500Y-73419435D01*
X85330499Y-73032358D01*
X85350183Y-72965320D01*
X85402987Y-72919565D01*
X85413526Y-72915324D01*
X85566522Y-72861789D01*
X85719262Y-72765816D01*
X85846816Y-72638262D01*
X85942789Y-72485522D01*
X86002368Y-72315255D01*
X86022565Y-72136000D01*
X86002368Y-71956745D01*
X85942789Y-71786478D01*
X85846816Y-71633738D01*
X85846815Y-71633737D01*
X85846814Y-71633735D01*
X85719264Y-71506185D01*
X85656867Y-71466978D01*
X85566522Y-71410211D01*
X85396255Y-71350632D01*
X85396253Y-71350631D01*
X85396251Y-71350631D01*
X85217000Y-71330434D01*
X85037748Y-71350631D01*
X85037745Y-71350631D01*
X85037745Y-71350632D01*
X84867478Y-71410211D01*
X84867476Y-71410211D01*
X84867476Y-71410212D01*
X84714735Y-71506185D01*
X84587185Y-71633735D01*
X84491212Y-71786476D01*
X84491211Y-71786478D01*
X84442391Y-71926000D01*
X84431631Y-71956749D01*
X84414714Y-72106884D01*
X84387647Y-72171298D01*
X84330052Y-72210853D01*
X84291495Y-72217000D01*
X84155489Y-72217000D01*
X84155463Y-72217000D01*
X84153066Y-72217001D01*
X84150675Y-72217189D01*
X84150652Y-72217190D01*
X84116900Y-72219846D01*
X83962106Y-72264818D01*
X83823356Y-72346874D01*
X83709374Y-72460856D01*
X83627318Y-72599606D01*
X83582346Y-72754398D01*
X83579691Y-72788130D01*
X83579690Y-72788145D01*
X83579500Y-72790565D01*
X83579500Y-72793009D01*
X83579500Y-72793010D01*
X83579500Y-73417010D01*
X83579500Y-73417035D01*
X83579501Y-73419434D01*
X83579689Y-73421825D01*
X83579690Y-73421847D01*
X83582346Y-73455599D01*
X83627318Y-73610393D01*
X83684804Y-73707597D01*
X83709374Y-73749143D01*
X83823357Y-73863126D01*
X83890712Y-73902959D01*
X83903916Y-73910768D01*
X83951599Y-73961837D01*
X83964103Y-74030579D01*
X83937458Y-74095168D01*
X83903916Y-74124232D01*
X83823356Y-74171874D01*
X83709374Y-74285856D01*
X83627318Y-74424606D01*
X83582346Y-74579398D01*
X83579691Y-74613130D01*
X83579690Y-74613145D01*
X83579500Y-74615565D01*
X83579500Y-74618009D01*
X83579500Y-74618010D01*
X83579500Y-75242010D01*
X83579500Y-75242035D01*
X83579501Y-75244434D01*
X83579689Y-75246825D01*
X83579690Y-75246847D01*
X83582346Y-75280599D01*
X83627318Y-75435393D01*
X83627319Y-75435394D01*
X83709374Y-75574143D01*
X83823357Y-75688126D01*
X83868622Y-75714895D01*
X83916304Y-75765962D01*
X83929500Y-75821626D01*
X83929500Y-81111215D01*
X83909815Y-81178254D01*
X83864518Y-81220269D01*
X83658932Y-81331528D01*
X83461127Y-81485486D01*
X83459633Y-81483567D01*
X83412178Y-81512079D01*
X83342340Y-81509971D01*
X83284729Y-81470440D01*
X83267415Y-81442187D01*
X83216786Y-81327520D01*
X83137480Y-81248214D01*
X83034874Y-81202909D01*
X83013340Y-81200411D01*
X83006219Y-81200000D01*
X82165000Y-81200000D01*
X82165000Y-82058316D01*
X82136181Y-82040791D01*
X81990596Y-82000000D01*
X81877378Y-82000000D01*
X81765217Y-82015416D01*
X81665000Y-82058946D01*
X81665000Y-81200000D01*
X80823786Y-81200000D01*
X80816664Y-81200412D01*
X80795123Y-81202910D01*
X80692520Y-81248213D01*
X80613214Y-81327519D01*
X80567909Y-81430125D01*
X80565411Y-81451659D01*
X80565000Y-81458780D01*
X80565000Y-82300000D01*
X79575500Y-82300000D01*
X79575500Y-68674647D01*
X80379500Y-68674647D01*
X80418855Y-68859802D01*
X80495848Y-69032730D01*
X80607110Y-69185870D01*
X80747783Y-69312533D01*
X80911715Y-69407179D01*
X80998363Y-69435332D01*
X81091744Y-69465674D01*
X81232808Y-69480500D01*
X82162777Y-69480500D01*
X82229816Y-69500185D01*
X82275571Y-69552989D01*
X82286395Y-69594771D01*
X82287402Y-69607572D01*
X82333255Y-69765397D01*
X82333256Y-69765398D01*
X82416919Y-69906865D01*
X82533135Y-70023081D01*
X82674602Y-70106744D01*
X82832427Y-70152597D01*
X82832431Y-70152598D01*
X82869306Y-70155500D01*
X82871751Y-70155500D01*
X84748249Y-70155500D01*
X84750694Y-70155500D01*
X84787569Y-70152598D01*
X84945398Y-70106744D01*
X85086865Y-70023081D01*
X85203081Y-69906865D01*
X85286744Y-69765398D01*
X85332598Y-69607569D01*
X85335500Y-69570694D01*
X85335500Y-68830000D01*
X87485000Y-68830000D01*
X87485000Y-69544359D01*
X87485440Y-69551723D01*
X87495614Y-69636448D01*
X87551078Y-69777093D01*
X87642434Y-69897565D01*
X87762906Y-69988921D01*
X87903551Y-70044385D01*
X87988276Y-70054559D01*
X87995640Y-70055000D01*
X88660000Y-70055000D01*
X88660000Y-68830000D01*
X89160000Y-68830000D01*
X89160000Y-70055000D01*
X89824360Y-70055000D01*
X89831723Y-70054559D01*
X89916448Y-70044385D01*
X90057093Y-69988921D01*
X90177565Y-69897565D01*
X90268921Y-69777093D01*
X90324385Y-69636448D01*
X90334559Y-69551723D01*
X90335000Y-69544359D01*
X90335000Y-68830000D01*
X89160000Y-68830000D01*
X88660000Y-68830000D01*
X87485000Y-68830000D01*
X85335500Y-68830000D01*
X85335500Y-68330000D01*
X87485000Y-68330000D01*
X88660000Y-68330000D01*
X88660000Y-67105000D01*
X89160000Y-67105000D01*
X89160000Y-68330000D01*
X90335000Y-68330000D01*
X90335000Y-67615640D01*
X90334559Y-67608276D01*
X90324385Y-67523551D01*
X90268921Y-67382906D01*
X90177565Y-67262434D01*
X90057093Y-67171078D01*
X89916448Y-67115614D01*
X89831723Y-67105440D01*
X89824360Y-67105000D01*
X89160000Y-67105000D01*
X88660000Y-67105000D01*
X87995640Y-67105000D01*
X87988276Y-67105440D01*
X87903551Y-67115614D01*
X87762906Y-67171078D01*
X87642434Y-67262434D01*
X87551078Y-67382906D01*
X87495614Y-67523551D01*
X87485440Y-67608276D01*
X87485000Y-67615640D01*
X87485000Y-68330000D01*
X85335500Y-68330000D01*
X85335500Y-67589306D01*
X85332598Y-67552431D01*
X85318986Y-67505580D01*
X85286744Y-67394602D01*
X85279827Y-67382906D01*
X85203081Y-67253135D01*
X85086865Y-67136919D01*
X85050840Y-67115614D01*
X84945397Y-67053255D01*
X84787572Y-67007402D01*
X84753128Y-67004691D01*
X84753114Y-67004690D01*
X84750694Y-67004500D01*
X82869306Y-67004500D01*
X82866886Y-67004690D01*
X82866871Y-67004691D01*
X82832427Y-67007402D01*
X82674602Y-67053255D01*
X82533134Y-67136919D01*
X82416919Y-67253134D01*
X82333255Y-67394602D01*
X82287402Y-67552427D01*
X82286395Y-67565229D01*
X82261511Y-67630517D01*
X82205280Y-67671988D01*
X82162777Y-67679500D01*
X81232808Y-67679500D01*
X81229596Y-67679837D01*
X81229588Y-67679838D01*
X81091742Y-67694326D01*
X80911715Y-67752820D01*
X80747783Y-67847466D01*
X80607110Y-67974129D01*
X80495848Y-68127269D01*
X80418855Y-68300197D01*
X80379500Y-68485352D01*
X80379500Y-68674647D01*
X79575500Y-68674647D01*
X79575500Y-63500000D01*
X80474434Y-63500000D01*
X80494631Y-63679251D01*
X80494631Y-63679253D01*
X80494632Y-63679255D01*
X80554211Y-63849522D01*
X80568543Y-63872331D01*
X80650185Y-64002264D01*
X80777735Y-64129814D01*
X80777737Y-64129815D01*
X80777738Y-64129816D01*
X80930478Y-64225789D01*
X81100745Y-64285368D01*
X81280000Y-64305565D01*
X81459255Y-64285368D01*
X81629522Y-64225789D01*
X81782262Y-64129816D01*
X81820257Y-64091819D01*
X81881581Y-64058334D01*
X81907940Y-64055500D01*
X82235500Y-64055500D01*
X82302539Y-64075185D01*
X82348294Y-64127989D01*
X82359500Y-64179499D01*
X82359500Y-64324560D01*
X82359500Y-64324578D01*
X82359501Y-64327872D01*
X82359853Y-64331152D01*
X82359854Y-64331159D01*
X82365909Y-64387483D01*
X82416204Y-64522331D01*
X82502454Y-64637546D01*
X82617669Y-64723796D01*
X82752517Y-64774091D01*
X82812127Y-64780500D01*
X84182872Y-64780499D01*
X84242483Y-64774091D01*
X84377331Y-64723796D01*
X84492546Y-64637546D01*
X84578796Y-64522331D01*
X84629091Y-64387483D01*
X84629896Y-64380000D01*
X88195852Y-64380000D01*
X88199834Y-64405146D01*
X88257359Y-64518046D01*
X88346953Y-64607640D01*
X88459853Y-64665165D01*
X88553515Y-64679999D01*
X89022499Y-64679999D01*
X89022500Y-64679998D01*
X89022500Y-64380000D01*
X88195852Y-64380000D01*
X84629896Y-64380000D01*
X84635500Y-64327873D01*
X84635499Y-64032128D01*
X84629091Y-63972517D01*
X84601421Y-63898332D01*
X84596438Y-63828642D01*
X84601420Y-63811672D01*
X84629091Y-63737483D01*
X84635500Y-63677873D01*
X84635499Y-63382128D01*
X84629091Y-63322517D01*
X84578796Y-63187669D01*
X84551018Y-63150563D01*
X84526602Y-63085103D01*
X84526693Y-63082978D01*
X84517538Y-63072259D01*
X84476859Y-63060315D01*
X84469588Y-63055267D01*
X84368064Y-62979267D01*
X84326192Y-62923333D01*
X84324715Y-62902681D01*
X84792434Y-62902681D01*
X84812631Y-63081933D01*
X84812631Y-63081935D01*
X84812632Y-63081937D01*
X84872211Y-63252204D01*
X84901569Y-63298927D01*
X84968185Y-63404946D01*
X85095735Y-63532496D01*
X85095737Y-63532497D01*
X85095738Y-63532498D01*
X85248478Y-63628471D01*
X85418745Y-63688050D01*
X85598000Y-63708247D01*
X85777255Y-63688050D01*
X85947522Y-63628471D01*
X86100262Y-63532498D01*
X86176110Y-63456648D01*
X86237431Y-63423165D01*
X86262318Y-63420340D01*
X87513746Y-63405500D01*
X87960509Y-63405500D01*
X88027541Y-63425184D01*
X88073295Y-63477988D01*
X88084500Y-63529497D01*
X88084500Y-63674560D01*
X88084500Y-63674578D01*
X88084501Y-63677872D01*
X88090909Y-63737483D01*
X88141204Y-63872331D01*
X88160669Y-63898333D01*
X88168980Y-63909435D01*
X88193396Y-63974900D01*
X88193305Y-63977019D01*
X88202461Y-63987740D01*
X88243141Y-63999685D01*
X88250410Y-64004731D01*
X88342669Y-64073796D01*
X88477517Y-64124091D01*
X88537127Y-64130500D01*
X89298501Y-64130499D01*
X89365539Y-64150183D01*
X89411294Y-64202987D01*
X89422500Y-64254499D01*
X89422500Y-64679999D01*
X89891478Y-64679999D01*
X89985149Y-64665163D01*
X90098045Y-64607641D01*
X90187640Y-64518046D01*
X90245164Y-64405149D01*
X90260649Y-64307375D01*
X90290578Y-64244240D01*
X90349889Y-64207308D01*
X90419752Y-64208305D01*
X90449093Y-64221777D01*
X90455478Y-64225789D01*
X90625745Y-64285368D01*
X90805000Y-64305565D01*
X90984255Y-64285368D01*
X91154522Y-64225789D01*
X91307262Y-64129816D01*
X91434816Y-64002262D01*
X91530789Y-63849522D01*
X91590368Y-63679255D01*
X91610565Y-63500000D01*
X91590368Y-63320745D01*
X91530789Y-63150478D01*
X91434816Y-62997738D01*
X91434815Y-62997737D01*
X91434814Y-62997735D01*
X91307264Y-62870185D01*
X91233905Y-62824091D01*
X91154522Y-62774211D01*
X90984255Y-62714632D01*
X90984253Y-62714631D01*
X90984251Y-62714631D01*
X90805000Y-62694434D01*
X90625747Y-62714631D01*
X90514024Y-62753725D01*
X90444246Y-62757286D01*
X90383618Y-62722557D01*
X90356888Y-62680016D01*
X90353457Y-62670817D01*
X90303796Y-62537669D01*
X90276018Y-62500563D01*
X90251602Y-62435103D01*
X90252813Y-62406856D01*
X90259999Y-62361483D01*
X90259999Y-62332826D01*
X90279682Y-62265786D01*
X90332485Y-62220030D01*
X90401643Y-62210085D01*
X90449969Y-62227828D01*
X90455474Y-62231287D01*
X90455475Y-62231287D01*
X90455478Y-62231289D01*
X90625745Y-62290868D01*
X90805000Y-62311065D01*
X90984255Y-62290868D01*
X91154522Y-62231289D01*
X91307262Y-62135316D01*
X91434816Y-62007762D01*
X91530789Y-61855022D01*
X91590368Y-61684755D01*
X91610565Y-61505500D01*
X91590368Y-61326245D01*
X91530789Y-61155978D01*
X91434816Y-61003238D01*
X91434815Y-61003237D01*
X91434814Y-61003235D01*
X91307264Y-60875685D01*
X91223715Y-60823188D01*
X91154522Y-60779711D01*
X90984255Y-60720132D01*
X90984253Y-60720131D01*
X90984251Y-60720131D01*
X90805000Y-60699934D01*
X90625747Y-60720131D01*
X90499342Y-60764362D01*
X90429563Y-60767923D01*
X90368936Y-60733194D01*
X90342207Y-60690654D01*
X90303796Y-60587669D01*
X90276018Y-60550563D01*
X90251602Y-60485103D01*
X90251693Y-60482978D01*
X90242538Y-60472259D01*
X90201859Y-60460315D01*
X90194587Y-60455267D01*
X90157993Y-60427873D01*
X90102331Y-60386204D01*
X89967483Y-60335909D01*
X89967483Y-60335908D01*
X89911166Y-60329854D01*
X89911165Y-60329853D01*
X89907873Y-60329500D01*
X89904550Y-60329500D01*
X88540439Y-60329500D01*
X88540420Y-60329500D01*
X88537128Y-60329501D01*
X88533848Y-60329853D01*
X88533840Y-60329854D01*
X88477515Y-60335909D01*
X88390994Y-60368180D01*
X88342669Y-60386204D01*
X88342668Y-60386204D01*
X88325964Y-60392435D01*
X88324906Y-60389599D01*
X88285807Y-60404184D01*
X88276958Y-60404500D01*
X88130940Y-60404500D01*
X88063901Y-60384815D01*
X88043258Y-60368180D01*
X88005263Y-60330184D01*
X87909290Y-60269880D01*
X87852522Y-60234211D01*
X87682255Y-60174632D01*
X87682253Y-60174631D01*
X87682251Y-60174631D01*
X87502999Y-60154434D01*
X87323748Y-60174631D01*
X87323745Y-60174631D01*
X87323745Y-60174632D01*
X87153478Y-60234211D01*
X87153476Y-60234211D01*
X87153476Y-60234212D01*
X87000735Y-60330185D01*
X86873185Y-60457735D01*
X86805904Y-60564813D01*
X86777211Y-60610478D01*
X86717632Y-60780745D01*
X86717631Y-60780748D01*
X86697434Y-60960000D01*
X86717631Y-61139251D01*
X86717631Y-61139253D01*
X86717632Y-61139255D01*
X86777211Y-61309522D01*
X86824227Y-61384347D01*
X86873185Y-61462264D01*
X87000735Y-61589814D01*
X87000737Y-61589815D01*
X87000738Y-61589816D01*
X87153478Y-61685789D01*
X87323745Y-61745368D01*
X87503000Y-61765565D01*
X87682255Y-61745368D01*
X87852522Y-61685789D01*
X87897536Y-61657504D01*
X87964772Y-61638504D01*
X88031607Y-61658871D01*
X88076822Y-61712139D01*
X88086798Y-61749243D01*
X88089487Y-61774255D01*
X88090909Y-61787483D01*
X88141204Y-61922331D01*
X88157816Y-61944522D01*
X88168980Y-61959435D01*
X88193396Y-62024900D01*
X88193305Y-62027019D01*
X88202461Y-62037740D01*
X88243141Y-62049685D01*
X88250412Y-62054733D01*
X88287008Y-62082128D01*
X88342669Y-62123796D01*
X88342670Y-62123796D01*
X88351935Y-62130732D01*
X88393807Y-62186665D01*
X88398791Y-62256357D01*
X88365306Y-62317680D01*
X88352096Y-62329145D01*
X88351429Y-62329646D01*
X88286005Y-62354170D01*
X88276958Y-62354500D01*
X87595960Y-62354500D01*
X87588633Y-62353537D01*
X87507456Y-62354500D01*
X87474660Y-62354500D01*
X87472194Y-62354838D01*
X87469397Y-62354950D01*
X86249653Y-62369415D01*
X86182385Y-62350527D01*
X86160502Y-62333105D01*
X86100264Y-62272867D01*
X86031244Y-62229499D01*
X85947522Y-62176893D01*
X85777255Y-62117314D01*
X85777253Y-62117313D01*
X85777251Y-62117313D01*
X85598000Y-62097116D01*
X85418748Y-62117313D01*
X85418745Y-62117313D01*
X85418745Y-62117314D01*
X85248478Y-62176893D01*
X85248476Y-62176893D01*
X85248476Y-62176894D01*
X85095735Y-62272867D01*
X84968185Y-62400417D01*
X84881944Y-62537670D01*
X84872211Y-62553160D01*
X84822777Y-62694434D01*
X84812631Y-62723430D01*
X84792434Y-62902681D01*
X84324715Y-62902681D01*
X84321208Y-62853642D01*
X84354693Y-62792319D01*
X84368064Y-62780733D01*
X84469588Y-62704733D01*
X84518655Y-62686431D01*
X84531991Y-62670817D01*
X84536769Y-62633848D01*
X84551020Y-62609435D01*
X84578796Y-62572331D01*
X84629091Y-62437483D01*
X84635500Y-62377873D01*
X84635499Y-62082128D01*
X84629091Y-62022517D01*
X84601421Y-61948332D01*
X84596438Y-61878642D01*
X84601420Y-61861672D01*
X84629091Y-61787483D01*
X84635500Y-61727873D01*
X84635499Y-61432128D01*
X84629091Y-61372517D01*
X84578796Y-61237669D01*
X84551018Y-61200563D01*
X84526602Y-61135103D01*
X84526693Y-61132978D01*
X84517538Y-61122259D01*
X84476859Y-61110315D01*
X84469588Y-61105267D01*
X84368064Y-61029267D01*
X84326192Y-60973333D01*
X84321208Y-60903642D01*
X84354693Y-60842319D01*
X84368064Y-60830733D01*
X84378145Y-60823187D01*
X84399289Y-60807357D01*
X84469588Y-60754733D01*
X84518655Y-60736431D01*
X84531991Y-60720817D01*
X84536769Y-60683848D01*
X84551020Y-60659435D01*
X84578796Y-60622331D01*
X84629091Y-60487483D01*
X84635500Y-60427873D01*
X84635499Y-60132128D01*
X84629895Y-60080000D01*
X88195852Y-60080000D01*
X89022500Y-60080000D01*
X89022500Y-59780000D01*
X89422500Y-59780000D01*
X89422500Y-60080000D01*
X90249148Y-60080000D01*
X90245165Y-60054853D01*
X90187640Y-59941953D01*
X90098046Y-59852359D01*
X89985146Y-59794834D01*
X89891484Y-59780000D01*
X89422500Y-59780000D01*
X89022500Y-59780000D01*
X88553522Y-59780000D01*
X88459850Y-59794836D01*
X88346954Y-59852358D01*
X88257359Y-59941953D01*
X88199834Y-60054853D01*
X88195852Y-60080000D01*
X84629895Y-60080000D01*
X84629091Y-60072517D01*
X84578796Y-59937669D01*
X84492546Y-59822454D01*
X84377331Y-59736204D01*
X84242483Y-59685909D01*
X84182873Y-59679500D01*
X84179550Y-59679500D01*
X82815439Y-59679500D01*
X82815420Y-59679500D01*
X82812128Y-59679501D01*
X82808848Y-59679853D01*
X82808840Y-59679854D01*
X82752515Y-59685909D01*
X82617669Y-59736204D01*
X82502454Y-59822454D01*
X82416204Y-59937668D01*
X82365910Y-60072515D01*
X82365909Y-60072517D01*
X82359500Y-60132127D01*
X82359500Y-60135448D01*
X82359500Y-60135449D01*
X82359500Y-60424560D01*
X82359500Y-60424578D01*
X82359501Y-60427872D01*
X82359853Y-60431152D01*
X82359854Y-60431159D01*
X82365909Y-60487484D01*
X82389438Y-60550567D01*
X82416204Y-60622331D01*
X82441579Y-60656227D01*
X82443980Y-60659435D01*
X82468396Y-60724900D01*
X82468305Y-60727019D01*
X82477461Y-60737740D01*
X82518141Y-60749685D01*
X82525412Y-60754733D01*
X82558779Y-60779711D01*
X82617669Y-60823796D01*
X82617670Y-60823796D01*
X82626935Y-60830732D01*
X82668807Y-60886665D01*
X82673791Y-60956357D01*
X82640306Y-61017680D01*
X82627096Y-61029145D01*
X82626429Y-61029646D01*
X82561005Y-61054170D01*
X82551958Y-61054500D01*
X81922940Y-61054500D01*
X81855901Y-61034815D01*
X81835263Y-61018185D01*
X81782262Y-60965184D01*
X81629522Y-60869211D01*
X81459255Y-60809632D01*
X81459253Y-60809631D01*
X81459251Y-60809631D01*
X81280000Y-60789434D01*
X81100748Y-60809631D01*
X81100745Y-60809631D01*
X81100745Y-60809632D01*
X80930478Y-60869211D01*
X80930476Y-60869211D01*
X80930476Y-60869212D01*
X80777735Y-60965185D01*
X80650185Y-61092735D01*
X80559117Y-61237670D01*
X80554211Y-61245478D01*
X80509759Y-61372515D01*
X80494631Y-61415748D01*
X80474434Y-61595000D01*
X80494631Y-61774251D01*
X80494631Y-61774253D01*
X80494632Y-61774255D01*
X80554211Y-61944522D01*
X80576287Y-61979655D01*
X80650185Y-62097264D01*
X80777735Y-62224814D01*
X80777737Y-62224815D01*
X80777738Y-62224816D01*
X80930478Y-62320789D01*
X81100745Y-62380368D01*
X81280000Y-62400565D01*
X81459255Y-62380368D01*
X81629522Y-62320789D01*
X81782262Y-62224816D01*
X81865260Y-62141817D01*
X81926581Y-62108334D01*
X81952940Y-62105500D01*
X82235500Y-62105500D01*
X82302539Y-62125185D01*
X82348294Y-62177989D01*
X82359500Y-62229499D01*
X82359500Y-62374560D01*
X82359500Y-62374578D01*
X82359501Y-62377872D01*
X82359853Y-62381152D01*
X82359854Y-62381159D01*
X82365909Y-62437484D01*
X82375422Y-62462989D01*
X82416204Y-62572331D01*
X82441579Y-62606227D01*
X82443980Y-62609435D01*
X82468396Y-62674900D01*
X82468305Y-62677019D01*
X82477461Y-62687740D01*
X82518141Y-62699685D01*
X82525412Y-62704733D01*
X82562008Y-62732128D01*
X82617669Y-62773796D01*
X82617670Y-62773796D01*
X82626935Y-62780732D01*
X82668807Y-62836665D01*
X82673791Y-62906357D01*
X82640306Y-62967680D01*
X82627096Y-62979145D01*
X82626429Y-62979646D01*
X82561005Y-63004170D01*
X82551958Y-63004500D01*
X81967941Y-63004500D01*
X81900902Y-62984815D01*
X81880260Y-62968181D01*
X81782264Y-62870185D01*
X81708905Y-62824091D01*
X81629522Y-62774211D01*
X81459255Y-62714632D01*
X81459253Y-62714631D01*
X81459251Y-62714631D01*
X81280000Y-62694434D01*
X81100748Y-62714631D01*
X81100745Y-62714631D01*
X81100745Y-62714632D01*
X80930478Y-62774211D01*
X80930476Y-62774211D01*
X80930476Y-62774212D01*
X80777735Y-62870185D01*
X80650185Y-62997735D01*
X80554212Y-63150476D01*
X80554211Y-63150478D01*
X80494632Y-63320745D01*
X80494631Y-63320748D01*
X80474434Y-63500000D01*
X79575500Y-63500000D01*
X79575500Y-57802500D01*
X88510000Y-57802500D01*
X88510000Y-57929359D01*
X88510440Y-57936723D01*
X88520614Y-58021448D01*
X88576078Y-58162093D01*
X88667434Y-58282565D01*
X88787906Y-58373921D01*
X88928551Y-58429385D01*
X89013276Y-58439559D01*
X89020640Y-58440000D01*
X89285000Y-58440000D01*
X89285000Y-57802500D01*
X89785000Y-57802500D01*
X89785000Y-58440000D01*
X90049360Y-58440000D01*
X90056723Y-58439559D01*
X90141448Y-58429385D01*
X90282093Y-58373921D01*
X90402565Y-58282565D01*
X90493921Y-58162093D01*
X90549385Y-58021448D01*
X90559559Y-57936723D01*
X90560000Y-57929359D01*
X90560000Y-57802500D01*
X89785000Y-57802500D01*
X89285000Y-57802500D01*
X88510000Y-57802500D01*
X79575500Y-57802500D01*
X79575500Y-54613749D01*
X79575726Y-54606262D01*
X79576866Y-54587410D01*
X79592105Y-54335487D01*
X79593910Y-54320625D01*
X79642131Y-54057492D01*
X79645715Y-54042954D01*
X79665511Y-53979427D01*
X79725299Y-53787559D01*
X79730601Y-53773578D01*
X79840401Y-53529611D01*
X79847352Y-53516366D01*
X79985757Y-53287417D01*
X79994244Y-53275121D01*
X80159242Y-53064517D01*
X80169157Y-53053326D01*
X80358326Y-52864157D01*
X80369517Y-52854242D01*
X80580121Y-52689244D01*
X80592417Y-52680757D01*
X80821366Y-52542352D01*
X80834611Y-52535401D01*
X81078578Y-52425601D01*
X81092559Y-52420299D01*
X81347959Y-52340713D01*
X81362488Y-52337131D01*
X81625629Y-52288909D01*
X81640487Y-52287105D01*
X81911263Y-52270726D01*
X81918751Y-52270500D01*
X81954882Y-52270500D01*
X88680360Y-52270500D01*
X88747399Y-52290185D01*
G37*
G04 #@! TD.AperFunction*
G04 #@! TA.AperFunction,Conductor*
G36*
X110214313Y-57301095D02*
G01*
X110268191Y-57345580D01*
X110289465Y-57412132D01*
X110289500Y-57415083D01*
X110289500Y-61904916D01*
X110269815Y-61971955D01*
X110217011Y-62017710D01*
X110147853Y-62027654D01*
X110084297Y-61998629D01*
X110046523Y-61939851D01*
X110045725Y-61937010D01*
X110005659Y-61787484D01*
X109999903Y-61766001D01*
X109906425Y-61565536D01*
X109779556Y-61384348D01*
X109623152Y-61227944D01*
X109447952Y-61105267D01*
X109441961Y-61101072D01*
X109353838Y-61059981D01*
X109301398Y-61013809D01*
X109282246Y-60946616D01*
X109302461Y-60879735D01*
X109355627Y-60834400D01*
X109406242Y-60823599D01*
X109712314Y-60823599D01*
X109719435Y-60823187D01*
X109740976Y-60820689D01*
X109843579Y-60775386D01*
X109922885Y-60696080D01*
X109968190Y-60593474D01*
X109970688Y-60571940D01*
X109971100Y-60564819D01*
X109971100Y-59910000D01*
X109250696Y-59910000D01*
X109274345Y-59873201D01*
X109315500Y-59733039D01*
X109315500Y-59586961D01*
X109274345Y-59446799D01*
X109250696Y-59410000D01*
X109971099Y-59410000D01*
X109971099Y-58755186D01*
X109970687Y-58748064D01*
X109968189Y-58726523D01*
X109922886Y-58623920D01*
X109843580Y-58544614D01*
X109740974Y-58499309D01*
X109719440Y-58496811D01*
X109712319Y-58496400D01*
X109406244Y-58496400D01*
X109339205Y-58476715D01*
X109293450Y-58423911D01*
X109283506Y-58354753D01*
X109312531Y-58291197D01*
X109353840Y-58260018D01*
X109354137Y-58259879D01*
X109441965Y-58218925D01*
X109623152Y-58092056D01*
X109779556Y-57935652D01*
X109906425Y-57754465D01*
X109999903Y-57553999D01*
X110045725Y-57382988D01*
X110082090Y-57323329D01*
X110144937Y-57292800D01*
X110214313Y-57301095D01*
G37*
G04 #@! TD.AperFunction*
G04 #@! TD*
M02*
