G04 #@! TF.GenerationSoftware,KiCad,Pcbnew,7.0.2*
G04 #@! TF.CreationDate,2023-04-27T12:09:37-07:00*
G04 #@! TF.ProjectId,Flamingo Nano 33 BLE Rev 2,466c616d-696e-4676-9f20-4e616e6f2033,rev?*
G04 #@! TF.SameCoordinates,Original*
G04 #@! TF.FileFunction,Legend,Bot*
G04 #@! TF.FilePolarity,Positive*
%FSLAX46Y46*%
G04 Gerber Fmt 4.6, Leading zero omitted, Abs format (unit mm)*
G04 Created by KiCad (PCBNEW 7.0.2) date 2023-04-27 12:09:37*
%MOMM*%
%LPD*%
G01*
G04 APERTURE LIST*
%ADD10C,0.153000*%
%ADD11C,0.010000*%
%ADD12R,2.100000X2.100000*%
%ADD13C,2.100000*%
%ADD14C,1.727200*%
%ADD15R,1.727200X1.727200*%
G04 APERTURE END LIST*
D10*
X86534714Y-85094619D02*
X87010904Y-85094619D01*
X87010904Y-85094619D02*
X87010904Y-84094619D01*
X86201380Y-84570809D02*
X85868047Y-84570809D01*
X85725190Y-85094619D02*
X86201380Y-85094619D01*
X86201380Y-85094619D02*
X86201380Y-84094619D01*
X86201380Y-84094619D02*
X85725190Y-84094619D01*
X85296618Y-85094619D02*
X85296618Y-84094619D01*
X85296618Y-84094619D02*
X85058523Y-84094619D01*
X85058523Y-84094619D02*
X84915666Y-84142238D01*
X84915666Y-84142238D02*
X84820428Y-84237476D01*
X84820428Y-84237476D02*
X84772809Y-84332714D01*
X84772809Y-84332714D02*
X84725190Y-84523190D01*
X84725190Y-84523190D02*
X84725190Y-84666047D01*
X84725190Y-84666047D02*
X84772809Y-84856523D01*
X84772809Y-84856523D02*
X84820428Y-84951761D01*
X84820428Y-84951761D02*
X84915666Y-85047000D01*
X84915666Y-85047000D02*
X85058523Y-85094619D01*
X85058523Y-85094619D02*
X85296618Y-85094619D01*
X84344237Y-85047000D02*
X84248999Y-85094619D01*
X84248999Y-85094619D02*
X84058523Y-85094619D01*
X84058523Y-85094619D02*
X83963285Y-85047000D01*
X83963285Y-85047000D02*
X83915666Y-84951761D01*
X83915666Y-84951761D02*
X83915666Y-84904142D01*
X83915666Y-84904142D02*
X83963285Y-84808904D01*
X83963285Y-84808904D02*
X84058523Y-84761285D01*
X84058523Y-84761285D02*
X84201380Y-84761285D01*
X84201380Y-84761285D02*
X84296618Y-84713666D01*
X84296618Y-84713666D02*
X84344237Y-84618428D01*
X84344237Y-84618428D02*
X84344237Y-84570809D01*
X84344237Y-84570809D02*
X84296618Y-84475571D01*
X84296618Y-84475571D02*
X84201380Y-84427952D01*
X84201380Y-84427952D02*
X84058523Y-84427952D01*
X84058523Y-84427952D02*
X83963285Y-84475571D01*
X90106571Y-89269809D02*
X89963714Y-89317428D01*
X89963714Y-89317428D02*
X89916095Y-89365047D01*
X89916095Y-89365047D02*
X89868476Y-89460285D01*
X89868476Y-89460285D02*
X89868476Y-89603142D01*
X89868476Y-89603142D02*
X89916095Y-89698380D01*
X89916095Y-89698380D02*
X89963714Y-89746000D01*
X89963714Y-89746000D02*
X90058952Y-89793619D01*
X90058952Y-89793619D02*
X90439904Y-89793619D01*
X90439904Y-89793619D02*
X90439904Y-88793619D01*
X90439904Y-88793619D02*
X90106571Y-88793619D01*
X90106571Y-88793619D02*
X90011333Y-88841238D01*
X90011333Y-88841238D02*
X89963714Y-88888857D01*
X89963714Y-88888857D02*
X89916095Y-88984095D01*
X89916095Y-88984095D02*
X89916095Y-89079333D01*
X89916095Y-89079333D02*
X89963714Y-89174571D01*
X89963714Y-89174571D02*
X90011333Y-89222190D01*
X90011333Y-89222190D02*
X90106571Y-89269809D01*
X90106571Y-89269809D02*
X90439904Y-89269809D01*
X89011333Y-89126952D02*
X89011333Y-89793619D01*
X89439904Y-89126952D02*
X89439904Y-89650761D01*
X89439904Y-89650761D02*
X89392285Y-89746000D01*
X89392285Y-89746000D02*
X89297047Y-89793619D01*
X89297047Y-89793619D02*
X89154190Y-89793619D01*
X89154190Y-89793619D02*
X89058952Y-89746000D01*
X89058952Y-89746000D02*
X89011333Y-89698380D01*
X88677999Y-89126952D02*
X88297047Y-89126952D01*
X88535142Y-88793619D02*
X88535142Y-89650761D01*
X88535142Y-89650761D02*
X88487523Y-89746000D01*
X88487523Y-89746000D02*
X88392285Y-89793619D01*
X88392285Y-89793619D02*
X88297047Y-89793619D01*
X88106570Y-89126952D02*
X87725618Y-89126952D01*
X87963713Y-88793619D02*
X87963713Y-89650761D01*
X87963713Y-89650761D02*
X87916094Y-89746000D01*
X87916094Y-89746000D02*
X87820856Y-89793619D01*
X87820856Y-89793619D02*
X87725618Y-89793619D01*
X87249427Y-89793619D02*
X87344665Y-89746000D01*
X87344665Y-89746000D02*
X87392284Y-89698380D01*
X87392284Y-89698380D02*
X87439903Y-89603142D01*
X87439903Y-89603142D02*
X87439903Y-89317428D01*
X87439903Y-89317428D02*
X87392284Y-89222190D01*
X87392284Y-89222190D02*
X87344665Y-89174571D01*
X87344665Y-89174571D02*
X87249427Y-89126952D01*
X87249427Y-89126952D02*
X87106570Y-89126952D01*
X87106570Y-89126952D02*
X87011332Y-89174571D01*
X87011332Y-89174571D02*
X86963713Y-89222190D01*
X86963713Y-89222190D02*
X86916094Y-89317428D01*
X86916094Y-89317428D02*
X86916094Y-89603142D01*
X86916094Y-89603142D02*
X86963713Y-89698380D01*
X86963713Y-89698380D02*
X87011332Y-89746000D01*
X87011332Y-89746000D02*
X87106570Y-89793619D01*
X87106570Y-89793619D02*
X87249427Y-89793619D01*
X86487522Y-89126952D02*
X86487522Y-89793619D01*
X86487522Y-89222190D02*
X86439903Y-89174571D01*
X86439903Y-89174571D02*
X86344665Y-89126952D01*
X86344665Y-89126952D02*
X86201808Y-89126952D01*
X86201808Y-89126952D02*
X86106570Y-89174571D01*
X86106570Y-89174571D02*
X86058951Y-89269809D01*
X86058951Y-89269809D02*
X86058951Y-89793619D01*
X84487522Y-89269809D02*
X84344665Y-89317428D01*
X84344665Y-89317428D02*
X84297046Y-89365047D01*
X84297046Y-89365047D02*
X84249427Y-89460285D01*
X84249427Y-89460285D02*
X84249427Y-89603142D01*
X84249427Y-89603142D02*
X84297046Y-89698380D01*
X84297046Y-89698380D02*
X84344665Y-89746000D01*
X84344665Y-89746000D02*
X84439903Y-89793619D01*
X84439903Y-89793619D02*
X84820855Y-89793619D01*
X84820855Y-89793619D02*
X84820855Y-88793619D01*
X84820855Y-88793619D02*
X84487522Y-88793619D01*
X84487522Y-88793619D02*
X84392284Y-88841238D01*
X84392284Y-88841238D02*
X84344665Y-88888857D01*
X84344665Y-88888857D02*
X84297046Y-88984095D01*
X84297046Y-88984095D02*
X84297046Y-89079333D01*
X84297046Y-89079333D02*
X84344665Y-89174571D01*
X84344665Y-89174571D02*
X84392284Y-89222190D01*
X84392284Y-89222190D02*
X84487522Y-89269809D01*
X84487522Y-89269809D02*
X84820855Y-89269809D01*
X83677998Y-89793619D02*
X83773236Y-89746000D01*
X83773236Y-89746000D02*
X83820855Y-89698380D01*
X83820855Y-89698380D02*
X83868474Y-89603142D01*
X83868474Y-89603142D02*
X83868474Y-89317428D01*
X83868474Y-89317428D02*
X83820855Y-89222190D01*
X83820855Y-89222190D02*
X83773236Y-89174571D01*
X83773236Y-89174571D02*
X83677998Y-89126952D01*
X83677998Y-89126952D02*
X83535141Y-89126952D01*
X83535141Y-89126952D02*
X83439903Y-89174571D01*
X83439903Y-89174571D02*
X83392284Y-89222190D01*
X83392284Y-89222190D02*
X83344665Y-89317428D01*
X83344665Y-89317428D02*
X83344665Y-89603142D01*
X83344665Y-89603142D02*
X83392284Y-89698380D01*
X83392284Y-89698380D02*
X83439903Y-89746000D01*
X83439903Y-89746000D02*
X83535141Y-89793619D01*
X83535141Y-89793619D02*
X83677998Y-89793619D01*
X82487522Y-89793619D02*
X82487522Y-89269809D01*
X82487522Y-89269809D02*
X82535141Y-89174571D01*
X82535141Y-89174571D02*
X82630379Y-89126952D01*
X82630379Y-89126952D02*
X82820855Y-89126952D01*
X82820855Y-89126952D02*
X82916093Y-89174571D01*
X82487522Y-89746000D02*
X82582760Y-89793619D01*
X82582760Y-89793619D02*
X82820855Y-89793619D01*
X82820855Y-89793619D02*
X82916093Y-89746000D01*
X82916093Y-89746000D02*
X82963712Y-89650761D01*
X82963712Y-89650761D02*
X82963712Y-89555523D01*
X82963712Y-89555523D02*
X82916093Y-89460285D01*
X82916093Y-89460285D02*
X82820855Y-89412666D01*
X82820855Y-89412666D02*
X82582760Y-89412666D01*
X82582760Y-89412666D02*
X82487522Y-89365047D01*
X82011331Y-89793619D02*
X82011331Y-89126952D01*
X82011331Y-89317428D02*
X81963712Y-89222190D01*
X81963712Y-89222190D02*
X81916093Y-89174571D01*
X81916093Y-89174571D02*
X81820855Y-89126952D01*
X81820855Y-89126952D02*
X81725617Y-89126952D01*
X80963712Y-89793619D02*
X80963712Y-88793619D01*
X80963712Y-89746000D02*
X81058950Y-89793619D01*
X81058950Y-89793619D02*
X81249426Y-89793619D01*
X81249426Y-89793619D02*
X81344664Y-89746000D01*
X81344664Y-89746000D02*
X81392283Y-89698380D01*
X81392283Y-89698380D02*
X81439902Y-89603142D01*
X81439902Y-89603142D02*
X81439902Y-89317428D01*
X81439902Y-89317428D02*
X81392283Y-89222190D01*
X81392283Y-89222190D02*
X81344664Y-89174571D01*
X81344664Y-89174571D02*
X81249426Y-89126952D01*
X81249426Y-89126952D02*
X81058950Y-89126952D01*
X81058950Y-89126952D02*
X80963712Y-89174571D01*
X84383571Y-93664809D02*
X84240714Y-93712428D01*
X84240714Y-93712428D02*
X84193095Y-93760047D01*
X84193095Y-93760047D02*
X84145476Y-93855285D01*
X84145476Y-93855285D02*
X84145476Y-93998142D01*
X84145476Y-93998142D02*
X84193095Y-94093380D01*
X84193095Y-94093380D02*
X84240714Y-94141000D01*
X84240714Y-94141000D02*
X84335952Y-94188619D01*
X84335952Y-94188619D02*
X84716904Y-94188619D01*
X84716904Y-94188619D02*
X84716904Y-93188619D01*
X84716904Y-93188619D02*
X84383571Y-93188619D01*
X84383571Y-93188619D02*
X84288333Y-93236238D01*
X84288333Y-93236238D02*
X84240714Y-93283857D01*
X84240714Y-93283857D02*
X84193095Y-93379095D01*
X84193095Y-93379095D02*
X84193095Y-93474333D01*
X84193095Y-93474333D02*
X84240714Y-93569571D01*
X84240714Y-93569571D02*
X84288333Y-93617190D01*
X84288333Y-93617190D02*
X84383571Y-93664809D01*
X84383571Y-93664809D02*
X84716904Y-93664809D01*
X87233094Y-93902904D02*
X86756904Y-93902904D01*
X87328332Y-94188619D02*
X86994999Y-93188619D01*
X86994999Y-93188619D02*
X86661666Y-94188619D01*
X89273095Y-93236238D02*
X89368333Y-93188619D01*
X89368333Y-93188619D02*
X89511190Y-93188619D01*
X89511190Y-93188619D02*
X89654047Y-93236238D01*
X89654047Y-93236238D02*
X89749285Y-93331476D01*
X89749285Y-93331476D02*
X89796904Y-93426714D01*
X89796904Y-93426714D02*
X89844523Y-93617190D01*
X89844523Y-93617190D02*
X89844523Y-93760047D01*
X89844523Y-93760047D02*
X89796904Y-93950523D01*
X89796904Y-93950523D02*
X89749285Y-94045761D01*
X89749285Y-94045761D02*
X89654047Y-94141000D01*
X89654047Y-94141000D02*
X89511190Y-94188619D01*
X89511190Y-94188619D02*
X89415952Y-94188619D01*
X89415952Y-94188619D02*
X89273095Y-94141000D01*
X89273095Y-94141000D02*
X89225476Y-94093380D01*
X89225476Y-94093380D02*
X89225476Y-93760047D01*
X89225476Y-93760047D02*
X89415952Y-93760047D01*
X81605476Y-94093380D02*
X81653095Y-94141000D01*
X81653095Y-94141000D02*
X81795952Y-94188619D01*
X81795952Y-94188619D02*
X81891190Y-94188619D01*
X81891190Y-94188619D02*
X82034047Y-94141000D01*
X82034047Y-94141000D02*
X82129285Y-94045761D01*
X82129285Y-94045761D02*
X82176904Y-93950523D01*
X82176904Y-93950523D02*
X82224523Y-93760047D01*
X82224523Y-93760047D02*
X82224523Y-93617190D01*
X82224523Y-93617190D02*
X82176904Y-93426714D01*
X82176904Y-93426714D02*
X82129285Y-93331476D01*
X82129285Y-93331476D02*
X82034047Y-93236238D01*
X82034047Y-93236238D02*
X81891190Y-93188619D01*
X81891190Y-93188619D02*
X81795952Y-93188619D01*
X81795952Y-93188619D02*
X81653095Y-93236238D01*
X81653095Y-93236238D02*
X81605476Y-93283857D01*
X84716904Y-80853619D02*
X84716904Y-79853619D01*
X84716904Y-79853619D02*
X84478809Y-79853619D01*
X84478809Y-79853619D02*
X84335952Y-79901238D01*
X84335952Y-79901238D02*
X84240714Y-79996476D01*
X84240714Y-79996476D02*
X84193095Y-80091714D01*
X84193095Y-80091714D02*
X84145476Y-80282190D01*
X84145476Y-80282190D02*
X84145476Y-80425047D01*
X84145476Y-80425047D02*
X84193095Y-80615523D01*
X84193095Y-80615523D02*
X84240714Y-80710761D01*
X84240714Y-80710761D02*
X84335952Y-80806000D01*
X84335952Y-80806000D02*
X84478809Y-80853619D01*
X84478809Y-80853619D02*
X84716904Y-80853619D01*
X81653095Y-79901238D02*
X81748333Y-79853619D01*
X81748333Y-79853619D02*
X81891190Y-79853619D01*
X81891190Y-79853619D02*
X82034047Y-79901238D01*
X82034047Y-79901238D02*
X82129285Y-79996476D01*
X82129285Y-79996476D02*
X82176904Y-80091714D01*
X82176904Y-80091714D02*
X82224523Y-80282190D01*
X82224523Y-80282190D02*
X82224523Y-80425047D01*
X82224523Y-80425047D02*
X82176904Y-80615523D01*
X82176904Y-80615523D02*
X82129285Y-80710761D01*
X82129285Y-80710761D02*
X82034047Y-80806000D01*
X82034047Y-80806000D02*
X81891190Y-80853619D01*
X81891190Y-80853619D02*
X81795952Y-80853619D01*
X81795952Y-80853619D02*
X81653095Y-80806000D01*
X81653095Y-80806000D02*
X81605476Y-80758380D01*
X81605476Y-80758380D02*
X81605476Y-80425047D01*
X81605476Y-80425047D02*
X81795952Y-80425047D01*
X86685476Y-80758380D02*
X86733095Y-80806000D01*
X86733095Y-80806000D02*
X86875952Y-80853619D01*
X86875952Y-80853619D02*
X86971190Y-80853619D01*
X86971190Y-80853619D02*
X87114047Y-80806000D01*
X87114047Y-80806000D02*
X87209285Y-80710761D01*
X87209285Y-80710761D02*
X87256904Y-80615523D01*
X87256904Y-80615523D02*
X87304523Y-80425047D01*
X87304523Y-80425047D02*
X87304523Y-80282190D01*
X87304523Y-80282190D02*
X87256904Y-80091714D01*
X87256904Y-80091714D02*
X87209285Y-79996476D01*
X87209285Y-79996476D02*
X87114047Y-79901238D01*
X87114047Y-79901238D02*
X86971190Y-79853619D01*
X86971190Y-79853619D02*
X86875952Y-79853619D01*
X86875952Y-79853619D02*
X86733095Y-79901238D01*
X86733095Y-79901238D02*
X86685476Y-79948857D01*
X89296904Y-79853619D02*
X89773094Y-79853619D01*
X89773094Y-79853619D02*
X89820713Y-80329809D01*
X89820713Y-80329809D02*
X89773094Y-80282190D01*
X89773094Y-80282190D02*
X89677856Y-80234571D01*
X89677856Y-80234571D02*
X89439761Y-80234571D01*
X89439761Y-80234571D02*
X89344523Y-80282190D01*
X89344523Y-80282190D02*
X89296904Y-80329809D01*
X89296904Y-80329809D02*
X89249285Y-80425047D01*
X89249285Y-80425047D02*
X89249285Y-80663142D01*
X89249285Y-80663142D02*
X89296904Y-80758380D01*
X89296904Y-80758380D02*
X89344523Y-80806000D01*
X89344523Y-80806000D02*
X89439761Y-80853619D01*
X89439761Y-80853619D02*
X89677856Y-80853619D01*
X89677856Y-80853619D02*
X89773094Y-80806000D01*
X89773094Y-80806000D02*
X89820713Y-80758380D01*
X96202571Y-72328809D02*
X96059714Y-72376428D01*
X96059714Y-72376428D02*
X96012095Y-72424047D01*
X96012095Y-72424047D02*
X95964476Y-72519285D01*
X95964476Y-72519285D02*
X95964476Y-72662142D01*
X95964476Y-72662142D02*
X96012095Y-72757380D01*
X96012095Y-72757380D02*
X96059714Y-72805000D01*
X96059714Y-72805000D02*
X96154952Y-72852619D01*
X96154952Y-72852619D02*
X96535904Y-72852619D01*
X96535904Y-72852619D02*
X96535904Y-71852619D01*
X96535904Y-71852619D02*
X96202571Y-71852619D01*
X96202571Y-71852619D02*
X96107333Y-71900238D01*
X96107333Y-71900238D02*
X96059714Y-71947857D01*
X96059714Y-71947857D02*
X96012095Y-72043095D01*
X96012095Y-72043095D02*
X96012095Y-72138333D01*
X96012095Y-72138333D02*
X96059714Y-72233571D01*
X96059714Y-72233571D02*
X96107333Y-72281190D01*
X96107333Y-72281190D02*
X96202571Y-72328809D01*
X96202571Y-72328809D02*
X96535904Y-72328809D01*
X95631142Y-71852619D02*
X95012095Y-71852619D01*
X95012095Y-71852619D02*
X95345428Y-72233571D01*
X95345428Y-72233571D02*
X95202571Y-72233571D01*
X95202571Y-72233571D02*
X95107333Y-72281190D01*
X95107333Y-72281190D02*
X95059714Y-72328809D01*
X95059714Y-72328809D02*
X95012095Y-72424047D01*
X95012095Y-72424047D02*
X95012095Y-72662142D01*
X95012095Y-72662142D02*
X95059714Y-72757380D01*
X95059714Y-72757380D02*
X95107333Y-72805000D01*
X95107333Y-72805000D02*
X95202571Y-72852619D01*
X95202571Y-72852619D02*
X95488285Y-72852619D01*
X95488285Y-72852619D02*
X95583523Y-72805000D01*
X95583523Y-72805000D02*
X95631142Y-72757380D01*
X96202571Y-69788809D02*
X96059714Y-69836428D01*
X96059714Y-69836428D02*
X96012095Y-69884047D01*
X96012095Y-69884047D02*
X95964476Y-69979285D01*
X95964476Y-69979285D02*
X95964476Y-70122142D01*
X95964476Y-70122142D02*
X96012095Y-70217380D01*
X96012095Y-70217380D02*
X96059714Y-70265000D01*
X96059714Y-70265000D02*
X96154952Y-70312619D01*
X96154952Y-70312619D02*
X96535904Y-70312619D01*
X96535904Y-70312619D02*
X96535904Y-69312619D01*
X96535904Y-69312619D02*
X96202571Y-69312619D01*
X96202571Y-69312619D02*
X96107333Y-69360238D01*
X96107333Y-69360238D02*
X96059714Y-69407857D01*
X96059714Y-69407857D02*
X96012095Y-69503095D01*
X96012095Y-69503095D02*
X96012095Y-69598333D01*
X96012095Y-69598333D02*
X96059714Y-69693571D01*
X96059714Y-69693571D02*
X96107333Y-69741190D01*
X96107333Y-69741190D02*
X96202571Y-69788809D01*
X96202571Y-69788809D02*
X96535904Y-69788809D01*
X95583523Y-69407857D02*
X95535904Y-69360238D01*
X95535904Y-69360238D02*
X95440666Y-69312619D01*
X95440666Y-69312619D02*
X95202571Y-69312619D01*
X95202571Y-69312619D02*
X95107333Y-69360238D01*
X95107333Y-69360238D02*
X95059714Y-69407857D01*
X95059714Y-69407857D02*
X95012095Y-69503095D01*
X95012095Y-69503095D02*
X95012095Y-69598333D01*
X95012095Y-69598333D02*
X95059714Y-69741190D01*
X95059714Y-69741190D02*
X95631142Y-70312619D01*
X95631142Y-70312619D02*
X95012095Y-70312619D01*
X96202571Y-67248809D02*
X96059714Y-67296428D01*
X96059714Y-67296428D02*
X96012095Y-67344047D01*
X96012095Y-67344047D02*
X95964476Y-67439285D01*
X95964476Y-67439285D02*
X95964476Y-67582142D01*
X95964476Y-67582142D02*
X96012095Y-67677380D01*
X96012095Y-67677380D02*
X96059714Y-67725000D01*
X96059714Y-67725000D02*
X96154952Y-67772619D01*
X96154952Y-67772619D02*
X96535904Y-67772619D01*
X96535904Y-67772619D02*
X96535904Y-66772619D01*
X96535904Y-66772619D02*
X96202571Y-66772619D01*
X96202571Y-66772619D02*
X96107333Y-66820238D01*
X96107333Y-66820238D02*
X96059714Y-66867857D01*
X96059714Y-66867857D02*
X96012095Y-66963095D01*
X96012095Y-66963095D02*
X96012095Y-67058333D01*
X96012095Y-67058333D02*
X96059714Y-67153571D01*
X96059714Y-67153571D02*
X96107333Y-67201190D01*
X96107333Y-67201190D02*
X96202571Y-67248809D01*
X96202571Y-67248809D02*
X96535904Y-67248809D01*
X95012095Y-67772619D02*
X95583523Y-67772619D01*
X95297809Y-67772619D02*
X95297809Y-66772619D01*
X95297809Y-66772619D02*
X95393047Y-66915476D01*
X95393047Y-66915476D02*
X95488285Y-67010714D01*
X95488285Y-67010714D02*
X95583523Y-67058333D01*
X101361904Y-90632619D02*
X101361904Y-89632619D01*
X101361904Y-89632619D02*
X101123809Y-89632619D01*
X101123809Y-89632619D02*
X100980952Y-89680238D01*
X100980952Y-89680238D02*
X100885714Y-89775476D01*
X100885714Y-89775476D02*
X100838095Y-89870714D01*
X100838095Y-89870714D02*
X100790476Y-90061190D01*
X100790476Y-90061190D02*
X100790476Y-90204047D01*
X100790476Y-90204047D02*
X100838095Y-90394523D01*
X100838095Y-90394523D02*
X100885714Y-90489761D01*
X100885714Y-90489761D02*
X100980952Y-90585000D01*
X100980952Y-90585000D02*
X101123809Y-90632619D01*
X101123809Y-90632619D02*
X101361904Y-90632619D01*
X99838095Y-90632619D02*
X100409523Y-90632619D01*
X100123809Y-90632619D02*
X100123809Y-89632619D01*
X100123809Y-89632619D02*
X100219047Y-89775476D01*
X100219047Y-89775476D02*
X100314285Y-89870714D01*
X100314285Y-89870714D02*
X100409523Y-89918333D01*
X98885714Y-90632619D02*
X99457142Y-90632619D01*
X99171428Y-90632619D02*
X99171428Y-89632619D01*
X99171428Y-89632619D02*
X99266666Y-89775476D01*
X99266666Y-89775476D02*
X99361904Y-89870714D01*
X99361904Y-89870714D02*
X99457142Y-89918333D01*
X97742857Y-89585000D02*
X98599999Y-90870714D01*
X97409523Y-90632619D02*
X97409523Y-89632619D01*
X97409523Y-89632619D02*
X97171428Y-89632619D01*
X97171428Y-89632619D02*
X97028571Y-89680238D01*
X97028571Y-89680238D02*
X96933333Y-89775476D01*
X96933333Y-89775476D02*
X96885714Y-89870714D01*
X96885714Y-89870714D02*
X96838095Y-90061190D01*
X96838095Y-90061190D02*
X96838095Y-90204047D01*
X96838095Y-90204047D02*
X96885714Y-90394523D01*
X96885714Y-90394523D02*
X96933333Y-90489761D01*
X96933333Y-90489761D02*
X97028571Y-90585000D01*
X97028571Y-90585000D02*
X97171428Y-90632619D01*
X97171428Y-90632619D02*
X97409523Y-90632619D01*
X96457142Y-90346904D02*
X95980952Y-90346904D01*
X96552380Y-90632619D02*
X96219047Y-89632619D01*
X96219047Y-89632619D02*
X95885714Y-90632619D01*
X95695237Y-89632619D02*
X95123809Y-89632619D01*
X95409523Y-90632619D02*
X95409523Y-89632619D01*
X106949904Y-93172619D02*
X106949904Y-92172619D01*
X106949904Y-92172619D02*
X106711809Y-92172619D01*
X106711809Y-92172619D02*
X106568952Y-92220238D01*
X106568952Y-92220238D02*
X106473714Y-92315476D01*
X106473714Y-92315476D02*
X106426095Y-92410714D01*
X106426095Y-92410714D02*
X106378476Y-92601190D01*
X106378476Y-92601190D02*
X106378476Y-92744047D01*
X106378476Y-92744047D02*
X106426095Y-92934523D01*
X106426095Y-92934523D02*
X106473714Y-93029761D01*
X106473714Y-93029761D02*
X106568952Y-93125000D01*
X106568952Y-93125000D02*
X106711809Y-93172619D01*
X106711809Y-93172619D02*
X106949904Y-93172619D01*
X105426095Y-93172619D02*
X105997523Y-93172619D01*
X105711809Y-93172619D02*
X105711809Y-92172619D01*
X105711809Y-92172619D02*
X105807047Y-92315476D01*
X105807047Y-92315476D02*
X105902285Y-92410714D01*
X105902285Y-92410714D02*
X105997523Y-92458333D01*
X105092761Y-92172619D02*
X104473714Y-92172619D01*
X104473714Y-92172619D02*
X104807047Y-92553571D01*
X104807047Y-92553571D02*
X104664190Y-92553571D01*
X104664190Y-92553571D02*
X104568952Y-92601190D01*
X104568952Y-92601190D02*
X104521333Y-92648809D01*
X104521333Y-92648809D02*
X104473714Y-92744047D01*
X104473714Y-92744047D02*
X104473714Y-92982142D01*
X104473714Y-92982142D02*
X104521333Y-93077380D01*
X104521333Y-93077380D02*
X104568952Y-93125000D01*
X104568952Y-93125000D02*
X104664190Y-93172619D01*
X104664190Y-93172619D02*
X104949904Y-93172619D01*
X104949904Y-93172619D02*
X105045142Y-93125000D01*
X105045142Y-93125000D02*
X105092761Y-93077380D01*
X103330857Y-92125000D02*
X104187999Y-93410714D01*
X102426095Y-93077380D02*
X102473714Y-93125000D01*
X102473714Y-93125000D02*
X102616571Y-93172619D01*
X102616571Y-93172619D02*
X102711809Y-93172619D01*
X102711809Y-93172619D02*
X102854666Y-93125000D01*
X102854666Y-93125000D02*
X102949904Y-93029761D01*
X102949904Y-93029761D02*
X102997523Y-92934523D01*
X102997523Y-92934523D02*
X103045142Y-92744047D01*
X103045142Y-92744047D02*
X103045142Y-92601190D01*
X103045142Y-92601190D02*
X102997523Y-92410714D01*
X102997523Y-92410714D02*
X102949904Y-92315476D01*
X102949904Y-92315476D02*
X102854666Y-92220238D01*
X102854666Y-92220238D02*
X102711809Y-92172619D01*
X102711809Y-92172619D02*
X102616571Y-92172619D01*
X102616571Y-92172619D02*
X102473714Y-92220238D01*
X102473714Y-92220238D02*
X102426095Y-92267857D01*
X101521333Y-93172619D02*
X101997523Y-93172619D01*
X101997523Y-93172619D02*
X101997523Y-92172619D01*
X101187999Y-93172619D02*
X101187999Y-92172619D01*
X100616571Y-93172619D02*
X101045142Y-92601190D01*
X100616571Y-92172619D02*
X101187999Y-92744047D01*
X98712380Y-66214523D02*
X98760000Y-66166904D01*
X98760000Y-66166904D02*
X98807619Y-66024047D01*
X98807619Y-66024047D02*
X98807619Y-65928809D01*
X98807619Y-65928809D02*
X98760000Y-65785952D01*
X98760000Y-65785952D02*
X98664761Y-65690714D01*
X98664761Y-65690714D02*
X98569523Y-65643095D01*
X98569523Y-65643095D02*
X98379047Y-65595476D01*
X98379047Y-65595476D02*
X98236190Y-65595476D01*
X98236190Y-65595476D02*
X98045714Y-65643095D01*
X98045714Y-65643095D02*
X97950476Y-65690714D01*
X97950476Y-65690714D02*
X97855238Y-65785952D01*
X97855238Y-65785952D02*
X97807619Y-65928809D01*
X97807619Y-65928809D02*
X97807619Y-66024047D01*
X97807619Y-66024047D02*
X97855238Y-66166904D01*
X97855238Y-66166904D02*
X97902857Y-66214523D01*
X98807619Y-67071666D02*
X98283809Y-67071666D01*
X98283809Y-67071666D02*
X98188571Y-67024047D01*
X98188571Y-67024047D02*
X98140952Y-66928809D01*
X98140952Y-66928809D02*
X98140952Y-66738333D01*
X98140952Y-66738333D02*
X98188571Y-66643095D01*
X98760000Y-67071666D02*
X98807619Y-66976428D01*
X98807619Y-66976428D02*
X98807619Y-66738333D01*
X98807619Y-66738333D02*
X98760000Y-66643095D01*
X98760000Y-66643095D02*
X98664761Y-66595476D01*
X98664761Y-66595476D02*
X98569523Y-66595476D01*
X98569523Y-66595476D02*
X98474285Y-66643095D01*
X98474285Y-66643095D02*
X98426666Y-66738333D01*
X98426666Y-66738333D02*
X98426666Y-66976428D01*
X98426666Y-66976428D02*
X98379047Y-67071666D01*
X98807619Y-67547857D02*
X98140952Y-67547857D01*
X98331428Y-67547857D02*
X98236190Y-67595476D01*
X98236190Y-67595476D02*
X98188571Y-67643095D01*
X98188571Y-67643095D02*
X98140952Y-67738333D01*
X98140952Y-67738333D02*
X98140952Y-67833571D01*
X98807619Y-68166905D02*
X98140952Y-68166905D01*
X98331428Y-68166905D02*
X98236190Y-68214524D01*
X98236190Y-68214524D02*
X98188571Y-68262143D01*
X98188571Y-68262143D02*
X98140952Y-68357381D01*
X98140952Y-68357381D02*
X98140952Y-68452619D01*
X98807619Y-68785953D02*
X98140952Y-68785953D01*
X97807619Y-68785953D02*
X97855238Y-68738334D01*
X97855238Y-68738334D02*
X97902857Y-68785953D01*
X97902857Y-68785953D02*
X97855238Y-68833572D01*
X97855238Y-68833572D02*
X97807619Y-68785953D01*
X97807619Y-68785953D02*
X97902857Y-68785953D01*
X98760000Y-69643095D02*
X98807619Y-69547857D01*
X98807619Y-69547857D02*
X98807619Y-69357381D01*
X98807619Y-69357381D02*
X98760000Y-69262143D01*
X98760000Y-69262143D02*
X98664761Y-69214524D01*
X98664761Y-69214524D02*
X98283809Y-69214524D01*
X98283809Y-69214524D02*
X98188571Y-69262143D01*
X98188571Y-69262143D02*
X98140952Y-69357381D01*
X98140952Y-69357381D02*
X98140952Y-69547857D01*
X98140952Y-69547857D02*
X98188571Y-69643095D01*
X98188571Y-69643095D02*
X98283809Y-69690714D01*
X98283809Y-69690714D02*
X98379047Y-69690714D01*
X98379047Y-69690714D02*
X98474285Y-69214524D01*
X98807619Y-70119286D02*
X98140952Y-70119286D01*
X98331428Y-70119286D02*
X98236190Y-70166905D01*
X98236190Y-70166905D02*
X98188571Y-70214524D01*
X98188571Y-70214524D02*
X98140952Y-70309762D01*
X98140952Y-70309762D02*
X98140952Y-70405000D01*
X98283809Y-71833572D02*
X98331428Y-71976429D01*
X98331428Y-71976429D02*
X98379047Y-72024048D01*
X98379047Y-72024048D02*
X98474285Y-72071667D01*
X98474285Y-72071667D02*
X98617142Y-72071667D01*
X98617142Y-72071667D02*
X98712380Y-72024048D01*
X98712380Y-72024048D02*
X98760000Y-71976429D01*
X98760000Y-71976429D02*
X98807619Y-71881191D01*
X98807619Y-71881191D02*
X98807619Y-71500239D01*
X98807619Y-71500239D02*
X97807619Y-71500239D01*
X97807619Y-71500239D02*
X97807619Y-71833572D01*
X97807619Y-71833572D02*
X97855238Y-71928810D01*
X97855238Y-71928810D02*
X97902857Y-71976429D01*
X97902857Y-71976429D02*
X97998095Y-72024048D01*
X97998095Y-72024048D02*
X98093333Y-72024048D01*
X98093333Y-72024048D02*
X98188571Y-71976429D01*
X98188571Y-71976429D02*
X98236190Y-71928810D01*
X98236190Y-71928810D02*
X98283809Y-71833572D01*
X98283809Y-71833572D02*
X98283809Y-71500239D01*
X98807619Y-72643096D02*
X98760000Y-72547858D01*
X98760000Y-72547858D02*
X98712380Y-72500239D01*
X98712380Y-72500239D02*
X98617142Y-72452620D01*
X98617142Y-72452620D02*
X98331428Y-72452620D01*
X98331428Y-72452620D02*
X98236190Y-72500239D01*
X98236190Y-72500239D02*
X98188571Y-72547858D01*
X98188571Y-72547858D02*
X98140952Y-72643096D01*
X98140952Y-72643096D02*
X98140952Y-72785953D01*
X98140952Y-72785953D02*
X98188571Y-72881191D01*
X98188571Y-72881191D02*
X98236190Y-72928810D01*
X98236190Y-72928810D02*
X98331428Y-72976429D01*
X98331428Y-72976429D02*
X98617142Y-72976429D01*
X98617142Y-72976429D02*
X98712380Y-72928810D01*
X98712380Y-72928810D02*
X98760000Y-72881191D01*
X98760000Y-72881191D02*
X98807619Y-72785953D01*
X98807619Y-72785953D02*
X98807619Y-72643096D01*
X98807619Y-73833572D02*
X98283809Y-73833572D01*
X98283809Y-73833572D02*
X98188571Y-73785953D01*
X98188571Y-73785953D02*
X98140952Y-73690715D01*
X98140952Y-73690715D02*
X98140952Y-73500239D01*
X98140952Y-73500239D02*
X98188571Y-73405001D01*
X98760000Y-73833572D02*
X98807619Y-73738334D01*
X98807619Y-73738334D02*
X98807619Y-73500239D01*
X98807619Y-73500239D02*
X98760000Y-73405001D01*
X98760000Y-73405001D02*
X98664761Y-73357382D01*
X98664761Y-73357382D02*
X98569523Y-73357382D01*
X98569523Y-73357382D02*
X98474285Y-73405001D01*
X98474285Y-73405001D02*
X98426666Y-73500239D01*
X98426666Y-73500239D02*
X98426666Y-73738334D01*
X98426666Y-73738334D02*
X98379047Y-73833572D01*
X98807619Y-74309763D02*
X98140952Y-74309763D01*
X98331428Y-74309763D02*
X98236190Y-74357382D01*
X98236190Y-74357382D02*
X98188571Y-74405001D01*
X98188571Y-74405001D02*
X98140952Y-74500239D01*
X98140952Y-74500239D02*
X98140952Y-74595477D01*
X98807619Y-75357382D02*
X97807619Y-75357382D01*
X98760000Y-75357382D02*
X98807619Y-75262144D01*
X98807619Y-75262144D02*
X98807619Y-75071668D01*
X98807619Y-75071668D02*
X98760000Y-74976430D01*
X98760000Y-74976430D02*
X98712380Y-74928811D01*
X98712380Y-74928811D02*
X98617142Y-74881192D01*
X98617142Y-74881192D02*
X98331428Y-74881192D01*
X98331428Y-74881192D02*
X98236190Y-74928811D01*
X98236190Y-74928811D02*
X98188571Y-74976430D01*
X98188571Y-74976430D02*
X98140952Y-75071668D01*
X98140952Y-75071668D02*
X98140952Y-75262144D01*
X98140952Y-75262144D02*
X98188571Y-75357382D01*
X98140952Y-76452621D02*
X98140952Y-76833573D01*
X98807619Y-76595478D02*
X97950476Y-76595478D01*
X97950476Y-76595478D02*
X97855238Y-76643097D01*
X97855238Y-76643097D02*
X97807619Y-76738335D01*
X97807619Y-76738335D02*
X97807619Y-76833573D01*
X98807619Y-77309764D02*
X98760000Y-77214526D01*
X98760000Y-77214526D02*
X98712380Y-77166907D01*
X98712380Y-77166907D02*
X98617142Y-77119288D01*
X98617142Y-77119288D02*
X98331428Y-77119288D01*
X98331428Y-77119288D02*
X98236190Y-77166907D01*
X98236190Y-77166907D02*
X98188571Y-77214526D01*
X98188571Y-77214526D02*
X98140952Y-77309764D01*
X98140952Y-77309764D02*
X98140952Y-77452621D01*
X98140952Y-77452621D02*
X98188571Y-77547859D01*
X98188571Y-77547859D02*
X98236190Y-77595478D01*
X98236190Y-77595478D02*
X98331428Y-77643097D01*
X98331428Y-77643097D02*
X98617142Y-77643097D01*
X98617142Y-77643097D02*
X98712380Y-77595478D01*
X98712380Y-77595478D02*
X98760000Y-77547859D01*
X98760000Y-77547859D02*
X98807619Y-77452621D01*
X98807619Y-77452621D02*
X98807619Y-77309764D01*
X98807619Y-78071669D02*
X98140952Y-78071669D01*
X98331428Y-78071669D02*
X98236190Y-78119288D01*
X98236190Y-78119288D02*
X98188571Y-78166907D01*
X98188571Y-78166907D02*
X98140952Y-78262145D01*
X98140952Y-78262145D02*
X98140952Y-78357383D01*
X98283809Y-79785955D02*
X98283809Y-79452622D01*
X98807619Y-79452622D02*
X97807619Y-79452622D01*
X97807619Y-79452622D02*
X97807619Y-79928812D01*
X98807619Y-80452622D02*
X98760000Y-80357384D01*
X98760000Y-80357384D02*
X98664761Y-80309765D01*
X98664761Y-80309765D02*
X97807619Y-80309765D01*
X98807619Y-81262146D02*
X98283809Y-81262146D01*
X98283809Y-81262146D02*
X98188571Y-81214527D01*
X98188571Y-81214527D02*
X98140952Y-81119289D01*
X98140952Y-81119289D02*
X98140952Y-80928813D01*
X98140952Y-80928813D02*
X98188571Y-80833575D01*
X98760000Y-81262146D02*
X98807619Y-81166908D01*
X98807619Y-81166908D02*
X98807619Y-80928813D01*
X98807619Y-80928813D02*
X98760000Y-80833575D01*
X98760000Y-80833575D02*
X98664761Y-80785956D01*
X98664761Y-80785956D02*
X98569523Y-80785956D01*
X98569523Y-80785956D02*
X98474285Y-80833575D01*
X98474285Y-80833575D02*
X98426666Y-80928813D01*
X98426666Y-80928813D02*
X98426666Y-81166908D01*
X98426666Y-81166908D02*
X98379047Y-81262146D01*
X98807619Y-81738337D02*
X98140952Y-81738337D01*
X98236190Y-81738337D02*
X98188571Y-81785956D01*
X98188571Y-81785956D02*
X98140952Y-81881194D01*
X98140952Y-81881194D02*
X98140952Y-82024051D01*
X98140952Y-82024051D02*
X98188571Y-82119289D01*
X98188571Y-82119289D02*
X98283809Y-82166908D01*
X98283809Y-82166908D02*
X98807619Y-82166908D01*
X98283809Y-82166908D02*
X98188571Y-82214527D01*
X98188571Y-82214527D02*
X98140952Y-82309765D01*
X98140952Y-82309765D02*
X98140952Y-82452622D01*
X98140952Y-82452622D02*
X98188571Y-82547861D01*
X98188571Y-82547861D02*
X98283809Y-82595480D01*
X98283809Y-82595480D02*
X98807619Y-82595480D01*
X98807619Y-83071670D02*
X98140952Y-83071670D01*
X97807619Y-83071670D02*
X97855238Y-83024051D01*
X97855238Y-83024051D02*
X97902857Y-83071670D01*
X97902857Y-83071670D02*
X97855238Y-83119289D01*
X97855238Y-83119289D02*
X97807619Y-83071670D01*
X97807619Y-83071670D02*
X97902857Y-83071670D01*
X98140952Y-83547860D02*
X98807619Y-83547860D01*
X98236190Y-83547860D02*
X98188571Y-83595479D01*
X98188571Y-83595479D02*
X98140952Y-83690717D01*
X98140952Y-83690717D02*
X98140952Y-83833574D01*
X98140952Y-83833574D02*
X98188571Y-83928812D01*
X98188571Y-83928812D02*
X98283809Y-83976431D01*
X98283809Y-83976431D02*
X98807619Y-83976431D01*
X98140952Y-84881193D02*
X98950476Y-84881193D01*
X98950476Y-84881193D02*
X99045714Y-84833574D01*
X99045714Y-84833574D02*
X99093333Y-84785955D01*
X99093333Y-84785955D02*
X99140952Y-84690717D01*
X99140952Y-84690717D02*
X99140952Y-84547860D01*
X99140952Y-84547860D02*
X99093333Y-84452622D01*
X98760000Y-84881193D02*
X98807619Y-84785955D01*
X98807619Y-84785955D02*
X98807619Y-84595479D01*
X98807619Y-84595479D02*
X98760000Y-84500241D01*
X98760000Y-84500241D02*
X98712380Y-84452622D01*
X98712380Y-84452622D02*
X98617142Y-84405003D01*
X98617142Y-84405003D02*
X98331428Y-84405003D01*
X98331428Y-84405003D02*
X98236190Y-84452622D01*
X98236190Y-84452622D02*
X98188571Y-84500241D01*
X98188571Y-84500241D02*
X98140952Y-84595479D01*
X98140952Y-84595479D02*
X98140952Y-84785955D01*
X98140952Y-84785955D02*
X98188571Y-84881193D01*
X98807619Y-85500241D02*
X98760000Y-85405003D01*
X98760000Y-85405003D02*
X98712380Y-85357384D01*
X98712380Y-85357384D02*
X98617142Y-85309765D01*
X98617142Y-85309765D02*
X98331428Y-85309765D01*
X98331428Y-85309765D02*
X98236190Y-85357384D01*
X98236190Y-85357384D02*
X98188571Y-85405003D01*
X98188571Y-85405003D02*
X98140952Y-85500241D01*
X98140952Y-85500241D02*
X98140952Y-85643098D01*
X98140952Y-85643098D02*
X98188571Y-85738336D01*
X98188571Y-85738336D02*
X98236190Y-85785955D01*
X98236190Y-85785955D02*
X98331428Y-85833574D01*
X98331428Y-85833574D02*
X98617142Y-85833574D01*
X98617142Y-85833574D02*
X98712380Y-85785955D01*
X98712380Y-85785955D02*
X98760000Y-85738336D01*
X98760000Y-85738336D02*
X98807619Y-85643098D01*
X98807619Y-85643098D02*
X98807619Y-85500241D01*
X100427619Y-65785952D02*
X100380000Y-65690714D01*
X100380000Y-65690714D02*
X100332380Y-65643095D01*
X100332380Y-65643095D02*
X100237142Y-65595476D01*
X100237142Y-65595476D02*
X99951428Y-65595476D01*
X99951428Y-65595476D02*
X99856190Y-65643095D01*
X99856190Y-65643095D02*
X99808571Y-65690714D01*
X99808571Y-65690714D02*
X99760952Y-65785952D01*
X99760952Y-65785952D02*
X99760952Y-65928809D01*
X99760952Y-65928809D02*
X99808571Y-66024047D01*
X99808571Y-66024047D02*
X99856190Y-66071666D01*
X99856190Y-66071666D02*
X99951428Y-66119285D01*
X99951428Y-66119285D02*
X100237142Y-66119285D01*
X100237142Y-66119285D02*
X100332380Y-66071666D01*
X100332380Y-66071666D02*
X100380000Y-66024047D01*
X100380000Y-66024047D02*
X100427619Y-65928809D01*
X100427619Y-65928809D02*
X100427619Y-65785952D01*
X99760952Y-66547857D02*
X100427619Y-66547857D01*
X99856190Y-66547857D02*
X99808571Y-66595476D01*
X99808571Y-66595476D02*
X99760952Y-66690714D01*
X99760952Y-66690714D02*
X99760952Y-66833571D01*
X99760952Y-66833571D02*
X99808571Y-66928809D01*
X99808571Y-66928809D02*
X99903809Y-66976428D01*
X99903809Y-66976428D02*
X100427619Y-66976428D01*
X100141904Y-68166905D02*
X100141904Y-68643095D01*
X100427619Y-68071667D02*
X99427619Y-68405000D01*
X99427619Y-68405000D02*
X100427619Y-68738333D01*
X100427619Y-69071667D02*
X99760952Y-69071667D01*
X99951428Y-69071667D02*
X99856190Y-69119286D01*
X99856190Y-69119286D02*
X99808571Y-69166905D01*
X99808571Y-69166905D02*
X99760952Y-69262143D01*
X99760952Y-69262143D02*
X99760952Y-69357381D01*
X100427619Y-70119286D02*
X99427619Y-70119286D01*
X100380000Y-70119286D02*
X100427619Y-70024048D01*
X100427619Y-70024048D02*
X100427619Y-69833572D01*
X100427619Y-69833572D02*
X100380000Y-69738334D01*
X100380000Y-69738334D02*
X100332380Y-69690715D01*
X100332380Y-69690715D02*
X100237142Y-69643096D01*
X100237142Y-69643096D02*
X99951428Y-69643096D01*
X99951428Y-69643096D02*
X99856190Y-69690715D01*
X99856190Y-69690715D02*
X99808571Y-69738334D01*
X99808571Y-69738334D02*
X99760952Y-69833572D01*
X99760952Y-69833572D02*
X99760952Y-70024048D01*
X99760952Y-70024048D02*
X99808571Y-70119286D01*
X99760952Y-71024048D02*
X100427619Y-71024048D01*
X99760952Y-70595477D02*
X100284761Y-70595477D01*
X100284761Y-70595477D02*
X100380000Y-70643096D01*
X100380000Y-70643096D02*
X100427619Y-70738334D01*
X100427619Y-70738334D02*
X100427619Y-70881191D01*
X100427619Y-70881191D02*
X100380000Y-70976429D01*
X100380000Y-70976429D02*
X100332380Y-71024048D01*
X100427619Y-71500239D02*
X99760952Y-71500239D01*
X99427619Y-71500239D02*
X99475238Y-71452620D01*
X99475238Y-71452620D02*
X99522857Y-71500239D01*
X99522857Y-71500239D02*
X99475238Y-71547858D01*
X99475238Y-71547858D02*
X99427619Y-71500239D01*
X99427619Y-71500239D02*
X99522857Y-71500239D01*
X99760952Y-71976429D02*
X100427619Y-71976429D01*
X99856190Y-71976429D02*
X99808571Y-72024048D01*
X99808571Y-72024048D02*
X99760952Y-72119286D01*
X99760952Y-72119286D02*
X99760952Y-72262143D01*
X99760952Y-72262143D02*
X99808571Y-72357381D01*
X99808571Y-72357381D02*
X99903809Y-72405000D01*
X99903809Y-72405000D02*
X100427619Y-72405000D01*
X100427619Y-73024048D02*
X100380000Y-72928810D01*
X100380000Y-72928810D02*
X100332380Y-72881191D01*
X100332380Y-72881191D02*
X100237142Y-72833572D01*
X100237142Y-72833572D02*
X99951428Y-72833572D01*
X99951428Y-72833572D02*
X99856190Y-72881191D01*
X99856190Y-72881191D02*
X99808571Y-72928810D01*
X99808571Y-72928810D02*
X99760952Y-73024048D01*
X99760952Y-73024048D02*
X99760952Y-73166905D01*
X99760952Y-73166905D02*
X99808571Y-73262143D01*
X99808571Y-73262143D02*
X99856190Y-73309762D01*
X99856190Y-73309762D02*
X99951428Y-73357381D01*
X99951428Y-73357381D02*
X100237142Y-73357381D01*
X100237142Y-73357381D02*
X100332380Y-73309762D01*
X100332380Y-73309762D02*
X100380000Y-73262143D01*
X100380000Y-73262143D02*
X100427619Y-73166905D01*
X100427619Y-73166905D02*
X100427619Y-73024048D01*
X100427619Y-74547858D02*
X99427619Y-74547858D01*
X99427619Y-74547858D02*
X100427619Y-75119286D01*
X100427619Y-75119286D02*
X99427619Y-75119286D01*
X100427619Y-76024048D02*
X99903809Y-76024048D01*
X99903809Y-76024048D02*
X99808571Y-75976429D01*
X99808571Y-75976429D02*
X99760952Y-75881191D01*
X99760952Y-75881191D02*
X99760952Y-75690715D01*
X99760952Y-75690715D02*
X99808571Y-75595477D01*
X100380000Y-76024048D02*
X100427619Y-75928810D01*
X100427619Y-75928810D02*
X100427619Y-75690715D01*
X100427619Y-75690715D02*
X100380000Y-75595477D01*
X100380000Y-75595477D02*
X100284761Y-75547858D01*
X100284761Y-75547858D02*
X100189523Y-75547858D01*
X100189523Y-75547858D02*
X100094285Y-75595477D01*
X100094285Y-75595477D02*
X100046666Y-75690715D01*
X100046666Y-75690715D02*
X100046666Y-75928810D01*
X100046666Y-75928810D02*
X99999047Y-76024048D01*
X99760952Y-76500239D02*
X100427619Y-76500239D01*
X99856190Y-76500239D02*
X99808571Y-76547858D01*
X99808571Y-76547858D02*
X99760952Y-76643096D01*
X99760952Y-76643096D02*
X99760952Y-76785953D01*
X99760952Y-76785953D02*
X99808571Y-76881191D01*
X99808571Y-76881191D02*
X99903809Y-76928810D01*
X99903809Y-76928810D02*
X100427619Y-76928810D01*
X100427619Y-77547858D02*
X100380000Y-77452620D01*
X100380000Y-77452620D02*
X100332380Y-77405001D01*
X100332380Y-77405001D02*
X100237142Y-77357382D01*
X100237142Y-77357382D02*
X99951428Y-77357382D01*
X99951428Y-77357382D02*
X99856190Y-77405001D01*
X99856190Y-77405001D02*
X99808571Y-77452620D01*
X99808571Y-77452620D02*
X99760952Y-77547858D01*
X99760952Y-77547858D02*
X99760952Y-77690715D01*
X99760952Y-77690715D02*
X99808571Y-77785953D01*
X99808571Y-77785953D02*
X99856190Y-77833572D01*
X99856190Y-77833572D02*
X99951428Y-77881191D01*
X99951428Y-77881191D02*
X100237142Y-77881191D01*
X100237142Y-77881191D02*
X100332380Y-77833572D01*
X100332380Y-77833572D02*
X100380000Y-77785953D01*
X100380000Y-77785953D02*
X100427619Y-77690715D01*
X100427619Y-77690715D02*
X100427619Y-77547858D01*
X99427619Y-78976430D02*
X99427619Y-79595477D01*
X99427619Y-79595477D02*
X99808571Y-79262144D01*
X99808571Y-79262144D02*
X99808571Y-79405001D01*
X99808571Y-79405001D02*
X99856190Y-79500239D01*
X99856190Y-79500239D02*
X99903809Y-79547858D01*
X99903809Y-79547858D02*
X99999047Y-79595477D01*
X99999047Y-79595477D02*
X100237142Y-79595477D01*
X100237142Y-79595477D02*
X100332380Y-79547858D01*
X100332380Y-79547858D02*
X100380000Y-79500239D01*
X100380000Y-79500239D02*
X100427619Y-79405001D01*
X100427619Y-79405001D02*
X100427619Y-79119287D01*
X100427619Y-79119287D02*
X100380000Y-79024049D01*
X100380000Y-79024049D02*
X100332380Y-78976430D01*
X99427619Y-79928811D02*
X99427619Y-80547858D01*
X99427619Y-80547858D02*
X99808571Y-80214525D01*
X99808571Y-80214525D02*
X99808571Y-80357382D01*
X99808571Y-80357382D02*
X99856190Y-80452620D01*
X99856190Y-80452620D02*
X99903809Y-80500239D01*
X99903809Y-80500239D02*
X99999047Y-80547858D01*
X99999047Y-80547858D02*
X100237142Y-80547858D01*
X100237142Y-80547858D02*
X100332380Y-80500239D01*
X100332380Y-80500239D02*
X100380000Y-80452620D01*
X100380000Y-80452620D02*
X100427619Y-80357382D01*
X100427619Y-80357382D02*
X100427619Y-80071668D01*
X100427619Y-80071668D02*
X100380000Y-79976430D01*
X100380000Y-79976430D02*
X100332380Y-79928811D01*
X99903809Y-82071668D02*
X99951428Y-82214525D01*
X99951428Y-82214525D02*
X99999047Y-82262144D01*
X99999047Y-82262144D02*
X100094285Y-82309763D01*
X100094285Y-82309763D02*
X100237142Y-82309763D01*
X100237142Y-82309763D02*
X100332380Y-82262144D01*
X100332380Y-82262144D02*
X100380000Y-82214525D01*
X100380000Y-82214525D02*
X100427619Y-82119287D01*
X100427619Y-82119287D02*
X100427619Y-81738335D01*
X100427619Y-81738335D02*
X99427619Y-81738335D01*
X99427619Y-81738335D02*
X99427619Y-82071668D01*
X99427619Y-82071668D02*
X99475238Y-82166906D01*
X99475238Y-82166906D02*
X99522857Y-82214525D01*
X99522857Y-82214525D02*
X99618095Y-82262144D01*
X99618095Y-82262144D02*
X99713333Y-82262144D01*
X99713333Y-82262144D02*
X99808571Y-82214525D01*
X99808571Y-82214525D02*
X99856190Y-82166906D01*
X99856190Y-82166906D02*
X99903809Y-82071668D01*
X99903809Y-82071668D02*
X99903809Y-81738335D01*
X100427619Y-83214525D02*
X100427619Y-82738335D01*
X100427619Y-82738335D02*
X99427619Y-82738335D01*
X99903809Y-83547859D02*
X99903809Y-83881192D01*
X100427619Y-84024049D02*
X100427619Y-83547859D01*
X100427619Y-83547859D02*
X99427619Y-83547859D01*
X99427619Y-83547859D02*
X99427619Y-84024049D01*
X102047619Y-66214523D02*
X101571428Y-65881190D01*
X102047619Y-65643095D02*
X101047619Y-65643095D01*
X101047619Y-65643095D02*
X101047619Y-66024047D01*
X101047619Y-66024047D02*
X101095238Y-66119285D01*
X101095238Y-66119285D02*
X101142857Y-66166904D01*
X101142857Y-66166904D02*
X101238095Y-66214523D01*
X101238095Y-66214523D02*
X101380952Y-66214523D01*
X101380952Y-66214523D02*
X101476190Y-66166904D01*
X101476190Y-66166904D02*
X101523809Y-66119285D01*
X101523809Y-66119285D02*
X101571428Y-66024047D01*
X101571428Y-66024047D02*
X101571428Y-65643095D01*
X102000000Y-67024047D02*
X102047619Y-66928809D01*
X102047619Y-66928809D02*
X102047619Y-66738333D01*
X102047619Y-66738333D02*
X102000000Y-66643095D01*
X102000000Y-66643095D02*
X101904761Y-66595476D01*
X101904761Y-66595476D02*
X101523809Y-66595476D01*
X101523809Y-66595476D02*
X101428571Y-66643095D01*
X101428571Y-66643095D02*
X101380952Y-66738333D01*
X101380952Y-66738333D02*
X101380952Y-66928809D01*
X101380952Y-66928809D02*
X101428571Y-67024047D01*
X101428571Y-67024047D02*
X101523809Y-67071666D01*
X101523809Y-67071666D02*
X101619047Y-67071666D01*
X101619047Y-67071666D02*
X101714285Y-66595476D01*
X101380952Y-67405000D02*
X102047619Y-67643095D01*
X102047619Y-67643095D02*
X101380952Y-67881190D01*
X101142857Y-68976429D02*
X101095238Y-69024048D01*
X101095238Y-69024048D02*
X101047619Y-69119286D01*
X101047619Y-69119286D02*
X101047619Y-69357381D01*
X101047619Y-69357381D02*
X101095238Y-69452619D01*
X101095238Y-69452619D02*
X101142857Y-69500238D01*
X101142857Y-69500238D02*
X101238095Y-69547857D01*
X101238095Y-69547857D02*
X101333333Y-69547857D01*
X101333333Y-69547857D02*
X101476190Y-69500238D01*
X101476190Y-69500238D02*
X102047619Y-68928810D01*
X102047619Y-68928810D02*
X102047619Y-69547857D01*
X103667619Y-65643095D02*
X102667619Y-65643095D01*
X102667619Y-65643095D02*
X102667619Y-66024047D01*
X102667619Y-66024047D02*
X102715238Y-66119285D01*
X102715238Y-66119285D02*
X102762857Y-66166904D01*
X102762857Y-66166904D02*
X102858095Y-66214523D01*
X102858095Y-66214523D02*
X103000952Y-66214523D01*
X103000952Y-66214523D02*
X103096190Y-66166904D01*
X103096190Y-66166904D02*
X103143809Y-66119285D01*
X103143809Y-66119285D02*
X103191428Y-66024047D01*
X103191428Y-66024047D02*
X103191428Y-65643095D01*
X103667619Y-67071666D02*
X103143809Y-67071666D01*
X103143809Y-67071666D02*
X103048571Y-67024047D01*
X103048571Y-67024047D02*
X103000952Y-66928809D01*
X103000952Y-66928809D02*
X103000952Y-66738333D01*
X103000952Y-66738333D02*
X103048571Y-66643095D01*
X103620000Y-67071666D02*
X103667619Y-66976428D01*
X103667619Y-66976428D02*
X103667619Y-66738333D01*
X103667619Y-66738333D02*
X103620000Y-66643095D01*
X103620000Y-66643095D02*
X103524761Y-66595476D01*
X103524761Y-66595476D02*
X103429523Y-66595476D01*
X103429523Y-66595476D02*
X103334285Y-66643095D01*
X103334285Y-66643095D02*
X103286666Y-66738333D01*
X103286666Y-66738333D02*
X103286666Y-66976428D01*
X103286666Y-66976428D02*
X103239047Y-67071666D01*
X103000952Y-67976428D02*
X103667619Y-67976428D01*
X103000952Y-67547857D02*
X103524761Y-67547857D01*
X103524761Y-67547857D02*
X103620000Y-67595476D01*
X103620000Y-67595476D02*
X103667619Y-67690714D01*
X103667619Y-67690714D02*
X103667619Y-67833571D01*
X103667619Y-67833571D02*
X103620000Y-67928809D01*
X103620000Y-67928809D02*
X103572380Y-67976428D01*
X103667619Y-68595476D02*
X103620000Y-68500238D01*
X103620000Y-68500238D02*
X103524761Y-68452619D01*
X103524761Y-68452619D02*
X102667619Y-68452619D01*
X103143809Y-70071667D02*
X103191428Y-70214524D01*
X103191428Y-70214524D02*
X103239047Y-70262143D01*
X103239047Y-70262143D02*
X103334285Y-70309762D01*
X103334285Y-70309762D02*
X103477142Y-70309762D01*
X103477142Y-70309762D02*
X103572380Y-70262143D01*
X103572380Y-70262143D02*
X103620000Y-70214524D01*
X103620000Y-70214524D02*
X103667619Y-70119286D01*
X103667619Y-70119286D02*
X103667619Y-69738334D01*
X103667619Y-69738334D02*
X102667619Y-69738334D01*
X102667619Y-69738334D02*
X102667619Y-70071667D01*
X102667619Y-70071667D02*
X102715238Y-70166905D01*
X102715238Y-70166905D02*
X102762857Y-70214524D01*
X102762857Y-70214524D02*
X102858095Y-70262143D01*
X102858095Y-70262143D02*
X102953333Y-70262143D01*
X102953333Y-70262143D02*
X103048571Y-70214524D01*
X103048571Y-70214524D02*
X103096190Y-70166905D01*
X103096190Y-70166905D02*
X103143809Y-70071667D01*
X103143809Y-70071667D02*
X103143809Y-69738334D01*
X103667619Y-70881191D02*
X103620000Y-70785953D01*
X103620000Y-70785953D02*
X103524761Y-70738334D01*
X103524761Y-70738334D02*
X102667619Y-70738334D01*
X103667619Y-71690715D02*
X103143809Y-71690715D01*
X103143809Y-71690715D02*
X103048571Y-71643096D01*
X103048571Y-71643096D02*
X103000952Y-71547858D01*
X103000952Y-71547858D02*
X103000952Y-71357382D01*
X103000952Y-71357382D02*
X103048571Y-71262144D01*
X103620000Y-71690715D02*
X103667619Y-71595477D01*
X103667619Y-71595477D02*
X103667619Y-71357382D01*
X103667619Y-71357382D02*
X103620000Y-71262144D01*
X103620000Y-71262144D02*
X103524761Y-71214525D01*
X103524761Y-71214525D02*
X103429523Y-71214525D01*
X103429523Y-71214525D02*
X103334285Y-71262144D01*
X103334285Y-71262144D02*
X103286666Y-71357382D01*
X103286666Y-71357382D02*
X103286666Y-71595477D01*
X103286666Y-71595477D02*
X103239047Y-71690715D01*
X103620000Y-72595477D02*
X103667619Y-72500239D01*
X103667619Y-72500239D02*
X103667619Y-72309763D01*
X103667619Y-72309763D02*
X103620000Y-72214525D01*
X103620000Y-72214525D02*
X103572380Y-72166906D01*
X103572380Y-72166906D02*
X103477142Y-72119287D01*
X103477142Y-72119287D02*
X103191428Y-72119287D01*
X103191428Y-72119287D02*
X103096190Y-72166906D01*
X103096190Y-72166906D02*
X103048571Y-72214525D01*
X103048571Y-72214525D02*
X103000952Y-72309763D01*
X103000952Y-72309763D02*
X103000952Y-72500239D01*
X103000952Y-72500239D02*
X103048571Y-72595477D01*
X103667619Y-73024049D02*
X102667619Y-73024049D01*
X103286666Y-73119287D02*
X103667619Y-73405001D01*
X103000952Y-73405001D02*
X103381904Y-73024049D01*
X103667619Y-73833573D02*
X102667619Y-73833573D01*
X103048571Y-73833573D02*
X103000952Y-73928811D01*
X103000952Y-73928811D02*
X103000952Y-74119287D01*
X103000952Y-74119287D02*
X103048571Y-74214525D01*
X103048571Y-74214525D02*
X103096190Y-74262144D01*
X103096190Y-74262144D02*
X103191428Y-74309763D01*
X103191428Y-74309763D02*
X103477142Y-74309763D01*
X103477142Y-74309763D02*
X103572380Y-74262144D01*
X103572380Y-74262144D02*
X103620000Y-74214525D01*
X103620000Y-74214525D02*
X103667619Y-74119287D01*
X103667619Y-74119287D02*
X103667619Y-73928811D01*
X103667619Y-73928811D02*
X103620000Y-73833573D01*
X103000952Y-75166906D02*
X103667619Y-75166906D01*
X103000952Y-74738335D02*
X103524761Y-74738335D01*
X103524761Y-74738335D02*
X103620000Y-74785954D01*
X103620000Y-74785954D02*
X103667619Y-74881192D01*
X103667619Y-74881192D02*
X103667619Y-75024049D01*
X103667619Y-75024049D02*
X103620000Y-75119287D01*
X103620000Y-75119287D02*
X103572380Y-75166906D01*
X103667619Y-75643097D02*
X103000952Y-75643097D01*
X103191428Y-75643097D02*
X103096190Y-75690716D01*
X103096190Y-75690716D02*
X103048571Y-75738335D01*
X103048571Y-75738335D02*
X103000952Y-75833573D01*
X103000952Y-75833573D02*
X103000952Y-75928811D01*
X103000952Y-76262145D02*
X103667619Y-76262145D01*
X103096190Y-76262145D02*
X103048571Y-76309764D01*
X103048571Y-76309764D02*
X103000952Y-76405002D01*
X103000952Y-76405002D02*
X103000952Y-76547859D01*
X103000952Y-76547859D02*
X103048571Y-76643097D01*
X103048571Y-76643097D02*
X103143809Y-76690716D01*
X103143809Y-76690716D02*
X103667619Y-76690716D01*
X102762857Y-77881193D02*
X102715238Y-77928812D01*
X102715238Y-77928812D02*
X102667619Y-78024050D01*
X102667619Y-78024050D02*
X102667619Y-78262145D01*
X102667619Y-78262145D02*
X102715238Y-78357383D01*
X102715238Y-78357383D02*
X102762857Y-78405002D01*
X102762857Y-78405002D02*
X102858095Y-78452621D01*
X102858095Y-78452621D02*
X102953333Y-78452621D01*
X102953333Y-78452621D02*
X103096190Y-78405002D01*
X103096190Y-78405002D02*
X103667619Y-77833574D01*
X103667619Y-77833574D02*
X103667619Y-78452621D01*
X102667619Y-79071669D02*
X102667619Y-79166907D01*
X102667619Y-79166907D02*
X102715238Y-79262145D01*
X102715238Y-79262145D02*
X102762857Y-79309764D01*
X102762857Y-79309764D02*
X102858095Y-79357383D01*
X102858095Y-79357383D02*
X103048571Y-79405002D01*
X103048571Y-79405002D02*
X103286666Y-79405002D01*
X103286666Y-79405002D02*
X103477142Y-79357383D01*
X103477142Y-79357383D02*
X103572380Y-79309764D01*
X103572380Y-79309764D02*
X103620000Y-79262145D01*
X103620000Y-79262145D02*
X103667619Y-79166907D01*
X103667619Y-79166907D02*
X103667619Y-79071669D01*
X103667619Y-79071669D02*
X103620000Y-78976431D01*
X103620000Y-78976431D02*
X103572380Y-78928812D01*
X103572380Y-78928812D02*
X103477142Y-78881193D01*
X103477142Y-78881193D02*
X103286666Y-78833574D01*
X103286666Y-78833574D02*
X103048571Y-78833574D01*
X103048571Y-78833574D02*
X102858095Y-78881193D01*
X102858095Y-78881193D02*
X102762857Y-78928812D01*
X102762857Y-78928812D02*
X102715238Y-78976431D01*
X102715238Y-78976431D02*
X102667619Y-79071669D01*
X102762857Y-79785955D02*
X102715238Y-79833574D01*
X102715238Y-79833574D02*
X102667619Y-79928812D01*
X102667619Y-79928812D02*
X102667619Y-80166907D01*
X102667619Y-80166907D02*
X102715238Y-80262145D01*
X102715238Y-80262145D02*
X102762857Y-80309764D01*
X102762857Y-80309764D02*
X102858095Y-80357383D01*
X102858095Y-80357383D02*
X102953333Y-80357383D01*
X102953333Y-80357383D02*
X103096190Y-80309764D01*
X103096190Y-80309764D02*
X103667619Y-79738336D01*
X103667619Y-79738336D02*
X103667619Y-80357383D01*
X102667619Y-80690717D02*
X102667619Y-81309764D01*
X102667619Y-81309764D02*
X103048571Y-80976431D01*
X103048571Y-80976431D02*
X103048571Y-81119288D01*
X103048571Y-81119288D02*
X103096190Y-81214526D01*
X103096190Y-81214526D02*
X103143809Y-81262145D01*
X103143809Y-81262145D02*
X103239047Y-81309764D01*
X103239047Y-81309764D02*
X103477142Y-81309764D01*
X103477142Y-81309764D02*
X103572380Y-81262145D01*
X103572380Y-81262145D02*
X103620000Y-81214526D01*
X103620000Y-81214526D02*
X103667619Y-81119288D01*
X103667619Y-81119288D02*
X103667619Y-80833574D01*
X103667619Y-80833574D02*
X103620000Y-80738336D01*
X103620000Y-80738336D02*
X103572380Y-80690717D01*
X104335238Y-66166904D02*
X104287619Y-66071666D01*
X104287619Y-66071666D02*
X104287619Y-65928809D01*
X104287619Y-65928809D02*
X104335238Y-65785952D01*
X104335238Y-65785952D02*
X104430476Y-65690714D01*
X104430476Y-65690714D02*
X104525714Y-65643095D01*
X104525714Y-65643095D02*
X104716190Y-65595476D01*
X104716190Y-65595476D02*
X104859047Y-65595476D01*
X104859047Y-65595476D02*
X105049523Y-65643095D01*
X105049523Y-65643095D02*
X105144761Y-65690714D01*
X105144761Y-65690714D02*
X105240000Y-65785952D01*
X105240000Y-65785952D02*
X105287619Y-65928809D01*
X105287619Y-65928809D02*
X105287619Y-66024047D01*
X105287619Y-66024047D02*
X105240000Y-66166904D01*
X105240000Y-66166904D02*
X105192380Y-66214523D01*
X105192380Y-66214523D02*
X104859047Y-66214523D01*
X104859047Y-66214523D02*
X104859047Y-66024047D01*
X105287619Y-66643095D02*
X104287619Y-66643095D01*
X104763809Y-66643095D02*
X104763809Y-67214523D01*
X105287619Y-67214523D02*
X104287619Y-67214523D01*
X105192380Y-67690714D02*
X105240000Y-67738333D01*
X105240000Y-67738333D02*
X105287619Y-67690714D01*
X105287619Y-67690714D02*
X105240000Y-67643095D01*
X105240000Y-67643095D02*
X105192380Y-67690714D01*
X105192380Y-67690714D02*
X105287619Y-67690714D01*
X104668571Y-67690714D02*
X104716190Y-67738333D01*
X104716190Y-67738333D02*
X104763809Y-67690714D01*
X104763809Y-67690714D02*
X104716190Y-67643095D01*
X104716190Y-67643095D02*
X104668571Y-67690714D01*
X104668571Y-67690714D02*
X104763809Y-67690714D01*
X104811428Y-69547856D02*
X104763809Y-69500237D01*
X104763809Y-69500237D02*
X104716190Y-69404999D01*
X104716190Y-69404999D02*
X104716190Y-69309761D01*
X104716190Y-69309761D02*
X104763809Y-69214523D01*
X104763809Y-69214523D02*
X104811428Y-69166904D01*
X104811428Y-69166904D02*
X104906666Y-69119285D01*
X104906666Y-69119285D02*
X105001904Y-69119285D01*
X105001904Y-69119285D02*
X105097142Y-69166904D01*
X105097142Y-69166904D02*
X105144761Y-69214523D01*
X105144761Y-69214523D02*
X105192380Y-69309761D01*
X105192380Y-69309761D02*
X105192380Y-69404999D01*
X105192380Y-69404999D02*
X105144761Y-69500237D01*
X105144761Y-69500237D02*
X105097142Y-69547856D01*
X104716190Y-69547856D02*
X105097142Y-69547856D01*
X105097142Y-69547856D02*
X105144761Y-69595475D01*
X105144761Y-69595475D02*
X105144761Y-69643094D01*
X105144761Y-69643094D02*
X105097142Y-69738333D01*
X105097142Y-69738333D02*
X105001904Y-69785952D01*
X105001904Y-69785952D02*
X104763809Y-69785952D01*
X104763809Y-69785952D02*
X104620952Y-69690714D01*
X104620952Y-69690714D02*
X104525714Y-69547856D01*
X104525714Y-69547856D02*
X104478095Y-69357380D01*
X104478095Y-69357380D02*
X104525714Y-69166904D01*
X104525714Y-69166904D02*
X104620952Y-69024047D01*
X104620952Y-69024047D02*
X104763809Y-68928809D01*
X104763809Y-68928809D02*
X104954285Y-68881190D01*
X104954285Y-68881190D02*
X105144761Y-68928809D01*
X105144761Y-68928809D02*
X105287619Y-69024047D01*
X105287619Y-69024047D02*
X105382857Y-69166904D01*
X105382857Y-69166904D02*
X105430476Y-69357380D01*
X105430476Y-69357380D02*
X105382857Y-69547856D01*
X105382857Y-69547856D02*
X105287619Y-69690714D01*
X105287619Y-70214523D02*
X104620952Y-70214523D01*
X104287619Y-70214523D02*
X104335238Y-70166904D01*
X104335238Y-70166904D02*
X104382857Y-70214523D01*
X104382857Y-70214523D02*
X104335238Y-70262142D01*
X104335238Y-70262142D02*
X104287619Y-70214523D01*
X104287619Y-70214523D02*
X104382857Y-70214523D01*
X104620952Y-70690713D02*
X105287619Y-70690713D01*
X104716190Y-70690713D02*
X104668571Y-70738332D01*
X104668571Y-70738332D02*
X104620952Y-70833570D01*
X104620952Y-70833570D02*
X104620952Y-70976427D01*
X104620952Y-70976427D02*
X104668571Y-71071665D01*
X104668571Y-71071665D02*
X104763809Y-71119284D01*
X104763809Y-71119284D02*
X105287619Y-71119284D01*
X105287619Y-72024046D02*
X104287619Y-72024046D01*
X105240000Y-72024046D02*
X105287619Y-71928808D01*
X105287619Y-71928808D02*
X105287619Y-71738332D01*
X105287619Y-71738332D02*
X105240000Y-71643094D01*
X105240000Y-71643094D02*
X105192380Y-71595475D01*
X105192380Y-71595475D02*
X105097142Y-71547856D01*
X105097142Y-71547856D02*
X104811428Y-71547856D01*
X104811428Y-71547856D02*
X104716190Y-71595475D01*
X104716190Y-71595475D02*
X104668571Y-71643094D01*
X104668571Y-71643094D02*
X104620952Y-71738332D01*
X104620952Y-71738332D02*
X104620952Y-71928808D01*
X104620952Y-71928808D02*
X104668571Y-72024046D01*
X105287619Y-72500237D02*
X104620952Y-72500237D01*
X104287619Y-72500237D02*
X104335238Y-72452618D01*
X104335238Y-72452618D02*
X104382857Y-72500237D01*
X104382857Y-72500237D02*
X104335238Y-72547856D01*
X104335238Y-72547856D02*
X104287619Y-72500237D01*
X104287619Y-72500237D02*
X104382857Y-72500237D01*
X104620952Y-72881189D02*
X105287619Y-73119284D01*
X105287619Y-73119284D02*
X104620952Y-73357379D01*
X105287619Y-73738332D02*
X104620952Y-73738332D01*
X104287619Y-73738332D02*
X104335238Y-73690713D01*
X104335238Y-73690713D02*
X104382857Y-73738332D01*
X104382857Y-73738332D02*
X104335238Y-73785951D01*
X104335238Y-73785951D02*
X104287619Y-73738332D01*
X104287619Y-73738332D02*
X104382857Y-73738332D01*
X105287619Y-74643093D02*
X104287619Y-74643093D01*
X105240000Y-74643093D02*
X105287619Y-74547855D01*
X105287619Y-74547855D02*
X105287619Y-74357379D01*
X105287619Y-74357379D02*
X105240000Y-74262141D01*
X105240000Y-74262141D02*
X105192380Y-74214522D01*
X105192380Y-74214522D02*
X105097142Y-74166903D01*
X105097142Y-74166903D02*
X104811428Y-74166903D01*
X104811428Y-74166903D02*
X104716190Y-74214522D01*
X104716190Y-74214522D02*
X104668571Y-74262141D01*
X104668571Y-74262141D02*
X104620952Y-74357379D01*
X104620952Y-74357379D02*
X104620952Y-74547855D01*
X104620952Y-74547855D02*
X104668571Y-74643093D01*
X104620952Y-75547855D02*
X105287619Y-75547855D01*
X104620952Y-75119284D02*
X105144761Y-75119284D01*
X105144761Y-75119284D02*
X105240000Y-75166903D01*
X105240000Y-75166903D02*
X105287619Y-75262141D01*
X105287619Y-75262141D02*
X105287619Y-75404998D01*
X105287619Y-75404998D02*
X105240000Y-75500236D01*
X105240000Y-75500236D02*
X105192380Y-75547855D01*
X105287619Y-76452617D02*
X104763809Y-76452617D01*
X104763809Y-76452617D02*
X104668571Y-76404998D01*
X104668571Y-76404998D02*
X104620952Y-76309760D01*
X104620952Y-76309760D02*
X104620952Y-76119284D01*
X104620952Y-76119284D02*
X104668571Y-76024046D01*
X105240000Y-76452617D02*
X105287619Y-76357379D01*
X105287619Y-76357379D02*
X105287619Y-76119284D01*
X105287619Y-76119284D02*
X105240000Y-76024046D01*
X105240000Y-76024046D02*
X105144761Y-75976427D01*
X105144761Y-75976427D02*
X105049523Y-75976427D01*
X105049523Y-75976427D02*
X104954285Y-76024046D01*
X104954285Y-76024046D02*
X104906666Y-76119284D01*
X104906666Y-76119284D02*
X104906666Y-76357379D01*
X104906666Y-76357379D02*
X104859047Y-76452617D01*
X105287619Y-77071665D02*
X105240000Y-76976427D01*
X105240000Y-76976427D02*
X105144761Y-76928808D01*
X105144761Y-76928808D02*
X104287619Y-76928808D01*
X104287619Y-77881189D02*
X104287619Y-77690713D01*
X104287619Y-77690713D02*
X104335238Y-77595475D01*
X104335238Y-77595475D02*
X104382857Y-77547856D01*
X104382857Y-77547856D02*
X104525714Y-77452618D01*
X104525714Y-77452618D02*
X104716190Y-77404999D01*
X104716190Y-77404999D02*
X105097142Y-77404999D01*
X105097142Y-77404999D02*
X105192380Y-77452618D01*
X105192380Y-77452618D02*
X105240000Y-77500237D01*
X105240000Y-77500237D02*
X105287619Y-77595475D01*
X105287619Y-77595475D02*
X105287619Y-77785951D01*
X105287619Y-77785951D02*
X105240000Y-77881189D01*
X105240000Y-77881189D02*
X105192380Y-77928808D01*
X105192380Y-77928808D02*
X105097142Y-77976427D01*
X105097142Y-77976427D02*
X104859047Y-77976427D01*
X104859047Y-77976427D02*
X104763809Y-77928808D01*
X104763809Y-77928808D02*
X104716190Y-77881189D01*
X104716190Y-77881189D02*
X104668571Y-77785951D01*
X104668571Y-77785951D02*
X104668571Y-77595475D01*
X104668571Y-77595475D02*
X104716190Y-77500237D01*
X104716190Y-77500237D02*
X104763809Y-77452618D01*
X104763809Y-77452618D02*
X104859047Y-77404999D01*
X105287619Y-78928808D02*
X105287619Y-78357380D01*
X105287619Y-78643094D02*
X104287619Y-78643094D01*
X104287619Y-78643094D02*
X104430476Y-78547856D01*
X104430476Y-78547856D02*
X104525714Y-78452618D01*
X104525714Y-78452618D02*
X104573333Y-78357380D01*
G04 #@! TO.C,G\u002A\u002A\u002A*
D11*
X104828846Y-58879633D02*
X104894829Y-58898204D01*
X104921326Y-58929681D01*
X104926190Y-58975640D01*
X104925581Y-58993474D01*
X104911670Y-59035344D01*
X104865801Y-59065846D01*
X104770189Y-59088090D01*
X104607051Y-59105186D01*
X104358601Y-59120244D01*
X104007055Y-59136375D01*
X103673721Y-59148247D01*
X103355221Y-59150630D01*
X103140498Y-59137789D01*
X103020367Y-59108395D01*
X102985639Y-59061121D01*
X103027126Y-58994636D01*
X103052677Y-58983221D01*
X103183274Y-58958812D01*
X103400906Y-58934344D01*
X103682965Y-58912130D01*
X104006840Y-58894480D01*
X104215429Y-58885595D01*
X104507000Y-58874905D01*
X104705521Y-58872392D01*
X104828846Y-58879633D01*
G36*
X104828846Y-58879633D02*
G01*
X104894829Y-58898204D01*
X104921326Y-58929681D01*
X104926190Y-58975640D01*
X104925581Y-58993474D01*
X104911670Y-59035344D01*
X104865801Y-59065846D01*
X104770189Y-59088090D01*
X104607051Y-59105186D01*
X104358601Y-59120244D01*
X104007055Y-59136375D01*
X103673721Y-59148247D01*
X103355221Y-59150630D01*
X103140498Y-59137789D01*
X103020367Y-59108395D01*
X102985639Y-59061121D01*
X103027126Y-58994636D01*
X103052677Y-58983221D01*
X103183274Y-58958812D01*
X103400906Y-58934344D01*
X103682965Y-58912130D01*
X104006840Y-58894480D01*
X104215429Y-58885595D01*
X104507000Y-58874905D01*
X104705521Y-58872392D01*
X104828846Y-58879633D01*
G37*
X101797397Y-61374581D02*
X101934833Y-61432469D01*
X102158447Y-61535879D01*
X102250310Y-61577352D01*
X102675130Y-61726696D01*
X103127577Y-61811004D01*
X103649326Y-61838744D01*
X103834100Y-61841434D01*
X103980625Y-61851858D01*
X104030361Y-61872541D01*
X103996954Y-61906129D01*
X103986251Y-61911467D01*
X103849862Y-61939723D01*
X103621326Y-61952140D01*
X103325068Y-61947222D01*
X103224979Y-61942356D01*
X102957288Y-61919712D01*
X102732814Y-61877262D01*
X102501287Y-61803191D01*
X102212437Y-61685680D01*
X102054313Y-61615431D01*
X101854342Y-61517631D01*
X101720710Y-61440470D01*
X101676311Y-61396307D01*
X101689268Y-61368795D01*
X101723191Y-61355570D01*
X101797397Y-61374581D01*
G36*
X101797397Y-61374581D02*
G01*
X101934833Y-61432469D01*
X102158447Y-61535879D01*
X102250310Y-61577352D01*
X102675130Y-61726696D01*
X103127577Y-61811004D01*
X103649326Y-61838744D01*
X103834100Y-61841434D01*
X103980625Y-61851858D01*
X104030361Y-61872541D01*
X103996954Y-61906129D01*
X103986251Y-61911467D01*
X103849862Y-61939723D01*
X103621326Y-61952140D01*
X103325068Y-61947222D01*
X103224979Y-61942356D01*
X102957288Y-61919712D01*
X102732814Y-61877262D01*
X102501287Y-61803191D01*
X102212437Y-61685680D01*
X102054313Y-61615431D01*
X101854342Y-61517631D01*
X101720710Y-61440470D01*
X101676311Y-61396307D01*
X101689268Y-61368795D01*
X101723191Y-61355570D01*
X101797397Y-61374581D01*
G37*
X103362864Y-56765831D02*
X103414286Y-56797240D01*
X103414176Y-56798761D01*
X103383882Y-56873580D01*
X103310238Y-57021547D01*
X103208326Y-57212273D01*
X103146600Y-57326983D01*
X102968393Y-57706581D01*
X102865071Y-58035016D01*
X102829656Y-58340736D01*
X102855171Y-58652186D01*
X102857760Y-58668053D01*
X102888112Y-59049886D01*
X102839713Y-59373068D01*
X102707325Y-59673797D01*
X102645214Y-59791295D01*
X102545314Y-60005437D01*
X102449277Y-60234286D01*
X102396125Y-60362625D01*
X102252062Y-60633270D01*
X102079523Y-60834740D01*
X101849567Y-61004191D01*
X101791734Y-61039585D01*
X101683500Y-61094584D01*
X101620527Y-61087038D01*
X101561274Y-61019096D01*
X101496625Y-60896174D01*
X101492409Y-60730142D01*
X101573975Y-60516154D01*
X101601407Y-60456490D01*
X101635197Y-60324121D01*
X101617190Y-60184785D01*
X101540373Y-60008616D01*
X101397731Y-59765751D01*
X101338056Y-59666013D01*
X101254740Y-59487708D01*
X101216250Y-59305140D01*
X101206905Y-59060340D01*
X101208148Y-58985912D01*
X101252521Y-58648975D01*
X101369334Y-58334600D01*
X101570637Y-58017510D01*
X101868478Y-57672425D01*
X101888944Y-57651227D01*
X102111568Y-57445982D01*
X102371162Y-57241447D01*
X102642613Y-57053947D01*
X102900804Y-56899807D01*
X103120621Y-56795351D01*
X103276950Y-56756905D01*
X103362864Y-56765831D01*
G36*
X103362864Y-56765831D02*
G01*
X103414286Y-56797240D01*
X103414176Y-56798761D01*
X103383882Y-56873580D01*
X103310238Y-57021547D01*
X103208326Y-57212273D01*
X103146600Y-57326983D01*
X102968393Y-57706581D01*
X102865071Y-58035016D01*
X102829656Y-58340736D01*
X102855171Y-58652186D01*
X102857760Y-58668053D01*
X102888112Y-59049886D01*
X102839713Y-59373068D01*
X102707325Y-59673797D01*
X102645214Y-59791295D01*
X102545314Y-60005437D01*
X102449277Y-60234286D01*
X102396125Y-60362625D01*
X102252062Y-60633270D01*
X102079523Y-60834740D01*
X101849567Y-61004191D01*
X101791734Y-61039585D01*
X101683500Y-61094584D01*
X101620527Y-61087038D01*
X101561274Y-61019096D01*
X101496625Y-60896174D01*
X101492409Y-60730142D01*
X101573975Y-60516154D01*
X101601407Y-60456490D01*
X101635197Y-60324121D01*
X101617190Y-60184785D01*
X101540373Y-60008616D01*
X101397731Y-59765751D01*
X101338056Y-59666013D01*
X101254740Y-59487708D01*
X101216250Y-59305140D01*
X101206905Y-59060340D01*
X101208148Y-58985912D01*
X101252521Y-58648975D01*
X101369334Y-58334600D01*
X101570637Y-58017510D01*
X101868478Y-57672425D01*
X101888944Y-57651227D01*
X102111568Y-57445982D01*
X102371162Y-57241447D01*
X102642613Y-57053947D01*
X102900804Y-56899807D01*
X103120621Y-56795351D01*
X103276950Y-56756905D01*
X103362864Y-56765831D01*
G37*
X102477540Y-61358564D02*
X102661584Y-61369838D01*
X102776895Y-61390785D01*
X102825032Y-61420713D01*
X102852773Y-61496618D01*
X102818411Y-61541761D01*
X102691940Y-61576137D01*
X102507363Y-61554800D01*
X102295476Y-61478736D01*
X102053571Y-61362886D01*
X102366125Y-61357991D01*
X102477540Y-61358564D01*
G36*
X102477540Y-61358564D02*
G01*
X102661584Y-61369838D01*
X102776895Y-61390785D01*
X102825032Y-61420713D01*
X102852773Y-61496618D01*
X102818411Y-61541761D01*
X102691940Y-61576137D01*
X102507363Y-61554800D01*
X102295476Y-61478736D01*
X102053571Y-61362886D01*
X102366125Y-61357991D01*
X102477540Y-61358564D01*
G37*
X101557622Y-61214318D02*
X101600000Y-61265950D01*
X101598428Y-61271986D01*
X101539524Y-61292619D01*
X101522948Y-61290158D01*
X101479048Y-61228574D01*
X101483796Y-61206700D01*
X101539524Y-61201905D01*
X101557622Y-61214318D01*
G36*
X101557622Y-61214318D02*
G01*
X101600000Y-61265950D01*
X101598428Y-61271986D01*
X101539524Y-61292619D01*
X101522948Y-61290158D01*
X101479048Y-61228574D01*
X101483796Y-61206700D01*
X101539524Y-61201905D01*
X101557622Y-61214318D01*
G37*
X101384984Y-60785875D02*
X101436368Y-60884405D01*
X101453781Y-60975338D01*
X101470812Y-61065834D01*
X101466044Y-61085439D01*
X101394804Y-61111191D01*
X101345170Y-61096948D01*
X101267724Y-60997277D01*
X101237143Y-60834102D01*
X101247522Y-60783236D01*
X101307753Y-60748545D01*
X101384984Y-60785875D01*
G36*
X101384984Y-60785875D02*
G01*
X101436368Y-60884405D01*
X101453781Y-60975338D01*
X101470812Y-61065834D01*
X101466044Y-61085439D01*
X101394804Y-61111191D01*
X101345170Y-61096948D01*
X101267724Y-60997277D01*
X101237143Y-60834102D01*
X101247522Y-60783236D01*
X101307753Y-60748545D01*
X101384984Y-60785875D01*
G37*
X101092062Y-60839411D02*
X101174782Y-60944881D01*
X101180389Y-60958854D01*
X101219183Y-61073663D01*
X101203123Y-61138032D01*
X101110509Y-61173947D01*
X100919643Y-61203395D01*
X100700010Y-61243004D01*
X100357924Y-61344529D01*
X100057667Y-61481041D01*
X99818882Y-61640887D01*
X99661208Y-61812410D01*
X99604286Y-61983957D01*
X99607750Y-62013073D01*
X99670034Y-62148977D01*
X99785714Y-62290477D01*
X99827313Y-62331471D01*
X99940134Y-62474062D01*
X99954873Y-62583800D01*
X99876770Y-62683288D01*
X99838976Y-62709606D01*
X99763984Y-62708588D01*
X99669042Y-62615098D01*
X99606529Y-62545524D01*
X99525279Y-62507231D01*
X99424336Y-62549549D01*
X99391791Y-62568167D01*
X99274995Y-62597809D01*
X99198380Y-62528869D01*
X99146611Y-62350350D01*
X99136011Y-62215548D01*
X99188566Y-61926921D01*
X99323989Y-61637124D01*
X99524476Y-61379282D01*
X99772220Y-61186518D01*
X99887476Y-61131370D01*
X100108763Y-61046128D01*
X100369750Y-60959672D01*
X100632455Y-60883579D01*
X100858895Y-60829432D01*
X101011090Y-60808810D01*
X101092062Y-60839411D01*
G36*
X101092062Y-60839411D02*
G01*
X101174782Y-60944881D01*
X101180389Y-60958854D01*
X101219183Y-61073663D01*
X101203123Y-61138032D01*
X101110509Y-61173947D01*
X100919643Y-61203395D01*
X100700010Y-61243004D01*
X100357924Y-61344529D01*
X100057667Y-61481041D01*
X99818882Y-61640887D01*
X99661208Y-61812410D01*
X99604286Y-61983957D01*
X99607750Y-62013073D01*
X99670034Y-62148977D01*
X99785714Y-62290477D01*
X99827313Y-62331471D01*
X99940134Y-62474062D01*
X99954873Y-62583800D01*
X99876770Y-62683288D01*
X99838976Y-62709606D01*
X99763984Y-62708588D01*
X99669042Y-62615098D01*
X99606529Y-62545524D01*
X99525279Y-62507231D01*
X99424336Y-62549549D01*
X99391791Y-62568167D01*
X99274995Y-62597809D01*
X99198380Y-62528869D01*
X99146611Y-62350350D01*
X99136011Y-62215548D01*
X99188566Y-61926921D01*
X99323989Y-61637124D01*
X99524476Y-61379282D01*
X99772220Y-61186518D01*
X99887476Y-61131370D01*
X100108763Y-61046128D01*
X100369750Y-60959672D01*
X100632455Y-60883579D01*
X100858895Y-60829432D01*
X101011090Y-60808810D01*
X101092062Y-60839411D01*
G37*
X100511238Y-62864898D02*
X100562487Y-62897681D01*
X100615148Y-62982754D01*
X100558582Y-63054415D01*
X100400938Y-63095618D01*
X100355793Y-63098002D01*
X100231740Y-63065544D01*
X100208458Y-62981766D01*
X100295896Y-62868209D01*
X100383510Y-62827098D01*
X100511238Y-62864898D01*
G36*
X100511238Y-62864898D02*
G01*
X100562487Y-62897681D01*
X100615148Y-62982754D01*
X100558582Y-63054415D01*
X100400938Y-63095618D01*
X100355793Y-63098002D01*
X100231740Y-63065544D01*
X100208458Y-62981766D01*
X100295896Y-62868209D01*
X100383510Y-62827098D01*
X100511238Y-62864898D01*
G37*
X100171110Y-62669817D02*
X100205259Y-62768597D01*
X100146444Y-62929452D01*
X100054824Y-63024667D01*
X99947316Y-63037991D01*
X99869855Y-62960391D01*
X99867014Y-62950548D01*
X99890650Y-62851917D01*
X99970028Y-62743392D01*
X100068839Y-62664482D01*
X100150777Y-62654697D01*
X100171110Y-62669817D01*
G36*
X100171110Y-62669817D02*
G01*
X100205259Y-62768597D01*
X100146444Y-62929452D01*
X100054824Y-63024667D01*
X99947316Y-63037991D01*
X99869855Y-62960391D01*
X99867014Y-62950548D01*
X99890650Y-62851917D01*
X99970028Y-62743392D01*
X100068839Y-62664482D01*
X100150777Y-62654697D01*
X100171110Y-62669817D01*
G37*
X99725238Y-62895239D02*
X99695000Y-62925477D01*
X99664762Y-62895239D01*
X99695000Y-62865000D01*
X99725238Y-62895239D01*
G36*
X99725238Y-62895239D02*
G01*
X99695000Y-62925477D01*
X99664762Y-62895239D01*
X99695000Y-62865000D01*
X99725238Y-62895239D01*
G37*
X99289378Y-61503827D02*
X99208413Y-61670596D01*
X99173262Y-61737496D01*
X99080745Y-62030062D01*
X99071771Y-62323632D01*
X99140537Y-62591748D01*
X99281241Y-62807950D01*
X99488080Y-62945780D01*
X99606388Y-63012686D01*
X99653303Y-63099122D01*
X99599938Y-63164297D01*
X99450946Y-63178988D01*
X99303727Y-63139295D01*
X99082830Y-63005231D01*
X98890789Y-62810324D01*
X98765532Y-62587315D01*
X98745140Y-62519589D01*
X98727724Y-62215942D01*
X98822252Y-61912110D01*
X99023423Y-61627806D01*
X99098817Y-61551116D01*
X99228809Y-61442753D01*
X99294253Y-61427434D01*
X99289378Y-61503827D01*
G36*
X99289378Y-61503827D02*
G01*
X99208413Y-61670596D01*
X99173262Y-61737496D01*
X99080745Y-62030062D01*
X99071771Y-62323632D01*
X99140537Y-62591748D01*
X99281241Y-62807950D01*
X99488080Y-62945780D01*
X99606388Y-63012686D01*
X99653303Y-63099122D01*
X99599938Y-63164297D01*
X99450946Y-63178988D01*
X99303727Y-63139295D01*
X99082830Y-63005231D01*
X98890789Y-62810324D01*
X98765532Y-62587315D01*
X98745140Y-62519589D01*
X98727724Y-62215942D01*
X98822252Y-61912110D01*
X99023423Y-61627806D01*
X99098817Y-61551116D01*
X99228809Y-61442753D01*
X99294253Y-61427434D01*
X99289378Y-61503827D01*
G37*
X99520305Y-62657594D02*
X99503423Y-62708150D01*
X99483333Y-62813040D01*
X99478708Y-62832788D01*
X99422857Y-62834762D01*
X99375317Y-62782220D01*
X99375203Y-62677929D01*
X99459829Y-62598642D01*
X99524657Y-62589554D01*
X99520305Y-62657594D01*
G36*
X99520305Y-62657594D02*
G01*
X99503423Y-62708150D01*
X99483333Y-62813040D01*
X99478708Y-62832788D01*
X99422857Y-62834762D01*
X99375317Y-62782220D01*
X99375203Y-62677929D01*
X99459829Y-62598642D01*
X99524657Y-62589554D01*
X99520305Y-62657594D01*
G37*
X98737102Y-61897717D02*
X98702043Y-62009178D01*
X98660790Y-62126467D01*
X98638981Y-62341804D01*
X98661170Y-62557913D01*
X98725458Y-62717370D01*
X98771382Y-62784374D01*
X98812620Y-62877396D01*
X98793338Y-62905743D01*
X98715176Y-62848476D01*
X98694214Y-62820882D01*
X98638581Y-62671570D01*
X98600485Y-62460455D01*
X98583862Y-62231822D01*
X98592650Y-62029953D01*
X98630784Y-61899133D01*
X98656856Y-61865968D01*
X98715987Y-61840633D01*
X98737102Y-61897717D01*
G36*
X98737102Y-61897717D02*
G01*
X98702043Y-62009178D01*
X98660790Y-62126467D01*
X98638981Y-62341804D01*
X98661170Y-62557913D01*
X98725458Y-62717370D01*
X98771382Y-62784374D01*
X98812620Y-62877396D01*
X98793338Y-62905743D01*
X98715176Y-62848476D01*
X98694214Y-62820882D01*
X98638581Y-62671570D01*
X98600485Y-62460455D01*
X98583862Y-62231822D01*
X98592650Y-62029953D01*
X98630784Y-61899133D01*
X98656856Y-61865968D01*
X98715987Y-61840633D01*
X98737102Y-61897717D01*
G37*
G04 #@! TD*
%LPC*%
D12*
G04 #@! TO.C,J2*
X81915000Y-82550000D03*
D13*
X84455000Y-82550000D03*
X86995000Y-82550000D03*
X89535000Y-82550000D03*
G04 #@! TD*
D14*
G04 #@! TO.C,XA1*
X108807500Y-90140000D03*
X108807500Y-64740000D03*
X108807500Y-85060000D03*
X108807500Y-82520000D03*
X108807500Y-79980000D03*
X108807500Y-77440000D03*
X108807500Y-74900000D03*
X108807500Y-72360000D03*
X108807500Y-69820000D03*
X108807500Y-67280000D03*
X108807500Y-87600000D03*
X93567500Y-59660000D03*
X93567500Y-57120000D03*
X93567500Y-67280000D03*
X93567500Y-69820000D03*
X93567500Y-72360000D03*
X93567500Y-74900000D03*
X93567500Y-77440000D03*
X93567500Y-79980000D03*
X93567500Y-82520000D03*
X93567500Y-85060000D03*
X93567500Y-87600000D03*
X93567500Y-90140000D03*
X93567500Y-92680000D03*
X108807500Y-92680000D03*
D15*
X93567500Y-64740000D03*
X108807500Y-59660000D03*
D14*
X93567500Y-62200000D03*
X108807500Y-62200000D03*
X108807500Y-57120000D03*
G04 #@! TD*
D12*
G04 #@! TO.C,J1*
X89535000Y-91440000D03*
D13*
X86995000Y-91440000D03*
X84455000Y-91440000D03*
X81915000Y-91440000D03*
G04 #@! TD*
%LPD*%
M02*
