%TF.GenerationSoftware,KiCad,Pcbnew,(6.0.7)*%
%TF.CreationDate,2022-08-02T21:03:16-07:00*%
%TF.ProjectId,Bike Flamingo for Itsy Bitsy 5V 16MHz_ USB Power Rev 1,42696b65-2046-46c6-916d-696e676f2066,rev?*%
%TF.SameCoordinates,Original*%
%TF.FileFunction,Copper,L1,Top*%
%TF.FilePolarity,Positive*%
%FSLAX46Y46*%
G04 Gerber Fmt 4.6, Leading zero omitted, Abs format (unit mm)*
G04 Created by KiCad (PCBNEW (6.0.7)) date 2022-08-02 21:03:16*
%MOMM*%
%LPD*%
G01*
G04 APERTURE LIST*
G04 Aperture macros list*
%AMRoundRect*
0 Rectangle with rounded corners*
0 $1 Rounding radius*
0 $2 $3 $4 $5 $6 $7 $8 $9 X,Y pos of 4 corners*
0 Add a 4 corners polygon primitive as box body*
4,1,4,$2,$3,$4,$5,$6,$7,$8,$9,$2,$3,0*
0 Add four circle primitives for the rounded corners*
1,1,$1+$1,$2,$3*
1,1,$1+$1,$4,$5*
1,1,$1+$1,$6,$7*
1,1,$1+$1,$8,$9*
0 Add four rect primitives between the rounded corners*
20,1,$1+$1,$2,$3,$4,$5,0*
20,1,$1+$1,$4,$5,$6,$7,0*
20,1,$1+$1,$6,$7,$8,$9,0*
20,1,$1+$1,$8,$9,$2,$3,0*%
G04 Aperture macros list end*
%TA.AperFunction,ComponentPad*%
%ADD10C,1.524000*%
%TD*%
%TA.AperFunction,ComponentPad*%
%ADD11R,2.100000X2.100000*%
%TD*%
%TA.AperFunction,ComponentPad*%
%ADD12C,2.100000*%
%TD*%
%TA.AperFunction,SMDPad,CuDef*%
%ADD13RoundRect,0.250000X0.925000X-0.875000X0.925000X0.875000X-0.925000X0.875000X-0.925000X-0.875000X0*%
%TD*%
%TA.AperFunction,SMDPad,CuDef*%
%ADD14RoundRect,0.237500X-0.250000X-0.237500X0.250000X-0.237500X0.250000X0.237500X-0.250000X0.237500X0*%
%TD*%
%TA.AperFunction,SMDPad,CuDef*%
%ADD15RoundRect,0.237500X0.250000X0.237500X-0.250000X0.237500X-0.250000X-0.237500X0.250000X-0.237500X0*%
%TD*%
%TA.AperFunction,ComponentPad*%
%ADD16RoundRect,0.250000X-0.350000X-0.625000X0.350000X-0.625000X0.350000X0.625000X-0.350000X0.625000X0*%
%TD*%
%TA.AperFunction,ComponentPad*%
%ADD17O,1.200000X1.750000*%
%TD*%
%TA.AperFunction,ViaPad*%
%ADD18C,0.800000*%
%TD*%
%TA.AperFunction,Conductor*%
%ADD19C,0.250000*%
%TD*%
%TA.AperFunction,Conductor*%
%ADD20C,1.000000*%
%TD*%
G04 APERTURE END LIST*
D10*
%TO.P,U1,33,VBAT*%
%TO.N,Net-(J1-Pad1)*%
X133350000Y-85090000D03*
%TO.P,U1,32,GND*%
%TO.N,GND*%
X133350000Y-87630000D03*
%TO.P,U1,31,USB*%
%TO.N,VBUS*%
X133350000Y-90170000D03*
%TO.P,U1,30,D13*%
%TO.N,unconnected-(U1-Pad30)*%
X133350000Y-92710000D03*
%TO.P,U1,29,D12*%
%TO.N,unconnected-(U1-Pad29)*%
X133350000Y-95250000D03*
%TO.P,U1,28,D11*%
%TO.N,/BUTT_C*%
X133350000Y-97790000D03*
%TO.P,U1,27,D10*%
%TO.N,/BUTT_B*%
X133350000Y-100330000D03*
%TO.P,U1,26,D9*%
%TO.N,/BUTT_A*%
X133350000Y-102870000D03*
%TO.P,U1,25,D7*%
%TO.N,unconnected-(U1-Pad25)*%
X133350000Y-105410000D03*
%TO.P,U1,24,D5*%
%TO.N,unconnected-(U1-Pad24)*%
X133350000Y-107950000D03*
%TO.P,U1,23,3-SCL*%
%TO.N,/SCL*%
X133350000Y-110490000D03*
%TO.P,U1,22,2-SDA*%
%TO.N,/SDA*%
X133350000Y-113030000D03*
%TO.P,U1,21,D1*%
%TO.N,unconnected-(U1-Pad21)*%
X133350000Y-115570000D03*
%TO.P,U1,20,D0*%
%TO.N,unconnected-(U1-Pad20)*%
X133350000Y-118110000D03*
%TO.P,U1,14,3V*%
%TO.N,unconnected-(U1-Pad14)*%
X118110000Y-118110000D03*
%TO.P,U1,13,MISO*%
%TO.N,unconnected-(U1-Pad13)*%
X118110000Y-115570000D03*
%TO.P,U1,12,MOSI*%
%TO.N,unconnected-(U1-Pad12)*%
X118110000Y-113030000D03*
%TO.P,U1,11,SCK*%
%TO.N,unconnected-(U1-Pad11)*%
X118110000Y-110490000D03*
%TO.P,U1,10,A5*%
%TO.N,unconnected-(U1-Pad10)*%
X118110000Y-107950000D03*
%TO.P,U1,9,A4*%
%TO.N,unconnected-(U1-Pad9)*%
X118110000Y-105410000D03*
%TO.P,U1,8,A3*%
%TO.N,unconnected-(U1-Pad8)*%
X118110000Y-102870000D03*
%TO.P,U1,7,A2*%
%TO.N,unconnected-(U1-Pad7)*%
X118110000Y-100330000D03*
%TO.P,U1,6,A1*%
%TO.N,unconnected-(U1-Pad6)*%
X118110000Y-97790000D03*
%TO.P,U1,5,A0*%
%TO.N,unconnected-(U1-Pad5)*%
X118110000Y-95250000D03*
%TO.P,U1,4,GND*%
%TO.N,GND*%
X118110000Y-92710000D03*
%TO.P,U1,3,ARF*%
%TO.N,unconnected-(U1-Pad3)*%
X118110000Y-90170000D03*
%TO.P,U1,2,5V*%
%TO.N,+5V*%
X118110000Y-87630000D03*
%TO.P,U1,1,RST*%
%TO.N,unconnected-(U1-Pad1)*%
X118110000Y-85090000D03*
%TD*%
D11*
%TO.P,J3,1,Pin_1*%
%TO.N,GND*%
X129540000Y-121915000D03*
D12*
%TO.P,J3,2,Pin_2*%
%TO.N,/SCL*%
X129540000Y-124455000D03*
%TO.P,J3,3,Pin_3*%
%TO.N,/SDA*%
X129540000Y-126995000D03*
%TO.P,J3,4,Pin_4*%
%TO.N,VBUS*%
X129540000Y-129535000D03*
%TD*%
D13*
%TO.P,C1,1*%
%TO.N,VBUS*%
X122936000Y-113792000D03*
%TO.P,C1,2*%
%TO.N,GND*%
X122936000Y-108692000D03*
%TD*%
D14*
%TO.P,R2,1*%
%TO.N,+5V*%
X128025500Y-100330000D03*
%TO.P,R2,2*%
%TO.N,/BUTT_B*%
X129850500Y-100330000D03*
%TD*%
D11*
%TO.P,J2,1,Pin_1*%
%TO.N,GND*%
X121920000Y-129540000D03*
D12*
%TO.P,J2,2,Pin_2*%
%TO.N,/BUTT_A*%
X121920000Y-127000000D03*
%TO.P,J2,3,Pin_3*%
%TO.N,/BUTT_B*%
X121920000Y-124460000D03*
%TO.P,J2,4,Pin_4*%
%TO.N,/BUTT_C*%
X121920000Y-121920000D03*
%TD*%
D14*
%TO.P,R3,1*%
%TO.N,+5V*%
X128025500Y-104140000D03*
%TO.P,R3,2*%
%TO.N,/BUTT_C*%
X129850500Y-104140000D03*
%TD*%
%TO.P,R1,1*%
%TO.N,+5V*%
X128025500Y-96520000D03*
%TO.P,R1,2*%
%TO.N,/BUTT_A*%
X129850500Y-96520000D03*
%TD*%
D15*
%TO.P,R4,1*%
%TO.N,/SDA*%
X130452500Y-113136000D03*
%TO.P,R4,2*%
%TO.N,/SCL*%
X128627500Y-113136000D03*
%TD*%
%TO.P,R5,1*%
%TO.N,/SCL*%
X130452500Y-109326000D03*
%TO.P,R5,2*%
%TO.N,/SDA*%
X128627500Y-109326000D03*
%TD*%
D16*
%TO.P,J1,1,Pin_1*%
%TO.N,Net-(J1-Pad1)*%
X124906000Y-91546000D03*
D17*
%TO.P,J1,2,Pin_2*%
%TO.N,GND*%
X126906000Y-91546000D03*
%TD*%
D18*
%TO.N,/BUTT_A*%
X131567701Y-97531701D03*
X131826000Y-101092000D03*
X129286000Y-106934000D03*
X121666000Y-106934000D03*
%TO.N,GND*%
X122936000Y-110998000D03*
%TO.N,+5V*%
X120396000Y-87630000D03*
X126492000Y-97282000D03*
%TO.N,/BUTT_B*%
X121412000Y-102616000D03*
X128854538Y-103298111D03*
%TO.N,/BUTT_C*%
X120358500Y-105918000D03*
X128778000Y-105918000D03*
X130810000Y-99314000D03*
X130810000Y-101092000D03*
%TO.N,/SCL*%
X128270000Y-111506000D03*
X130302000Y-111506000D03*
%TD*%
D19*
%TO.N,/BUTT_A*%
X133350000Y-102616000D02*
X131826000Y-101092000D01*
X133350000Y-102870000D02*
X133350000Y-102616000D01*
X129286000Y-106934000D02*
X133350000Y-102870000D01*
%TO.N,/SDA*%
X133350000Y-113030000D02*
X130558500Y-113030000D01*
X130558500Y-113030000D02*
X130452500Y-113136000D01*
X129584500Y-112268000D02*
X130452500Y-113136000D01*
X129286000Y-112268000D02*
X129584500Y-112268000D01*
X129286000Y-109984500D02*
X129286000Y-112268000D01*
X128627500Y-109326000D02*
X129286000Y-109984500D01*
%TO.N,/SCL*%
X128270000Y-112778500D02*
X128627500Y-113136000D01*
X128270000Y-111506000D02*
X128270000Y-112778500D01*
%TO.N,/SDA*%
X132080000Y-125222000D02*
X131313000Y-125222000D01*
X132080000Y-115365500D02*
X132080000Y-125222000D01*
X131313000Y-125222000D02*
X129540000Y-126995000D01*
X130452500Y-113738000D02*
X132080000Y-115365500D01*
X130452500Y-113136000D02*
X130452500Y-113738000D01*
%TO.N,/SCL*%
X128627500Y-113136000D02*
X128514500Y-113136000D01*
X128627500Y-113895500D02*
X128627500Y-113136000D01*
X131318000Y-116586000D02*
X128627500Y-113895500D01*
X128514500Y-113136000D02*
X128270000Y-112891500D01*
X131318000Y-123952000D02*
X131318000Y-116586000D01*
X130815000Y-124455000D02*
X131318000Y-123952000D01*
X129540000Y-124455000D02*
X130815000Y-124455000D01*
X130452500Y-109928000D02*
X130452500Y-109326000D01*
X131014500Y-110490000D02*
X130452500Y-109928000D01*
%TO.N,/BUTT_A*%
X121158000Y-107442000D02*
X121666000Y-106934000D01*
%TO.N,/BUTT_C*%
X128778000Y-105918000D02*
X128778000Y-105212500D01*
X128778000Y-105212500D02*
X129850500Y-104140000D01*
%TO.N,/BUTT_B*%
X128854538Y-103298111D02*
X129850500Y-102302149D01*
X129850500Y-102302149D02*
X129850500Y-100330000D01*
%TO.N,/BUTT_C*%
X130810000Y-101092000D02*
X130810000Y-103180500D01*
X130810000Y-103180500D02*
X129850500Y-104140000D01*
D20*
%TO.N,Net-(J1-Pad1)*%
X130556000Y-85090000D02*
X133350000Y-85090000D01*
X124906000Y-90740000D02*
X130556000Y-85090000D01*
X124906000Y-91546000D02*
X124906000Y-90740000D01*
D19*
%TO.N,+5V*%
X127254000Y-96520000D02*
X128025500Y-96520000D01*
X126492000Y-97282000D02*
X127254000Y-96520000D01*
%TO.N,/BUTT_A*%
X130862201Y-97531701D02*
X129850500Y-96520000D01*
X131567701Y-97531701D02*
X130862201Y-97531701D01*
%TO.N,/BUTT_C*%
X130810000Y-99314000D02*
X132334000Y-97790000D01*
X132334000Y-97790000D02*
X133350000Y-97790000D01*
%TO.N,/BUTT_A*%
X124460000Y-124460000D02*
X121920000Y-127000000D01*
X124460000Y-121412000D02*
X124460000Y-124460000D01*
X121158000Y-107442000D02*
X121158000Y-118110000D01*
X121158000Y-118110000D02*
X124460000Y-121412000D01*
%TO.N,GND*%
X122936000Y-108692000D02*
X122936000Y-110998000D01*
%TO.N,+5V*%
X120396000Y-87630000D02*
X118110000Y-87630000D01*
%TO.N,/BUTT_C*%
X120358500Y-105918000D02*
X120396000Y-105955500D01*
X120396000Y-105955500D02*
X120396000Y-119126000D01*
X120396000Y-119126000D02*
X121920000Y-120650000D01*
X121920000Y-120650000D02*
X121920000Y-121920000D01*
%TO.N,/BUTT_B*%
X119634000Y-122174000D02*
X121920000Y-124460000D01*
X121412000Y-102616000D02*
X119634000Y-104394000D01*
X119634000Y-104394000D02*
X119634000Y-122174000D01*
%TO.N,/SCL*%
X131014500Y-110793500D02*
X130302000Y-111506000D01*
X131014500Y-110490000D02*
X131014500Y-110793500D01*
X133350000Y-110490000D02*
X131014500Y-110490000D01*
%TO.N,+5V*%
X128025500Y-100330000D02*
X128025500Y-104140000D01*
X128025500Y-96520000D02*
X128025500Y-100330000D01*
%TO.N,/BUTT_B*%
X133350000Y-100330000D02*
X129850500Y-100330000D01*
%TD*%
%TA.AperFunction,Conductor*%
%TO.N,VBUS*%
G36*
X129655197Y-84348502D02*
G01*
X129701690Y-84402158D01*
X129711794Y-84472432D01*
X129682300Y-84537012D01*
X129676171Y-84543595D01*
X124236621Y-89983145D01*
X124226478Y-89992247D01*
X124196975Y-90015968D01*
X124164709Y-90054421D01*
X124161528Y-90058069D01*
X124159885Y-90059881D01*
X124157691Y-90062075D01*
X124130358Y-90095349D01*
X124129696Y-90096147D01*
X124069846Y-90167474D01*
X124067278Y-90172144D01*
X124063897Y-90176261D01*
X124032860Y-90234145D01*
X124020023Y-90258086D01*
X124019394Y-90259245D01*
X123977538Y-90335381D01*
X123977535Y-90335389D01*
X123974567Y-90340787D01*
X123972955Y-90345869D01*
X123970438Y-90350563D01*
X123968635Y-90356461D01*
X123968634Y-90356463D01*
X123943292Y-90439353D01*
X123942900Y-90440612D01*
X123928339Y-90486515D01*
X123915497Y-90514532D01*
X123863885Y-90598262D01*
X123808203Y-90766139D01*
X123797500Y-90870600D01*
X123797500Y-92221400D01*
X123808474Y-92327166D01*
X123810655Y-92333702D01*
X123810655Y-92333704D01*
X123841135Y-92425064D01*
X123864450Y-92494946D01*
X123957522Y-92645348D01*
X124082697Y-92770305D01*
X124088927Y-92774145D01*
X124088928Y-92774146D01*
X124226090Y-92858694D01*
X124233262Y-92863115D01*
X124258217Y-92871392D01*
X124394611Y-92916632D01*
X124394613Y-92916632D01*
X124401139Y-92918797D01*
X124407975Y-92919497D01*
X124407978Y-92919498D01*
X124446386Y-92923433D01*
X124505600Y-92929500D01*
X125306400Y-92929500D01*
X125309646Y-92929163D01*
X125309650Y-92929163D01*
X125405308Y-92919238D01*
X125405312Y-92919237D01*
X125412166Y-92918526D01*
X125418702Y-92916345D01*
X125418704Y-92916345D01*
X125553443Y-92871392D01*
X125579946Y-92862550D01*
X125730348Y-92769478D01*
X125855305Y-92644303D01*
X125887075Y-92592764D01*
X125939846Y-92545271D01*
X126009918Y-92533847D01*
X126075042Y-92562121D01*
X126093418Y-92581045D01*
X126099604Y-92588920D01*
X126104135Y-92592852D01*
X126104138Y-92592855D01*
X126190058Y-92667412D01*
X126259363Y-92727552D01*
X126264549Y-92730552D01*
X126264553Y-92730555D01*
X126360957Y-92786326D01*
X126442454Y-92833473D01*
X126642271Y-92902861D01*
X126648206Y-92903722D01*
X126648208Y-92903722D01*
X126845664Y-92932352D01*
X126845667Y-92932352D01*
X126851604Y-92933213D01*
X127062899Y-92923433D01*
X127194077Y-92891819D01*
X127262701Y-92875281D01*
X127262703Y-92875280D01*
X127268534Y-92873875D01*
X127273992Y-92871393D01*
X127273996Y-92871392D01*
X127389041Y-92819084D01*
X127461087Y-92786326D01*
X127633611Y-92663946D01*
X127779881Y-92511150D01*
X127894620Y-92333452D01*
X127918840Y-92273354D01*
X127971442Y-92142832D01*
X127971443Y-92142829D01*
X127973686Y-92137263D01*
X128014228Y-91929663D01*
X128014500Y-91924101D01*
X128014500Y-91218154D01*
X127999452Y-91060434D01*
X127939908Y-90857466D01*
X127916587Y-90812185D01*
X127845804Y-90674751D01*
X127845802Y-90674748D01*
X127843058Y-90669420D01*
X127712396Y-90503080D01*
X127707865Y-90499148D01*
X127707862Y-90499145D01*
X127557167Y-90368379D01*
X127552637Y-90364448D01*
X127547451Y-90361448D01*
X127547447Y-90361445D01*
X127374742Y-90261533D01*
X127369546Y-90258527D01*
X127169729Y-90189139D01*
X127163792Y-90188278D01*
X127157970Y-90186859D01*
X127158543Y-90184508D01*
X127103611Y-90159359D01*
X127065284Y-90099597D01*
X127065350Y-90028600D01*
X127097118Y-89975117D01*
X130936829Y-86135405D01*
X130999141Y-86101379D01*
X131025924Y-86098500D01*
X132535510Y-86098500D01*
X132607781Y-86121287D01*
X132712323Y-86194488D01*
X132717305Y-86196811D01*
X132717310Y-86196814D01*
X132822373Y-86245805D01*
X132875658Y-86292722D01*
X132895119Y-86360999D01*
X132874577Y-86428959D01*
X132822373Y-86474195D01*
X132717311Y-86523186D01*
X132717306Y-86523189D01*
X132712324Y-86525512D01*
X132707817Y-86528668D01*
X132707815Y-86528669D01*
X132534730Y-86649864D01*
X132534727Y-86649866D01*
X132530219Y-86653023D01*
X132373023Y-86810219D01*
X132369866Y-86814727D01*
X132369864Y-86814730D01*
X132274353Y-86951134D01*
X132245512Y-86992324D01*
X132243189Y-86997306D01*
X132243186Y-86997311D01*
X132195873Y-87098774D01*
X132151560Y-87193804D01*
X132094022Y-87408537D01*
X132074647Y-87630000D01*
X132094022Y-87851463D01*
X132151560Y-88066196D01*
X132153882Y-88071177D01*
X132153883Y-88071178D01*
X132243186Y-88262689D01*
X132243189Y-88262694D01*
X132245512Y-88267676D01*
X132248668Y-88272183D01*
X132248669Y-88272185D01*
X132277070Y-88312745D01*
X132373023Y-88449781D01*
X132530219Y-88606977D01*
X132534727Y-88610134D01*
X132534730Y-88610136D01*
X132588500Y-88647786D01*
X132712323Y-88734488D01*
X132717305Y-88736811D01*
X132717310Y-88736814D01*
X132908822Y-88826117D01*
X132913804Y-88828440D01*
X132919112Y-88829862D01*
X132919114Y-88829863D01*
X132984949Y-88847503D01*
X133128537Y-88885978D01*
X133350000Y-88905353D01*
X133571463Y-88885978D01*
X133715051Y-88847503D01*
X133780886Y-88829863D01*
X133780888Y-88829862D01*
X133786196Y-88828440D01*
X133932250Y-88760334D01*
X134002442Y-88749673D01*
X134067254Y-88778653D01*
X134106111Y-88838073D01*
X134111500Y-88874529D01*
X134111500Y-91465471D01*
X134091498Y-91533592D01*
X134037842Y-91580085D01*
X133967568Y-91590189D01*
X133932250Y-91579666D01*
X133791178Y-91513883D01*
X133791177Y-91513882D01*
X133786196Y-91511560D01*
X133780888Y-91510138D01*
X133780886Y-91510137D01*
X133715051Y-91492497D01*
X133571463Y-91454022D01*
X133350000Y-91434647D01*
X133128537Y-91454022D01*
X132984949Y-91492497D01*
X132919114Y-91510137D01*
X132919112Y-91510138D01*
X132913804Y-91511560D01*
X132908823Y-91513882D01*
X132908822Y-91513883D01*
X132717311Y-91603186D01*
X132717306Y-91603189D01*
X132712324Y-91605512D01*
X132707817Y-91608668D01*
X132707815Y-91608669D01*
X132534730Y-91729864D01*
X132534727Y-91729866D01*
X132530219Y-91733023D01*
X132373023Y-91890219D01*
X132369866Y-91894727D01*
X132369864Y-91894730D01*
X132248669Y-92067815D01*
X132245512Y-92072324D01*
X132243189Y-92077306D01*
X132243186Y-92077311D01*
X132215230Y-92137263D01*
X132151560Y-92273804D01*
X132094022Y-92488537D01*
X132074647Y-92710000D01*
X132094022Y-92931463D01*
X132151560Y-93146196D01*
X132153882Y-93151177D01*
X132153883Y-93151178D01*
X132243186Y-93342689D01*
X132243189Y-93342694D01*
X132245512Y-93347676D01*
X132373023Y-93529781D01*
X132530219Y-93686977D01*
X132534727Y-93690134D01*
X132534730Y-93690136D01*
X132588500Y-93727786D01*
X132712323Y-93814488D01*
X132717305Y-93816811D01*
X132717310Y-93816814D01*
X132822373Y-93865805D01*
X132875658Y-93912722D01*
X132895119Y-93980999D01*
X132874577Y-94048959D01*
X132822373Y-94094195D01*
X132717311Y-94143186D01*
X132717306Y-94143189D01*
X132712324Y-94145512D01*
X132707817Y-94148668D01*
X132707815Y-94148669D01*
X132534730Y-94269864D01*
X132534727Y-94269866D01*
X132530219Y-94273023D01*
X132373023Y-94430219D01*
X132245512Y-94612324D01*
X132243189Y-94617306D01*
X132243186Y-94617311D01*
X132153883Y-94808822D01*
X132151560Y-94813804D01*
X132094022Y-95028537D01*
X132074647Y-95250000D01*
X132094022Y-95471463D01*
X132151560Y-95686196D01*
X132153882Y-95691177D01*
X132153883Y-95691178D01*
X132243186Y-95882689D01*
X132243189Y-95882694D01*
X132245512Y-95887676D01*
X132248668Y-95892183D01*
X132248669Y-95892185D01*
X132366620Y-96060636D01*
X132373023Y-96069781D01*
X132530219Y-96226977D01*
X132534727Y-96230134D01*
X132534730Y-96230136D01*
X132543382Y-96236194D01*
X132712323Y-96354488D01*
X132717305Y-96356811D01*
X132717310Y-96356814D01*
X132822373Y-96405805D01*
X132875658Y-96452722D01*
X132895119Y-96520999D01*
X132874577Y-96588959D01*
X132822373Y-96634195D01*
X132717311Y-96683186D01*
X132717306Y-96683189D01*
X132712324Y-96685512D01*
X132707817Y-96688668D01*
X132707815Y-96688669D01*
X132534730Y-96809864D01*
X132534727Y-96809866D01*
X132530219Y-96813023D01*
X132420406Y-96922836D01*
X132358094Y-96956862D01*
X132287279Y-96951797D01*
X132237677Y-96918053D01*
X132178954Y-96852835D01*
X132024453Y-96740583D01*
X132018425Y-96737899D01*
X132018423Y-96737898D01*
X131856020Y-96665592D01*
X131856019Y-96665592D01*
X131849989Y-96662907D01*
X131756588Y-96643054D01*
X131669645Y-96624573D01*
X131669640Y-96624573D01*
X131663188Y-96623201D01*
X131472214Y-96623201D01*
X131465762Y-96624573D01*
X131465757Y-96624573D01*
X131378813Y-96643054D01*
X131285413Y-96662907D01*
X131279383Y-96665592D01*
X131279382Y-96665592D01*
X131116980Y-96737898D01*
X131110949Y-96740583D01*
X131105611Y-96744462D01*
X131103916Y-96745440D01*
X131034921Y-96762178D01*
X130967829Y-96738958D01*
X130951821Y-96725416D01*
X130883405Y-96657000D01*
X130849379Y-96594688D01*
X130846500Y-96567905D01*
X130846500Y-96232928D01*
X130835707Y-96128907D01*
X130780654Y-95963893D01*
X130689116Y-95815969D01*
X130674062Y-95800941D01*
X130571184Y-95698242D01*
X130571179Y-95698238D01*
X130566003Y-95693071D01*
X130554850Y-95686196D01*
X130424150Y-95605631D01*
X130424148Y-95605630D01*
X130417920Y-95601791D01*
X130252809Y-95547026D01*
X130245973Y-95546326D01*
X130245970Y-95546325D01*
X130194474Y-95541049D01*
X130150072Y-95536500D01*
X129550928Y-95536500D01*
X129547682Y-95536837D01*
X129547678Y-95536837D01*
X129453765Y-95546581D01*
X129453761Y-95546582D01*
X129446907Y-95547293D01*
X129440371Y-95549474D01*
X129440369Y-95549474D01*
X129307605Y-95593768D01*
X129281893Y-95602346D01*
X129133969Y-95693884D01*
X129128796Y-95699066D01*
X129027253Y-95800786D01*
X128964970Y-95834865D01*
X128894150Y-95829862D01*
X128849063Y-95800941D01*
X128746188Y-95698246D01*
X128746183Y-95698242D01*
X128741003Y-95693071D01*
X128729850Y-95686196D01*
X128599150Y-95605631D01*
X128599148Y-95605630D01*
X128592920Y-95601791D01*
X128427809Y-95547026D01*
X128420973Y-95546326D01*
X128420970Y-95546325D01*
X128369474Y-95541049D01*
X128325072Y-95536500D01*
X127725928Y-95536500D01*
X127722682Y-95536837D01*
X127722678Y-95536837D01*
X127628765Y-95546581D01*
X127628761Y-95546582D01*
X127621907Y-95547293D01*
X127615371Y-95549474D01*
X127615369Y-95549474D01*
X127482605Y-95593768D01*
X127456893Y-95602346D01*
X127308969Y-95693884D01*
X127303796Y-95699066D01*
X127191242Y-95811816D01*
X127191238Y-95811821D01*
X127186071Y-95816997D01*
X127182231Y-95823227D01*
X127182230Y-95823228D01*
X127167183Y-95847639D01*
X127114411Y-95895132D01*
X127097733Y-95901206D01*
X127095203Y-95901526D01*
X127087833Y-95904444D01*
X127087829Y-95904445D01*
X127054092Y-95917802D01*
X127042865Y-95921646D01*
X127000407Y-95933982D01*
X126993581Y-95938019D01*
X126982972Y-95944293D01*
X126965224Y-95952988D01*
X126946383Y-95960448D01*
X126939967Y-95965110D01*
X126939966Y-95965110D01*
X126910613Y-95986436D01*
X126900693Y-95992952D01*
X126869465Y-96011420D01*
X126869462Y-96011422D01*
X126862638Y-96015458D01*
X126848317Y-96029779D01*
X126833284Y-96042619D01*
X126816893Y-96054528D01*
X126811840Y-96060636D01*
X126788708Y-96088598D01*
X126780718Y-96097378D01*
X126541501Y-96336595D01*
X126479189Y-96370621D01*
X126452406Y-96373500D01*
X126396513Y-96373500D01*
X126390061Y-96374872D01*
X126390056Y-96374872D01*
X126303112Y-96393353D01*
X126209712Y-96413206D01*
X126203682Y-96415891D01*
X126203681Y-96415891D01*
X126041278Y-96488197D01*
X126041276Y-96488198D01*
X126035248Y-96490882D01*
X125880747Y-96603134D01*
X125876326Y-96608044D01*
X125876325Y-96608045D01*
X125758451Y-96738958D01*
X125752960Y-96745056D01*
X125657473Y-96910444D01*
X125598458Y-97092072D01*
X125578496Y-97282000D01*
X125598458Y-97471928D01*
X125657473Y-97653556D01*
X125752960Y-97818944D01*
X125757378Y-97823851D01*
X125757379Y-97823852D01*
X125860806Y-97938719D01*
X125880747Y-97960866D01*
X125945394Y-98007835D01*
X126021080Y-98062824D01*
X126035248Y-98073118D01*
X126041276Y-98075802D01*
X126041278Y-98075803D01*
X126196433Y-98144882D01*
X126209712Y-98150794D01*
X126299697Y-98169921D01*
X126390056Y-98189128D01*
X126390061Y-98189128D01*
X126396513Y-98190500D01*
X126587487Y-98190500D01*
X126593939Y-98189128D01*
X126593944Y-98189128D01*
X126684303Y-98169921D01*
X126774288Y-98150794D01*
X126787567Y-98144882D01*
X126942722Y-98075803D01*
X126942724Y-98075802D01*
X126948752Y-98073118D01*
X126962921Y-98062824D01*
X127038606Y-98007835D01*
X127103253Y-97960866D01*
X127172365Y-97884110D01*
X127232809Y-97846870D01*
X127303793Y-97848222D01*
X127362778Y-97887735D01*
X127391036Y-97952866D01*
X127392000Y-97968420D01*
X127392000Y-99382301D01*
X127371998Y-99450422D01*
X127332302Y-99489445D01*
X127308969Y-99503884D01*
X127303796Y-99509066D01*
X127191242Y-99621816D01*
X127191238Y-99621821D01*
X127186071Y-99626997D01*
X127182231Y-99633227D01*
X127182230Y-99633228D01*
X127142729Y-99697311D01*
X127094791Y-99775080D01*
X127040026Y-99940191D01*
X127029500Y-100042928D01*
X127029500Y-100617072D01*
X127040293Y-100721093D01*
X127042474Y-100727629D01*
X127042474Y-100727631D01*
X127057003Y-100771178D01*
X127095346Y-100886107D01*
X127186884Y-101034031D01*
X127309997Y-101156929D01*
X127316224Y-101160767D01*
X127316226Y-101160769D01*
X127332116Y-101170564D01*
X127379609Y-101223336D01*
X127392000Y-101277824D01*
X127392000Y-103192301D01*
X127371998Y-103260422D01*
X127332302Y-103299445D01*
X127308969Y-103313884D01*
X127303796Y-103319066D01*
X127191242Y-103431816D01*
X127191238Y-103431821D01*
X127186071Y-103436997D01*
X127182231Y-103443227D01*
X127182230Y-103443228D01*
X127109385Y-103561405D01*
X127094791Y-103585080D01*
X127040026Y-103750191D01*
X127029500Y-103852928D01*
X127029500Y-104427072D01*
X127029837Y-104430318D01*
X127029837Y-104430322D01*
X127035341Y-104483363D01*
X127040293Y-104531093D01*
X127042474Y-104537629D01*
X127042474Y-104537631D01*
X127076785Y-104640473D01*
X127095346Y-104696107D01*
X127186884Y-104844031D01*
X127192066Y-104849204D01*
X127304816Y-104961758D01*
X127304821Y-104961762D01*
X127309997Y-104966929D01*
X127316227Y-104970769D01*
X127316228Y-104970770D01*
X127441249Y-105047834D01*
X127458080Y-105058209D01*
X127623191Y-105112974D01*
X127630027Y-105113674D01*
X127630030Y-105113675D01*
X127681526Y-105118951D01*
X127725928Y-105123500D01*
X127987865Y-105123500D01*
X128055986Y-105143502D01*
X128102479Y-105197158D01*
X128112583Y-105267432D01*
X128081503Y-105333808D01*
X128038960Y-105381056D01*
X127943473Y-105546444D01*
X127884458Y-105728072D01*
X127864496Y-105918000D01*
X127865186Y-105924565D01*
X127879824Y-106063834D01*
X127884458Y-106107928D01*
X127943473Y-106289556D01*
X128038960Y-106454944D01*
X128043378Y-106459851D01*
X128043379Y-106459852D01*
X128141412Y-106568729D01*
X128166747Y-106596866D01*
X128188571Y-106612722D01*
X128315903Y-106705235D01*
X128315906Y-106705236D01*
X128321248Y-106709118D01*
X128322426Y-106709643D01*
X128370058Y-106759599D01*
X128383374Y-106830504D01*
X128372496Y-106934000D01*
X128373186Y-106940565D01*
X128386633Y-107068502D01*
X128392458Y-107123928D01*
X128451473Y-107305556D01*
X128454776Y-107311278D01*
X128454777Y-107311279D01*
X128458260Y-107317311D01*
X128546960Y-107470944D01*
X128674747Y-107612866D01*
X128829248Y-107725118D01*
X128835276Y-107727802D01*
X128835278Y-107727803D01*
X128929754Y-107769866D01*
X129003712Y-107802794D01*
X129097113Y-107822647D01*
X129184056Y-107841128D01*
X129184061Y-107841128D01*
X129190513Y-107842500D01*
X129381487Y-107842500D01*
X129387939Y-107841128D01*
X129387944Y-107841128D01*
X129474887Y-107822647D01*
X129568288Y-107802794D01*
X129642246Y-107769866D01*
X129736722Y-107727803D01*
X129736724Y-107727802D01*
X129742752Y-107725118D01*
X129897253Y-107612866D01*
X130025040Y-107470944D01*
X130113740Y-107317311D01*
X130117223Y-107311279D01*
X130117224Y-107311278D01*
X130120527Y-107305556D01*
X130179542Y-107123928D01*
X130185368Y-107068502D01*
X130194993Y-106976920D01*
X130196907Y-106958706D01*
X130223920Y-106893050D01*
X130233122Y-106882782D01*
X131865213Y-105250691D01*
X131927525Y-105216665D01*
X131998340Y-105221730D01*
X132055176Y-105264277D01*
X132079987Y-105330797D01*
X132079829Y-105350767D01*
X132074647Y-105410000D01*
X132094022Y-105631463D01*
X132151560Y-105846196D01*
X132153882Y-105851177D01*
X132153883Y-105851178D01*
X132243186Y-106042689D01*
X132243189Y-106042694D01*
X132245512Y-106047676D01*
X132248668Y-106052183D01*
X132248669Y-106052185D01*
X132310296Y-106140197D01*
X132373023Y-106229781D01*
X132530219Y-106386977D01*
X132534727Y-106390134D01*
X132534730Y-106390136D01*
X132544613Y-106397056D01*
X132712323Y-106514488D01*
X132717305Y-106516811D01*
X132717310Y-106516814D01*
X132822373Y-106565805D01*
X132875658Y-106612722D01*
X132895119Y-106680999D01*
X132874577Y-106748959D01*
X132822373Y-106794195D01*
X132717311Y-106843186D01*
X132717306Y-106843189D01*
X132712324Y-106845512D01*
X132707817Y-106848668D01*
X132707815Y-106848669D01*
X132534730Y-106969864D01*
X132534727Y-106969866D01*
X132530219Y-106973023D01*
X132373023Y-107130219D01*
X132369866Y-107134727D01*
X132369864Y-107134730D01*
X132308151Y-107222866D01*
X132245512Y-107312324D01*
X132243189Y-107317306D01*
X132243186Y-107317311D01*
X132174212Y-107465226D01*
X132151560Y-107513804D01*
X132094022Y-107728537D01*
X132074647Y-107950000D01*
X132094022Y-108171463D01*
X132095446Y-108176776D01*
X132142744Y-108353293D01*
X132151560Y-108386196D01*
X132153882Y-108391177D01*
X132153883Y-108391178D01*
X132243186Y-108582689D01*
X132243189Y-108582694D01*
X132245512Y-108587676D01*
X132373023Y-108769781D01*
X132530219Y-108926977D01*
X132534727Y-108930134D01*
X132534730Y-108930136D01*
X132551338Y-108941765D01*
X132712323Y-109054488D01*
X132717305Y-109056811D01*
X132717310Y-109056814D01*
X132822373Y-109105805D01*
X132875658Y-109152722D01*
X132895119Y-109220999D01*
X132874577Y-109288959D01*
X132822373Y-109334195D01*
X132717311Y-109383186D01*
X132717306Y-109383189D01*
X132712324Y-109385512D01*
X132707817Y-109388668D01*
X132707815Y-109388669D01*
X132534730Y-109509864D01*
X132534727Y-109509866D01*
X132530219Y-109513023D01*
X132373023Y-109670219D01*
X132369866Y-109674727D01*
X132369864Y-109674730D01*
X132280209Y-109802771D01*
X132224752Y-109847099D01*
X132176996Y-109856500D01*
X131562922Y-109856500D01*
X131494801Y-109836498D01*
X131448308Y-109782842D01*
X131438680Y-109715881D01*
X131437974Y-109715809D01*
X131438264Y-109712982D01*
X131438264Y-109712981D01*
X131448500Y-109613072D01*
X131448500Y-109038928D01*
X131443797Y-108993602D01*
X131438419Y-108941765D01*
X131438418Y-108941761D01*
X131437707Y-108934907D01*
X131435062Y-108926977D01*
X131384972Y-108776841D01*
X131382654Y-108769893D01*
X131291116Y-108621969D01*
X131276062Y-108606941D01*
X131173184Y-108504242D01*
X131173179Y-108504238D01*
X131168003Y-108499071D01*
X131019920Y-108407791D01*
X130854809Y-108353026D01*
X130847973Y-108352326D01*
X130847970Y-108352325D01*
X130796474Y-108347049D01*
X130752072Y-108342500D01*
X130152928Y-108342500D01*
X130149682Y-108342837D01*
X130149678Y-108342837D01*
X130055765Y-108352581D01*
X130055761Y-108352582D01*
X130048907Y-108353293D01*
X130042371Y-108355474D01*
X130042369Y-108355474D01*
X129935352Y-108391178D01*
X129883893Y-108408346D01*
X129735969Y-108499884D01*
X129730796Y-108505066D01*
X129629253Y-108606786D01*
X129566970Y-108640865D01*
X129496150Y-108635862D01*
X129451063Y-108606941D01*
X129348188Y-108504246D01*
X129348183Y-108504242D01*
X129343003Y-108499071D01*
X129194920Y-108407791D01*
X129029809Y-108353026D01*
X129022973Y-108352326D01*
X129022970Y-108352325D01*
X128971474Y-108347049D01*
X128927072Y-108342500D01*
X128327928Y-108342500D01*
X128324682Y-108342837D01*
X128324678Y-108342837D01*
X128230765Y-108352581D01*
X128230761Y-108352582D01*
X128223907Y-108353293D01*
X128217371Y-108355474D01*
X128217369Y-108355474D01*
X128110352Y-108391178D01*
X128058893Y-108408346D01*
X127910969Y-108499884D01*
X127905796Y-108505066D01*
X127793242Y-108617816D01*
X127793238Y-108617821D01*
X127788071Y-108622997D01*
X127784231Y-108629227D01*
X127784230Y-108629228D01*
X127701364Y-108763662D01*
X127696791Y-108771080D01*
X127642026Y-108936191D01*
X127631500Y-109038928D01*
X127631500Y-109613072D01*
X127631837Y-109616318D01*
X127631837Y-109616322D01*
X127637898Y-109674730D01*
X127642293Y-109717093D01*
X127644474Y-109723629D01*
X127644474Y-109723631D01*
X127670877Y-109802771D01*
X127697346Y-109882107D01*
X127788884Y-110030031D01*
X127794066Y-110035204D01*
X127906816Y-110147758D01*
X127906821Y-110147762D01*
X127911997Y-110152929D01*
X128060080Y-110244209D01*
X128225191Y-110298974D01*
X128232027Y-110299674D01*
X128232030Y-110299675D01*
X128283526Y-110304951D01*
X128327928Y-110309500D01*
X128526500Y-110309500D01*
X128594621Y-110329502D01*
X128641114Y-110383158D01*
X128652500Y-110435500D01*
X128652500Y-110502909D01*
X128632498Y-110571030D01*
X128578842Y-110617523D01*
X128508568Y-110627627D01*
X128500303Y-110626156D01*
X128371944Y-110598872D01*
X128371939Y-110598872D01*
X128365487Y-110597500D01*
X128174513Y-110597500D01*
X128168061Y-110598872D01*
X128168056Y-110598872D01*
X128081112Y-110617353D01*
X127987712Y-110637206D01*
X127981682Y-110639891D01*
X127981681Y-110639891D01*
X127819278Y-110712197D01*
X127819276Y-110712198D01*
X127813248Y-110714882D01*
X127658747Y-110827134D01*
X127530960Y-110969056D01*
X127514249Y-110998000D01*
X127439381Y-111127676D01*
X127435473Y-111134444D01*
X127376458Y-111316072D01*
X127356496Y-111506000D01*
X127357186Y-111512565D01*
X127374863Y-111680749D01*
X127376458Y-111695928D01*
X127435473Y-111877556D01*
X127438776Y-111883278D01*
X127438777Y-111883279D01*
X127463160Y-111925512D01*
X127530960Y-112042944D01*
X127604137Y-112124215D01*
X127634853Y-112188221D01*
X127636500Y-112208524D01*
X127636500Y-112699733D01*
X127635973Y-112710916D01*
X127634298Y-112718409D01*
X127634547Y-112726335D01*
X127634547Y-112726336D01*
X127636438Y-112786486D01*
X127636500Y-112790445D01*
X127636500Y-112793687D01*
X127635844Y-112806529D01*
X127631500Y-112848928D01*
X127631500Y-113423072D01*
X127642293Y-113527093D01*
X127697346Y-113692107D01*
X127788884Y-113840031D01*
X127794066Y-113845204D01*
X127906816Y-113957758D01*
X127906821Y-113957762D01*
X127911997Y-113962929D01*
X127918227Y-113966769D01*
X127918228Y-113966770D01*
X127957337Y-113990877D01*
X128004830Y-114043649D01*
X128008748Y-114054408D01*
X128009026Y-114054298D01*
X128025304Y-114095412D01*
X128029149Y-114106642D01*
X128041482Y-114149093D01*
X128045515Y-114155912D01*
X128045517Y-114155917D01*
X128051793Y-114166528D01*
X128060488Y-114184276D01*
X128067948Y-114203117D01*
X128072610Y-114209533D01*
X128072610Y-114209534D01*
X128093936Y-114238887D01*
X128100452Y-114248807D01*
X128122958Y-114286862D01*
X128137279Y-114301183D01*
X128150119Y-114316216D01*
X128162028Y-114332607D01*
X128168134Y-114337658D01*
X128196105Y-114360798D01*
X128204884Y-114368788D01*
X130647595Y-116811499D01*
X130681621Y-116873811D01*
X130684500Y-116900594D01*
X130684500Y-120230500D01*
X130664498Y-120298621D01*
X130610842Y-120345114D01*
X130558500Y-120356500D01*
X128441866Y-120356500D01*
X128379684Y-120363255D01*
X128243295Y-120414385D01*
X128126739Y-120501739D01*
X128039385Y-120618295D01*
X127988255Y-120754684D01*
X127981500Y-120816866D01*
X127981500Y-123013134D01*
X127988255Y-123075316D01*
X128039385Y-123211705D01*
X128126739Y-123328261D01*
X128166851Y-123358323D01*
X128223965Y-123401128D01*
X128266479Y-123457988D01*
X128271504Y-123528806D01*
X128255832Y-123567788D01*
X128147073Y-123745268D01*
X128053195Y-123971908D01*
X128033351Y-124054563D01*
X127999013Y-124197595D01*
X127995928Y-124210443D01*
X127976681Y-124455000D01*
X127995928Y-124699557D01*
X127997082Y-124704364D01*
X127997083Y-124704370D01*
X128024260Y-124817568D01*
X128053195Y-124938092D01*
X128147073Y-125164732D01*
X128172392Y-125206049D01*
X128266894Y-125360263D01*
X128275248Y-125373896D01*
X128278463Y-125377660D01*
X128278465Y-125377663D01*
X128339717Y-125449379D01*
X128434567Y-125560433D01*
X128438323Y-125563641D01*
X128515069Y-125629189D01*
X128553878Y-125688640D01*
X128554384Y-125759635D01*
X128515069Y-125820811D01*
X128477381Y-125853000D01*
X128434567Y-125889567D01*
X128275248Y-126076104D01*
X128147073Y-126285268D01*
X128053195Y-126511908D01*
X127995928Y-126750443D01*
X127976681Y-126995000D01*
X127995928Y-127239557D01*
X127997082Y-127244364D01*
X127997083Y-127244370D01*
X128033351Y-127395437D01*
X128053195Y-127478092D01*
X128147073Y-127704732D01*
X128275248Y-127913896D01*
X128278463Y-127917660D01*
X128278465Y-127917663D01*
X128394800Y-128053872D01*
X128434567Y-128100433D01*
X128438323Y-128103641D01*
X128593422Y-128236109D01*
X128621104Y-128259752D01*
X128625327Y-128262340D01*
X128625330Y-128262342D01*
X128694515Y-128304738D01*
X128830268Y-128387927D01*
X128960487Y-128441866D01*
X129052335Y-128479911D01*
X129052337Y-128479912D01*
X129056908Y-128481805D01*
X129139563Y-128501649D01*
X129290630Y-128537917D01*
X129290636Y-128537918D01*
X129295443Y-128539072D01*
X129540000Y-128558319D01*
X129784557Y-128539072D01*
X129789364Y-128537918D01*
X129789370Y-128537917D01*
X129940437Y-128501649D01*
X130023092Y-128481805D01*
X130027663Y-128479912D01*
X130027665Y-128479911D01*
X130119513Y-128441866D01*
X130249732Y-128387927D01*
X130385485Y-128304738D01*
X130454670Y-128262342D01*
X130454673Y-128262340D01*
X130458896Y-128259752D01*
X130486579Y-128236109D01*
X130641677Y-128103641D01*
X130645433Y-128100433D01*
X130685200Y-128053872D01*
X130801535Y-127917663D01*
X130801537Y-127917660D01*
X130804752Y-127913896D01*
X130932927Y-127704732D01*
X131026805Y-127478092D01*
X131046649Y-127395437D01*
X131082917Y-127244370D01*
X131082918Y-127244364D01*
X131084072Y-127239557D01*
X131103319Y-126995000D01*
X131084072Y-126750443D01*
X131026805Y-126511908D01*
X131024909Y-126507330D01*
X131023918Y-126504281D01*
X131021890Y-126433313D01*
X131054656Y-126376248D01*
X131538499Y-125892405D01*
X131600811Y-125858379D01*
X131627594Y-125855500D01*
X132008207Y-125855500D01*
X132031816Y-125857732D01*
X132032119Y-125857790D01*
X132032123Y-125857790D01*
X132039906Y-125859275D01*
X132095951Y-125855749D01*
X132103862Y-125855500D01*
X132119856Y-125855500D01*
X132135730Y-125853494D01*
X132143590Y-125852752D01*
X132171049Y-125851024D01*
X132191737Y-125849723D01*
X132191738Y-125849723D01*
X132199650Y-125849225D01*
X132207191Y-125846775D01*
X132207487Y-125846679D01*
X132230631Y-125841506D01*
X132230935Y-125841468D01*
X132230940Y-125841467D01*
X132238797Y-125840474D01*
X132246162Y-125837558D01*
X132246166Y-125837557D01*
X132291011Y-125819801D01*
X132298430Y-125817129D01*
X132351875Y-125799764D01*
X132358572Y-125795514D01*
X132358831Y-125795350D01*
X132379958Y-125784585D01*
X132380246Y-125784471D01*
X132380251Y-125784468D01*
X132387617Y-125781552D01*
X132394025Y-125776896D01*
X132394031Y-125776893D01*
X132433052Y-125748542D01*
X132439589Y-125744099D01*
X132487018Y-125714000D01*
X132492659Y-125707993D01*
X132510446Y-125692312D01*
X132510691Y-125692134D01*
X132510693Y-125692132D01*
X132517107Y-125687472D01*
X132522162Y-125681362D01*
X132552903Y-125644204D01*
X132558134Y-125638270D01*
X132591158Y-125603102D01*
X132591160Y-125603099D01*
X132596586Y-125597321D01*
X132600558Y-125590097D01*
X132613881Y-125570494D01*
X132614080Y-125570254D01*
X132614084Y-125570247D01*
X132619133Y-125564144D01*
X132643047Y-125513324D01*
X132646629Y-125506292D01*
X132673695Y-125457060D01*
X132675665Y-125449385D01*
X132675668Y-125449379D01*
X132675744Y-125449081D01*
X132683776Y-125426772D01*
X132683906Y-125426497D01*
X132683909Y-125426489D01*
X132687283Y-125419318D01*
X132697806Y-125364151D01*
X132699532Y-125356429D01*
X132711529Y-125309707D01*
X132711529Y-125309706D01*
X132713500Y-125302030D01*
X132713500Y-125293793D01*
X132715732Y-125270184D01*
X132715790Y-125269881D01*
X132715790Y-125269877D01*
X132717275Y-125262094D01*
X132713749Y-125206049D01*
X132713500Y-125198138D01*
X132713500Y-119412817D01*
X132733502Y-119344696D01*
X132787158Y-119298203D01*
X132857432Y-119288099D01*
X132892751Y-119298623D01*
X132908817Y-119306115D01*
X132908822Y-119306117D01*
X132913804Y-119308440D01*
X132919112Y-119309862D01*
X132919114Y-119309863D01*
X132984949Y-119327503D01*
X133128537Y-119365978D01*
X133350000Y-119385353D01*
X133571463Y-119365978D01*
X133715051Y-119327503D01*
X133780886Y-119309863D01*
X133780888Y-119309862D01*
X133786196Y-119308440D01*
X133808150Y-119298203D01*
X133932250Y-119240334D01*
X134002442Y-119229673D01*
X134067254Y-119258653D01*
X134106111Y-119318073D01*
X134111500Y-119354529D01*
X134111500Y-130760633D01*
X134110000Y-130780018D01*
X134106309Y-130803724D01*
X134107473Y-130812626D01*
X134107750Y-130814746D01*
X134108207Y-130843431D01*
X134108162Y-130843891D01*
X134098084Y-130946212D01*
X134093267Y-130970432D01*
X134057134Y-131089546D01*
X134047685Y-131112355D01*
X133989013Y-131222124D01*
X133975295Y-131242655D01*
X133896329Y-131338876D01*
X133878876Y-131356329D01*
X133782655Y-131435295D01*
X133762124Y-131449013D01*
X133652355Y-131507685D01*
X133629546Y-131517134D01*
X133510432Y-131553267D01*
X133486211Y-131558084D01*
X133390191Y-131567541D01*
X133374132Y-131567091D01*
X133374123Y-131567800D01*
X133365147Y-131567690D01*
X133356276Y-131566309D01*
X133347374Y-131567473D01*
X133347372Y-131567473D01*
X133334856Y-131569110D01*
X133324714Y-131570436D01*
X133308379Y-131571500D01*
X118159367Y-131571500D01*
X118139982Y-131570000D01*
X118125148Y-131567690D01*
X118125145Y-131567690D01*
X118116276Y-131566309D01*
X118106341Y-131567608D01*
X118105254Y-131567750D01*
X118076569Y-131568207D01*
X118003259Y-131560987D01*
X117973788Y-131558084D01*
X117949568Y-131553267D01*
X117830454Y-131517134D01*
X117807645Y-131507685D01*
X117697876Y-131449013D01*
X117677345Y-131435295D01*
X117581124Y-131356329D01*
X117563671Y-131338876D01*
X117484705Y-131242655D01*
X117470987Y-131222124D01*
X117412315Y-131112355D01*
X117402866Y-131089546D01*
X117366733Y-130970432D01*
X117361916Y-130946212D01*
X117352711Y-130852755D01*
X117352607Y-130829151D01*
X117352768Y-130827354D01*
X117353576Y-130822552D01*
X117353729Y-130810000D01*
X117349773Y-130782376D01*
X117348500Y-130764514D01*
X117348500Y-119354529D01*
X117368502Y-119286408D01*
X117422158Y-119239915D01*
X117492432Y-119229811D01*
X117527750Y-119240334D01*
X117651851Y-119298203D01*
X117673804Y-119308440D01*
X117679112Y-119309862D01*
X117679114Y-119309863D01*
X117744949Y-119327503D01*
X117888537Y-119365978D01*
X118110000Y-119385353D01*
X118331463Y-119365978D01*
X118475051Y-119327503D01*
X118540886Y-119309863D01*
X118540888Y-119309862D01*
X118546196Y-119308440D01*
X118567249Y-119298623D01*
X118742690Y-119216814D01*
X118742695Y-119216811D01*
X118747677Y-119214488D01*
X118802229Y-119176290D01*
X118869503Y-119153602D01*
X118938363Y-119170887D01*
X118986948Y-119222656D01*
X119000500Y-119279503D01*
X119000500Y-122095233D01*
X118999973Y-122106416D01*
X118998298Y-122113909D01*
X118998547Y-122121835D01*
X118998547Y-122121836D01*
X119000438Y-122181986D01*
X119000500Y-122185945D01*
X119000500Y-122213856D01*
X119000997Y-122217790D01*
X119000997Y-122217791D01*
X119001005Y-122217856D01*
X119001938Y-122229693D01*
X119003327Y-122273889D01*
X119008978Y-122293339D01*
X119012987Y-122312700D01*
X119015526Y-122332797D01*
X119018445Y-122340168D01*
X119018445Y-122340170D01*
X119031804Y-122373912D01*
X119035649Y-122385142D01*
X119045771Y-122419983D01*
X119047982Y-122427593D01*
X119052015Y-122434412D01*
X119052017Y-122434417D01*
X119058293Y-122445028D01*
X119066988Y-122462776D01*
X119074448Y-122481617D01*
X119079110Y-122488033D01*
X119079110Y-122488034D01*
X119100436Y-122517387D01*
X119106952Y-122527307D01*
X119129458Y-122565362D01*
X119143779Y-122579683D01*
X119156619Y-122594716D01*
X119168528Y-122611107D01*
X119191042Y-122629732D01*
X119202605Y-122639298D01*
X119211384Y-122647288D01*
X120405344Y-123841248D01*
X120439370Y-123903560D01*
X120436082Y-123969281D01*
X120435091Y-123972330D01*
X120433195Y-123976908D01*
X120432040Y-123981720D01*
X120432039Y-123981724D01*
X120378284Y-124205630D01*
X120375928Y-124215443D01*
X120356681Y-124460000D01*
X120375928Y-124704557D01*
X120377082Y-124709364D01*
X120377083Y-124709370D01*
X120408709Y-124841101D01*
X120433195Y-124943092D01*
X120527073Y-125169732D01*
X120655248Y-125378896D01*
X120658463Y-125382660D01*
X120658465Y-125382663D01*
X120770061Y-125513324D01*
X120814567Y-125565433D01*
X120818323Y-125568641D01*
X120895069Y-125634189D01*
X120933878Y-125693640D01*
X120934384Y-125764635D01*
X120895069Y-125825811D01*
X120857695Y-125857732D01*
X120814567Y-125894567D01*
X120811359Y-125898323D01*
X120662736Y-126072337D01*
X120655248Y-126081104D01*
X120527073Y-126290268D01*
X120433195Y-126516908D01*
X120432040Y-126521720D01*
X120378284Y-126745630D01*
X120375928Y-126755443D01*
X120356681Y-127000000D01*
X120375928Y-127244557D01*
X120433195Y-127483092D01*
X120527073Y-127709732D01*
X120614822Y-127852926D01*
X120635832Y-127887212D01*
X120654370Y-127955745D01*
X120632913Y-128023422D01*
X120603965Y-128053872D01*
X120506739Y-128126739D01*
X120419385Y-128243295D01*
X120368255Y-128379684D01*
X120361500Y-128441866D01*
X120361500Y-130638134D01*
X120368255Y-130700316D01*
X120419385Y-130836705D01*
X120506739Y-130953261D01*
X120623295Y-131040615D01*
X120759684Y-131091745D01*
X120821866Y-131098500D01*
X123018134Y-131098500D01*
X123080316Y-131091745D01*
X123216705Y-131040615D01*
X123333261Y-130953261D01*
X123420615Y-130836705D01*
X123471745Y-130700316D01*
X123478500Y-130638134D01*
X123478500Y-128441866D01*
X123471745Y-128379684D01*
X123420615Y-128243295D01*
X123333261Y-128126739D01*
X123236035Y-128053872D01*
X123193521Y-127997012D01*
X123188496Y-127926194D01*
X123204168Y-127887212D01*
X123225178Y-127852926D01*
X123312927Y-127709732D01*
X123406805Y-127483092D01*
X123464072Y-127244557D01*
X123483319Y-127000000D01*
X123464072Y-126755443D01*
X123461717Y-126745630D01*
X123407961Y-126521724D01*
X123407960Y-126521720D01*
X123406805Y-126516908D01*
X123404909Y-126512330D01*
X123403918Y-126509281D01*
X123401890Y-126438313D01*
X123434656Y-126381248D01*
X124852247Y-124963657D01*
X124860537Y-124956113D01*
X124867018Y-124952000D01*
X124913659Y-124902332D01*
X124916413Y-124899491D01*
X124936134Y-124879770D01*
X124938612Y-124876575D01*
X124946318Y-124867553D01*
X124971158Y-124841101D01*
X124976586Y-124835321D01*
X124986346Y-124817568D01*
X124997199Y-124801045D01*
X125004753Y-124791306D01*
X125009613Y-124785041D01*
X125027176Y-124744457D01*
X125032383Y-124733827D01*
X125053695Y-124695060D01*
X125055666Y-124687383D01*
X125055668Y-124687378D01*
X125058732Y-124675442D01*
X125065138Y-124656730D01*
X125070034Y-124645417D01*
X125073181Y-124638145D01*
X125080097Y-124594481D01*
X125082504Y-124582860D01*
X125091528Y-124547711D01*
X125091528Y-124547710D01*
X125093500Y-124540030D01*
X125093500Y-124519769D01*
X125095051Y-124500058D01*
X125096979Y-124487885D01*
X125098219Y-124480057D01*
X125094059Y-124436046D01*
X125093500Y-124424189D01*
X125093500Y-121490767D01*
X125094027Y-121479584D01*
X125095702Y-121472091D01*
X125093562Y-121404014D01*
X125093500Y-121400055D01*
X125093500Y-121372144D01*
X125092995Y-121368144D01*
X125092062Y-121356301D01*
X125090922Y-121320029D01*
X125090673Y-121312110D01*
X125085022Y-121292658D01*
X125081014Y-121273306D01*
X125079467Y-121261063D01*
X125078474Y-121253203D01*
X125075556Y-121245832D01*
X125062200Y-121212097D01*
X125058355Y-121200870D01*
X125057721Y-121198687D01*
X125046018Y-121158407D01*
X125041984Y-121151585D01*
X125041981Y-121151579D01*
X125035706Y-121140968D01*
X125027010Y-121123218D01*
X125022472Y-121111756D01*
X125022469Y-121111751D01*
X125019552Y-121104383D01*
X124993573Y-121068625D01*
X124987057Y-121058707D01*
X124968575Y-121027457D01*
X124964542Y-121020637D01*
X124950218Y-121006313D01*
X124937376Y-120991278D01*
X124925472Y-120974893D01*
X124891406Y-120946711D01*
X124882627Y-120938722D01*
X121828405Y-117884500D01*
X121794379Y-117822188D01*
X121791500Y-117795405D01*
X121791500Y-111202754D01*
X121811502Y-111134633D01*
X121865158Y-111088140D01*
X121935432Y-111078036D01*
X122000012Y-111107530D01*
X122038396Y-111167256D01*
X122040746Y-111176556D01*
X122041768Y-111181364D01*
X122042458Y-111187928D01*
X122101473Y-111369556D01*
X122196960Y-111534944D01*
X122201378Y-111539851D01*
X122201379Y-111539852D01*
X122309113Y-111659503D01*
X122324747Y-111676866D01*
X122479248Y-111789118D01*
X122485276Y-111791802D01*
X122485278Y-111791803D01*
X122647681Y-111864109D01*
X122653712Y-111866794D01*
X122747112Y-111886647D01*
X122834056Y-111905128D01*
X122834061Y-111905128D01*
X122840513Y-111906500D01*
X123031487Y-111906500D01*
X123037939Y-111905128D01*
X123037944Y-111905128D01*
X123124887Y-111886647D01*
X123218288Y-111866794D01*
X123224319Y-111864109D01*
X123386722Y-111791803D01*
X123386724Y-111791802D01*
X123392752Y-111789118D01*
X123547253Y-111676866D01*
X123562887Y-111659503D01*
X123670621Y-111539852D01*
X123670622Y-111539851D01*
X123675040Y-111534944D01*
X123770527Y-111369556D01*
X123829542Y-111187928D01*
X123830667Y-111177229D01*
X123848814Y-111004565D01*
X123849504Y-110998000D01*
X123832062Y-110832045D01*
X123830232Y-110814635D01*
X123830232Y-110814633D01*
X123829542Y-110808072D01*
X123770527Y-110626444D01*
X123765377Y-110617523D01*
X123705896Y-110514500D01*
X123689158Y-110445505D01*
X123712378Y-110378413D01*
X123768185Y-110334526D01*
X123815015Y-110325500D01*
X123911400Y-110325500D01*
X123914646Y-110325163D01*
X123914650Y-110325163D01*
X124010308Y-110315238D01*
X124010312Y-110315237D01*
X124017166Y-110314526D01*
X124023702Y-110312345D01*
X124023704Y-110312345D01*
X124177998Y-110260868D01*
X124184946Y-110258550D01*
X124335348Y-110165478D01*
X124460305Y-110040303D01*
X124553115Y-109889738D01*
X124608797Y-109721861D01*
X124619500Y-109617400D01*
X124619500Y-107766600D01*
X124615196Y-107725118D01*
X124609238Y-107667692D01*
X124609237Y-107667688D01*
X124608526Y-107660834D01*
X124552550Y-107493054D01*
X124459478Y-107342652D01*
X124334303Y-107217695D01*
X124328072Y-107213854D01*
X124189968Y-107128725D01*
X124189966Y-107128724D01*
X124183738Y-107124885D01*
X124103995Y-107098436D01*
X124022389Y-107071368D01*
X124022387Y-107071368D01*
X124015861Y-107069203D01*
X124009025Y-107068503D01*
X124009022Y-107068502D01*
X123965969Y-107064091D01*
X123911400Y-107058500D01*
X122704814Y-107058500D01*
X122636693Y-107038498D01*
X122590200Y-106984842D01*
X122579386Y-106935127D01*
X122579504Y-106934000D01*
X122574121Y-106882782D01*
X122560232Y-106750635D01*
X122560232Y-106750633D01*
X122559542Y-106744072D01*
X122500527Y-106562444D01*
X122474183Y-106516814D01*
X122408341Y-106402774D01*
X122405040Y-106397056D01*
X122277253Y-106255134D01*
X122122752Y-106142882D01*
X122116724Y-106140198D01*
X122116722Y-106140197D01*
X121954319Y-106067891D01*
X121954318Y-106067891D01*
X121948288Y-106065206D01*
X121854887Y-106045353D01*
X121767944Y-106026872D01*
X121767939Y-106026872D01*
X121761487Y-106025500D01*
X121570513Y-106025500D01*
X121564060Y-106026872D01*
X121564047Y-106026873D01*
X121423261Y-106056799D01*
X121352471Y-106051398D01*
X121295838Y-106008581D01*
X121271344Y-105941944D01*
X121271548Y-105931170D01*
X121271314Y-105931170D01*
X121271314Y-105924565D01*
X121272004Y-105918000D01*
X121252042Y-105728072D01*
X121193027Y-105546444D01*
X121097540Y-105381056D01*
X121055001Y-105333811D01*
X120974175Y-105244045D01*
X120974174Y-105244044D01*
X120969753Y-105239134D01*
X120861392Y-105160405D01*
X120820594Y-105130763D01*
X120820593Y-105130762D01*
X120815252Y-105126882D01*
X120809224Y-105124198D01*
X120809222Y-105124197D01*
X120646819Y-105051891D01*
X120646818Y-105051891D01*
X120640788Y-105049206D01*
X120547387Y-105029353D01*
X120460444Y-105010872D01*
X120460439Y-105010872D01*
X120453987Y-105009500D01*
X120393500Y-105009500D01*
X120325379Y-104989498D01*
X120278886Y-104935842D01*
X120267500Y-104883500D01*
X120267500Y-104708594D01*
X120287502Y-104640473D01*
X120304405Y-104619499D01*
X121362499Y-103561405D01*
X121424811Y-103527379D01*
X121451594Y-103524500D01*
X121507487Y-103524500D01*
X121513939Y-103523128D01*
X121513944Y-103523128D01*
X121610099Y-103502689D01*
X121694288Y-103484794D01*
X121700319Y-103482109D01*
X121862722Y-103409803D01*
X121862724Y-103409802D01*
X121868752Y-103407118D01*
X122023253Y-103294866D01*
X122054169Y-103260530D01*
X122146621Y-103157852D01*
X122146622Y-103157851D01*
X122151040Y-103152944D01*
X122246527Y-102987556D01*
X122305542Y-102805928D01*
X122325504Y-102616000D01*
X122305542Y-102426072D01*
X122246527Y-102244444D01*
X122151040Y-102079056D01*
X122053182Y-101970373D01*
X122027675Y-101942045D01*
X122027674Y-101942044D01*
X122023253Y-101937134D01*
X121868752Y-101824882D01*
X121862724Y-101822198D01*
X121862722Y-101822197D01*
X121700319Y-101749891D01*
X121700318Y-101749891D01*
X121694288Y-101747206D01*
X121600887Y-101727353D01*
X121513944Y-101708872D01*
X121513939Y-101708872D01*
X121507487Y-101707500D01*
X121316513Y-101707500D01*
X121310061Y-101708872D01*
X121310056Y-101708872D01*
X121223113Y-101727353D01*
X121129712Y-101747206D01*
X121123682Y-101749891D01*
X121123681Y-101749891D01*
X120961278Y-101822197D01*
X120961276Y-101822198D01*
X120955248Y-101824882D01*
X120800747Y-101937134D01*
X120796326Y-101942044D01*
X120796325Y-101942045D01*
X120770819Y-101970373D01*
X120672960Y-102079056D01*
X120577473Y-102244444D01*
X120518458Y-102426072D01*
X120517768Y-102432633D01*
X120517768Y-102432635D01*
X120501093Y-102591293D01*
X120474080Y-102656950D01*
X120464878Y-102667218D01*
X119270608Y-103861487D01*
X119208296Y-103895513D01*
X119184750Y-103893829D01*
X119171589Y-103954332D01*
X119157725Y-103974118D01*
X119157867Y-103974228D01*
X119157865Y-103974230D01*
X119155385Y-103977427D01*
X119147682Y-103986447D01*
X119117414Y-104018679D01*
X119113595Y-104025625D01*
X119113593Y-104025628D01*
X119107652Y-104036434D01*
X119096801Y-104052953D01*
X119084386Y-104068959D01*
X119081241Y-104076228D01*
X119081238Y-104076232D01*
X119066826Y-104109537D01*
X119061609Y-104120187D01*
X119040305Y-104158940D01*
X119038334Y-104166615D01*
X119038334Y-104166616D01*
X119035267Y-104178562D01*
X119028863Y-104197266D01*
X119024531Y-104207278D01*
X119020819Y-104215855D01*
X119019580Y-104223678D01*
X119019577Y-104223688D01*
X119013901Y-104259524D01*
X119011494Y-104271147D01*
X119009066Y-104280603D01*
X118972751Y-104341609D01*
X118909218Y-104373297D01*
X118838639Y-104365606D01*
X118814754Y-104352480D01*
X118759756Y-104313970D01*
X118747677Y-104305512D01*
X118742695Y-104303189D01*
X118742690Y-104303186D01*
X118637627Y-104254195D01*
X118584342Y-104207278D01*
X118564881Y-104139001D01*
X118585423Y-104071041D01*
X118637627Y-104025805D01*
X118742690Y-103976814D01*
X118742695Y-103976811D01*
X118747677Y-103974488D01*
X118909059Y-103861487D01*
X118925270Y-103850136D01*
X118925273Y-103850134D01*
X118929781Y-103846977D01*
X118971906Y-103804852D01*
X119034218Y-103770826D01*
X119057764Y-103772510D01*
X119070925Y-103712007D01*
X119084208Y-103692550D01*
X119086977Y-103689781D01*
X119090919Y-103684152D01*
X119211331Y-103512185D01*
X119211332Y-103512183D01*
X119214488Y-103507676D01*
X119216811Y-103502694D01*
X119216814Y-103502689D01*
X119306117Y-103311178D01*
X119306118Y-103311177D01*
X119308440Y-103306196D01*
X119310436Y-103298749D01*
X119351718Y-103144681D01*
X119365978Y-103091463D01*
X119385353Y-102870000D01*
X119365978Y-102648537D01*
X119308440Y-102433804D01*
X119304959Y-102426339D01*
X119216814Y-102237311D01*
X119216811Y-102237306D01*
X119214488Y-102232324D01*
X119105484Y-102076650D01*
X119090136Y-102054730D01*
X119090134Y-102054727D01*
X119086977Y-102050219D01*
X118929781Y-101893023D01*
X118925273Y-101889866D01*
X118925270Y-101889864D01*
X118849505Y-101836813D01*
X118747677Y-101765512D01*
X118742695Y-101763189D01*
X118742690Y-101763186D01*
X118637627Y-101714195D01*
X118584342Y-101667278D01*
X118564881Y-101599001D01*
X118585423Y-101531041D01*
X118637627Y-101485805D01*
X118742690Y-101436814D01*
X118742695Y-101436811D01*
X118747677Y-101434488D01*
X118871500Y-101347786D01*
X118925270Y-101310136D01*
X118925273Y-101310134D01*
X118929781Y-101306977D01*
X119086977Y-101149781D01*
X119214488Y-100967676D01*
X119216811Y-100962694D01*
X119216814Y-100962689D01*
X119306117Y-100771178D01*
X119306118Y-100771177D01*
X119308440Y-100766196D01*
X119365978Y-100551463D01*
X119385353Y-100330000D01*
X119365978Y-100108537D01*
X119322702Y-99947030D01*
X119309863Y-99899114D01*
X119309862Y-99899112D01*
X119308440Y-99893804D01*
X119250173Y-99768850D01*
X119216814Y-99697311D01*
X119216811Y-99697306D01*
X119214488Y-99692324D01*
X119211331Y-99687815D01*
X119090136Y-99514730D01*
X119090134Y-99514727D01*
X119086977Y-99510219D01*
X118929781Y-99353023D01*
X118925273Y-99349866D01*
X118925270Y-99349864D01*
X118800904Y-99262782D01*
X118747677Y-99225512D01*
X118742695Y-99223189D01*
X118742690Y-99223186D01*
X118637627Y-99174195D01*
X118584342Y-99127278D01*
X118564881Y-99059001D01*
X118585423Y-98991041D01*
X118637627Y-98945805D01*
X118742690Y-98896814D01*
X118742695Y-98896811D01*
X118747677Y-98894488D01*
X118915387Y-98777056D01*
X118925270Y-98770136D01*
X118925273Y-98770134D01*
X118929781Y-98766977D01*
X119086977Y-98609781D01*
X119149705Y-98520197D01*
X119211331Y-98432185D01*
X119211332Y-98432183D01*
X119214488Y-98427676D01*
X119216811Y-98422694D01*
X119216814Y-98422689D01*
X119306117Y-98231178D01*
X119306118Y-98231177D01*
X119308440Y-98226196D01*
X119318373Y-98189128D01*
X119328644Y-98150794D01*
X119365978Y-98011463D01*
X119385353Y-97790000D01*
X119365978Y-97568537D01*
X119327503Y-97424949D01*
X119309863Y-97359114D01*
X119309862Y-97359112D01*
X119308440Y-97353804D01*
X119302439Y-97340934D01*
X119216814Y-97157311D01*
X119216811Y-97157306D01*
X119214488Y-97152324D01*
X119172299Y-97092072D01*
X119090136Y-96974730D01*
X119090134Y-96974727D01*
X119086977Y-96970219D01*
X118929781Y-96813023D01*
X118925273Y-96809866D01*
X118925270Y-96809864D01*
X118825705Y-96740148D01*
X118747677Y-96685512D01*
X118742695Y-96683189D01*
X118742690Y-96683186D01*
X118637627Y-96634195D01*
X118584342Y-96587278D01*
X118564881Y-96519001D01*
X118585423Y-96451041D01*
X118637627Y-96405805D01*
X118742690Y-96356814D01*
X118742695Y-96356811D01*
X118747677Y-96354488D01*
X118916618Y-96236194D01*
X118925270Y-96230136D01*
X118925273Y-96230134D01*
X118929781Y-96226977D01*
X119086977Y-96069781D01*
X119093381Y-96060636D01*
X119211331Y-95892185D01*
X119211332Y-95892183D01*
X119214488Y-95887676D01*
X119216811Y-95882694D01*
X119216814Y-95882689D01*
X119306117Y-95691178D01*
X119306118Y-95691177D01*
X119308440Y-95686196D01*
X119365978Y-95471463D01*
X119385353Y-95250000D01*
X119365978Y-95028537D01*
X119308440Y-94813804D01*
X119306117Y-94808822D01*
X119216814Y-94617311D01*
X119216811Y-94617306D01*
X119214488Y-94612324D01*
X119086977Y-94430219D01*
X118929781Y-94273023D01*
X118925273Y-94269866D01*
X118925270Y-94269864D01*
X118849505Y-94216813D01*
X118747677Y-94145512D01*
X118742695Y-94143189D01*
X118742690Y-94143186D01*
X118637627Y-94094195D01*
X118584342Y-94047278D01*
X118564881Y-93979001D01*
X118585423Y-93911041D01*
X118637627Y-93865805D01*
X118742690Y-93816814D01*
X118742695Y-93816811D01*
X118747677Y-93814488D01*
X118871500Y-93727786D01*
X118925270Y-93690136D01*
X118925273Y-93690134D01*
X118929781Y-93686977D01*
X119086977Y-93529781D01*
X119214488Y-93347676D01*
X119216811Y-93342694D01*
X119216814Y-93342689D01*
X119306117Y-93151178D01*
X119306118Y-93151177D01*
X119308440Y-93146196D01*
X119365978Y-92931463D01*
X119385353Y-92710000D01*
X119365978Y-92488537D01*
X119308440Y-92273804D01*
X119244770Y-92137263D01*
X119216814Y-92077311D01*
X119216811Y-92077306D01*
X119214488Y-92072324D01*
X119211331Y-92067815D01*
X119090136Y-91894730D01*
X119090134Y-91894727D01*
X119086977Y-91890219D01*
X118929781Y-91733023D01*
X118925273Y-91729866D01*
X118925270Y-91729864D01*
X118849505Y-91676813D01*
X118747677Y-91605512D01*
X118742695Y-91603189D01*
X118742690Y-91603186D01*
X118637627Y-91554195D01*
X118584342Y-91507278D01*
X118564881Y-91439001D01*
X118585423Y-91371041D01*
X118637627Y-91325805D01*
X118742690Y-91276814D01*
X118742695Y-91276811D01*
X118747677Y-91274488D01*
X118871500Y-91187786D01*
X118925270Y-91150136D01*
X118925273Y-91150134D01*
X118929781Y-91146977D01*
X119086977Y-90989781D01*
X119170429Y-90870600D01*
X119211331Y-90812185D01*
X119211332Y-90812183D01*
X119214488Y-90807676D01*
X119216811Y-90802694D01*
X119216814Y-90802689D01*
X119306117Y-90611178D01*
X119306118Y-90611177D01*
X119308440Y-90606196D01*
X119365978Y-90391463D01*
X119385353Y-90170000D01*
X119365978Y-89948537D01*
X119308440Y-89733804D01*
X119306117Y-89728822D01*
X119216814Y-89537311D01*
X119216811Y-89537306D01*
X119214488Y-89532324D01*
X119086977Y-89350219D01*
X118929781Y-89193023D01*
X118925273Y-89189866D01*
X118925270Y-89189864D01*
X118849505Y-89136813D01*
X118747677Y-89065512D01*
X118742695Y-89063189D01*
X118742690Y-89063186D01*
X118637627Y-89014195D01*
X118584342Y-88967278D01*
X118564881Y-88899001D01*
X118585423Y-88831041D01*
X118637627Y-88785805D01*
X118742690Y-88736814D01*
X118742695Y-88736811D01*
X118747677Y-88734488D01*
X118871500Y-88647786D01*
X118925270Y-88610136D01*
X118925273Y-88610134D01*
X118929781Y-88606977D01*
X119086977Y-88449781D01*
X119179791Y-88317229D01*
X119235248Y-88272901D01*
X119283004Y-88263500D01*
X119687800Y-88263500D01*
X119755921Y-88283502D01*
X119775147Y-88299843D01*
X119775420Y-88299540D01*
X119780332Y-88303963D01*
X119784747Y-88308866D01*
X119939248Y-88421118D01*
X119945276Y-88423802D01*
X119945278Y-88423803D01*
X120003626Y-88449781D01*
X120113712Y-88498794D01*
X120207113Y-88518647D01*
X120294056Y-88537128D01*
X120294061Y-88537128D01*
X120300513Y-88538500D01*
X120491487Y-88538500D01*
X120497939Y-88537128D01*
X120497944Y-88537128D01*
X120584887Y-88518647D01*
X120678288Y-88498794D01*
X120788374Y-88449781D01*
X120846722Y-88423803D01*
X120846724Y-88423802D01*
X120852752Y-88421118D01*
X121007253Y-88308866D01*
X121135040Y-88166944D01*
X121230527Y-88001556D01*
X121289542Y-87819928D01*
X121309504Y-87630000D01*
X121289542Y-87440072D01*
X121230527Y-87258444D01*
X121135040Y-87093056D01*
X121007253Y-86951134D01*
X120852752Y-86838882D01*
X120846724Y-86836198D01*
X120846722Y-86836197D01*
X120684319Y-86763891D01*
X120684318Y-86763891D01*
X120678288Y-86761206D01*
X120584887Y-86741353D01*
X120497944Y-86722872D01*
X120497939Y-86722872D01*
X120491487Y-86721500D01*
X120300513Y-86721500D01*
X120294061Y-86722872D01*
X120294056Y-86722872D01*
X120207113Y-86741353D01*
X120113712Y-86761206D01*
X120107682Y-86763891D01*
X120107681Y-86763891D01*
X119945278Y-86836197D01*
X119945276Y-86836198D01*
X119939248Y-86838882D01*
X119784747Y-86951134D01*
X119780332Y-86956037D01*
X119775420Y-86960460D01*
X119774295Y-86959211D01*
X119720986Y-86992051D01*
X119687800Y-86996500D01*
X119283004Y-86996500D01*
X119214883Y-86976498D01*
X119179791Y-86942771D01*
X119090136Y-86814730D01*
X119090134Y-86814727D01*
X119086977Y-86810219D01*
X118929781Y-86653023D01*
X118925273Y-86649866D01*
X118925270Y-86649864D01*
X118849505Y-86596813D01*
X118747677Y-86525512D01*
X118742695Y-86523189D01*
X118742690Y-86523186D01*
X118637627Y-86474195D01*
X118584342Y-86427278D01*
X118564881Y-86359001D01*
X118585423Y-86291041D01*
X118637627Y-86245805D01*
X118742690Y-86196814D01*
X118742695Y-86196811D01*
X118747677Y-86194488D01*
X118884762Y-86098500D01*
X118925270Y-86070136D01*
X118925273Y-86070134D01*
X118929781Y-86066977D01*
X119086977Y-85909781D01*
X119214488Y-85727676D01*
X119216811Y-85722694D01*
X119216814Y-85722689D01*
X119306117Y-85531178D01*
X119306118Y-85531177D01*
X119308440Y-85526196D01*
X119365978Y-85311463D01*
X119385353Y-85090000D01*
X119365978Y-84868537D01*
X119308440Y-84653804D01*
X119240334Y-84507750D01*
X119229673Y-84437558D01*
X119258653Y-84372746D01*
X119318073Y-84333889D01*
X119354529Y-84328500D01*
X129587076Y-84328500D01*
X129655197Y-84348502D01*
G37*
%TD.AperFunction*%
%TD*%
M02*
