M48
; DRILL file {KiCad (6.0.7)} date Tue Aug  2 21:03:51 2022
; FORMAT={-:-/ absolute / metric / decimal}
; #@! TF.CreationDate,2022-08-02T21:03:51-07:00
; #@! TF.GenerationSoftware,Kicad,Pcbnew,(6.0.7)
; #@! TF.FileFunction,Plated,1,2,PTH
FMAT,2
METRIC
; #@! TA.AperFunction,Plated,PTH,ViaDrill
T1C0.400
; #@! TA.AperFunction,Plated,PTH,ComponentDrill
T2C0.750
; #@! TA.AperFunction,Plated,PTH,ComponentDrill
T3C0.762
; #@! TA.AperFunction,Plated,PTH,ComponentDrill
T4C1.100
%
G90
G05
T1
X120.358Y-105.918
X120.396Y-87.63
X121.412Y-102.616
X121.666Y-106.934
X122.936Y-110.998
X126.492Y-97.282
X128.27Y-111.506
X128.778Y-105.918
X128.855Y-103.298
X129.286Y-106.934
X130.302Y-111.506
X130.81Y-99.314
X130.81Y-101.092
X131.568Y-97.532
X131.826Y-101.092
T2
X124.906Y-91.546
X126.906Y-91.546
T3
X118.11Y-85.09
X118.11Y-87.63
X118.11Y-90.17
X118.11Y-92.71
X118.11Y-95.25
X118.11Y-97.79
X118.11Y-100.33
X118.11Y-102.87
X118.11Y-105.41
X118.11Y-107.95
X118.11Y-110.49
X118.11Y-113.03
X118.11Y-115.57
X118.11Y-118.11
X133.35Y-85.09
X133.35Y-87.63
X133.35Y-90.17
X133.35Y-92.71
X133.35Y-95.25
X133.35Y-97.79
X133.35Y-100.33
X133.35Y-102.87
X133.35Y-105.41
X133.35Y-107.95
X133.35Y-110.49
X133.35Y-113.03
X133.35Y-115.57
X133.35Y-118.11
T4
X121.92Y-121.92
X121.92Y-124.46
X121.92Y-127.0
X121.92Y-129.54
X129.54Y-121.915
X129.54Y-124.455
X129.54Y-126.995
X129.54Y-129.535
T0
M30
